<svg width="137" height="150" viewBox="0 0 137 150" fill="none" xmlns="http://www.w3.org/2000/svg">
<g filter="url(#filter0_b_626_2597)">
<path d="M41.7439 120.708C85.4562 118.896 134.316 123.363 136.506 132.943C139.079 144.194 95.7673 145.204 95.7673 145.204C91.0314 152.583 2.00958 152.331 13.1484 138.178C-8.28029 136.803 -2.64183 122.548 41.7439 120.708Z" fill="#0B8921"/>
</g>
<path d="M32.6821 83.4918C33.4404 78.8219 31.2316 72.5565 28.1952 72.7152C24.8489 72.8911 26.5147 79.9559 30.4495 84.5292" fill="#0089CE"/>
<path d="M34.038 81.915C31.6816 82.4256 27.5188 88.1582 28.7326 88.4701C30.5719 88.9443 34.5193 85.5687 34.3924 82.0252" fill="#87AA3A"/>
<path d="M33.6908 83.2193C32.7459 82.8528 29.6898 87.4762 30.2065 87.7588C31.2454 88.3265 34.7783 83.641 33.6908 83.2193Z" fill="#A5C64A"/>
<path d="M31.5178 83.2244C31.3671 81.8351 28.1537 73.6222 23.8868 75.555C19.8003 77.4063 22.9869 83.5692 22.9869 83.5692C22.9869 83.5692 17.7366 83.3872 18.6112 87.2102C19.4864 91.0333 26.9793 88.7325 28.6735 87.5661C30.6371 86.1253 31.6588 84.5398 31.5178 83.2244Z" fill="#239DF9"/>
<path d="M30.1593 86.2623C31.5769 84.4868 28.0916 78.0767 25.4611 79.5702C22.1709 81.4387 28.8873 87.8548 30.1593 86.2623Z" fill="#00E8C6"/>
<path d="M27.9221 86.7921C27.141 84.9979 21.8715 84.5692 22.3357 86.9433C22.8003 89.3174 28.3225 87.7108 27.9221 86.7921Z" fill="#00E8C6"/>
<path d="M23.7791 76.47C24.9894 75.784 26.6826 78.7668 25.0117 79.3305C23.7356 79.7608 22.3337 77.2896 23.7791 76.47Z" fill="#00E8C6"/>
<path d="M26.8297 77.2683C27.3782 77.0686 28.3383 78.507 27.4136 78.8937C26.4899 79.2815 26.3362 77.4473 26.8297 77.2683Z" fill="#00E8C6"/>
<path d="M36.6048 74.2906C35.8965 74.966 37.575 75.8042 38.1776 74.5818C38.6361 73.652 37.8075 72.0277 36.1968 72.7066C34.1179 73.5823 33.4945 76.9721 33.6745 78.3811" stroke="#754423" stroke-width="8.606" stroke-miterlimit="10" stroke-linecap="round" stroke-linejoin="round"/>
<path d="M32.2413 73.7724C32.1736 74.7481 33.9784 74.236 33.5992 72.9255C33.3116 71.9316 31.6033 71.2905 30.8712 72.877C29.9273 74.9256 31.7524 77.8492 32.8358 78.7683" stroke="#754423" stroke-width="8.606" stroke-miterlimit="10" stroke-linecap="round" stroke-linejoin="round"/>
<path d="M33.2205 78.3543C35.264 77.4074 38.496 80.4301 34.9728 82.2987C31.7144 84.0272 30.454 79.6364 33.2205 78.3543Z" fill="#9BBF37"/>
<path d="M33.5895 78.4564C34.863 77.7876 37.3494 79.9827 35.359 81.3341C33.3696 82.687 31.4474 79.5818 33.5895 78.4564Z" fill="#BAD84E"/>
<path d="M34.3227 81.1445C34.3292 81.0211 35.6412 80.2921 35.6735 80.3543C35.7206 80.4458 35.4339 80.6885 35.4339 80.6885C35.4339 80.6885 35.4081 81.419 35.2888 81.5328C35.0436 81.7658 34.3161 81.2678 34.3227 81.1445Z" fill="#D64343"/>
<path d="M35.1452 79.0752C35.3712 79.0257 36.0598 79.5464 35.5805 79.8518C35.0512 80.1885 34.8201 79.148 35.1452 79.0752Z" fill="#512100"/>
<path d="M33.402 79.9807C33.5895 79.9908 34.361 80.5864 33.7579 80.8366C33.1558 81.0848 33.0557 79.964 33.402 79.9807Z" fill="#512100"/>
<path d="M35.3525 79.5879C35.4693 79.5747 35.6058 79.6961 35.4572 79.7572C35.3091 79.8204 35.2863 79.5949 35.3525 79.5879Z" fill="white"/>
<path d="M33.7043 80.5353C33.8216 80.5232 33.9571 80.643 33.809 80.7062C33.6603 80.7674 33.6376 80.5429 33.7043 80.5353Z" fill="white"/>
<path d="M22.5572 84.2638C17.8999 84.3953 18.086 88.096 21.5354 88.4494C19.317 87.3629 20.273 84.9372 22.5572 84.2638Z" fill="#00E8C6"/>
<path d="M41.029 118.546C84.7107 116.731 133.537 121.206 135.725 130.806C138.296 142.08 95.0146 143.092 95.0146 143.092C90.282 150.486 1.32252 150.233 12.4535 136.051C-8.96014 134.674 -3.32563 120.389 41.029 118.546Z" fill="#728B42"/>
<path d="M111.497 126.225C101.514 117.082 50.7142 115.879 26.6615 119.089C17.0269 120.374 16.3884 125.595 19.8353 129.096C30.3849 139.813 75.2785 142.791 99.2286 138.119C110.821 135.857 117.124 131.378 111.497 126.225Z" fill="#7EA81A"/>
<path d="M109.2 125.536C96.1485 116.654 12.7507 116.975 23.8034 127.204C31.402 134.235 60.6691 139.779 83.2597 138.727C103.356 137.79 117.181 130.968 109.2 125.536Z" fill="#6E9307"/>
<path d="M116.634 123.148C118.927 124.229 121.944 120.903 121.944 120.903C119.098 118.996 116.243 119.765 116.012 122.49C116.355 117.754 112.83 115.728 111.209 115.378C109.808 118.65 112.682 122.419 115.312 122.683" fill="#94C437"/>
<path d="M41.0507 138.377C47.4153 137.376 42.4441 126.806 39.482 137.562C37.3308 127.378 30.5744 131.842 35.807 137.562" fill="#94C437"/>
<path d="M42.1953 147.203C31.3909 142.073 40.8085 137.988 41.7307 145.575C40.1073 136.912 49.3915 138.863 43.8869 145.666C51.0553 142.927 49.6145 148.651 43.1255 147.33" fill="#ADDD3A"/>
<path d="M18.0915 122.725C14.4576 122.308 12.3428 125.316 13.2609 126.098C14.6562 127.288 17.1092 123.318 18.8362 123.34C16.774 124.442 15.8231 127.754 18.6229 127.717C21.4217 127.682 20.0491 123.488 20.0491 123.488C21.7195 124.517 23.1351 126.852 24.9414 126.302C26.7478 125.751 25.761 123.773 20.3812 122.758C22.9778 122.273 27.7053 123.668 27.2033 122.034C26.7008 120.399 23.1947 120.008 20.0051 122.125C20.7134 120.402 16.9561 121.09 16.3276 121.774C15.7007 122.457 17.9783 122.221 18.0915 122.725Z" fill="#FFFF94"/>
<path d="M19.1659 122.204C18.0592 122.357 17.9404 123.573 19.4217 123.354C20.9035 123.134 20.2938 122.048 19.1659 122.204Z" fill="#FF7C24"/>
<path d="M20.2853 117.839C18.6998 117.647 18.4081 119.728 19.9935 119.921C21.5805 120.114 21.8727 118.032 20.2853 117.839Z" fill="#FFFF94"/>
<path d="M16.3787 119.762C15.7442 119.684 15.6275 120.518 16.2619 120.596C16.8969 120.673 17.0137 119.839 16.3787 119.762Z" fill="#FFFF94"/>
<path d="M92.908 129.594C92.908 129.594 103.339 130.196 107.47 128.398C111.6 126.599 112.665 120.537 110.943 119.112C108.091 116.755 100.727 116.675 99.1249 117.378" fill="#EF7320"/>
<path d="M102.995 117.458C105.601 117.491 110.701 118.168 110.596 120.107C110.492 122.046 104.584 122.75 100.364 122.088" fill="#FC983D"/>
<path d="M75.7057 76.9003C79.8877 83.3776 83.8407 101.013 76.5374 102.578C66.8674 104.651 64.3073 91.1749 48.2758 94.4378C32.2449 97.7007 22.4521 123.597 39.3875 125.435C56.3239 127.272 81.4393 138.534 93.8706 129.971C106.303 121.41 106.215 111.884 99.7847 96.6385C93.3554 81.3902 93.9657 73.1718 94.6785 68.1308C96.3448 56.3491 69.8508 67.832 75.7057 76.9003Z" fill="#EF7320"/>
<path d="M83.1976 94.0672C83.5258 100.429 77.5712 107.342 69.278 101.973C60.9842 96.6041 52.7197 90.7522 45.3233 97.7553C38.8466 103.887 52.5099 112.606 62.0262 116.216C71.5429 119.827 86.2315 120.968 89.1001 113.418C91.9692 105.868 84.8852 94.8534 83.1976 94.0672Z" fill="#FC983D"/>
<path d="M40.4102 124.967C44.936 125.961 55.9881 130.723 69.2546 133.01C77.2122 134.381 87.3614 133.151 93.2431 131.621C108.928 127.54 105.611 108.444 101.964 99.7755C98.3174 91.1077 95.9479 83.2148 95.4307 77.143L84.9529 82.5505C85.8371 91.3018 94.5768 110.574 89.9787 118.824C87.9675 122.435 81.4397 124.681 73.9755 124.638C64.3779 124.583 53.1064 123.134 48.4572 117.047" fill="#EAC986"/>
<path d="M65.742 119.028C63.2425 124.102 66.1156 131.131 74.7532 131.98C82.1986 134.524 87.9332 135.411 92.9257 133.342C97.9166 131.272 88.4317 122.797 80.503 119.69" fill="#EF7320"/>
<path d="M87.7143 118.511C88.5935 120.32 94.7735 124.915 96.1385 128.839C97.9535 134.058 94.3377 138.263 89.7174 136.847C83.4287 134.92 69.0939 136.031 69.0939 136.031C63.9088 136.699 67.4822 125.913 70.875 128.721C73.9134 131.237 82.9251 130.691 85.9934 130.925" fill="#EF7320"/>
<path d="M53.2136 116.294C49.0989 125.211 33.8829 127.678 28.6913 125.072C26.6235 124.035 25.0725 120.463 26.9612 117.267C29.8146 112.438 33.8551 105.947 41.2727 104.538" fill="#EF7320"/>
<path d="M48.5482 125.533C55.21 121.314 58.6347 130.492 57.8642 132.394C57.6201 133 55.2212 132.308 55.2212 132.308C55.2212 132.308 57.3076 133.185 57.1893 133.886C55.7919 136.463 50.7944 135.092 50.0583 132.849" fill="#7A2110"/>
<path d="M34.1276 121.884C36.2853 123.601 44.5846 125.019 47.0634 124.816C50.0528 124.57 50.5255 124.628 51.4492 125.667C53.018 127.432 53.1398 133.565 51.026 132.954C45.619 131.391 36.0851 128.429 29.5113 128.257C27.7777 128.212 23.2089 124.537 23.8363 121.548C24.2185 119.727 26.9309 117.895 28.0128 115.679" fill="#EF7320"/>
<path d="M70.8749 128.72C70.8749 128.72 68.9158 126.315 67.3304 126.071C65.7449 125.829 59.7626 129.541 59.4259 131.916C59.7788 132.97 62.0255 132.778 62.0255 132.778C62.0255 132.778 59.481 133.394 59.5902 133.918C60.0619 135.609 63.8481 137.959 68.2237 136.136C66.3071 135.496 66.7844 129.151 70.8749 128.72Z" fill="#7A2110"/>
<path d="M88.3529 92.7032C91.4116 100.826 93.5107 111.344 92.4783 116.833C92.4338 122.011 100.872 124.783 103.413 120.189C105.844 115.79 102.81 99.0794 97.6664 93.7255C94.6689 90.6061 88.3529 92.7032 88.3529 92.7032Z" fill="#FFE7AE"/>
<path d="M71.149 118.661C66.7804 122.615 73.4463 128.289 80.649 129.087C87.8523 129.884 93.1627 132.352 94.6279 129.452C95.6501 127.429 90.3023 120.403 83.0277 117.993C75.7537 115.584 72.877 117.097 71.149 118.661Z" fill="#FC983D"/>
<path d="M70.593 129.334C68.8447 129.601 67.8437 131.743 68.501 133.056C69.4438 134.004 74.2624 133.647 78.9222 133.663C83.5814 133.68 88.3721 133.44 87.9783 132.004C87.6719 130.891 74.7533 131.98 70.593 129.334Z" fill="#FC983D"/>
<path d="M69.9563 128.44C70.5514 128.329 67.8739 126.563 67.0868 126.521C64.4194 127.076 61.7526 128.649 60.8385 130.488C62.198 131.242 66.1798 131.516 66.6687 131.391C67.1206 130.005 69.0089 128.615 69.9563 128.44Z" fill="#994D2B"/>
<path d="M59.8921 133.96C59.5979 134.597 62.792 134.021 63.561 133.658C63.0135 133.471 61.6697 133.115 61.6697 133.115C61.6697 133.115 60.0438 133.632 59.8921 133.96Z" fill="#994D2B"/>
<path d="M51.7854 125.114C52.8708 126.035 53.3946 128.719 53.4856 129.419C54.159 130.24 57.4472 131.099 57.5923 130.632C56.8714 128.007 55.0225 124.694 51.7854 125.114Z" fill="#994D2B"/>
<path d="M54.8533 132.539C54.9529 132.935 56.2471 134.748 56.9726 133.745C56.6232 133.083 54.8533 132.539 54.8533 132.539Z" fill="#994D2B"/>
<path d="M94.0515 128.227C90.4721 128.627 91.8498 133.931 94.4803 133.448C97.1107 132.967 96.2861 127.976 94.0515 128.227Z" fill="#FC983D"/>
<path d="M109.372 119.293C105.783 119.589 106.622 125.051 109.252 124.569C111.882 124.088 112.09 119.069 109.372 119.293Z" fill="#FC983D"/>
<path d="M43.1671 104.527C36.5588 105.783 33.8187 108.282 30.6781 113.237C27.5376 118.193 27.1382 119.389 25.4653 120.689C23.7924 121.988 27.0037 125.557 28.6882 123.537C30.3733 121.519 31.7767 120.521 38.4001 119.208C45.023 117.895 49.3208 116.726 50.2884 111.805C51.2207 107.069 46.4077 103.912 43.1671 104.527Z" fill="#FC983D"/>
<path d="M41.5842 98.2159C44.569 92.5869 39.6974 88.6663 36.9927 88.5869C37.7364 89.4676 38.0099 90.7158 38.0099 90.7158C36.4138 88.2795 33.3465 88.5596 32.8541 85.5399C29.9663 88.0106 29.3673 93.1926 30.3844 96.2801C29.4112 95.3589 28.8091 94.6456 28.8096 92.5712C26.1822 98.8574 29.341 106.307 39.338 101.248" fill="#EF7320"/>
<path d="M36.8876 96.6734C38.3158 95.9277 38.2814 90.866 35.6019 89.2674C32.923 87.6688 32.6029 86.3366 32.6029 86.3366C29.0564 92.9059 33.5928 98.3923 36.8876 96.6734Z" fill="#FC983D"/>
<path d="M39.5594 100.337C34.3723 103.584 28.2797 103.752 28.6781 95.228C29.4021 97.2523 32.0057 98.3144 32.0057 98.3144C30.0507 94.7502 29.9688 92.4464 31.3247 88.6147C31.6544 93.822 34.5998 98.043 36.7626 98.5409C34.6286 99.7604 33.259 98.4616 33.259 98.4616C33.9132 99.9611 36.3071 100.663 39.8192 99.7993" fill="#FFE7AE"/>
<path d="M40.3592 95.1203C42.5676 94.3372 41.5549 90.6193 38.6671 89.5818C38.5933 91.6531 38.43 95.8058 40.3592 95.1203Z" fill="#FC983D"/>
<path d="M59.7556 97.3756C56.5978 96.1168 56.5513 97.5905 59.4861 99.5839C62.4158 101.58 62.9067 98.639 59.7556 97.3756Z" fill="#FFE7AE"/>
<path d="M68.2506 103.52C66.2106 102.423 62.8678 104.223 67.2061 106.158C71.5459 108.09 72.0201 105.561 68.2506 103.52Z" fill="#FFE7AE"/>
<path d="M59.8522 103.311C58.0817 102.292 56.5387 103.723 58.8026 105.219C61.06 106.718 63.9644 105.69 59.8522 103.311Z" fill="#FFE7AE"/>
<path d="M53.5782 97.3306C51.4022 96.2351 49.8744 97.7922 52.7991 99.4176C55.7288 101.044 56.3653 98.73 53.5782 97.3306Z" fill="#FFE7AE"/>
<path d="M75.3512 104.711C73.7476 104.371 72.7253 106.235 75.1945 106.536C77.6642 106.838 78.1162 105.295 75.3512 104.711Z" fill="#FFE7AE"/>
<path d="M66.6263 108.134C65.5894 107.75 63.7254 108.343 65.9306 109.503C68.1394 110.662 68.3629 108.76 66.6263 108.134Z" fill="#FFE7AE"/>
<path d="M32.9891 122.619C31.5932 122.255 28.7378 124.109 32.2232 125.221C36.3612 126.54 47.4912 128.108 48.8719 129.474C50.2531 130.84 51.6499 131.442 51.653 129.046C51.656 126.65 51.4361 125.098 48.8345 125.373C46.2333 125.648 36.3556 123.497 32.9891 122.619Z" fill="#FC983D"/>
<path d="M106.024 134.565C110.42 131.684 121.581 129.354 121.468 137.436C120.001 134.509 106.361 135.668 106.361 135.668C112.926 136.67 120.261 137.956 117.349 145.316C113.474 145.531 107.991 137.164 105.423 135.834" fill="#C0EA3B"/>
<path d="M103.106 134.965C98.964 135.094 97.19 138.831 98.367 139.56C100.16 140.671 102.124 136.177 104.059 135.918C101.97 137.496 101.554 141.385 104.675 140.883C107.796 140.38 105.442 135.884 105.442 135.884C107.029 136.783 108.877 139.742 111.118 138.603C113.006 137.643 112.053 135.046 105.672 135.008C108.479 134.033 114.033 134.823 113.153 133.066C112.272 131.31 108.278 131.447 105.128 134.357C105.827 131.188 101.659 131.26 100.502 133.037C99.9337 133.911 102.882 134.417 103.106 134.965Z" fill="#FFFF94"/>
<path d="M104.257 134.477C105.271 134.04 106.083 135.004 104.716 135.577C103.348 136.149 103.223 134.923 104.257 134.477Z" fill="#FF7C24"/>
<path d="M99.8402 128.152C100.815 128.152 100.815 129.44 99.8402 129.44C98.8645 129.44 98.8645 128.152 99.8402 128.152Z" fill="#FFFF94"/>
<path d="M97.6966 132.707C99.5945 132.707 99.5945 135.217 97.6966 135.217C95.7987 135.217 95.7987 132.707 97.6966 132.707Z" fill="#FFFF94"/>
<path d="M124.016 125.663C125.914 125.663 125.914 128.173 124.016 128.173C122.118 128.173 122.118 125.663 124.016 125.663Z" fill="#FFFF94"/>
<path d="M77.743 137.897C74.5382 137.477 72.6732 140.506 73.4836 141.292C74.7141 142.492 76.8769 138.494 78.4002 138.516C76.5822 139.625 75.7435 142.96 78.2126 142.923C80.6803 142.888 79.4695 138.664 79.4695 138.664C80.9432 139.7 82.1909 142.052 83.7845 141.497C85.3775 140.943 84.5069 138.952 79.7632 137.93C82.0529 137.442 86.2218 138.846 85.7794 137.201C85.3355 135.556 82.244 135.162 79.431 137.293C80.0554 135.558 76.742 136.251 76.1884 136.939C75.6348 137.628 77.6429 137.389 77.743 137.897Z" fill="#FFFF94"/>
<path d="M78.6908 137.372C77.7151 137.526 77.6099 138.75 78.9163 138.53C80.2226 138.309 79.6847 137.216 78.6908 137.372Z" fill="#FF7C24"/>
<path d="M79.6778 132.977C78.2799 132.783 78.0221 134.879 79.4205 135.074C80.8199 135.268 81.0777 133.173 79.6778 132.977Z" fill="#FFFF94"/>
<path d="M76.2329 134.914C75.6733 134.836 75.5701 135.676 76.1298 135.753C76.6899 135.831 76.7931 134.991 76.2329 134.914Z" fill="#FFFF94"/>
<path d="M16.6412 138.45C16.7494 134.588 11.1705 128.608 7.88184 130.494C14.6589 125.331 19.3485 132.975 18.7221 138.161C18.3612 134.418 21.5958 127.808 26.9896 130.122C32.3825 132.439 20.6989 135.478 20.1584 138.903C24.024 137.191 31.2141 135.877 32.293 142.205C30.7637 141.178 22.2742 141.641 19.1696 138.776" fill="#C0EA3B"/>
<path d="M20.1588 138.902C25.1472 138.937 27.4349 143.379 26.0456 144.289C23.9348 145.68 21.3731 139.872 19.0359 139.615C21.6128 141.455 22.27 146.12 18.494 145.606C14.7199 145.095 17.3696 139.615 17.3696 139.615C14.9176 140.739 12.5627 143.682 10.2265 142.634C7.89077 141.586 9.59856 139.058 17.0592 138.567C13.6431 137.478 6.99238 138.593 7.97975 136.453C8.96913 134.312 13.7801 134.361 17.6876 137.769C17.0576 135.308 22.0031 136.865 22.722 137.899C23.4394 138.935 20.4075 138.235 20.1588 138.902Z" fill="#FFFF94"/>
<path d="M18.8063 138.015C20.2714 138.406 20.2022 140.081 18.2426 139.538C16.2825 138.994 17.3118 137.617 18.8063 138.015Z" fill="#FF7C24"/>
<path d="M17.3914 131.802C19.5698 131.802 19.5698 134.683 17.3914 134.683C15.2109 134.683 15.2109 131.802 17.3914 131.802Z" fill="#FFFF94"/>
<path d="M12.4357 126.568C13.7436 126.568 13.7436 128.294 12.4357 128.294C11.1303 128.294 11.1303 126.568 12.4357 126.568Z" fill="#FFFF94"/>
<path d="M25.2755 135.429C26.1476 135.429 26.1476 136.583 25.2755 136.583C24.4029 136.582 24.4029 135.429 25.2755 135.429Z" fill="#FFFF94"/>
<path d="M108.512 132.606C110.116 133.447 108.463 135.072 107.198 134.569C105.932 134.067 106.419 131.511 108.512 132.606Z" fill="#FFFF94"/>
<path d="M72.6114 53.0296C64.7651 49.1079 64.2615 41.3885 67.7949 34.4132C68.7484 32.7656 68.8268 31.0482 69.576 30.3682C70.3207 29.6862 89.5033 36.3637 79.57 53.11" fill="#B74B02"/>
<path d="M70.1524 31.8075C70.705 30.2727 78.2986 33.4092 78.8436 37.3399C79.3886 41.2702 70.5139 42.9588 69.3713 41.1514C67.6944 38.4982 69.3309 34.0892 70.1524 31.8075Z" fill="#CE5B0D"/>
<path d="M86.9032 45.9992C84.8455 40.8789 81.8466 36.979 91.2101 27.1134C100.576 17.262 103.262 7.0698 89.3203 0.375631C85.9446 -1.33823 81.2919 3.22903 85.3547 5.68658C89.4153 8.13856 97.7961 11.2296 88.4927 22.4243C88.2682 18.5552 85.8562 13.1259 81.659 13.2073C79.4138 13.2498 77.1478 15.6639 79.9117 17.8798C82.6711 20.0962 87.1115 24.3388 83.7556 28.3641C82.8607 25.1412 76.4648 23.5173 75.0942 25.3869C72.7889 28.5163 78.3334 28.8495 79.7161 31.1154C81.3597 33.8146 78.8688 41.8688 83.301 47.3804" fill="#7A3C0E"/>
<path d="M84.5519 1.60365C82.4437 3.49648 85.5857 5.31499 89.0863 7.24827C92.5888 9.18002 93.8133 11.6077 94.2557 12.9925C94.698 14.3787 96.5989 14.7918 95.9933 10.6108C95.3886 6.43077 87.2713 -0.837216 84.5519 1.60365Z" fill="#AF5D25"/>
<path d="M79.2379 14.221C77.8228 15.454 83.0084 20.3707 84.4108 19.5087C85.8132 18.6477 82.6707 11.2255 79.2379 14.221Z" fill="#AF5D25"/>
<path d="M54.6816 82.7153C53.126 74.3972 60.7448 80.5024 60.3757 71.0529C59.9273 59.5969 62.7762 46.4209 79.9355 44.3693C93.9052 42.6989 101.5 48.5437 103.692 60.6312C105.889 72.7405 97.6959 84.8543 88.7363 87.2239C79.5088 89.6653 70.6857 86.9499 66.8409 87.6203C60.9673 88.6425 55.3939 86.5262 54.6816 82.7153Z" fill="#EF7320"/>
<path d="M85.5205 46.0842C97.4129 50.1297 101.071 67.473 91.929 77.8821C83.5832 87.3852 64.304 84.6172 60.9542 79.6096C57.6033 74.604 61.393 78.6864 60.6948 66.8724C59.9658 54.5387 71.7697 41.4062 85.5205 46.0842Z" fill="#FC983D"/>
<path d="M63.3813 56.156C67.9001 49.3273 80.3369 51.8147 76.6949 64.1141C73.0518 76.4144 61.7276 72.8249 60.7595 68.7466C60.1053 65.9897 62.2322 57.8921 63.3813 56.156Z" fill="#FFAE55"/>
<path d="M70.4345 75.9559C68.208 73.9195 68.9982 58.067 75.4841 54.7071C81.971 51.3476 91.3204 62.5994 89.7178 69.4493C88.1151 76.2992 75.0766 80.2032 70.4345 75.9559Z" fill="#FFE7AE"/>
<path d="M73.4114 55.6095C77.3027 53.7566 83.6506 56.0059 84.825 57.9664C81.7754 52.6681 77.4726 52.153 73.4114 55.6095Z" fill="#592400"/>
<path d="M72.113 75.6333C70.8269 74.1035 72.4219 64.8663 77.1393 63.9872C85.5049 62.427 86.8856 67.9412 85.2764 71.5858C83.4225 75.786 73.1044 76.8148 72.113 75.6333Z" fill="#FFB8B8"/>
<path d="M72.3698 75.4048C71.2343 74.055 72.3891 66.469 76.2925 65.3284C82.3674 63.5534 85.2956 69.3421 83.3158 72.3755C81.0817 75.7966 73.246 76.4488 72.3698 75.4048Z" fill="white"/>
<path d="M84.4816 66.2076C85.57 68.655 86.3739 73.8881 78.1079 75.558C85.8011 74.5287 87.4194 70.0509 85.7986 66.0377" fill="#87400F"/>
<path d="M73.3688 67.0898C76.115 63.2516 82.7505 68.6758 79.9401 74.8406C77.9679 76.0484 73.023 76.1359 72.3212 75.1515C71.2585 72.5403 72.1079 68.8512 73.3688 67.0898Z" fill="#08A9BF"/>
<path d="M72.5771 68.5903C73.4876 66.7076 75.434 67.1939 77.109 70.149C78.7045 72.9634 77.5306 75.0094 76.0478 75.5378C74.8577 75.9619 72.611 75.7415 72.1838 75.2552C71.7566 74.7683 71.4183 70.8583 72.5771 68.5903Z" fill="#004254"/>
<path d="M72.0651 70.0357C74.1889 64.5377 78.9903 62.2258 84.6046 66.4361C88.2982 66.429 89.1248 62.8633 89.1248 62.8633C87.5126 65.2647 85.2153 64.4108 85.2153 64.4108C81.1334 61.1292 73.7461 61.7839 72.0651 70.0357Z" fill="#592400"/>
<path d="M81.4306 72.5155C81.2739 71.2683 77.5625 71.9594 77.7582 73.1227C77.9554 74.2865 81.5868 73.7648 81.4306 72.5155Z" fill="white"/>
<path d="M72.1267 69.8841C72.7223 69.0595 74.0868 69.8654 73.2319 70.8527C72.376 71.8381 71.6727 70.516 72.1267 69.8841Z" fill="white"/>
<path d="M81.1873 44.9229C78.891 37.0244 69.5234 40.4441 66.7064 42.6069C68.2342 41.7444 70.9567 43.0589 70.9567 43.0589C66.8803 43.6478 62.81 46.4456 62.2681 49.8319C66.3075 46.251 68.5492 47.2469 68.5492 47.2469C64.2635 50.6069 64.668 54.4442 66.5957 56.4993C67.0578 54.0574 72.1008 48.9148 74.7924 48.3481" fill="#EF7320"/>
<path d="M79.9496 46.0685C80.1948 41.39 73.2899 38.6837 68.9208 41.3278C72.12 40.4982 75.0755 44.7278 75.0755 44.7278C70.985 43.337 69.0588 46.4527 66.9531 51.5893C70.5376 47.4527 73.7919 47.748 75.4734 48.9366" fill="#FC983D"/>
<path d="M58.7054 75.8199C64.0229 76.959 70.6331 81.8695 66.2792 87.7765C61.8535 88.7214 57.1432 87.5682 55.0324 83.7957C52.9217 80.0232 55.4156 76.8007 58.7054 75.8199Z" fill="#FCD797"/>
<path d="M61.847 78.6101C63.1797 80.5626 60.4365 85.9034 56.1958 85.3685C54.3884 83.912 54.0679 81.5292 54.5022 80.1455C55.8313 81.7932 60.2039 80.6996 61.847 78.6101Z" fill="#FFE7AE"/>
<path d="M58.7958 74.8785C64.7286 76.4155 60.3605 80.5585 56.2457 79.6622C53.3731 79.0363 54.182 73.6839 58.7958 74.8785Z" fill="#7A2110"/>
<path d="M96.3174 62.108C118.707 66.378 121.831 43.0341 120.848 42.438C119.865 41.8328 117.818 42.3718 115.645 41.89C106.564 40.4233 97.0469 43.7237 94.7698 54.1701C94.1935 56.8152 93.8841 61.6454 96.3174 62.108Z" fill="#FC983D"/>
<path d="M99.2136 57.699C101.548 48.7242 109.341 46.0831 117.479 45.7854C115.506 53.4163 109.44 63.384 99.2136 57.699Z" fill="#F96464"/>
<path d="M115.669 42.8698C108.043 40.1124 96.8189 44.0513 99.4645 51.7834C105.781 44.7136 115.669 42.8698 115.669 42.8698Z" fill="#FFBC69"/>
<path d="M116.622 47.0907C116.48 48.8031 111.981 59.6302 104.542 56.7141C104.192 52.345 109.228 46.0958 116.622 47.0907Z" fill="#FF8585"/>
<path d="M87.563 46.4002C88.3451 39.1918 94.7703 33.9496 95.2051 30.7343C95.5701 28.033 89.6762 24.1943 94.2597 22.2807C96.3992 21.3874 101.312 27.6802 99.9801 30.8804C105.038 29.5654 106.375 23.2049 105.664 19.7185C104.949 16.2332 108.353 15.3944 109.902 16.9046C112.246 19.1872 111.711 25.2029 109.468 28.5335C120.13 24.7489 116.876 17.5547 115.327 13.0987C113.78 8.63152 120.152 7.64466 121.641 11.0845C128.04 24.9718 119.656 31.7843 106.412 34.3142C93.1661 36.8556 93.649 42.2581 92.3947 47.7955C92.0746 49.2076 87.3284 48.5625 87.563 46.4002Z" fill="#7A3C0E"/>
<path d="M92.1107 23.1781C90.8968 24.2357 95.3448 28.4536 96.548 27.714C97.7507 26.9759 95.0551 20.6088 92.1107 23.1781Z" fill="#AF5D25"/>
<path d="M116.908 10.314C120.044 8.48893 121.869 15.2948 121.93 19.1432C121.992 22.9941 118.332 26.7858 117.004 25.6154C115.676 24.445 119.864 22.4541 118.674 18.6118C117.484 14.7696 113.93 12.0456 116.908 10.314Z" fill="#AF5D25"/>
<path d="M108.67 17.6412C110.586 17.1326 112.591 22.7054 109.525 23.6422C106.461 24.5785 106.092 18.3242 108.67 17.6412Z" fill="#AF5D25"/>
<path d="M55.441 84.595C57.3435 84.5935 58.4572 84.0571 59.4577 82.0818" stroke="#874916" stroke-width="12.7169" stroke-miterlimit="10" stroke-linecap="round" stroke-linejoin="round"/>
<path d="M56.1533 75.9084C57.3024 75.4979 57.7331 76.6627 56.5668 77.0757C55.3995 77.4883 53.6613 76.7987 56.1533 75.9084Z" fill="#EA6F44"/>
<defs>
<filter id="filter0_b_626_2597" x="-12.9303" y="106.312" width="163.547" height="57.6875" filterUnits="userSpaceOnUse" color-interpolation-filters="sRGB">
<feFlood flood-opacity="0" result="BackgroundImageFix"/>
<feGaussianBlur in="BackgroundImageFix" stdDeviation="7"/>
<feComposite in2="SourceAlpha" operator="in" result="effect1_backgroundBlur_626_2597"/>
<feBlend mode="normal" in="SourceGraphic" in2="effect1_backgroundBlur_626_2597" result="shape"/>
</filter>
</defs>
</svg>
