<svg width="16" height="16" viewBox="0 0 16 16" fill="none" xmlns="http://www.w3.org/2000/svg">
<path fill-rule="evenodd" clip-rule="evenodd" d="M2.33386 9.19133V9.04534C2.35528 8.61342 2.49371 8.19491 2.73488 7.83299C3.13631 7.39823 3.41112 6.86546 3.53046 6.29057C3.53046 5.84625 3.53046 5.39559 3.56926 4.95127C3.76977 2.8122 5.88483 1.33325 7.97402 1.33325H8.02576C10.1149 1.33325 12.23 2.8122 12.437 4.95127C12.4758 5.39559 12.437 5.84625 12.4693 6.29057C12.5903 6.86679 12.8648 7.40122 13.2649 7.83934C13.5079 8.19806 13.6465 8.61503 13.6659 9.04534V9.18499C13.6804 9.76528 13.4805 10.3311 13.1032 10.7782C12.6046 11.3009 11.9281 11.6261 11.2016 11.6922C9.07131 11.9207 6.922 11.9207 4.79173 11.6922C4.06608 11.6232 3.39049 11.2985 2.89012 10.7782C2.51865 10.3308 2.32147 9.76831 2.33386 9.19133Z" stroke="white" stroke-width="1.5" stroke-linecap="round" stroke-linejoin="round"/>
<path d="M6.36993 13.9011C6.70278 14.3189 7.19157 14.5893 7.72813 14.6524C8.26468 14.7156 8.80476 14.5662 9.22882 14.2375C9.35925 14.1403 9.4766 14.0273 9.5781 13.9011" stroke="white" stroke-width="1.5" stroke-linecap="round" stroke-linejoin="round"/>
</svg>
