<svg width="32" height="32" viewBox="0 0 32 32" fill="none" xmlns="http://www.w3.org/2000/svg">
<path d="M15.9129 31.9992C15.4417 32.008 15.0476 31.8384 14.715 31.505C9.97862 26.744 5.24034 21.985 0.504988 17.224C-0.163269 16.5523 -0.171073 15.5501 0.498159 14.8715C1.97027 13.3789 3.47361 11.9168 4.92816 10.4076C8.13287 7.08227 11.4371 3.85402 14.6789 0.564973C15.4193 -0.186193 16.3988 -0.188154 17.1421 0.558109C20.261 3.69026 23.3994 6.80377 26.488 9.96534C28.0723 11.5863 29.679 13.1828 31.2653 14.8018C31.9989 15.551 32.0067 16.5366 31.2633 17.2828C28.0264 20.5376 24.7866 23.7913 21.5487 27.0451C20.0903 28.5111 18.6318 29.9762 17.1724 31.4412C16.8251 31.7923 16.4202 32.0149 15.9129 31.9992ZM18.4699 19.8344C19.9274 19.8344 21.3839 19.8305 22.8413 19.8384C23.0657 19.8393 23.2325 19.7736 23.3925 19.6118C24.4978 18.49 25.6071 17.3731 26.726 16.2649C26.9133 16.0796 26.9133 15.9688 26.725 15.7854C25.5973 14.6881 24.5203 13.5368 23.374 12.4581C23.2247 12.3179 23.0765 12.2512 22.8716 12.2512C19.9381 12.2561 17.0046 12.2571 14.0721 12.2492C13.7882 12.2483 13.6955 12.3306 13.6974 12.6209C13.7072 14.9028 13.7072 17.1848 13.6974 19.4667C13.6965 19.756 13.7862 19.8423 14.0711 19.8403C15.5364 19.8276 17.0036 19.8344 18.4699 19.8344ZM9.7562 11.1401C9.65279 11.2333 9.58743 11.2863 9.52889 11.3451C8.05678 12.8229 6.58856 14.3056 5.10962 15.7766C4.91256 15.9717 4.92036 16.0855 5.11254 16.2767C6.58466 17.7418 8.04605 19.2166 9.51231 20.6876C9.57572 20.7513 9.62352 20.8445 9.7562 20.8514C9.7562 17.6319 9.7562 14.4164 9.7562 11.1401ZM12.638 8.23354C12.6916 8.24236 12.7287 8.25413 12.7648 8.25413C14.8262 8.25511 16.8865 8.25609 18.9479 8.25413C19.0103 8.25413 19.0991 8.28257 19.1254 8.20706C19.1557 8.12076 19.064 8.07762 19.0133 8.0276C18.0387 7.04599 17.0582 6.06928 16.0905 5.0808C15.9198 4.90624 15.8271 4.95331 15.6827 5.10041C14.7247 6.07222 13.7599 7.03716 12.798 8.00505C12.7385 8.06389 12.6614 8.10998 12.638 8.23354ZM15.9276 23.7766C14.9345 23.7766 13.9404 23.7756 12.9472 23.7776C12.8653 23.7776 12.7531 23.7384 12.7102 23.8197C12.6595 23.9149 12.7755 23.9639 12.8312 24.0188C13.7862 24.9818 14.7462 25.9399 15.6964 26.9078C15.8622 27.0774 15.9695 27.0735 16.1334 26.9058C17.0778 25.9448 18.0309 24.9945 18.9791 24.0374C19.0406 23.9757 19.1664 23.9227 19.1167 23.8178C19.0796 23.7384 18.9616 23.7776 18.8796 23.7776C17.8953 23.7756 16.9109 23.7766 15.9276 23.7766Z" fill="#153853"/>
</svg>
<svg width="32" height="32" viewBox="0 0 32 32" fill="none" xmlns="http://www.w3.org/2000/svg">
<path d="M15.9129 31.9992C15.4417 32.008 15.0476 31.8384 14.715 31.505C9.97862 26.744 5.24034 21.985 0.504988 17.224C-0.163269 16.5523 -0.171073 15.5501 0.498159 14.8715C1.97027 13.3789 3.47361 11.9168 4.92816 10.4076C8.13287 7.08227 11.4371 3.85402 14.6789 0.564973C15.4193 -0.186193 16.3988 -0.188154 17.1421 0.558109C20.261 3.69026 23.3994 6.80377 26.488 9.96534C28.0723 11.5863 29.679 13.1828 31.2653 14.8018C31.9989 15.551 32.0067 16.5366 31.2633 17.2828C28.0264 20.5376 24.7866 23.7913 21.5487 27.0451C20.0903 28.5111 18.6318 29.9762 17.1724 31.4412C16.8251 31.7923 16.4202 32.0149 15.9129 31.9992ZM18.4699 19.8344C19.9274 19.8344 21.3839 19.8305 22.8413 19.8384C23.0657 19.8393 23.2325 19.7736 23.3925 19.6118C24.4978 18.49 25.6071 17.3731 26.726 16.2649C26.9133 16.0796 26.9133 15.9688 26.725 15.7854C25.5973 14.6881 24.5203 13.5368 23.374 12.4581C23.2247 12.3179 23.0765 12.2512 22.8716 12.2512C19.9381 12.2561 17.0046 12.2571 14.0721 12.2492C13.7882 12.2483 13.6955 12.3306 13.6974 12.6209C13.7072 14.9028 13.7072 17.1848 13.6974 19.4667C13.6965 19.756 13.7862 19.8423 14.0711 19.8403C15.5364 19.8276 17.0036 19.8344 18.4699 19.8344ZM9.7562 11.1401C9.65279 11.2333 9.58743 11.2863 9.52889 11.3451C8.05678 12.8229 6.58856 14.3056 5.10962 15.7766C4.91256 15.9717 4.92036 16.0855 5.11254 16.2767C6.58466 17.7418 8.04605 19.2166 9.51231 20.6876C9.57572 20.7513 9.62352 20.8445 9.7562 20.8514C9.7562 17.6319 9.7562 14.4164 9.7562 11.1401ZM12.638 8.23354C12.6916 8.24236 12.7287 8.25413 12.7648 8.25413C14.8262 8.25511 16.8865 8.25609 18.9479 8.25413C19.0103 8.25413 19.0991 8.28257 19.1254 8.20706C19.1557 8.12076 19.064 8.07762 19.0133 8.0276C18.0387 7.04599 17.0582 6.06928 16.0905 5.0808C15.9198 4.90624 15.8271 4.95331 15.6827 5.10041C14.7247 6.07222 13.7599 7.03716 12.798 8.00505C12.7385 8.06389 12.6614 8.10998 12.638 8.23354ZM15.9276 23.7766C14.9345 23.7766 13.9404 23.7756 12.9472 23.7776C12.8653 23.7776 12.7531 23.7384 12.7102 23.8197C12.6595 23.9149 12.7755 23.9639 12.8312 24.0188C13.7862 24.9818 14.7462 25.9399 15.6964 26.9078C15.8622 27.0774 15.9695 27.0735 16.1334 26.9058C17.0778 25.9448 18.0309 24.9945 18.9791 24.0374C19.0406 23.9757 19.1664 23.9227 19.1167 23.8178C19.0796 23.7384 18.9616 23.7776 18.8796 23.7776C17.8953 23.7756 16.9109 23.7766 15.9276 23.7766Z" fill="#153853"/>
</svg>
