<svg width="364" height="228" viewBox="0 0 364 228" fill="none" xmlns="http://www.w3.org/2000/svg">
<path d="M100.695 9.24017L169.768 0.885738L175.329 146.4L131.258 151.73L100.695 9.24017Z" fill="url(#paint0_linear_644_643)"/>
<path d="M261.654 7.57181L192.491 6.97598e-06L188.578 145.568L232.707 150.399L261.654 7.57181Z" fill="url(#paint1_linear_644_643)"/>
<path d="M92.0999 31.7777L34.9206 49.1462L80.9476 165.353L117.43 154.271L92.0999 31.7777Z" fill="url(#paint2_linear_644_643)"/>
<path d="M270.504 30.0106L327.876 46.7306L283.168 163.451L246.562 152.783L270.504 30.0106Z" fill="url(#paint3_linear_644_643)"/>
<path d="M38.0742 86.4412L0.192444 106.113L47.7056 181.699L71.8756 169.147L38.0742 86.4412Z" fill="url(#paint4_linear_644_643)"/>
<path d="M325.145 84.0591L363.247 103.301L316.593 179.419L292.282 167.143L325.145 84.0591Z" fill="url(#paint5_linear_644_643)"/>
<g filter="url(#filter0_d_644_643)">
<path d="M21.0899 175.704C13.0227 161.415 8.98913 154.271 11.1988 149.591C13.4084 144.912 20.5724 143.648 34.9004 141.122L56.8939 137.244C66.1788 135.607 70.8212 134.788 74.2142 137.164C77.6073 139.54 78.4259 144.182 80.063 153.467L87.196 193.92C88.8332 203.205 89.6518 207.848 87.276 211.241C84.9001 214.634 80.2577 215.452 70.9728 217.09L49.1841 220.931C34.8376 223.461 27.6644 224.726 23.9914 221.12C20.3184 217.515 21.6043 209.339 24.1762 192.988C24.7818 189.138 24.9564 185.752 24.417 183.379C23.9338 181.253 22.7253 178.6 21.0899 175.704Z" fill="url(#paint6_linear_644_643)"/>
</g>
<g filter="url(#filter1_d_644_643)">
<path d="M341.579 175.704C349.646 161.415 353.68 154.271 351.47 149.591C349.261 144.912 342.097 143.648 327.769 141.122L305.775 137.244C296.49 135.607 291.848 134.788 288.455 137.164C285.062 139.54 284.243 144.182 282.606 153.467L275.473 193.92C273.836 203.205 273.017 207.848 275.393 211.241C277.769 214.634 282.411 215.452 291.696 217.09L313.485 220.931C327.831 223.461 335.005 224.726 338.678 221.12C342.351 217.515 341.065 209.339 338.493 192.988C337.887 189.138 337.713 185.752 338.252 183.379C338.735 181.253 339.944 178.6 341.579 175.704Z" fill="url(#paint7_linear_644_643)"/>
</g>
<g filter="url(#filter2_d_644_643)">
<path d="M45.917 152.511C45.917 137.083 45.917 129.369 50.8556 123.716C55.7942 118.063 63.0567 117.08 77.5816 115.112C101.377 111.889 137.301 108.379 180.917 108.379C224.533 108.379 260.457 111.889 284.252 115.112C298.777 117.08 306.04 118.063 310.978 123.716C315.917 129.369 315.917 137.083 315.917 152.511V166.764C315.917 187.136 315.917 197.323 309.536 203.256C303.155 209.189 292.923 208.444 272.457 206.955C242.61 204.783 204.301 202.379 180.917 202.379C157.533 202.379 119.224 204.783 89.377 206.955C68.9114 208.444 58.6786 209.189 52.2978 203.256C45.917 197.323 45.917 187.136 45.917 166.764V152.511Z" fill="url(#paint8_linear_644_643)"/>
</g>
<path d="M82.6097 148.619C83.7297 148.619 84.6897 148.833 85.4897 149.259C86.2897 149.686 86.943 150.219 87.4497 150.859C87.983 151.473 88.3697 152.153 88.6097 152.899C88.8497 153.619 88.9697 154.286 88.9697 154.899C88.9697 155.433 88.8763 155.886 88.6897 156.259C88.503 156.606 88.223 156.779 87.8497 156.779C87.2897 156.779 86.863 156.673 86.5697 156.459C86.303 156.246 86.103 155.993 85.9697 155.699C85.8363 155.379 85.7163 155.033 85.6097 154.659C85.5297 154.286 85.3963 153.953 85.2097 153.659C85.023 153.339 84.7563 153.073 84.4097 152.859C84.063 152.646 83.543 152.539 82.8496 152.539C81.2763 152.539 80.0363 153.339 79.1297 154.939C78.2497 156.539 77.8097 158.926 77.8097 162.099C77.8097 164.846 78.2363 167.033 79.0897 168.659C79.9697 170.259 81.2097 171.059 82.8097 171.059C83.9297 171.059 84.743 170.833 85.2497 170.379C85.783 169.899 86.1697 169.379 86.4097 168.819C86.6763 168.233 86.8897 167.713 87.0497 167.259C87.2363 166.779 87.5563 166.539 88.0097 166.539C88.623 166.539 89.063 166.713 89.3297 167.059C89.623 167.406 89.7697 167.846 89.7697 168.379C89.7697 168.993 89.5963 169.686 89.2497 170.459C88.903 171.206 88.4097 171.913 87.7697 172.579C87.1563 173.246 86.3963 173.806 85.4897 174.259C84.6097 174.713 83.623 174.939 82.5297 174.939C81.0363 174.939 79.6897 174.619 78.4897 173.979C77.3163 173.339 76.3163 172.433 75.4897 171.259C74.6897 170.086 74.063 168.686 73.6096 167.059C73.183 165.433 72.9697 163.619 72.9697 161.619C72.9697 159.619 73.1963 157.819 73.6497 156.219C74.103 154.619 74.743 153.259 75.5697 152.139C76.3963 151.019 77.4097 150.153 78.6097 149.539C79.8097 148.926 81.143 148.619 82.6097 148.619ZM91.8546 164.299C91.8546 162.699 92.028 161.246 92.3746 159.939C92.748 158.633 93.2546 157.513 93.8946 156.579C94.5613 155.646 95.348 154.926 96.2546 154.419C97.1613 153.913 98.1746 153.659 99.2946 153.659C100.415 153.659 101.428 153.913 102.335 154.419C103.268 154.926 104.068 155.646 104.735 156.579C105.428 157.486 105.961 158.579 106.335 159.859C106.708 161.139 106.895 162.539 106.895 164.059C106.895 165.606 106.695 167.033 106.295 168.339C105.921 169.646 105.388 170.779 104.695 171.739C104.001 172.673 103.175 173.406 102.215 173.939C101.255 174.473 100.215 174.739 99.0946 174.739C98.028 174.739 97.0413 174.486 96.1346 173.979C95.2546 173.473 94.4946 172.766 93.8546 171.859C93.2146 170.953 92.7213 169.859 92.3746 168.579C92.028 167.273 91.8546 165.846 91.8546 164.299ZM95.9346 164.059C95.9346 166.139 96.2146 167.793 96.7746 169.019C97.3613 170.246 98.1346 170.859 99.0946 170.859C99.628 170.859 100.108 170.686 100.535 170.339C100.988 169.966 101.388 169.473 101.735 168.859C102.081 168.219 102.348 167.473 102.535 166.619C102.721 165.766 102.815 164.859 102.815 163.899C102.815 162.939 102.721 162.059 102.535 161.259C102.348 160.433 102.081 159.726 101.735 159.139C101.415 158.526 101.028 158.046 100.575 157.699C100.148 157.353 99.6813 157.179 99.1746 157.179C98.188 157.179 97.4013 157.806 96.8146 159.059C96.228 160.286 95.9346 161.953 95.9346 164.059ZM113.382 171.979C113.382 172.353 113.382 172.686 113.382 172.979C113.382 173.273 113.329 173.526 113.222 173.739C113.142 173.926 112.995 174.073 112.782 174.179C112.569 174.286 112.249 174.339 111.822 174.339C111.235 174.339 110.782 174.233 110.462 174.019C110.142 173.806 109.902 173.539 109.742 173.219C109.609 172.873 109.529 172.499 109.502 172.099C109.475 171.699 109.449 171.326 109.422 170.979C109.422 170.739 109.409 170.273 109.382 169.579C109.382 168.859 109.369 168.033 109.342 167.099C109.342 166.139 109.342 165.126 109.342 164.059C109.342 162.993 109.329 161.993 109.302 161.059C109.302 160.099 109.302 159.273 109.302 158.579C109.302 157.859 109.302 157.379 109.302 157.139C109.302 156.846 109.302 156.513 109.302 156.139C109.302 155.739 109.355 155.366 109.462 155.019C109.595 154.646 109.795 154.339 110.062 154.099C110.329 153.859 110.729 153.739 111.262 153.739C111.795 153.739 112.169 153.833 112.382 154.019C112.595 154.179 112.742 154.379 112.822 154.619C112.929 154.833 113.009 155.033 113.062 155.219C113.115 155.379 113.235 155.459 113.422 155.459C113.609 155.459 113.822 155.366 114.062 155.179C114.302 154.966 114.595 154.753 114.942 154.539C115.289 154.299 115.702 154.086 116.182 153.899C116.689 153.686 117.302 153.579 118.022 153.579C119.169 153.579 120.102 153.806 120.822 154.259C121.569 154.713 122.142 155.353 122.542 156.179C122.969 157.006 123.262 158.006 123.422 159.179C123.582 160.326 123.662 161.606 123.662 163.019C123.662 164.086 123.662 165.206 123.662 166.379C123.662 167.553 123.649 168.779 123.622 170.059C123.622 170.406 123.622 170.833 123.622 171.339C123.622 171.819 123.569 172.286 123.462 172.739C123.355 173.193 123.169 173.579 122.902 173.899C122.662 174.219 122.289 174.379 121.782 174.379C121.195 174.379 120.755 174.193 120.462 173.819C120.195 173.419 119.995 172.953 119.862 172.419C119.755 171.859 119.702 171.286 119.702 170.699C119.702 170.113 119.702 169.619 119.702 169.219C119.675 168.446 119.649 167.673 119.622 166.899C119.622 166.099 119.622 165.313 119.622 164.539C119.622 164.086 119.609 163.486 119.582 162.739C119.582 161.966 119.502 161.219 119.342 160.499C119.209 159.779 118.969 159.166 118.622 158.659C118.275 158.126 117.755 157.859 117.062 157.859C115.702 157.859 114.742 158.419 114.182 159.539C113.649 160.633 113.382 162.139 113.382 164.059V171.979ZM133.273 153.579C134.206 153.579 134.926 153.686 135.433 153.899C135.966 154.113 136.379 154.353 136.673 154.619C136.966 154.886 137.166 155.126 137.273 155.339C137.406 155.553 137.539 155.659 137.673 155.659C137.806 155.659 137.886 155.566 137.913 155.379C137.966 155.166 138.033 154.939 138.113 154.699C138.219 154.433 138.393 154.206 138.633 154.019C138.899 153.806 139.299 153.699 139.833 153.699C140.313 153.699 140.673 154.019 140.913 154.659C141.153 155.273 141.326 155.993 141.433 156.819C141.539 157.646 141.593 158.473 141.593 159.299C141.619 160.099 141.633 160.686 141.633 161.059V170.699C141.633 172.619 141.579 174.486 141.473 176.299C141.366 178.139 141.073 179.766 140.593 181.179C140.139 182.619 139.419 183.766 138.433 184.619C137.473 185.473 136.113 185.899 134.353 185.899C133.446 185.899 132.646 185.713 131.953 185.339C131.259 184.966 130.673 184.473 130.193 183.859C129.713 183.246 129.339 182.539 129.073 181.739C128.833 180.966 128.713 180.166 128.713 179.339C128.713 179.099 128.739 178.846 128.793 178.579C128.873 178.339 128.966 178.113 129.073 177.899C129.206 177.686 129.379 177.499 129.593 177.339C129.806 177.206 130.046 177.139 130.313 177.139C130.819 177.139 131.206 177.179 131.473 177.259C131.766 177.366 131.979 177.526 132.113 177.739C132.273 177.979 132.366 178.259 132.393 178.579C132.446 178.926 132.473 179.339 132.473 179.819C132.473 180.379 132.619 180.939 132.913 181.499C133.233 182.086 133.726 182.379 134.393 182.379C135.299 182.379 135.979 182.059 136.433 181.419C136.913 180.779 137.246 180.019 137.433 179.139C137.646 178.286 137.753 177.406 137.753 176.499C137.779 175.619 137.793 174.913 137.793 174.379C137.793 174.193 137.753 173.953 137.673 173.659C137.619 173.366 137.499 173.219 137.313 173.219C137.206 173.219 137.033 173.326 136.793 173.539C136.579 173.726 136.299 173.939 135.953 174.179C135.633 174.393 135.246 174.593 134.793 174.779C134.339 174.993 133.806 175.099 133.193 175.099C131.726 175.099 130.539 174.779 129.633 174.139C128.726 173.473 128.006 172.619 127.473 171.579C126.966 170.539 126.619 169.366 126.433 168.059C126.246 166.726 126.153 165.379 126.153 164.019C126.153 162.659 126.286 161.353 126.553 160.099C126.819 158.846 127.246 157.739 127.833 156.779C128.419 155.819 129.153 155.046 130.033 154.459C130.939 153.873 132.019 153.579 133.273 153.579ZM133.473 171.299C134.139 171.299 134.726 171.046 135.233 170.539C135.739 170.033 136.166 169.419 136.513 168.699C136.859 167.979 137.113 167.233 137.273 166.459C137.459 165.686 137.553 165.033 137.553 164.499L137.593 163.819C137.593 163.259 137.526 162.646 137.393 161.979C137.259 161.286 137.046 160.633 136.753 160.019C136.459 159.406 136.073 158.899 135.593 158.499C135.113 158.073 134.526 157.859 133.833 157.859C133.166 157.859 132.593 158.059 132.113 158.459C131.659 158.833 131.273 159.339 130.953 159.979C130.659 160.593 130.433 161.299 130.273 162.099C130.139 162.899 130.073 163.713 130.073 164.539C130.073 165.366 130.126 166.193 130.233 167.019C130.366 167.819 130.566 168.539 130.833 169.179C131.099 169.819 131.446 170.339 131.873 170.739C132.299 171.113 132.833 171.299 133.473 171.299ZM153.061 155.739C153.061 155.953 153.035 156.233 152.981 156.579C152.955 156.926 152.795 157.099 152.501 157.099L152.141 157.059C151.395 157.059 150.768 157.233 150.261 157.579C149.755 157.899 149.341 158.326 149.021 158.859C148.701 159.393 148.475 159.993 148.341 160.659C148.208 161.299 148.141 161.939 148.141 162.579V164.459L148.021 168.859V170.779C148.021 171.099 148.021 171.473 148.021 171.899C148.048 172.326 148.021 172.739 147.941 173.139C147.861 173.513 147.701 173.846 147.461 174.139C147.221 174.406 146.861 174.539 146.381 174.539C145.581 174.539 144.995 174.339 144.621 173.939C144.248 173.539 144.061 172.993 144.061 172.299V168.459L144.101 160.539V156.699C144.101 156.406 144.115 156.086 144.141 155.739C144.168 155.393 144.235 155.073 144.341 154.779C144.448 154.486 144.608 154.246 144.821 154.059C145.061 153.873 145.381 153.779 145.781 153.779C146.155 153.779 146.475 153.846 146.741 153.979C147.008 154.113 147.168 154.379 147.221 154.779C147.275 155.153 147.328 155.419 147.381 155.579C147.435 155.713 147.501 155.779 147.581 155.779C147.661 155.779 147.795 155.659 147.981 155.419C148.168 155.179 148.408 154.913 148.701 154.619C149.021 154.326 149.381 154.059 149.781 153.819C150.208 153.579 150.701 153.459 151.261 153.459C151.901 153.459 152.355 153.699 152.621 154.179C152.915 154.659 153.061 155.179 153.061 155.739ZM153.878 169.699C153.878 168.579 154.091 167.619 154.518 166.819C154.971 166.019 155.518 165.326 156.158 164.739C156.798 164.153 157.505 163.646 158.278 163.219C159.051 162.766 159.758 162.339 160.398 161.939C161.038 161.513 161.571 161.099 161.998 160.699C162.451 160.273 162.678 159.779 162.678 159.219C162.678 158.686 162.491 158.193 162.118 157.739C161.745 157.286 161.291 157.059 160.758 157.059C160.198 157.059 159.745 157.219 159.398 157.539C159.051 157.833 158.745 158.179 158.478 158.579C158.238 158.953 157.998 159.299 157.758 159.619C157.518 159.913 157.225 160.059 156.878 160.059C156.345 160.059 155.878 159.886 155.478 159.539C155.078 159.193 154.878 158.753 154.878 158.219C154.878 157.526 155.078 156.899 155.478 156.339C155.905 155.779 156.438 155.286 157.078 154.859C157.718 154.433 158.411 154.113 159.158 153.899C159.905 153.659 160.598 153.539 161.238 153.539C162.518 153.539 163.518 153.793 164.238 154.299C164.985 154.779 165.545 155.419 165.918 156.219C166.318 157.019 166.571 157.926 166.678 158.939C166.785 159.926 166.838 160.939 166.838 161.979V163.979L166.758 167.859V169.859C166.758 170.339 166.771 170.859 166.798 171.419C166.825 171.979 166.811 172.499 166.758 172.979C166.705 173.433 166.571 173.819 166.358 174.139C166.145 174.459 165.811 174.619 165.358 174.619C164.851 174.619 164.465 174.526 164.198 174.339C163.931 174.153 163.718 173.953 163.558 173.739C163.425 173.499 163.318 173.286 163.238 173.099C163.185 172.913 163.078 172.819 162.918 172.819C162.758 172.819 162.545 172.913 162.278 173.099C162.038 173.286 161.731 173.499 161.358 173.739C161.011 173.979 160.598 174.193 160.118 174.379C159.665 174.566 159.158 174.659 158.598 174.659C157.878 174.659 157.225 174.526 156.638 174.259C156.051 173.966 155.545 173.593 155.118 173.139C154.718 172.686 154.411 172.166 154.198 171.579C153.985 170.966 153.878 170.339 153.878 169.699ZM157.718 168.979C157.718 169.646 157.918 170.139 158.318 170.459C158.745 170.753 159.265 170.899 159.878 170.899C160.491 170.899 160.985 170.779 161.358 170.539C161.758 170.273 162.065 169.926 162.278 169.499C162.518 169.073 162.678 168.606 162.758 168.099C162.865 167.566 162.918 167.046 162.918 166.539C162.918 166.166 162.851 165.833 162.718 165.539C162.585 165.246 162.291 165.099 161.838 165.099C161.438 165.099 160.998 165.219 160.518 165.459C160.038 165.699 159.585 166.019 159.158 166.419C158.758 166.793 158.411 167.206 158.118 167.659C157.851 168.113 157.718 168.553 157.718 168.979ZM174.407 148.179C174.7 148.179 174.86 148.313 174.887 148.579C174.94 148.819 174.967 149.046 174.967 149.259V149.739L174.887 150.739V151.219C174.887 151.699 174.887 152.113 174.887 152.459C174.887 152.806 174.927 153.086 175.007 153.299C175.087 153.513 175.22 153.673 175.407 153.779C175.62 153.859 175.927 153.899 176.327 153.899C176.7 153.899 177.06 153.886 177.407 153.859C177.78 153.806 178.113 153.819 178.407 153.899C178.7 153.953 178.94 154.086 179.127 154.299C179.313 154.513 179.407 154.873 179.407 155.379C179.407 156.073 179.273 156.553 179.007 156.819C178.74 157.086 178.247 157.219 177.527 157.219H175.607C175.233 157.219 175.02 157.659 174.967 158.539C174.913 159.419 174.887 160.593 174.887 162.059V163.099L174.847 165.139V166.179C174.847 166.526 174.847 166.979 174.847 167.539C174.873 168.073 174.94 168.606 175.047 169.139C175.18 169.646 175.38 170.086 175.647 170.459C175.94 170.806 176.353 170.979 176.887 170.979C177.26 170.979 177.593 170.913 177.887 170.779C178.18 170.619 178.447 170.459 178.687 170.299C178.927 170.139 179.153 169.993 179.367 169.859C179.607 169.699 179.833 169.619 180.047 169.619C180.34 169.619 180.5 169.766 180.527 170.059C180.58 170.326 180.607 170.566 180.607 170.779C180.607 171.366 180.447 171.913 180.127 172.419C179.833 172.926 179.447 173.366 178.967 173.739C178.487 174.086 177.953 174.353 177.367 174.539C176.807 174.753 176.247 174.859 175.687 174.859C174.727 174.859 173.94 174.579 173.327 174.019C172.713 173.459 172.233 172.739 171.887 171.859C171.567 170.953 171.34 169.939 171.207 168.819C171.073 167.699 170.993 166.579 170.967 165.459C170.94 164.339 170.94 163.273 170.967 162.259C171.02 161.246 171.047 160.393 171.047 159.699C171.047 158.793 171.02 158.179 170.967 157.859C170.94 157.539 170.74 157.379 170.367 157.379C170.233 157.379 170.087 157.366 169.927 157.339C169.793 157.313 169.66 157.233 169.527 157.099C169.42 156.966 169.327 156.779 169.247 156.539C169.167 156.273 169.127 155.913 169.127 155.459C169.127 155.033 169.167 154.713 169.247 154.499C169.327 154.259 169.433 154.099 169.567 154.019C169.727 153.913 169.887 153.859 170.047 153.859C170.207 153.833 170.367 153.819 170.527 153.819C170.953 153.819 171.193 153.726 171.247 153.539C171.327 153.326 171.367 152.886 171.367 152.219C171.367 152.113 171.367 151.966 171.367 151.779C171.367 151.593 171.353 151.406 171.327 151.219C171.327 151.006 171.327 150.806 171.327 150.619C171.327 150.406 171.327 150.246 171.327 150.139C171.327 149.819 171.42 149.539 171.607 149.299C171.82 149.033 172.073 148.819 172.367 148.659C172.687 148.499 173.02 148.379 173.367 148.299C173.74 148.219 174.087 148.179 174.407 148.179ZM192.715 157.059C192.715 156.686 192.715 156.299 192.715 155.899C192.715 155.499 192.768 155.126 192.875 154.779C192.982 154.433 193.168 154.153 193.435 153.939C193.702 153.699 194.115 153.579 194.675 153.579C195.235 153.579 195.648 153.739 195.915 154.059C196.182 154.379 196.368 154.766 196.475 155.219C196.582 155.673 196.622 156.153 196.595 156.659C196.595 157.139 196.595 157.566 196.595 157.939C196.622 158.873 196.635 159.926 196.635 161.099C196.635 162.246 196.635 163.419 196.635 164.619C196.635 165.793 196.622 166.966 196.595 168.139C196.595 169.286 196.595 170.326 196.595 171.259C196.595 171.606 196.595 171.966 196.595 172.339C196.595 172.713 196.542 173.059 196.435 173.379C196.328 173.673 196.155 173.926 195.915 174.139C195.675 174.326 195.328 174.419 194.875 174.419C194.288 174.419 193.862 174.313 193.595 174.099C193.355 173.859 193.195 173.606 193.115 173.339C193.035 173.073 192.982 172.833 192.955 172.619C192.955 172.379 192.875 172.259 192.715 172.259C192.608 172.259 192.435 172.393 192.195 172.659C191.955 172.899 191.648 173.166 191.275 173.459C190.902 173.753 190.448 174.033 189.915 174.299C189.408 174.539 188.795 174.659 188.075 174.659C186.848 174.659 185.875 174.326 185.155 173.659C184.435 172.993 183.902 172.166 183.555 171.179C183.208 170.193 182.982 169.153 182.875 168.059C182.795 166.966 182.755 165.979 182.755 165.099V163.179L182.715 158.299V156.379C182.715 156.033 182.715 155.713 182.715 155.419C182.715 155.099 182.755 154.819 182.835 154.579C182.942 154.339 183.115 154.153 183.355 154.019C183.622 153.886 184.008 153.819 184.515 153.819C185.102 153.819 185.542 153.913 185.835 154.099C186.128 154.259 186.328 154.486 186.435 154.779C186.568 155.073 186.635 155.406 186.635 155.779C186.662 156.153 186.675 156.539 186.675 156.939C186.675 157.259 186.675 157.686 186.675 158.219C186.675 158.726 186.675 159.273 186.675 159.859C186.675 160.419 186.675 160.966 186.675 161.499C186.675 162.006 186.675 162.419 186.675 162.739C186.675 163.193 186.662 163.846 186.635 164.699C186.635 165.526 186.688 166.366 186.795 167.219C186.928 168.046 187.155 168.779 187.475 169.419C187.795 170.033 188.288 170.339 188.955 170.339C189.755 170.339 190.382 170.019 190.835 169.379C191.315 168.713 191.675 167.939 191.915 167.059C192.155 166.179 192.302 165.286 192.355 164.379C192.435 163.446 192.488 162.713 192.515 162.179L192.715 157.059ZM199.617 157.659C199.617 156.166 199.604 154.699 199.577 153.259C199.577 151.793 199.59 150.313 199.617 148.819C199.617 148.393 199.63 147.966 199.657 147.539C199.684 147.113 199.764 146.739 199.897 146.419C200.03 146.073 200.244 145.793 200.537 145.579C200.83 145.366 201.27 145.259 201.857 145.259C202.23 145.259 202.524 145.353 202.737 145.539C202.95 145.726 203.11 145.966 203.217 146.259C203.324 146.526 203.39 146.819 203.417 147.139C203.444 147.459 203.457 147.766 203.457 148.059V153.259L203.417 163.579V168.779C203.417 169.526 203.47 170.033 203.577 170.299C203.684 170.566 203.804 170.779 203.937 170.939C204.097 171.073 204.23 171.233 204.337 171.419C204.444 171.579 204.497 171.926 204.497 172.459C204.497 172.859 204.417 173.286 204.257 173.739C204.097 174.166 203.764 174.379 203.257 174.379C201.87 174.379 200.91 174.006 200.377 173.259C199.87 172.513 199.617 171.513 199.617 170.259V157.659ZM206.062 169.699C206.062 168.579 206.276 167.619 206.702 166.819C207.156 166.019 207.702 165.326 208.342 164.739C208.982 164.153 209.689 163.646 210.462 163.219C211.236 162.766 211.942 162.339 212.582 161.939C213.222 161.513 213.756 161.099 214.182 160.699C214.636 160.273 214.862 159.779 214.862 159.219C214.862 158.686 214.676 158.193 214.302 157.739C213.929 157.286 213.476 157.059 212.942 157.059C212.382 157.059 211.929 157.219 211.582 157.539C211.236 157.833 210.929 158.179 210.662 158.579C210.422 158.953 210.182 159.299 209.942 159.619C209.702 159.913 209.409 160.059 209.062 160.059C208.529 160.059 208.062 159.886 207.662 159.539C207.262 159.193 207.062 158.753 207.062 158.219C207.062 157.526 207.262 156.899 207.662 156.339C208.089 155.779 208.622 155.286 209.262 154.859C209.902 154.433 210.596 154.113 211.342 153.899C212.089 153.659 212.782 153.539 213.422 153.539C214.702 153.539 215.702 153.793 216.422 154.299C217.169 154.779 217.729 155.419 218.102 156.219C218.502 157.019 218.756 157.926 218.862 158.939C218.969 159.926 219.022 160.939 219.022 161.979V163.979L218.942 167.859V169.859C218.942 170.339 218.956 170.859 218.982 171.419C219.009 171.979 218.996 172.499 218.942 172.979C218.889 173.433 218.756 173.819 218.542 174.139C218.329 174.459 217.996 174.619 217.542 174.619C217.036 174.619 216.649 174.526 216.382 174.339C216.116 174.153 215.902 173.953 215.742 173.739C215.609 173.499 215.502 173.286 215.422 173.099C215.369 172.913 215.262 172.819 215.102 172.819C214.942 172.819 214.729 172.913 214.462 173.099C214.222 173.286 213.916 173.499 213.542 173.739C213.196 173.979 212.782 174.193 212.302 174.379C211.849 174.566 211.342 174.659 210.782 174.659C210.062 174.659 209.409 174.526 208.822 174.259C208.236 173.966 207.729 173.593 207.302 173.139C206.902 172.686 206.596 172.166 206.382 171.579C206.169 170.966 206.062 170.339 206.062 169.699ZM209.902 168.979C209.902 169.646 210.102 170.139 210.502 170.459C210.929 170.753 211.449 170.899 212.062 170.899C212.676 170.899 213.169 170.779 213.542 170.539C213.942 170.273 214.249 169.926 214.462 169.499C214.702 169.073 214.862 168.606 214.942 168.099C215.049 167.566 215.102 167.046 215.102 166.539C215.102 166.166 215.036 165.833 214.902 165.539C214.769 165.246 214.476 165.099 214.022 165.099C213.622 165.099 213.182 165.219 212.702 165.459C212.222 165.699 211.769 166.019 211.342 166.419C210.942 166.793 210.596 167.206 210.302 167.659C210.036 168.113 209.902 168.553 209.902 168.979ZM226.591 148.179C226.884 148.179 227.044 148.313 227.071 148.579C227.124 148.819 227.151 149.046 227.151 149.259V149.739L227.071 150.739V151.219C227.071 151.699 227.071 152.113 227.071 152.459C227.071 152.806 227.111 153.086 227.191 153.299C227.271 153.513 227.404 153.673 227.591 153.779C227.804 153.859 228.111 153.899 228.511 153.899C228.884 153.899 229.244 153.886 229.591 153.859C229.964 153.806 230.298 153.819 230.591 153.899C230.884 153.953 231.124 154.086 231.311 154.299C231.498 154.513 231.591 154.873 231.591 155.379C231.591 156.073 231.458 156.553 231.191 156.819C230.924 157.086 230.431 157.219 229.711 157.219H227.791C227.418 157.219 227.204 157.659 227.151 158.539C227.098 159.419 227.071 160.593 227.071 162.059V163.099L227.031 165.139V166.179C227.031 166.526 227.031 166.979 227.031 167.539C227.058 168.073 227.124 168.606 227.231 169.139C227.364 169.646 227.564 170.086 227.831 170.459C228.124 170.806 228.538 170.979 229.071 170.979C229.444 170.979 229.778 170.913 230.071 170.779C230.364 170.619 230.631 170.459 230.871 170.299C231.111 170.139 231.338 169.993 231.551 169.859C231.791 169.699 232.018 169.619 232.231 169.619C232.524 169.619 232.684 169.766 232.711 170.059C232.764 170.326 232.791 170.566 232.791 170.779C232.791 171.366 232.631 171.913 232.311 172.419C232.018 172.926 231.631 173.366 231.151 173.739C230.671 174.086 230.138 174.353 229.551 174.539C228.991 174.753 228.431 174.859 227.871 174.859C226.911 174.859 226.124 174.579 225.511 174.019C224.898 173.459 224.418 172.739 224.071 171.859C223.751 170.953 223.524 169.939 223.391 168.819C223.258 167.699 223.178 166.579 223.151 165.459C223.124 164.339 223.124 163.273 223.151 162.259C223.204 161.246 223.231 160.393 223.231 159.699C223.231 158.793 223.204 158.179 223.151 157.859C223.124 157.539 222.924 157.379 222.551 157.379C222.418 157.379 222.271 157.366 222.111 157.339C221.978 157.313 221.844 157.233 221.711 157.099C221.604 156.966 221.511 156.779 221.431 156.539C221.351 156.273 221.311 155.913 221.311 155.459C221.311 155.033 221.351 154.713 221.431 154.499C221.511 154.259 221.618 154.099 221.751 154.019C221.911 153.913 222.071 153.859 222.231 153.859C222.391 153.833 222.551 153.819 222.711 153.819C223.138 153.819 223.378 153.726 223.431 153.539C223.511 153.326 223.551 152.886 223.551 152.219C223.551 152.113 223.551 151.966 223.551 151.779C223.551 151.593 223.538 151.406 223.511 151.219C223.511 151.006 223.511 150.806 223.511 150.619C223.511 150.406 223.511 150.246 223.511 150.139C223.511 149.819 223.604 149.539 223.791 149.299C224.004 149.033 224.258 148.819 224.551 148.659C224.871 148.499 225.204 148.379 225.551 148.299C225.924 148.219 226.271 148.179 226.591 148.179ZM235.179 148.859C235.179 148.193 235.393 147.593 235.819 147.059C236.246 146.526 236.819 146.259 237.539 146.259C238.233 146.259 238.793 146.526 239.219 147.059C239.673 147.593 239.899 148.193 239.899 148.859C239.899 149.526 239.673 150.126 239.219 150.659C238.793 151.166 238.233 151.419 237.539 151.419C236.846 151.419 236.273 151.166 235.819 150.659C235.393 150.126 235.179 149.526 235.179 148.859ZM237.859 174.339C237.273 174.339 236.819 174.193 236.499 173.899C236.179 173.579 235.939 173.206 235.779 172.779C235.646 172.326 235.566 171.859 235.539 171.379C235.513 170.899 235.486 170.486 235.459 170.139C235.433 169.793 235.406 169.126 235.379 168.139C235.379 167.126 235.366 166.006 235.339 164.779C235.339 163.553 235.339 162.313 235.339 161.059C235.339 159.806 235.339 158.766 235.339 157.939C235.339 157.513 235.353 157.059 235.379 156.579C235.406 156.099 235.486 155.659 235.619 155.259C235.779 154.833 236.006 154.486 236.299 154.219C236.593 153.953 237.006 153.819 237.539 153.819C238.313 153.819 238.833 153.993 239.099 154.339C239.366 154.686 239.499 155.246 239.499 156.019V159.579L239.459 167.539V171.099C239.459 171.393 239.446 171.726 239.419 172.099C239.419 172.473 239.366 172.833 239.259 173.179C239.179 173.499 239.019 173.779 238.779 174.019C238.566 174.233 238.259 174.339 237.859 174.339ZM242.256 164.299C242.256 162.699 242.43 161.246 242.776 159.939C243.15 158.633 243.656 157.513 244.296 156.579C244.963 155.646 245.75 154.926 246.656 154.419C247.563 153.913 248.576 153.659 249.696 153.659C250.816 153.659 251.83 153.913 252.736 154.419C253.67 154.926 254.47 155.646 255.136 156.579C255.83 157.486 256.363 158.579 256.736 159.859C257.11 161.139 257.296 162.539 257.296 164.059C257.296 165.606 257.096 167.033 256.696 168.339C256.323 169.646 255.79 170.779 255.096 171.739C254.403 172.673 253.576 173.406 252.616 173.939C251.656 174.473 250.616 174.739 249.496 174.739C248.43 174.739 247.443 174.486 246.536 173.979C245.656 173.473 244.896 172.766 244.256 171.859C243.616 170.953 243.123 169.859 242.776 168.579C242.43 167.273 242.256 165.846 242.256 164.299ZM246.336 164.059C246.336 166.139 246.616 167.793 247.176 169.019C247.763 170.246 248.536 170.859 249.496 170.859C250.03 170.859 250.51 170.686 250.936 170.339C251.39 169.966 251.79 169.473 252.136 168.859C252.483 168.219 252.75 167.473 252.936 166.619C253.123 165.766 253.216 164.859 253.216 163.899C253.216 162.939 253.123 162.059 252.936 161.259C252.75 160.433 252.483 159.726 252.136 159.139C251.816 158.526 251.43 158.046 250.976 157.699C250.55 157.353 250.083 157.179 249.576 157.179C248.59 157.179 247.803 157.806 247.216 159.059C246.63 160.286 246.336 161.953 246.336 164.059ZM263.783 171.979C263.783 172.353 263.783 172.686 263.783 172.979C263.783 173.273 263.73 173.526 263.623 173.739C263.543 173.926 263.397 174.073 263.183 174.179C262.97 174.286 262.65 174.339 262.223 174.339C261.637 174.339 261.183 174.233 260.863 174.019C260.543 173.806 260.303 173.539 260.143 173.219C260.01 172.873 259.93 172.499 259.903 172.099C259.877 171.699 259.85 171.326 259.823 170.979C259.823 170.739 259.81 170.273 259.783 169.579C259.783 168.859 259.77 168.033 259.743 167.099C259.743 166.139 259.743 165.126 259.743 164.059C259.743 162.993 259.73 161.993 259.703 161.059C259.703 160.099 259.703 159.273 259.703 158.579C259.703 157.859 259.703 157.379 259.703 157.139C259.703 156.846 259.703 156.513 259.703 156.139C259.703 155.739 259.757 155.366 259.863 155.019C259.997 154.646 260.197 154.339 260.463 154.099C260.73 153.859 261.13 153.739 261.663 153.739C262.197 153.739 262.57 153.833 262.783 154.019C262.997 154.179 263.143 154.379 263.223 154.619C263.33 154.833 263.41 155.033 263.463 155.219C263.517 155.379 263.637 155.459 263.823 155.459C264.01 155.459 264.223 155.366 264.463 155.179C264.703 154.966 264.997 154.753 265.343 154.539C265.69 154.299 266.103 154.086 266.583 153.899C267.09 153.686 267.703 153.579 268.423 153.579C269.57 153.579 270.503 153.806 271.223 154.259C271.97 154.713 272.543 155.353 272.943 156.179C273.37 157.006 273.663 158.006 273.823 159.179C273.983 160.326 274.063 161.606 274.063 163.019C274.063 164.086 274.063 165.206 274.063 166.379C274.063 167.553 274.05 168.779 274.023 170.059C274.023 170.406 274.023 170.833 274.023 171.339C274.023 171.819 273.97 172.286 273.863 172.739C273.757 173.193 273.57 173.579 273.303 173.899C273.063 174.219 272.69 174.379 272.183 174.379C271.597 174.379 271.157 174.193 270.863 173.819C270.597 173.419 270.397 172.953 270.263 172.419C270.157 171.859 270.103 171.286 270.103 170.699C270.103 170.113 270.103 169.619 270.103 169.219C270.077 168.446 270.05 167.673 270.023 166.899C270.023 166.099 270.023 165.313 270.023 164.539C270.023 164.086 270.01 163.486 269.983 162.739C269.983 161.966 269.903 161.219 269.743 160.499C269.61 159.779 269.37 159.166 269.023 158.659C268.677 158.126 268.157 157.859 267.463 157.859C266.103 157.859 265.143 158.419 264.583 159.539C264.05 160.633 263.783 162.139 263.783 164.059V171.979ZM282.874 153.259C283.621 153.259 284.314 153.366 284.954 153.579C285.621 153.766 286.194 154.033 286.674 154.379C287.181 154.726 287.568 155.126 287.834 155.579C288.128 156.033 288.274 156.513 288.274 157.019C288.274 157.366 288.128 157.713 287.834 158.059C287.541 158.379 287.208 158.539 286.834 158.539C286.621 158.539 286.421 158.459 286.234 158.299C286.074 158.113 285.874 157.926 285.634 157.739C285.394 157.526 285.101 157.339 284.754 157.179C284.408 157.019 283.928 156.939 283.314 156.939C282.328 156.939 281.661 157.153 281.314 157.579C280.994 158.006 280.834 158.406 280.834 158.779C280.834 159.286 281.034 159.726 281.434 160.099C281.861 160.446 282.381 160.793 282.994 161.139C283.608 161.486 284.274 161.859 284.994 162.259C285.714 162.633 286.381 163.099 286.994 163.659C287.608 164.193 288.114 164.846 288.514 165.619C288.941 166.366 289.154 167.299 289.154 168.419C289.154 169.273 289.008 170.099 288.714 170.899C288.448 171.699 288.034 172.419 287.474 173.059C286.914 173.673 286.221 174.166 285.394 174.539C284.568 174.913 283.608 175.099 282.514 175.099C281.688 175.099 280.888 174.953 280.114 174.659C279.341 174.366 278.661 173.993 278.074 173.539C277.488 173.086 277.021 172.579 276.674 172.019C276.328 171.433 276.154 170.859 276.154 170.299C276.154 169.899 276.301 169.486 276.594 169.059C276.914 168.633 277.301 168.419 277.754 168.419C277.994 168.419 278.261 168.566 278.554 168.859C278.848 169.126 279.181 169.433 279.554 169.779C279.954 170.126 280.394 170.446 280.874 170.739C281.381 171.006 281.941 171.139 282.554 171.139C283.301 171.139 283.914 170.899 284.394 170.419C284.901 169.913 285.154 169.339 285.154 168.699C285.154 168.086 284.941 167.593 284.514 167.219C284.088 166.819 283.554 166.459 282.914 166.139C282.274 165.793 281.581 165.446 280.834 165.099C280.088 164.753 279.394 164.339 278.754 163.859C278.114 163.379 277.581 162.793 277.154 162.099C276.728 161.379 276.514 160.499 276.514 159.459C276.514 158.606 276.661 157.806 276.954 157.059C277.274 156.286 277.701 155.619 278.234 155.059C278.794 154.499 279.461 154.059 280.234 153.739C281.034 153.419 281.914 153.259 282.874 153.259Z" fill="white"/>
<g filter="url(#filter3_d_644_643)">
<path d="M170.664 61.8224C174.746 49.2585 176.787 42.9766 180.556 42.9766C184.324 42.9766 186.365 49.2585 190.447 61.8224C191.575 65.2928 192.139 67.028 193.502 68.0186C194.865 69.0091 196.69 69.0091 200.339 69.0091C213.549 69.0091 220.155 69.0091 221.319 72.5929C222.484 76.1767 217.14 80.0592 206.452 87.8241C203.5 89.9689 202.024 91.0414 201.503 92.6441C200.983 94.2468 201.546 95.982 202.674 99.4524C206.756 112.016 208.797 118.298 205.749 120.513C202.7 122.728 197.357 118.846 186.669 111.081C183.717 108.936 182.241 107.863 180.556 107.863C178.87 107.863 177.394 108.936 174.442 111.081C163.755 118.846 158.411 122.728 155.362 120.513C152.314 118.298 154.355 112.016 158.437 99.4524C159.565 95.982 160.129 94.2468 159.608 92.6441C159.087 91.0414 157.611 89.9689 154.659 87.8241C143.972 80.0592 138.628 76.1767 139.792 72.5929C140.957 69.0091 147.562 69.0091 160.772 69.0091C164.421 69.0091 166.246 69.0091 167.609 68.0186C168.973 67.028 169.536 65.2928 170.664 61.8224Z" fill="url(#paint9_linear_644_643)"/>
</g>
<g filter="url(#filter4_d_644_643)">
<path d="M246.631 83.7925C250.301 76.8901 252.137 73.439 254.306 73.4551C254.706 73.4581 255.103 73.528 255.48 73.662C257.524 74.389 258.068 78.2596 259.156 86.0009C259.458 88.1506 259.609 89.2254 260.242 90.0004C260.368 90.1551 260.507 90.2989 260.657 90.4304C261.409 91.0895 262.478 91.278 264.616 91.6549C272.315 93.0124 276.164 93.6911 276.819 95.7598C276.94 96.141 276.996 96.5397 276.985 96.9395C276.925 99.1086 273.412 100.822 266.386 104.249C264.435 105.201 263.459 105.676 262.918 106.517C262.81 106.685 262.716 106.862 262.637 107.045C262.243 107.964 262.394 109.039 262.696 111.189C263.784 118.93 264.328 122.801 262.563 124.063C262.238 124.296 261.876 124.472 261.492 124.585C259.411 125.199 256.696 122.387 251.265 116.764C249.757 115.203 249.003 114.422 248.036 114.166C247.843 114.115 247.646 114.081 247.448 114.063C246.451 113.972 245.476 114.448 243.525 115.399C236.499 118.826 232.985 120.54 231.239 119.251C230.918 119.014 230.638 118.724 230.412 118.394C229.185 116.604 231.02 113.153 234.69 106.251C235.709 104.334 236.219 103.376 236.163 102.377C236.152 102.178 236.124 101.98 236.08 101.785C235.858 100.81 235.104 100.029 233.596 98.4672C228.166 92.8439 225.451 90.0322 226.137 87.9735C226.263 87.5941 226.452 87.2386 226.696 86.9217C228.019 85.2019 231.868 85.8806 239.567 87.2381C241.705 87.615 242.774 87.8035 243.706 87.4416C243.892 87.3693 244.072 87.2817 244.243 87.1795C245.103 86.6675 245.612 85.7092 246.631 83.7925Z" fill="url(#paint10_linear_644_643)"/>
</g>
<g filter="url(#filter5_d_644_643)">
<path d="M115.055 83.7925C111.385 76.8901 109.55 73.439 107.38 73.4551C106.98 73.4581 106.584 73.528 106.207 73.662C104.162 74.389 103.618 78.2596 102.53 86.0009C102.228 88.1506 102.077 89.2254 101.445 90.0004C101.319 90.1551 101.18 90.2989 101.03 90.4304C100.277 91.0895 99.2081 91.278 97.0703 91.6549C89.3717 93.0124 85.5224 93.6911 84.8672 95.7598C84.7465 96.141 84.6904 96.5397 84.7014 96.9395C84.761 99.1086 88.2741 100.822 95.3003 104.249C97.2514 105.201 98.227 105.676 98.7687 106.517C98.8768 106.685 98.9706 106.862 99.0493 107.045C99.4436 107.964 99.2925 109.039 98.9904 111.189C97.9024 118.93 97.3584 122.801 99.1234 124.063C99.4486 124.296 99.8105 124.472 100.194 124.585C102.275 125.199 104.991 122.387 110.421 116.764C111.929 115.203 112.683 114.422 113.65 114.166C113.843 114.115 114.04 114.081 114.239 114.063C115.235 113.972 116.211 114.448 118.162 115.399C125.188 118.826 128.701 120.54 130.447 119.251C130.769 119.014 131.048 118.724 131.275 118.394C132.501 116.604 130.666 113.153 126.996 106.251C125.977 104.334 125.468 103.376 125.524 102.377C125.535 102.178 125.563 101.98 125.607 101.785C125.828 100.81 126.582 100.029 128.09 98.4672C133.521 92.8439 136.236 90.0322 135.55 87.9735C135.423 87.5941 135.234 87.2386 134.991 86.9217C133.667 85.2019 129.818 85.8806 122.119 87.2381C119.982 87.615 118.913 87.8035 117.98 87.4416C117.794 87.3693 117.614 87.2817 117.443 87.1795C116.584 86.6675 116.074 85.7092 115.055 83.7925Z" fill="url(#paint11_linear_644_643)"/>
</g>
<defs>
<filter id="filter0_d_644_643" x="10.5994" y="135.681" width="78.16" height="91.6776" filterUnits="userSpaceOnUse" color-interpolation-filters="sRGB">
<feFlood flood-opacity="0" result="BackgroundImageFix"/>
<feColorMatrix in="SourceAlpha" type="matrix" values="0 0 0 0 0 0 0 0 0 0 0 0 0 0 0 0 0 0 127 0" result="hardAlpha"/>
<feOffset dy="4"/>
<feComposite in2="hardAlpha" operator="out"/>
<feColorMatrix type="matrix" values="0 0 0 0 0.886275 0 0 0 0 0.419608 0 0 0 0 0.117647 0 0 0 1 0"/>
<feBlend mode="normal" in2="BackgroundImageFix" result="effect1_dropShadow_644_643"/>
<feBlend mode="normal" in="SourceGraphic" in2="effect1_dropShadow_644_643" result="shape"/>
</filter>
<filter id="filter1_d_644_643" x="273.91" y="135.681" width="78.16" height="91.6776" filterUnits="userSpaceOnUse" color-interpolation-filters="sRGB">
<feFlood flood-opacity="0" result="BackgroundImageFix"/>
<feColorMatrix in="SourceAlpha" type="matrix" values="0 0 0 0 0 0 0 0 0 0 0 0 0 0 0 0 0 0 127 0" result="hardAlpha"/>
<feOffset dy="4"/>
<feComposite in2="hardAlpha" operator="out"/>
<feColorMatrix type="matrix" values="0 0 0 0 0.886275 0 0 0 0 0.419608 0 0 0 0 0.117647 0 0 0 1 0"/>
<feBlend mode="normal" in2="BackgroundImageFix" result="effect1_dropShadow_644_643"/>
<feBlend mode="normal" in="SourceGraphic" in2="effect1_dropShadow_644_643" result="shape"/>
</filter>
<filter id="filter2_d_644_643" x="45.917" y="108.379" width="270" height="103.627" filterUnits="userSpaceOnUse" color-interpolation-filters="sRGB">
<feFlood flood-opacity="0" result="BackgroundImageFix"/>
<feColorMatrix in="SourceAlpha" type="matrix" values="0 0 0 0 0 0 0 0 0 0 0 0 0 0 0 0 0 0 127 0" result="hardAlpha"/>
<feOffset dy="4"/>
<feComposite in2="hardAlpha" operator="out"/>
<feColorMatrix type="matrix" values="0 0 0 0 0.886275 0 0 0 0 0.419608 0 0 0 0 0.117647 0 0 0 1 0"/>
<feBlend mode="normal" in2="BackgroundImageFix" result="effect1_dropShadow_644_643"/>
<feBlend mode="normal" in="SourceGraphic" in2="effect1_dropShadow_644_643" result="shape"/>
</filter>
<filter id="filter3_d_644_643" x="139.635" y="42.9766" width="81.8411" height="82.154" filterUnits="userSpaceOnUse" color-interpolation-filters="sRGB">
<feFlood flood-opacity="0" result="BackgroundImageFix"/>
<feColorMatrix in="SourceAlpha" type="matrix" values="0 0 0 0 0 0 0 0 0 0 0 0 0 0 0 0 0 0 127 0" result="hardAlpha"/>
<feOffset dy="4"/>
<feComposite in2="hardAlpha" operator="out"/>
<feColorMatrix type="matrix" values="0 0 0 0 1 0 0 0 0 0.720277 0 0 0 0 0.000989556 0 0 0 1 0"/>
<feBlend mode="normal" in2="BackgroundImageFix" result="effect1_dropShadow_644_643"/>
<feBlend mode="normal" in="SourceGraphic" in2="effect1_dropShadow_644_643" result="shape"/>
</filter>
<filter id="filter4_d_644_643" x="226.032" y="73.455" width="50.9542" height="55.2133" filterUnits="userSpaceOnUse" color-interpolation-filters="sRGB">
<feFlood flood-opacity="0" result="BackgroundImageFix"/>
<feColorMatrix in="SourceAlpha" type="matrix" values="0 0 0 0 0 0 0 0 0 0 0 0 0 0 0 0 0 0 127 0" result="hardAlpha"/>
<feOffset dy="4"/>
<feComposite in2="hardAlpha" operator="out"/>
<feColorMatrix type="matrix" values="0 0 0 0 1 0 0 0 0 0.720277 0 0 0 0 0.000989556 0 0 0 1 0"/>
<feBlend mode="normal" in2="BackgroundImageFix" result="effect1_dropShadow_644_643"/>
<feBlend mode="normal" in="SourceGraphic" in2="effect1_dropShadow_644_643" result="shape"/>
</filter>
<filter id="filter5_d_644_643" x="84.7001" y="73.455" width="50.9542" height="55.2133" filterUnits="userSpaceOnUse" color-interpolation-filters="sRGB">
<feFlood flood-opacity="0" result="BackgroundImageFix"/>
<feColorMatrix in="SourceAlpha" type="matrix" values="0 0 0 0 0 0 0 0 0 0 0 0 0 0 0 0 0 0 127 0" result="hardAlpha"/>
<feOffset dy="4"/>
<feComposite in2="hardAlpha" operator="out"/>
<feColorMatrix type="matrix" values="0 0 0 0 1 0 0 0 0 0.720277 0 0 0 0 0.000989556 0 0 0 1 0"/>
<feBlend mode="normal" in2="BackgroundImageFix" result="effect1_dropShadow_644_643"/>
<feBlend mode="normal" in="SourceGraphic" in2="effect1_dropShadow_644_643" result="shape"/>
</filter>
<linearGradient id="paint0_linear_644_643" x1="135.231" y1="5.06296" x2="152.658" y2="149.142" gradientUnits="userSpaceOnUse">
<stop stop-color="#FFEDAD" stop-opacity="0"/>
<stop offset="1" stop-color="#FFEFB8" stop-opacity="0.5"/>
</linearGradient>
<linearGradient id="paint1_linear_644_643" x1="227.073" y1="3.78591" x2="211.279" y2="148.053" gradientUnits="userSpaceOnUse">
<stop stop-color="#FFEDAD" stop-opacity="0"/>
<stop offset="1" stop-color="#FFEFB8" stop-opacity="0.5"/>
</linearGradient>
<linearGradient id="paint2_linear_644_643" x1="63.5102" y1="40.462" x2="99.715" y2="159.653" gradientUnits="userSpaceOnUse">
<stop stop-color="#FFEDAD" stop-opacity="0"/>
<stop offset="1" stop-color="#FFEFB8" stop-opacity="0.5"/>
</linearGradient>
<linearGradient id="paint3_linear_644_643" x1="299.19" y1="38.3706" x2="264.337" y2="157.963" gradientUnits="userSpaceOnUse">
<stop stop-color="#FFEDAD" stop-opacity="0"/>
<stop offset="1" stop-color="#FFEFB8" stop-opacity="0.5"/>
</linearGradient>
<linearGradient id="paint4_linear_644_643" x1="19.1333" y1="96.2771" x2="60.1392" y2="175.242" gradientUnits="userSpaceOnUse">
<stop stop-color="#FFEDAD" stop-opacity="0"/>
<stop offset="1" stop-color="#FFEFB8" stop-opacity="0.5"/>
</linearGradient>
<linearGradient id="paint5_linear_644_643" x1="344.196" y1="93.6799" x2="304.087" y2="173.104" gradientUnits="userSpaceOnUse">
<stop stop-color="#FFEDAD" stop-opacity="0"/>
<stop offset="1" stop-color="#FFEFB8" stop-opacity="0.5"/>
</linearGradient>
<linearGradient id="paint6_linear_644_643" x1="28.417" y1="94.8791" x2="44.917" y2="180.379" gradientUnits="userSpaceOnUse">
<stop stop-color="#FFCF25"/>
<stop offset="1" stop-color="#FD8C43"/>
</linearGradient>
<linearGradient id="paint7_linear_644_643" x1="334.252" y1="94.8791" x2="317.752" y2="180.379" gradientUnits="userSpaceOnUse">
<stop stop-color="#FFCF25"/>
<stop offset="1" stop-color="#FD8C43"/>
</linearGradient>
<linearGradient id="paint8_linear_644_643" x1="180.917" y1="55.3793" x2="180.917" y2="162.379" gradientUnits="userSpaceOnUse">
<stop stop-color="#FFCF25"/>
<stop offset="1" stop-color="#FD8C43"/>
</linearGradient>
<linearGradient id="paint9_linear_644_643" x1="180.556" y1="46.828" x2="180.556" y2="108.623" gradientUnits="userSpaceOnUse">
<stop stop-color="#FFF2C2"/>
<stop offset="1" stop-color="#FFCF25"/>
</linearGradient>
<linearGradient id="paint10_linear_644_643" x1="254.568" y1="75.4038" x2="247.669" y2="114.526" gradientUnits="userSpaceOnUse">
<stop stop-color="#FFF2C2"/>
<stop offset="1" stop-color="#FFCF25"/>
</linearGradient>
<linearGradient id="paint11_linear_644_643" x1="107.119" y1="75.4038" x2="114.017" y2="114.526" gradientUnits="userSpaceOnUse">
<stop stop-color="#FFF2C2"/>
<stop offset="1" stop-color="#FFCF25"/>
</linearGradient>
</defs>
</svg>
