<svg width="55" height="52" viewBox="0 0 55 52" fill="none" xmlns="http://www.w3.org/2000/svg">
<path fill-rule="evenodd" clip-rule="evenodd" d="M19.3964 39.7711C19.5606 40.0554 19.6695 40.3679 19.717 40.6908C19.7644 41.0136 19.7495 41.3404 19.6731 41.6526C19.5966 41.9648 19.4602 42.2563 19.2714 42.5103C19.0827 42.7643 18.8455 42.976 18.5732 43.1332C18.301 43.2903 17.999 43.39 17.6847 43.4264C17.3703 43.4628 17.0497 43.4353 16.7411 43.3454C16.4325 43.2555 16.142 43.105 15.8862 42.9025C15.6303 42.7 15.4142 42.4494 15.25 42.1651C14.9185 41.5909 14.819 40.9141 14.9733 40.2835C15.1277 39.653 15.5234 39.1205 16.0732 38.803C16.6231 38.4856 17.2821 38.4092 17.9053 38.5908C18.5285 38.7723 19.0649 39.1969 19.3964 39.7711ZM47.2929 23.6651C47.6245 24.2393 47.724 24.9161 47.5696 25.5466C47.4152 26.1771 47.0196 26.7096 46.4697 27.0271C45.9199 27.3446 45.2609 27.4209 44.6376 27.2394C44.0144 27.0578 43.478 26.6332 43.1465 26.059C42.815 25.4848 42.7155 24.808 42.8699 24.1775C43.0242 23.547 43.4199 23.0144 43.9697 22.697C44.5196 22.3795 45.1786 22.3032 45.8018 22.4847C46.425 22.6663 46.9614 23.0909 47.2929 23.6651Z" fill="#00A6ED"/>
<path fill-rule="evenodd" clip-rule="evenodd" d="M15.5236 23.8585L23.133 27.3019L15 33.3923L13.9246 25.0387C13.0895 25.1537 12.2149 24.7411 11.7539 23.9427C11.15 22.8966 11.4792 21.5686 12.4868 20.9869C12.878 20.7639 13.3328 20.6762 13.7853 20.7364C14.2377 20.7967 14.6642 21.0018 15.0028 21.322C15.3414 21.6421 15.5744 22.0607 15.6681 22.5168C15.7617 22.973 15.7111 23.443 15.5236 23.8585ZM32.5519 14.2841L39.2487 19.3923L29.9078 23.3905L30.7304 15.0789C30.0545 15.0103 29.4025 14.6159 29.029 13.969C28.425 12.9228 28.7543 11.5949 29.7619 11.0131C30.7695 10.4314 32.0842 10.8102 32.6882 11.8563C33.1491 12.6547 33.0692 13.6185 32.5519 14.2841Z" fill="#E19747"/>
<path d="M41.9086 8.08777C41.3257 7.07823 40.0251 6.73107 39.0136 7.31506C38.0021 7.89905 37.6524 9.19903 38.2352 10.2086C38.45 10.5805 38.7768 10.87 39.1242 11.0414C38.8314 11.2104 38.5769 11.4459 38.4048 11.7932L35.1223 18.187C34.6833 19.025 33.6862 19.3881 32.8103 19.0082L22.4464 14.4891C22.3683 14.4496 22.2857 14.42 22.2003 14.4009C22.5043 13.8993 22.6328 13.3111 22.5656 12.7291C22.4984 12.1471 22.2393 11.6043 21.8292 11.1861C21.419 10.7679 20.8811 10.4981 20.3 10.4191C19.7189 10.3402 19.1278 10.4566 18.6195 10.75C18.1113 11.0434 17.715 11.4972 17.4928 12.0399C17.2706 12.5826 17.2353 13.1834 17.3924 13.7477C17.5495 14.312 17.8901 14.8077 18.3605 15.1569C18.831 15.5061 19.4045 15.6889 19.991 15.6765C19.9684 15.7604 19.9459 15.8442 19.9443 15.9337L18.676 27.1687C18.5803 28.1095 17.754 28.7991 16.8088 28.7603L9.63037 28.4062C9.2435 28.3816 8.91236 28.4842 8.61956 28.6532C8.65047 28.2457 8.55755 27.8389 8.34281 27.467C7.75995 26.4574 6.45929 26.1103 5.4478 26.6943C4.4363 27.2782 4.08662 28.5782 4.66947 29.5878C5.25233 30.5973 6.55299 30.9445 7.56449 30.3605C7.63103 30.3221 7.69758 30.2836 7.74315 30.2396C7.74652 30.645 7.88704 31.0421 8.1893 31.3812L21.5966 46.6119C22.5627 47.7013 24.1679 47.9612 25.4323 47.2312L46.8068 34.8906C48.0712 34.1606 48.6487 32.6405 48.1884 31.2592L41.7018 12.0327C41.5593 11.6014 41.2647 11.2756 40.9362 11.0756C41.0028 11.0371 41.077 11.012 41.1302 10.9813C42.1417 10.3973 42.4914 9.0973 41.9086 8.08777Z" fill="#FEDB33"/>
<path d="M33.4641 35.9282C34.3828 35.3978 35.0532 34.5241 35.3278 33.4994C35.6024 32.4747 35.4586 31.3828 34.9282 30.4641C34.3978 29.5454 33.5241 28.875 32.4994 28.6004C31.4747 28.3258 30.3828 28.4696 29.4641 29C28.5454 29.5304 27.875 30.4041 27.6004 31.4288C27.3258 32.4535 27.4696 33.5454 28 34.4641C28.5304 35.3828 29.4041 36.0532 30.4288 36.3278C31.4535 36.6024 32.5454 36.4586 33.4641 35.9282Z" fill="#00A6ED"/>
<path fill-rule="evenodd" clip-rule="evenodd" d="M24.1471 36.9151C24.4786 37.4893 24.5913 38.1585 24.4603 38.7755C24.3293 39.3925 23.9653 39.9068 23.4486 40.2051C22.9318 40.5035 22.3044 40.5615 21.7046 40.3665C21.1048 40.1714 20.5815 39.7393 20.25 39.1651C19.9185 38.5909 19.8058 37.9216 19.9368 37.3046C20.0678 36.6876 20.4318 36.1734 20.9486 35.875C21.4653 35.5766 22.0927 35.5186 22.6925 35.7136C23.2924 35.9087 23.8156 36.3409 24.1471 36.9151ZM41.0346 27.1651C41.3661 27.7393 41.4788 28.4085 41.3478 29.0255C41.2168 29.6425 40.8528 30.1568 40.3361 30.4551C39.8193 30.7535 39.1919 30.8115 38.5921 30.6165C37.9923 30.4214 37.469 29.9893 37.1375 29.4151C36.806 28.8409 36.6933 28.1716 36.8243 27.5546C36.9553 26.9376 37.3193 26.4234 37.8361 26.125C38.3528 25.8266 38.9802 25.7686 39.58 25.9636C40.1799 26.1587 40.7031 26.5909 41.0346 27.1651Z" fill="#F8312F"/>
</svg>
