<svg width="47" height="44" viewBox="0 0 47 44" fill="none" xmlns="http://www.w3.org/2000/svg">
<path fill-rule="evenodd" clip-rule="evenodd" d="M16.5861 33.6617C16.7174 33.8892 16.8011 34.1412 16.8323 34.4034C16.8635 34.6655 16.8417 34.9327 16.768 35.1897C16.6944 35.4467 16.5704 35.6884 16.4031 35.901C16.2358 36.1136 16.0285 36.2931 15.793 36.429C15.5576 36.565 15.2986 36.6548 15.0308 36.6933C14.763 36.7319 14.4916 36.7184 14.2323 36.6537C13.9729 36.589 13.7306 36.4743 13.5192 36.3162C13.3077 36.1581 13.1313 35.9596 13 35.7322C12.7348 35.2728 12.6693 34.7232 12.8181 34.2042C12.9668 33.6853 13.3175 33.2395 13.793 32.9649C14.2686 32.6903 14.83 32.6095 15.3538 32.7402C15.8776 32.8709 16.3209 33.2024 16.5861 33.6617ZM40.7128 19.7322C40.978 20.1915 41.0435 20.7412 40.8947 21.2601C40.746 21.7791 40.3953 22.2249 39.9198 22.4994C39.4442 22.774 38.8828 22.8548 38.359 22.7241C37.8352 22.5935 37.3919 22.262 37.1267 21.8026C36.8615 21.3432 36.7961 20.7936 36.9448 20.2747C37.0935 19.7557 37.4442 19.3099 37.9198 19.0353C38.3953 18.7608 38.9567 18.68 39.4805 18.8106C40.0043 18.9413 40.4476 19.2728 40.7128 19.7322Z" fill="#00A6ED"/>
<path fill-rule="evenodd" clip-rule="evenodd" d="M13.544 19.6534L19.9855 22.4649L13 27.6604L12.1707 20.6604C11.4587 20.7656 10.7185 20.4282 10.3344 19.7629C9.83109 18.8912 10.1251 17.7732 10.9887 17.2746C11.324 17.0834 11.712 17.0051 12.0965 17.051C12.481 17.0969 12.8419 17.2646 13.1268 17.5299C13.4117 17.7951 13.6058 18.144 13.6808 18.5259C13.7558 18.9077 13.7079 19.3027 13.544 19.6534ZM28.137 11.4422L33.7846 15.6604L25.7925 19.1123L26.5784 12.128C26.0037 12.0774 25.4528 11.7531 25.1416 11.214C24.6383 10.3422 24.9322 9.22429 25.7959 8.72565C26.6596 8.22702 27.7747 8.53142 28.278 9.40318C28.6621 10.0685 28.5842 10.8782 28.137 11.4422Z" fill="#E19747"/>
<path d="M35.1793 6.93249C34.6797 6.06717 33.5813 5.76011 32.7345 6.24903C31.8877 6.73795 31.6044 7.84273 32.104 8.70805C32.288 9.02685 32.5658 9.27636 32.8598 9.4254C32.6147 9.56693 32.4024 9.76539 32.2605 10.0599L29.5511 15.4801C29.1886 16.1904 28.3521 16.4912 27.6111 16.1599L18.8437 12.2195C18.7776 12.1852 18.7077 12.1592 18.6357 12.1422C18.8873 11.7173 18.9905 11.2173 18.9289 10.7207C18.8673 10.2242 18.6444 9.75937 18.2953 9.39946C17.9463 9.03955 17.4909 8.80498 17.0009 8.73268C16.5108 8.66039 16.0139 8.75447 15.5885 9.00012C15.163 9.24577 14.8331 9.62904 14.6506 10.0896C14.4682 10.5501 14.4437 11.0618 14.5808 11.544C14.718 12.0263 15.0091 12.4517 15.4083 12.7533C15.8076 13.0549 16.2922 13.2156 16.786 13.2101C16.7677 13.2814 16.7494 13.3527 16.7489 13.4289L15.7777 22.992C15.7053 23.7928 15.0153 24.3734 14.219 24.3321L8.17023 23.9684C7.84421 23.9441 7.56621 24.0287 7.32107 24.1702C7.34359 23.8232 7.26182 23.4757 7.07776 23.1569C6.57816 22.2916 5.47976 21.9846 4.63293 22.4735C3.78609 22.9624 3.50281 24.0672 4.00241 24.9325C4.502 25.7978 5.6004 26.1049 6.44724 25.616C6.50295 25.5838 6.55866 25.5516 6.59666 25.5145C6.603 25.86 6.72477 26.1996 6.98226 26.4912L18.4053 39.5859C19.2283 40.5225 20.5824 40.7579 21.641 40.1467L39.5359 29.8151C40.5945 29.2039 41.0677 27.9135 40.6681 26.7324L35.0393 10.2925C34.9155 9.92368 34.6646 9.64347 34.3862 9.47018C34.4419 9.43802 34.5042 9.41724 34.5488 9.39151C35.3956 8.90258 35.6789 7.79781 35.1793 6.93249Z" fill="#6CC9F0"/>
<path d="M27.5981 29.6963C28.2871 29.2984 28.7899 28.6432 28.9959 27.8747C29.2018 27.1061 29.094 26.2873 28.6962 25.5982C28.2983 24.9091 27.6431 24.4063 26.8745 24.2004C26.106 23.9945 25.2871 24.1023 24.5981 24.5001C23.909 24.8979 23.4062 25.5532 23.2003 26.3217C22.9944 27.0903 23.1022 27.9091 23.5 28.5982C23.8978 29.2873 24.5531 29.79 25.3216 29.996C26.0902 30.2019 26.909 30.0941 27.5981 29.6963Z" fill="#00A6ED"/>
<path fill-rule="evenodd" clip-rule="evenodd" d="M20.41 30.7634C20.6752 31.2228 20.7499 31.7671 20.6177 32.2765C20.4855 32.7859 20.1572 33.2188 19.705 33.4798C19.2528 33.7409 18.7138 33.8088 18.2065 33.6686C17.6992 33.5284 17.2652 33.1915 17 32.7322C16.7348 32.2728 16.6601 31.7285 16.7923 31.2191C16.9245 30.7097 17.2528 30.2768 17.705 30.0157C18.1572 29.7547 18.6962 29.6868 19.2035 29.827C19.7108 29.9672 20.1448 30.3041 20.41 30.7634ZM35.1865 22.2322C35.4517 22.6915 35.5265 23.2358 35.3943 23.7452C35.262 24.2547 34.9337 24.6875 34.4815 24.9486C34.0294 25.2097 33.4903 25.2776 32.983 25.1373C32.4758 24.9971 32.0418 24.6603 31.7766 24.2009C31.5113 23.7416 31.4366 23.1973 31.5688 22.6879C31.701 22.1784 32.0294 21.7456 32.4815 21.4845C32.9337 21.2234 33.4728 21.1555 33.98 21.2957C34.4873 21.436 34.9213 21.7728 35.1865 22.2322Z" fill="#F8312F"/>
</svg>
