<svg width="38" height="36" viewBox="0 0 38 36" fill="none" xmlns="http://www.w3.org/2000/svg">
<path fill-rule="evenodd" clip-rule="evenodd" d="M12.6637 27.6169C12.7622 27.7875 12.822 27.9782 12.8398 28.1781C12.8576 28.378 12.833 28.5831 12.7673 28.7818C12.7017 28.9806 12.5963 29.169 12.4573 29.3363C12.3182 29.5037 12.1482 29.6466 11.9569 29.7571C11.7655 29.8675 11.5567 29.9433 11.3422 29.9801C11.1278 30.0168 10.912 30.0139 10.707 29.9714C10.5021 29.9288 10.3121 29.8476 10.1479 29.7323C9.9837 29.6169 9.84849 29.4698 9.75 29.2992C9.55109 28.9546 9.51381 28.5356 9.64637 28.1342C9.77893 27.7329 10.0705 27.3821 10.4569 27.159C10.8432 26.9359 11.2928 26.8589 11.7067 26.9447C12.1205 27.0306 12.4648 27.2724 12.6637 27.6169ZM32.2667 16.2992C32.4656 16.6437 32.5028 17.0627 32.3703 17.4641C32.2377 17.8654 31.9462 18.2162 31.5598 18.4393C31.1734 18.6624 30.7239 18.7395 30.31 18.6536C29.8961 18.5677 29.5519 18.3259 29.353 17.9814C29.154 17.6369 29.1168 17.2178 29.2493 16.8165C29.3819 16.4151 29.6734 16.0643 30.0598 15.8412C30.4462 15.6182 30.8958 15.5411 31.3096 15.627C31.7235 15.7128 32.0677 15.9546 32.2667 16.2992Z" fill="#00A6ED"/>
<path fill-rule="evenodd" clip-rule="evenodd" d="M10.5643 16.4482L15.838 18.6279L10 22.9283L9.4169 17.2819C8.82797 17.3773 8.22215 17.1153 7.91487 16.583C7.51222 15.8856 7.77088 14.9777 8.49059 14.5622C8.76994 14.4028 9.09122 14.3339 9.40776 14.3654C9.72431 14.397 10.0196 14.5274 10.2508 14.7377C10.4821 14.9479 10.6371 15.2272 10.6935 15.5348C10.7499 15.8424 10.7046 16.1623 10.5643 16.4482ZM22.7222 9.60015L27.3205 12.9283L20.6772 15.834L21.4264 10.177C20.953 10.1444 20.5032 9.89022 20.2542 9.45892C19.8515 8.76151 20.1102 7.85359 20.8299 7.43807C21.5496 7.02254 22.4652 7.25249 22.8679 7.9499C23.1752 8.48214 23.0992 9.13778 22.7222 9.60015Z" fill="#E19747"/>
<path d="M29.1827 5.54602C28.783 4.85376 27.8813 4.62141 27.1756 5.02884C26.4699 5.43628 26.2202 6.33339 26.6199 7.02565C26.7671 7.28069 26.9927 7.47837 27.2331 7.5946C27.0289 7.71254 26.8509 7.87603 26.7295 8.11613L24.4161 12.5366C24.1068 13.1159 23.4122 13.3712 22.8057 13.1141L15.6295 10.0554C15.5755 10.0287 15.5182 10.0087 15.459 9.99599C15.6727 9.64892 15.765 9.24321 15.7214 8.84273C15.6777 8.44225 15.5006 8.06974 15.2178 7.78385C14.935 7.49796 14.5627 7.31492 14.1595 7.26356C13.7562 7.21219 13.3449 7.29541 12.9904 7.50012C12.6358 7.70483 12.3581 8.0194 12.201 8.3943C12.0438 8.76921 12.0162 9.18316 12.1224 9.57098C12.2286 9.95881 12.4626 10.2985 12.7876 10.5365C13.1126 10.7746 13.5101 10.8975 13.9176 10.8859C13.9015 10.9438 13.8854 11.0017 13.8838 11.0633L12.9446 18.8075C12.8732 19.4559 12.2956 19.9351 11.6392 19.9133L6.6543 19.7065C6.38568 19.6916 6.1551 19.764 5.95082 19.8819C5.97441 19.6011 5.91196 19.3214 5.76472 19.0664C5.36504 18.3741 4.46329 18.1418 3.7576 18.5492C3.0519 18.9566 2.80225 19.8538 3.20193 20.546C3.6016 21.2383 4.50335 21.4706 5.20904 21.0632C5.25547 21.0364 5.3019 21.0096 5.33378 20.979C5.33402 21.2582 5.42959 21.531 5.63781 21.7629L14.8728 32.183C15.5383 32.9282 16.652 33.0989 17.5341 32.5896L32.4466 23.9799C33.3287 23.4706 33.7378 22.4207 33.4252 21.4717L29.0186 8.26402C28.9218 7.9677 28.7189 7.74482 28.4918 7.60877C28.5382 7.58196 28.5899 7.56427 28.627 7.54282C29.3327 7.13539 29.5824 6.23827 29.1827 5.54602Z" fill="#F05B28"/>
<path d="M22.6651 25.0802C23.2393 24.7487 23.6583 24.2027 23.8299 23.5622C24.0015 22.9218 23.9116 22.2394 23.5801 21.6652C23.2486 21.091 22.7026 20.672 22.0621 20.5004C21.4217 20.3288 20.7393 20.4186 20.1651 20.7501C19.5909 21.0816 19.1719 21.6277 19.0002 22.2681C18.8286 22.9086 18.9185 23.591 19.25 24.1652C19.5815 24.7394 20.1276 25.1584 20.768 25.33C21.4085 25.5016 22.0909 25.4118 22.6651 25.0802Z" fill="#00A6ED"/>
<path fill-rule="evenodd" clip-rule="evenodd" d="M16.5105 24.7054C16.7094 25.0499 16.7547 25.4643 16.6365 25.8574C16.5183 26.2504 16.2463 26.59 15.8802 26.8013C15.5142 27.0127 15.0841 27.0785 14.6846 26.9843C14.2851 26.8901 13.9489 26.6437 13.75 26.2992C13.5511 25.9546 13.5057 25.5403 13.6239 25.1472C13.7421 24.7541 14.0142 24.4146 14.3802 24.2032C14.7463 23.9919 15.1764 23.9261 15.5759 24.0203C15.9754 24.1144 16.3115 24.3609 16.5105 24.7054ZM28.4724 17.7992C28.6713 18.1437 28.7167 18.5581 28.5985 18.9511C28.4803 19.3442 28.2083 19.6837 27.8422 19.8951C27.4761 20.1064 27.0461 20.1722 26.6466 20.0781C26.2471 19.9839 25.9109 19.7374 25.712 19.3929C25.5131 19.0484 25.4677 18.634 25.5859 18.241C25.7041 17.8479 25.9761 17.5083 26.3422 17.297C26.7083 17.0857 27.1383 17.0198 27.5378 17.114C27.9373 17.2082 28.2735 17.4546 28.4724 17.7992Z" fill="#F8312F"/>
</svg>
