<svg width="15" height="16" viewBox="0 0 15 16" fill="none" xmlns="http://www.w3.org/2000/svg">
<g clip-path="url(#clip0_950_368)">
<path d="M12.1408 2.25326L12.1207 2.69691L12.122 2.69712L12.0819 3.17539C11.9593 4.63627 11.7254 5.8127 11.4266 6.75512L11.2788 7.22117L11.277 7.22077L11.1149 7.60232C10.4087 9.26469 9.48437 9.96598 8.79297 10.1349L8.41164 10.2281V10.6206V12.6578V13.0485L8.79078 13.143L10.1305 13.4767L10.1316 13.477C10.2488 13.5059 10.3598 13.5585 10.4568 13.631L12.1091 14.8672H2.89377L4.54604 13.631C4.64305 13.5585 4.75403 13.5059 4.87122 13.477L4.87232 13.4767L6.21204 13.143L6.59117 13.0485V12.6578V10.6206V10.2281L6.20985 10.1349C5.5185 9.96599 4.59412 9.26476 3.88795 7.60147L3.72574 7.21941L3.72488 7.2196L3.57702 6.75471C3.27739 5.81261 3.04351 4.63551 2.9219 3.17568L2.882 2.69675L2.88345 2.69651L2.86292 2.25194C2.84162 1.79066 2.83083 1.32895 2.83055 0.867188H12.1723C12.1718 1.35268 12.1607 1.8147 12.1408 2.25326ZM12.1848 14.9238C12.1847 14.9238 12.1847 14.9238 12.1846 14.9237L12.1847 14.9238L12.1848 14.9238ZM2.81811 14.9238L2.81817 14.9237C2.81813 14.9238 2.81808 14.9238 2.81804 14.9238L2.81811 14.9238Z" fill="#F05B28" stroke="white"/>
<path d="M7.29369 2.38319C7.90702 2.38319 8.37369 2.51119 8.69369 2.76719C9.01369 3.01785 9.17369 3.35652 9.17369 3.78319C9.17369 4.03919 9.10435 4.25785 8.96569 4.43919C8.83235 4.61519 8.67235 4.74852 8.48569 4.83919C8.59769 4.88185 8.70169 4.93519 8.79769 4.99919C8.89369 5.06319 8.97902 5.14319 9.05369 5.23919C9.12835 5.33519 9.18702 5.44719 9.22969 5.57519C9.27235 5.70319 9.29369 5.85252 9.29369 6.02319C9.29369 6.25252 9.24302 6.45785 9.14169 6.63919C9.04569 6.82052 8.90969 6.97519 8.73369 7.10319C8.55769 7.23119 8.34702 7.32719 8.10169 7.39119C7.86169 7.46052 7.59769 7.49519 7.30969 7.49519C6.75502 7.49519 6.33635 7.41785 6.05369 7.26319C5.77102 7.10852 5.62969 6.91119 5.62969 6.67119C5.62969 6.52719 5.66435 6.40452 5.73369 6.30319C5.80302 6.19652 5.88835 6.11385 5.98969 6.05519C6.09635 6.12985 6.23769 6.20985 6.41369 6.29519C6.59502 6.37519 6.82969 6.41519 7.11769 6.41519C7.38969 6.41519 7.58969 6.36719 7.71769 6.27119C7.85102 6.17519 7.91769 6.04985 7.91769 5.89519C7.91769 5.74052 7.86435 5.62319 7.75769 5.54319C7.65635 5.46319 7.47769 5.42319 7.22169 5.42319H6.46969C6.43235 5.36452 6.40035 5.29252 6.37369 5.20719C6.34702 5.12185 6.33369 5.02052 6.33369 4.90319C6.33369 4.78052 6.34435 4.67652 6.36569 4.59119C6.39235 4.50052 6.42702 4.42585 6.46969 4.36719H7.22169C7.60569 4.36719 7.79769 4.22052 7.79769 3.92719C7.79769 3.78852 7.73635 3.67652 7.61369 3.59119C7.49102 3.50585 7.30702 3.46319 7.06169 3.46319C6.84302 3.46319 6.65102 3.48985 6.48569 3.54319C6.32035 3.59119 6.18435 3.65252 6.07769 3.72719C5.98702 3.66319 5.91235 3.58585 5.85369 3.49519C5.79502 3.39919 5.76569 3.28719 5.76569 3.15919C5.76569 2.89252 5.90435 2.69785 6.18169 2.57519C6.45902 2.44719 6.82969 2.38319 7.29369 2.38319Z" fill="white"/>
</g>
<defs>
<clipPath id="clip0_950_368">
<rect width="15" height="16" fill="white"/>
</clipPath>
</defs>
</svg>
