<svg width="21" height="22" viewBox="0 0 21 22" fill="none" xmlns="http://www.w3.org/2000/svg">
<g clip-path="url(#clip0_950_353)">
<path d="M3.76277 1.00851V1.0083C3.76277 0.967318 3.77908 0.927727 3.80858 0.898315C3.83812 0.868855 3.87849 0.852051 3.92088 0.852051H17.0831C17.1255 0.852051 17.1658 0.868856 17.1954 0.898314L17.5484 0.544262L17.1954 0.898317C17.2249 0.927728 17.2412 0.967317 17.2412 1.0083C17.2412 1.70697 17.2255 2.37141 17.1969 3.00163L17.1768 3.44527L17.615 3.51762C18.0694 3.59265 18.504 3.75765 18.8934 4.00282C19.2827 4.24798 19.6187 4.56834 19.8817 4.94493C20.1447 5.32152 20.3294 5.74673 20.4249 6.19548C20.5204 6.64423 20.5249 7.10749 20.438 7.55798L20.9289 7.65268L20.438 7.55798C20.3511 8.00846 20.1746 8.43711 19.9188 8.81863C19.6631 9.20015 19.3333 9.52684 18.9487 9.77937C18.5642 10.0319 18.1328 10.2052 17.6799 10.2888C17.227 10.3725 16.7619 10.3649 16.312 10.2665L15.907 10.1779L15.7449 10.5594C14.7417 12.9212 13.4082 13.9645 12.3576 14.2212L11.9763 14.3143V14.7069V17.5589V17.9496L12.3554 18.0441L14.231 18.5113L14.2321 18.5116C14.4223 18.5585 14.602 18.6437 14.7592 18.7612C14.7592 18.7612 14.7592 18.7613 14.7593 18.7613L17.1784 20.5712L17.1785 20.5712C17.205 20.5911 17.2244 20.6185 17.2341 20.6496L17.7112 20.5001L17.2341 20.6496C17.2438 20.6807 17.2435 20.7139 17.2332 20.7448C17.2229 20.7757 17.203 20.8028 17.1761 20.8222C17.1491 20.8415 17.1166 20.8521 17.0831 20.8521H3.92088C3.88736 20.8521 3.85482 20.8415 3.82788 20.8222C3.80097 20.8028 3.78107 20.7757 3.77075 20.7448C3.76043 20.7139 3.76011 20.6807 3.76984 20.6496L3.2927 20.5001L3.76984 20.6496C3.77957 20.6185 3.79894 20.591 3.82547 20.5712L3.82554 20.5712L6.24468 18.7613C6.40186 18.6437 6.58166 18.5585 6.77181 18.5116L6.7729 18.5113L8.64851 18.0441L9.02764 17.9496V17.5589V14.7069V14.3143L8.64632 14.2212C7.59583 13.9645 6.2623 12.9213 5.25903 10.5582L5.09682 10.1762L4.69144 10.2653C4.24132 10.3642 3.77586 10.3722 3.32258 10.2888C2.86929 10.2054 2.43744 10.0323 2.05251 9.77974C1.66759 9.52718 1.33741 9.20033 1.08143 8.81856C0.825443 8.43679 0.648822 8.00781 0.56193 7.55698C0.475039 7.10614 0.479625 6.64253 0.57542 6.19348C0.671215 5.74444 0.856292 5.31902 1.11978 4.94235C1.38328 4.56567 1.71986 4.24538 2.10972 4.00044C2.49958 3.7555 2.93478 3.59089 3.38963 3.51642L3.82883 3.4445L3.8083 2.99993C3.77768 2.33656 3.76249 1.67258 3.76277 1.00851ZM3.89135 4.30054L3.84559 3.75123L3.30333 3.85017C2.48646 3.99921 1.76203 4.46581 1.28965 5.14782C0.817246 5.82989 0.635781 6.67139 0.785463 7.48713C0.935141 8.30285 1.40358 9.02547 2.0872 9.49628L2.3708 9.0845L2.0872 9.49629C2.77077 9.96706 3.61365 10.1477 4.4305 9.99862L4.98943 9.89664L4.81723 9.3552C4.39238 8.01935 4.0626 6.35624 3.89135 4.30054ZM16.1879 9.35561L16.0163 9.89672L16.5748 9.99862C17.3916 10.1477 18.2345 9.96706 18.9181 9.49629C19.6017 9.02547 20.0701 8.30285 20.2198 7.48713C20.3695 6.67139 20.188 5.82989 19.7156 5.14782C19.2432 4.46581 18.5188 3.99921 17.7019 3.85017L17.16 3.75129L17.1139 4.30026C16.9414 6.35738 16.6116 8.01944 16.1879 9.35561Z" fill="#FEDB33" stroke="white"/>
<path d="M9.58711 6.54L8.58711 6.85C8.48711 6.78333 8.38711 6.69 8.28711 6.57C8.18711 6.45 8.13711 6.28333 8.13711 6.07C8.13711 5.67 8.38044 5.39 8.86711 5.23L9.98711 4.85H10.3571C10.6438 4.85 10.8704 4.93333 11.0371 5.1C11.2038 5.26667 11.2871 5.49333 11.2871 5.78V10.99C11.2138 11.0033 11.1038 11.02 10.9571 11.04C10.8171 11.0667 10.6738 11.08 10.5271 11.08C10.3804 11.08 10.2471 11.07 10.1271 11.05C10.0138 11.03 9.91711 10.99 9.83711 10.93C9.75711 10.87 9.69378 10.79 9.64711 10.69C9.60711 10.5833 9.58711 10.4467 9.58711 10.28V6.54Z" fill="white"/>
</g>
<defs>
<clipPath id="clip0_950_353">
<rect width="21" height="22" fill="white"/>
</clipPath>
</defs>
</svg>
