<svg width="18" height="19" viewBox="0 0 18 19" fill="none" xmlns="http://www.w3.org/2000/svg">
<g clip-path="url(#clip0_950_338)">
<path d="M3.29666 0.794153V0.793945C3.29666 0.777827 3.30307 0.762082 3.31493 0.750251L2.96188 0.396198L3.31493 0.750251C3.32684 0.738373 3.3433 0.731445 3.36075 0.731445H14.6426C14.6601 0.731445 14.6765 0.738373 14.6885 0.750251C14.7003 0.76208 14.7067 0.777826 14.7067 0.793945C14.7067 1.39174 14.6934 1.96018 14.6689 2.49927L14.6487 2.94291L15.0869 3.01526C15.467 3.07803 15.8306 3.21605 16.1562 3.42112C16.4819 3.62618 16.7629 3.89413 16.9829 4.2091L17.3928 3.92281L16.9829 4.2091C17.2029 4.52406 17.3573 4.87968 17.4372 5.25497C17.5171 5.63026 17.5208 6.01768 17.4481 6.39442C17.3754 6.77116 17.2278 7.12965 17.014 7.44874C16.8001 7.76783 16.5242 8.04107 16.2026 8.2523C15.8809 8.46353 15.52 8.60845 15.1412 8.67844C14.7624 8.74844 14.3733 8.74208 13.997 8.65975L13.592 8.57115L13.4299 8.95271C12.5752 10.9648 11.4463 11.8371 10.5753 12.0499L10.194 12.143V12.5356V14.9802V15.3709L10.5731 15.4654L12.1808 15.8659L12.1819 15.8661C12.3355 15.9041 12.4809 15.9729 12.608 16.068L14.6816 17.6193L14.6816 17.6194C14.6924 17.6274 14.7001 17.6384 14.7039 17.6507C14.7078 17.663 14.7076 17.6761 14.7036 17.6883C14.6995 17.7005 14.6916 17.7114 14.6806 17.7193C14.6697 17.7271 14.6564 17.7314 14.6426 17.7314H3.36075C3.34696 17.7314 3.33366 17.7271 3.32273 17.7193C3.31183 17.7114 3.3039 17.7005 3.29981 17.6883C3.29573 17.6761 3.29561 17.663 3.29945 17.6507C3.3033 17.6384 3.31101 17.6274 3.32175 17.6194L3.32182 17.6193L5.39536 16.068C5.52245 15.9729 5.66785 15.9041 5.82151 15.8661L5.82261 15.8659L7.43028 15.4654L7.80941 15.3709V14.9802V12.5356V12.143L7.42809 12.0499C6.55717 11.8371 5.42821 10.9648 4.57349 8.95167L4.41128 8.56961L4.0059 8.65873C3.62937 8.74151 3.24002 8.74821 2.86085 8.67844C2.48168 8.60867 2.12045 8.46385 1.79848 8.2526L1.52419 8.67065L1.79848 8.2526C1.47651 8.04135 1.20036 7.76797 0.986263 7.44867C0.77217 7.12938 0.62446 6.77061 0.551792 6.39358C0.479125 6.01655 0.48296 5.62882 0.563074 5.25329C0.643187 4.87776 0.79797 4.52196 1.01834 4.20693C1.23872 3.89189 1.52024 3.62399 1.84633 3.41912C2.17243 3.21424 2.53646 3.07655 2.91694 3.01425L3.35614 2.94233L3.33561 2.49776C3.30941 1.93027 3.29642 1.36225 3.29666 0.794153ZM3.40662 3.60994L3.36086 3.06063L2.8186 3.15957C2.09985 3.29071 1.46238 3.70126 1.0467 4.30143C0.630975 4.90166 0.471269 5.64222 0.602998 6.36012C0.734723 7.078 1.14697 7.7139 1.74851 8.12819C2.35001 8.54244 3.09166 8.70134 3.81039 8.5702L4.36933 8.46822L4.19713 7.92678C3.83489 6.78781 3.55306 5.3677 3.40662 3.60994ZM13.8073 7.92719L13.6357 8.46831L14.1941 8.5702C14.9128 8.70134 15.6545 8.54244 16.256 8.12819C16.8575 7.7139 17.2698 7.078 17.4015 6.36012C17.5332 5.64222 17.3735 4.90166 16.9578 4.30143C16.5421 3.70126 15.9047 3.29071 15.1859 3.15957L14.644 3.06068L14.5979 3.60965C14.4504 5.36865 14.1685 6.7879 13.8073 7.92719Z" fill="#6CC9F0" stroke="white"/>
<path d="M9.33816 4.24745C9.64216 4.24745 9.91149 4.28745 10.1462 4.36744C10.3808 4.44211 10.5808 4.54611 10.7462 4.67945C10.9115 4.81278 11.0368 4.97011 11.1222 5.15144C11.2075 5.33278 11.2502 5.52745 11.2502 5.73545C11.2502 6.29545 10.9328 6.82878 10.2982 7.33545L9.25016 8.17545H11.1702C11.2022 8.23411 11.2315 8.30878 11.2582 8.39945C11.2902 8.49011 11.3062 8.58878 11.3062 8.69545C11.3062 8.88745 11.2635 9.02611 11.1782 9.11145C11.0928 9.19145 10.9808 9.23145 10.8422 9.23145H8.06616C7.94882 9.15145 7.85549 9.05011 7.78616 8.92745C7.72216 8.79945 7.69016 8.65011 7.69016 8.47945C7.69016 8.29811 7.72749 8.14611 7.80216 8.02345C7.87682 7.89545 7.95949 7.79411 8.05016 7.71945L9.15416 6.77545C9.29282 6.65811 9.40749 6.55411 9.49816 6.46345C9.58882 6.36745 9.66082 6.28211 9.71416 6.20745C9.77282 6.13278 9.81282 6.06345 9.83416 5.99945C9.86082 5.93545 9.87416 5.87411 9.87416 5.81545C9.87416 5.66611 9.80749 5.54878 9.67416 5.46345C9.54616 5.37811 9.38616 5.33545 9.19416 5.33545C8.98082 5.33545 8.78882 5.37011 8.61816 5.43945C8.45282 5.50345 8.31416 5.57278 8.20216 5.64745C8.11149 5.58345 8.03682 5.50345 7.97816 5.40745C7.91949 5.31145 7.89016 5.19945 7.89016 5.07144C7.89016 4.79411 8.02082 4.58878 8.28216 4.45545C8.54349 4.31678 8.89549 4.24745 9.33816 4.24745Z" fill="white"/>
</g>
<defs>
<clipPath id="clip0_950_338">
<rect width="18" height="19" fill="white"/>
</clipPath>
</defs>
</svg>
