<svg width="76" height="81" viewBox="0 0 76 81" fill="none" xmlns="http://www.w3.org/2000/svg">
<path d="M58.0236 1.52624C50.6214 9.65587 48.2087 21.5087 49.6434 32.3621C50.5075 38.8989 55.8387 43.4061 62.3121 44.081C67.2823 44.5992 75.1159 41.8888 73.5041 35.4415C72.3534 30.8388 66.3896 27.8218 62.1109 29.9969C58.0118 32.0807 56.4369 39.0411 54.8458 42.7697C49.0494 56.353 40.8657 67.8179 26.7591 73.339C22.1161 75.1562 18.2204 75.5157 13.3039 74.8848C12.6533 74.8014 4.89305 73.0219 4.51127 73.5282C4.35736 73.7323 8.67136 76.6125 8.95467 76.818C10.1097 77.6554 13.7669 79.8498 12.6792 78.9266C11.2045 77.6748 9.47525 76.5608 7.82372 75.5672C6.20397 74.5927 3.57097 73.9283 2.21078 72.6326C2.15282 72.5774 7.72898 67.699 8.41903 67.1239" stroke="#FEDB33" stroke-width="3" stroke-linecap="round"/>
</svg>
