<svg width="364" height="228" viewBox="0 0 364 228" fill="none" xmlns="http://www.w3.org/2000/svg">
<path d="M100.695 9.24023L169.768 0.885799L175.329 146.4L131.258 151.73L100.695 9.24023Z" fill="url(#paint0_linear_631_189)"/>
<path d="M261.654 7.57178L192.491 -2.35416e-05L188.578 145.568L232.707 150.399L261.654 7.57178Z" fill="url(#paint1_linear_631_189)"/>
<path d="M92.0998 31.7778L34.9206 49.1464L80.9476 165.353L117.43 154.272L92.0998 31.7778Z" fill="url(#paint2_linear_631_189)"/>
<path d="M270.504 30.0105L327.876 46.7305L283.168 163.451L246.562 152.783L270.504 30.0105Z" fill="url(#paint3_linear_631_189)"/>
<path d="M38.0742 86.4412L0.192383 106.113L47.7056 181.699L71.8755 169.147L38.0742 86.4412Z" fill="url(#paint4_linear_631_189)"/>
<path d="M325.145 84.0591L363.247 103.301L316.593 179.419L292.282 167.143L325.145 84.0591Z" fill="url(#paint5_linear_631_189)"/>
<g filter="url(#filter0_d_631_189)">
<path d="M21.0899 175.704C13.0227 161.415 8.98913 154.271 11.1988 149.591C13.4084 144.912 20.5724 143.648 34.9004 141.122L56.8939 137.244C66.1788 135.607 70.8212 134.788 74.2142 137.164C77.6073 139.54 78.4259 144.182 80.063 153.467L87.196 193.92C88.8332 203.205 89.6518 207.848 87.276 211.241C84.9001 214.634 80.2577 215.452 70.9728 217.09L49.1841 220.931C34.8376 223.461 27.6644 224.726 23.9914 221.12C20.3184 217.515 21.6043 209.339 24.1762 192.988C24.7818 189.138 24.9564 185.752 24.417 183.379C23.9338 181.253 22.7253 178.6 21.0899 175.704Z" fill="url(#paint6_linear_631_189)"/>
</g>
<g filter="url(#filter1_d_631_189)">
<path d="M341.579 175.704C349.646 161.415 353.68 154.271 351.47 149.591C349.261 144.912 342.097 143.648 327.769 141.122L305.775 137.244C296.49 135.607 291.848 134.788 288.455 137.164C285.062 139.54 284.243 144.182 282.606 153.467L275.473 193.92C273.836 203.205 273.017 207.848 275.393 211.241C277.769 214.634 282.411 215.452 291.696 217.09L313.485 220.931C327.831 223.461 335.005 224.726 338.678 221.12C342.351 217.515 341.065 209.339 338.493 192.988C337.887 189.138 337.713 185.752 338.252 183.379C338.735 181.253 339.944 178.6 341.579 175.704Z" fill="url(#paint7_linear_631_189)"/>
</g>
<g filter="url(#filter2_d_631_189)">
<path d="M45.917 152.511C45.917 137.083 45.917 129.369 50.8556 123.716C55.7942 118.063 63.0567 117.08 77.5816 115.112C101.377 111.889 137.301 108.379 180.917 108.379C224.533 108.379 260.457 111.889 284.252 115.112C298.777 117.08 306.04 118.063 310.978 123.716C315.917 129.369 315.917 137.083 315.917 152.511V166.764C315.917 187.137 315.917 197.323 309.536 203.256C303.155 209.189 292.923 208.445 272.457 206.955C242.61 204.783 204.301 202.379 180.917 202.379C157.533 202.379 119.224 204.783 89.377 206.955C68.9114 208.445 58.6786 209.189 52.2978 203.256C45.917 197.323 45.917 187.137 45.917 166.764V152.511Z" fill="url(#paint8_linear_631_189)"/>
</g>
<path d="M82.3739 169.051C82.3739 167.611 82.3899 166.011 82.4219 164.251C82.4859 162.491 82.5339 160.763 82.5659 159.067C82.6299 157.339 82.6779 155.723 82.7099 154.219C82.7419 152.715 82.7579 151.515 82.7579 150.619C82.7579 149.947 82.8379 149.227 82.9979 148.459C83.1579 147.691 83.3979 146.971 83.7179 146.299C84.0699 145.595 84.5179 145.003 85.0619 144.523C85.6059 144.011 86.2779 143.707 87.0779 143.611C87.5899 143.547 88.1819 143.483 88.8539 143.419C89.5259 143.323 90.2299 143.275 90.9659 143.275C92.8859 143.275 94.5179 143.675 95.8619 144.475C97.2059 145.275 98.2939 146.331 99.1259 147.643C99.9899 148.923 100.614 150.395 100.998 152.059C101.382 153.691 101.574 155.339 101.574 157.003C101.574 158.539 101.462 160.107 101.238 161.707C101.014 163.275 100.63 164.795 100.086 166.267C99.5419 167.739 98.8219 169.099 97.9259 170.347C97.0299 171.595 95.9099 172.651 94.5659 173.515C94.2139 173.739 93.7819 173.963 93.2699 174.187C92.7899 174.411 92.2779 174.587 91.7339 174.715C91.1899 174.875 90.6459 175.003 90.1019 175.099C89.5579 175.195 89.0619 175.243 88.6139 175.243C88.1019 175.243 87.5419 175.227 86.9339 175.195C86.3259 175.163 85.7339 175.083 85.1579 174.955C84.5819 174.859 84.0699 174.683 83.6219 174.427C83.1739 174.171 82.8219 173.803 82.5659 173.323C82.4059 172.683 82.3259 171.979 82.3259 171.211C82.3579 170.411 82.3739 169.691 82.3739 169.051ZM90.5819 148.459C90.1659 148.459 89.8299 148.459 89.5739 148.459C89.3499 148.459 89.1419 148.475 88.9499 148.507C88.6299 148.539 88.3739 148.971 88.1819 149.803C87.9899 150.603 87.8299 151.627 87.7019 152.875C87.6059 154.123 87.5419 155.515 87.5099 157.051C87.5099 158.555 87.5099 160.027 87.5099 161.467C87.5099 162.875 87.5259 164.171 87.5579 165.355C87.5899 166.507 87.6059 167.355 87.6059 167.899C87.6059 168.059 87.5899 168.283 87.5579 168.571C87.5579 168.859 87.6059 169.147 87.7019 169.435C87.7979 169.723 87.9739 169.979 88.2299 170.203C88.4859 170.395 88.8859 170.491 89.4299 170.491C90.4859 170.491 91.4619 170.059 92.3579 169.195C93.2539 168.331 94.0059 167.275 94.6139 166.027C95.2539 164.747 95.7499 163.371 96.1019 161.899C96.4539 160.427 96.6299 159.083 96.6299 157.867C96.6299 155.083 96.1179 152.827 95.0939 151.099C94.0699 149.339 92.5659 148.459 90.5819 148.459ZM104.266 168.763C104.266 167.419 104.522 166.267 105.034 165.307C105.578 164.347 106.234 163.515 107.002 162.811C107.77 162.107 108.618 161.499 109.546 160.987C110.474 160.443 111.322 159.931 112.09 159.451C112.858 158.939 113.498 158.443 114.01 157.963C114.554 157.451 114.826 156.859 114.826 156.187C114.826 155.547 114.602 154.955 114.154 154.411C113.706 153.867 113.162 153.595 112.522 153.595C111.85 153.595 111.306 153.787 110.89 154.171C110.474 154.523 110.106 154.939 109.786 155.419C109.498 155.867 109.21 156.283 108.922 156.667C108.634 157.019 108.282 157.195 107.866 157.195C107.226 157.195 106.666 156.987 106.186 156.571C105.706 156.155 105.466 155.627 105.466 154.987C105.466 154.155 105.706 153.403 106.186 152.731C106.698 152.059 107.338 151.467 108.106 150.955C108.874 150.443 109.706 150.059 110.602 149.803C111.498 149.515 112.33 149.371 113.098 149.371C114.634 149.371 115.834 149.675 116.698 150.283C117.594 150.859 118.266 151.627 118.714 152.587C119.194 153.547 119.498 154.635 119.626 155.851C119.754 157.035 119.818 158.251 119.818 159.499V161.899L119.722 166.555V168.955C119.722 169.531 119.738 170.155 119.77 170.827C119.802 171.499 119.786 172.123 119.722 172.699C119.658 173.243 119.498 173.707 119.242 174.091C118.986 174.475 118.586 174.667 118.042 174.667C117.434 174.667 116.97 174.555 116.65 174.331C116.33 174.107 116.074 173.867 115.882 173.611C115.722 173.323 115.594 173.067 115.498 172.843C115.434 172.619 115.306 172.507 115.114 172.507C114.922 172.507 114.666 172.619 114.346 172.843C114.058 173.067 113.69 173.323 113.242 173.611C112.826 173.899 112.33 174.155 111.754 174.379C111.21 174.603 110.602 174.715 109.93 174.715C109.066 174.715 108.282 174.555 107.578 174.235C106.874 173.883 106.266 173.435 105.754 172.891C105.274 172.347 104.906 171.723 104.65 171.019C104.394 170.283 104.266 169.531 104.266 168.763ZM108.874 167.899C108.874 168.699 109.114 169.291 109.594 169.675C110.106 170.027 110.73 170.203 111.466 170.203C112.202 170.203 112.794 170.059 113.242 169.771C113.722 169.451 114.09 169.035 114.346 168.523C114.634 168.011 114.826 167.451 114.922 166.843C115.05 166.203 115.114 165.579 115.114 164.971C115.114 164.523 115.034 164.123 114.874 163.771C114.714 163.419 114.362 163.243 113.818 163.243C113.338 163.243 112.81 163.387 112.234 163.675C111.658 163.963 111.114 164.347 110.602 164.827C110.122 165.275 109.706 165.771 109.354 166.315C109.034 166.859 108.874 167.387 108.874 167.899ZM123.668 143.755C123.668 142.955 123.924 142.235 124.436 141.595C124.948 140.955 125.636 140.635 126.5 140.635C127.332 140.635 128.004 140.955 128.516 141.595C129.06 142.235 129.332 142.955 129.332 143.755C129.332 144.555 129.06 145.275 128.516 145.915C128.004 146.523 127.332 146.827 126.5 146.827C125.668 146.827 124.98 146.523 124.436 145.915C123.924 145.275 123.668 144.555 123.668 143.755ZM126.884 174.331C126.18 174.331 125.636 174.155 125.252 173.803C124.868 173.419 124.58 172.971 124.388 172.459C124.228 171.915 124.132 171.355 124.1 170.779C124.068 170.203 124.036 169.707 124.004 169.291C123.972 168.875 123.94 168.075 123.908 166.891C123.908 165.675 123.892 164.331 123.86 162.859C123.86 161.387 123.86 159.899 123.86 158.395C123.86 156.891 123.86 155.643 123.86 154.651C123.86 154.139 123.876 153.595 123.908 153.019C123.94 152.443 124.036 151.915 124.196 151.435C124.388 150.923 124.66 150.507 125.012 150.187C125.364 149.867 125.86 149.707 126.5 149.707C127.428 149.707 128.052 149.915 128.372 150.331C128.692 150.747 128.852 151.419 128.852 152.347V156.619L128.804 166.171V170.443C128.804 170.795 128.788 171.195 128.756 171.643C128.756 172.091 128.692 172.523 128.564 172.939C128.468 173.323 128.276 173.659 127.988 173.947C127.732 174.203 127.364 174.331 126.884 174.331ZM132.88 154.315C132.88 152.523 132.864 150.763 132.832 149.035C132.832 147.275 132.848 145.499 132.88 143.707C132.88 143.195 132.896 142.683 132.928 142.171C132.96 141.659 133.056 141.211 133.216 140.827C133.376 140.411 133.632 140.075 133.984 139.819C134.336 139.563 134.864 139.435 135.568 139.435C136.016 139.435 136.368 139.547 136.624 139.771C136.88 139.995 137.072 140.283 137.2 140.635C137.328 140.955 137.408 141.307 137.44 141.691C137.472 142.075 137.488 142.443 137.488 142.795V149.035L137.44 161.419V167.659C137.44 168.555 137.504 169.163 137.632 169.483C137.76 169.803 137.904 170.059 138.064 170.251C138.256 170.411 138.416 170.603 138.544 170.827C138.672 171.019 138.736 171.435 138.736 172.075C138.736 172.555 138.64 173.067 138.448 173.611C138.256 174.123 137.856 174.379 137.248 174.379C135.584 174.379 134.432 173.931 133.792 173.035C133.184 172.139 132.88 170.939 132.88 169.435V154.315ZM147.526 174.715C146.566 174.715 145.734 174.491 145.03 174.043C144.358 173.595 143.782 173.003 143.302 172.267C142.822 171.531 142.438 170.699 142.15 169.771C141.894 168.843 141.686 167.899 141.526 166.939C141.398 165.979 141.302 165.051 141.238 164.155C141.206 163.259 141.19 162.475 141.19 161.803V159.835L141.094 155.323V153.355C141.094 152.939 141.094 152.523 141.094 152.107C141.094 151.659 141.158 151.259 141.286 150.907C141.414 150.555 141.622 150.267 141.91 150.043C142.23 149.819 142.694 149.707 143.302 149.707C144.006 149.707 144.518 149.851 144.838 150.139C145.19 150.427 145.43 150.795 145.558 151.243C145.718 151.691 145.798 152.187 145.798 152.731C145.798 153.243 145.798 153.739 145.798 154.219C145.798 154.603 145.798 155.067 145.798 155.611C145.83 156.155 145.846 156.715 145.846 157.291C145.878 157.835 145.894 158.379 145.894 158.923C145.894 159.467 145.894 159.931 145.894 160.315C145.894 160.731 145.862 161.291 145.798 161.995C145.766 162.699 145.75 163.467 145.75 164.299C145.75 164.939 145.782 165.579 145.846 166.219C145.91 166.827 146.022 167.387 146.182 167.899C146.374 168.379 146.63 168.779 146.95 169.099C147.302 169.387 147.734 169.531 148.246 169.531C149.142 169.531 149.862 169.211 150.406 168.571C150.982 167.899 151.43 167.115 151.75 166.219C152.07 165.291 152.278 164.347 152.374 163.387C152.502 162.427 152.566 161.627 152.566 160.987C152.566 160.283 152.55 159.531 152.518 158.731C152.518 157.899 152.502 157.099 152.47 156.331C152.47 155.531 152.454 154.811 152.422 154.171C152.422 153.499 152.422 152.955 152.422 152.539C152.422 152.219 152.454 151.899 152.518 151.579C152.582 151.227 152.678 150.923 152.806 150.667C152.966 150.379 153.174 150.155 153.43 149.995C153.718 149.803 154.07 149.707 154.486 149.707C155.222 149.707 155.782 149.819 156.166 150.043C156.55 150.235 156.822 150.507 156.982 150.859C157.142 151.179 157.222 151.563 157.222 152.011C157.222 152.427 157.222 152.875 157.222 153.355C157.222 154.315 157.238 155.547 157.27 157.051C157.302 158.523 157.334 160.043 157.366 161.611C157.398 163.179 157.43 164.683 157.462 166.123C157.494 167.563 157.51 168.731 157.51 169.627C157.51 170.459 157.494 171.499 157.462 172.747C157.462 173.995 157.398 175.307 157.27 176.683C157.174 178.059 156.966 179.419 156.646 180.763C156.358 182.139 155.926 183.371 155.35 184.459C154.806 185.579 154.086 186.475 153.19 187.147C152.326 187.851 151.238 188.203 149.926 188.203C148.87 188.203 147.926 187.979 147.094 187.531C146.262 187.083 145.558 186.491 144.982 185.755C144.406 185.019 143.958 184.171 143.638 183.211C143.35 182.283 143.206 181.323 143.206 180.331C143.206 180.043 143.222 179.723 143.254 179.371C143.286 179.051 143.35 178.747 143.446 178.459C143.574 178.203 143.75 177.979 143.974 177.787C144.198 177.595 144.502 177.499 144.886 177.499C145.334 177.499 145.798 177.595 146.278 177.787C146.758 177.979 146.998 178.395 146.998 179.035C146.998 179.419 147.014 179.883 147.046 180.427C147.11 181.003 147.238 181.547 147.43 182.059C147.622 182.603 147.894 183.051 148.246 183.403C148.63 183.787 149.158 183.979 149.83 183.979C150.598 183.979 151.19 183.515 151.606 182.587C152.054 181.691 152.374 180.635 152.566 179.419C152.79 178.203 152.918 177.003 152.95 175.819C153.014 174.635 153.046 173.771 153.046 173.227C153.046 173.003 153.014 172.731 152.95 172.411C152.918 172.091 152.742 171.931 152.422 171.931C152.166 171.931 151.926 172.075 151.702 172.363C151.478 172.651 151.19 172.971 150.838 173.323C150.518 173.675 150.086 173.995 149.542 174.283C149.03 174.571 148.358 174.715 147.526 174.715ZM185.967 152.011C185.967 152.267 185.935 152.603 185.871 153.019C185.839 153.435 185.647 153.643 185.295 153.643L184.863 153.595C183.967 153.595 183.215 153.803 182.607 154.219C181.999 154.603 181.503 155.115 181.119 155.755C180.735 156.395 180.463 157.115 180.303 157.915C180.143 158.683 180.063 159.451 180.063 160.219V162.475L179.919 167.755V170.059C179.919 170.443 179.919 170.891 179.919 171.403C179.951 171.915 179.919 172.411 179.823 172.891C179.727 173.339 179.535 173.739 179.247 174.091C178.959 174.411 178.527 174.571 177.951 174.571C176.991 174.571 176.287 174.331 175.839 173.851C175.391 173.371 175.167 172.715 175.167 171.883V167.275L175.215 157.771V153.163C175.215 152.811 175.231 152.427 175.263 152.011C175.295 151.595 175.375 151.211 175.503 150.859C175.631 150.507 175.823 150.219 176.079 149.995C176.367 149.771 176.751 149.659 177.231 149.659C177.679 149.659 178.063 149.739 178.383 149.899C178.703 150.059 178.895 150.379 178.959 150.859C179.023 151.307 179.087 151.627 179.151 151.819C179.215 151.979 179.295 152.059 179.391 152.059C179.487 152.059 179.647 151.915 179.871 151.627C180.095 151.339 180.383 151.019 180.735 150.667C181.119 150.315 181.551 149.995 182.031 149.707C182.543 149.419 183.135 149.275 183.807 149.275C184.575 149.275 185.119 149.563 185.439 150.139C185.791 150.715 185.967 151.339 185.967 152.011ZM195.177 175.147C193.609 175.147 192.265 174.811 191.145 174.139C190.025 173.435 189.113 172.539 188.409 171.451C187.737 170.363 187.241 169.147 186.921 167.803C186.601 166.427 186.441 165.067 186.441 163.723C186.441 161.643 186.617 159.723 186.969 157.963C187.321 156.203 187.849 154.667 188.553 153.355C189.257 152.043 190.153 151.019 191.241 150.283C192.361 149.547 193.657 149.179 195.129 149.179C196.345 149.179 197.385 149.499 198.249 150.139C199.145 150.779 199.897 151.595 200.505 152.587C201.113 153.547 201.561 154.603 201.849 155.755C202.137 156.875 202.281 157.931 202.281 158.923C202.281 159.083 202.281 159.307 202.281 159.595C202.281 159.883 202.265 160.107 202.233 160.267C202.201 160.651 201.913 160.987 201.369 161.275C200.825 161.531 200.153 161.771 199.353 161.995C198.585 162.219 197.753 162.459 196.857 162.715C195.961 162.939 195.129 163.227 194.361 163.579C193.593 163.931 192.953 164.363 192.441 164.875C191.929 165.387 191.673 166.027 191.673 166.795C191.673 167.211 191.769 167.643 191.961 168.091C192.153 168.507 192.393 168.891 192.681 169.243C193.001 169.595 193.369 169.883 193.785 170.107C194.201 170.299 194.649 170.395 195.129 170.395C195.705 170.395 196.153 170.283 196.473 170.059C196.825 169.803 197.113 169.499 197.337 169.147C197.593 168.795 197.801 168.411 197.961 167.995C198.121 167.547 198.281 167.147 198.441 166.795C198.633 166.443 198.857 166.155 199.113 165.931C199.401 165.675 199.769 165.547 200.217 165.547C200.921 165.547 201.449 165.819 201.801 166.363C202.185 166.907 202.377 167.499 202.377 168.139C202.377 168.971 202.169 169.787 201.753 170.587C201.369 171.387 200.937 172.107 200.457 172.747C199.817 173.579 199.033 174.187 198.105 174.571C197.177 174.955 196.201 175.147 195.177 175.147ZM195.129 154.027C194.777 154.027 194.425 154.139 194.073 154.363C193.753 154.587 193.449 154.875 193.161 155.227C192.905 155.547 192.697 155.915 192.537 156.331C192.377 156.747 192.297 157.147 192.297 157.531C192.297 158.171 192.425 158.571 192.681 158.731C192.969 158.891 193.337 158.971 193.785 158.971C194.073 158.971 194.409 158.939 194.793 158.875C195.209 158.779 195.593 158.651 195.945 158.491C196.329 158.299 196.633 158.075 196.857 157.819C197.113 157.531 197.241 157.195 197.241 156.811C197.241 156.555 197.193 156.267 197.097 155.947C197.033 155.627 196.905 155.323 196.713 155.035C196.553 154.747 196.329 154.507 196.041 154.315C195.785 154.123 195.481 154.027 195.129 154.027ZM211.61 174.379C210.906 174.379 210.25 173.915 209.642 172.987C209.034 172.059 208.474 170.875 207.962 169.435C207.45 167.995 206.986 166.411 206.57 164.683C206.154 162.923 205.802 161.211 205.514 159.547C205.226 157.883 205.002 156.363 204.842 154.987C204.714 153.611 204.65 152.587 204.65 151.915C204.65 151.467 204.762 150.987 204.986 150.475C205.242 149.963 205.658 149.707 206.234 149.707C206.65 149.707 207.082 149.787 207.53 149.947C208.01 150.075 208.346 150.491 208.538 151.195C208.73 151.835 208.906 152.635 209.066 153.595C209.258 154.523 209.434 155.515 209.594 156.571C209.786 157.595 209.962 158.635 210.122 159.691C210.314 160.747 210.506 161.691 210.698 162.523C210.922 163.355 211.13 164.027 211.322 164.539C211.546 165.051 211.77 165.307 211.994 165.307C212.122 165.307 212.25 165.147 212.378 164.827C212.538 164.475 212.682 164.059 212.81 163.579C212.938 163.067 213.066 162.523 213.194 161.947C213.322 161.339 213.434 160.779 213.53 160.267C213.626 159.723 213.69 159.259 213.722 158.875C213.786 158.459 213.834 158.203 213.866 158.107C213.93 157.659 214.026 156.987 214.154 156.091C214.282 155.163 214.474 154.251 214.73 153.355C214.986 152.427 215.322 151.627 215.738 150.955C216.186 150.283 216.746 149.947 217.418 149.947C218.09 149.947 218.666 150.347 219.146 151.147C219.626 151.947 220.042 152.939 220.394 154.123C220.746 155.307 221.05 156.603 221.306 158.011C221.594 159.419 221.85 160.715 222.074 161.899C222.298 163.083 222.522 164.075 222.746 164.875C222.97 165.675 223.226 166.075 223.514 166.075C223.834 166.075 224.138 165.579 224.426 164.587C224.746 163.595 225.066 162.379 225.386 160.939C225.706 159.467 226.01 157.915 226.298 156.283C226.618 154.651 226.938 153.195 227.258 151.915C227.45 151.147 227.77 150.587 228.218 150.235C228.698 149.883 229.13 149.707 229.514 149.707C229.834 149.707 230.09 149.787 230.282 149.947C230.474 150.107 230.618 150.315 230.714 150.571C230.842 150.795 230.922 151.051 230.954 151.339C230.986 151.627 231.002 151.883 231.002 152.107C231.002 152.939 230.938 153.819 230.81 154.747C230.714 155.643 230.57 156.571 230.378 157.531C230.186 158.459 229.978 159.371 229.754 160.267C229.53 161.163 229.322 161.995 229.13 162.763C229.034 163.179 228.89 163.771 228.698 164.539C228.538 165.275 228.346 166.091 228.122 166.987C227.898 167.883 227.626 168.795 227.306 169.723C227.018 170.651 226.666 171.499 226.25 172.267C225.866 173.003 225.418 173.611 224.906 174.091C224.426 174.571 223.882 174.811 223.274 174.811C222.506 174.811 221.85 174.459 221.306 173.755C220.794 173.051 220.346 172.171 219.962 171.115C219.578 170.059 219.258 168.923 219.002 167.707C218.746 166.491 218.506 165.355 218.282 164.299C218.09 163.243 217.898 162.363 217.706 161.659C217.546 160.955 217.37 160.603 217.178 160.603C216.986 160.603 216.778 160.955 216.554 161.659C216.362 162.331 216.154 163.179 215.93 164.203C215.706 165.195 215.45 166.299 215.162 167.515C214.906 168.699 214.602 169.803 214.25 170.827C213.93 171.819 213.546 172.667 213.098 173.371C212.65 174.043 212.154 174.379 211.61 174.379ZM232.133 168.763C232.133 167.419 232.389 166.267 232.901 165.307C233.445 164.347 234.101 163.515 234.869 162.811C235.637 162.107 236.485 161.499 237.413 160.987C238.341 160.443 239.189 159.931 239.957 159.451C240.725 158.939 241.365 158.443 241.877 157.963C242.421 157.451 242.693 156.859 242.693 156.187C242.693 155.547 242.469 154.955 242.021 154.411C241.573 153.867 241.029 153.595 240.389 153.595C239.717 153.595 239.173 153.787 238.757 154.171C238.341 154.523 237.973 154.939 237.653 155.419C237.365 155.867 237.077 156.283 236.789 156.667C236.501 157.019 236.149 157.195 235.733 157.195C235.093 157.195 234.533 156.987 234.053 156.571C233.573 156.155 233.333 155.627 233.333 154.987C233.333 154.155 233.573 153.403 234.053 152.731C234.565 152.059 235.205 151.467 235.973 150.955C236.741 150.443 237.573 150.059 238.469 149.803C239.365 149.515 240.197 149.371 240.965 149.371C242.501 149.371 243.701 149.675 244.565 150.283C245.461 150.859 246.133 151.627 246.581 152.587C247.061 153.547 247.365 154.635 247.493 155.851C247.621 157.035 247.685 158.251 247.685 159.499V161.899L247.589 166.555V168.955C247.589 169.531 247.605 170.155 247.637 170.827C247.669 171.499 247.653 172.123 247.589 172.699C247.525 173.243 247.365 173.707 247.109 174.091C246.853 174.475 246.453 174.667 245.909 174.667C245.301 174.667 244.837 174.555 244.517 174.331C244.197 174.107 243.941 173.867 243.749 173.611C243.589 173.323 243.461 173.067 243.365 172.843C243.301 172.619 243.173 172.507 242.981 172.507C242.789 172.507 242.533 172.619 242.213 172.843C241.925 173.067 241.557 173.323 241.109 173.611C240.693 173.899 240.197 174.155 239.621 174.379C239.077 174.603 238.469 174.715 237.797 174.715C236.933 174.715 236.149 174.555 235.445 174.235C234.741 173.883 234.133 173.435 233.621 172.891C233.141 172.347 232.773 171.723 232.517 171.019C232.261 170.283 232.133 169.531 232.133 168.763ZM236.741 167.899C236.741 168.699 236.981 169.291 237.461 169.675C237.973 170.027 238.597 170.203 239.333 170.203C240.069 170.203 240.661 170.059 241.109 169.771C241.589 169.451 241.957 169.035 242.213 168.523C242.501 168.011 242.693 167.451 242.789 166.843C242.917 166.203 242.981 165.579 242.981 164.971C242.981 164.523 242.901 164.123 242.741 163.771C242.581 163.419 242.229 163.243 241.685 163.243C241.205 163.243 240.677 163.387 240.101 163.675C239.525 163.963 238.981 164.347 238.469 164.827C237.989 165.275 237.573 165.771 237.221 166.315C236.901 166.859 236.741 167.387 236.741 167.899ZM261.807 152.011C261.807 152.267 261.775 152.603 261.711 153.019C261.679 153.435 261.487 153.643 261.135 153.643L260.703 153.595C259.807 153.595 259.055 153.803 258.447 154.219C257.839 154.603 257.343 155.115 256.959 155.755C256.575 156.395 256.303 157.115 256.143 157.915C255.983 158.683 255.903 159.451 255.903 160.219V162.475L255.759 167.755V170.059C255.759 170.443 255.759 170.891 255.759 171.403C255.791 171.915 255.759 172.411 255.663 172.891C255.567 173.339 255.375 173.739 255.087 174.091C254.799 174.411 254.367 174.571 253.791 174.571C252.831 174.571 252.127 174.331 251.679 173.851C251.231 173.371 251.007 172.715 251.007 171.883V167.275L251.055 157.771V153.163C251.055 152.811 251.071 152.427 251.103 152.011C251.135 151.595 251.215 151.211 251.343 150.859C251.471 150.507 251.663 150.219 251.919 149.995C252.207 149.771 252.591 149.659 253.071 149.659C253.519 149.659 253.903 149.739 254.223 149.899C254.543 150.059 254.735 150.379 254.799 150.859C254.863 151.307 254.927 151.627 254.991 151.819C255.055 151.979 255.135 152.059 255.231 152.059C255.327 152.059 255.487 151.915 255.711 151.627C255.935 151.339 256.223 151.019 256.575 150.667C256.959 150.315 257.391 149.995 257.871 149.707C258.383 149.419 258.975 149.275 259.647 149.275C260.415 149.275 260.959 149.563 261.279 150.139C261.631 150.715 261.807 151.339 261.807 152.011ZM280.561 165.019V169.195C280.561 169.739 280.561 170.347 280.561 171.019C280.561 171.659 280.513 172.267 280.417 172.843C280.321 173.419 280.129 173.899 279.841 174.283C279.585 174.667 279.185 174.859 278.641 174.859C278.065 174.859 277.633 174.715 277.345 174.427C277.057 174.139 276.833 173.819 276.673 173.467C276.513 173.083 276.385 172.747 276.289 172.459C276.225 172.171 276.113 172.027 275.953 172.027C275.793 172.027 275.585 172.171 275.329 172.459C275.105 172.747 274.801 173.083 274.417 173.467C274.033 173.819 273.569 174.139 273.025 174.427C272.481 174.715 271.825 174.859 271.057 174.859C268.241 174.859 266.161 173.659 264.817 171.259C263.505 168.859 262.849 165.547 262.849 161.323C262.849 157.515 263.489 154.587 264.769 152.539C266.049 150.459 267.937 149.419 270.433 149.419C271.137 149.419 271.745 149.531 272.257 149.755C272.801 149.947 273.249 150.171 273.601 150.427C273.985 150.683 274.305 150.923 274.561 151.147C274.817 151.339 275.025 151.435 275.185 151.435C275.505 151.435 275.665 150.347 275.665 148.171C275.665 147.659 275.649 147.147 275.617 146.635C275.617 146.091 275.617 145.595 275.617 145.147C275.617 144.667 275.601 144.251 275.569 143.899C275.569 143.547 275.569 143.307 275.569 143.179C275.569 142.763 275.569 142.331 275.569 141.883C275.601 141.435 275.681 141.035 275.809 140.683C275.969 140.331 276.209 140.043 276.529 139.819C276.849 139.563 277.313 139.435 277.921 139.435C278.625 139.435 279.137 139.547 279.457 139.771C279.809 139.963 280.033 140.235 280.129 140.587C280.257 140.939 280.321 141.355 280.321 141.835C280.321 142.283 280.337 142.763 280.369 143.275C280.433 144.907 280.449 146.523 280.417 148.123C280.417 149.723 280.433 151.339 280.465 152.971L280.561 165.019ZM275.665 161.707C275.665 161.067 275.601 160.331 275.473 159.499C275.345 158.635 275.121 157.819 274.801 157.051C274.481 156.283 274.049 155.643 273.505 155.131C272.961 154.587 272.273 154.315 271.441 154.315C270.641 154.315 269.985 154.603 269.473 155.179C268.993 155.723 268.609 156.395 268.321 157.195C268.033 157.963 267.825 158.779 267.697 159.643C267.601 160.475 267.553 161.179 267.553 161.755C267.553 162.267 267.601 163.003 267.697 163.963C267.793 164.891 267.969 165.819 268.225 166.747C268.481 167.643 268.833 168.443 269.281 169.147C269.761 169.819 270.369 170.155 271.105 170.155C271.937 170.155 272.625 169.883 273.169 169.339C273.745 168.763 274.209 168.091 274.561 167.323C274.945 166.523 275.217 165.691 275.377 164.827C275.537 163.931 275.617 163.163 275.617 162.523L275.665 161.707Z" fill="white"/>
<g filter="url(#filter3_d_631_189)">
<path d="M170.664 61.8224C174.746 49.2585 176.787 42.9766 180.556 42.9766C184.324 42.9766 186.365 49.2585 190.447 61.8224C191.575 65.2928 192.139 67.028 193.502 68.0186C194.865 69.0091 196.69 69.0091 200.339 69.0091C213.549 69.0091 220.155 69.0091 221.319 72.5929C222.484 76.1767 217.14 80.0592 206.452 87.8241C203.5 89.9689 202.024 91.0414 201.503 92.6441C200.983 94.2468 201.546 95.982 202.674 99.4524C206.756 112.016 208.797 118.298 205.749 120.513C202.7 122.728 197.357 118.846 186.669 111.081C183.717 108.936 182.241 107.863 180.556 107.863C178.87 107.863 177.394 108.936 174.442 111.081C163.755 118.846 158.411 122.728 155.362 120.513C152.314 118.298 154.355 112.016 158.437 99.4524C159.565 95.982 160.129 94.2468 159.608 92.6441C159.087 91.0414 157.611 89.9689 154.659 87.8241C143.972 80.0592 138.628 76.1767 139.792 72.5929C140.957 69.0091 147.562 69.0091 160.772 69.0091C164.421 69.0091 166.246 69.0091 167.609 68.0186C168.973 67.028 169.536 65.2928 170.664 61.8224Z" fill="url(#paint9_linear_631_189)"/>
</g>
<g filter="url(#filter4_d_631_189)">
<path d="M246.631 83.7924C250.301 76.89 252.136 73.4389 254.306 73.455C254.706 73.458 255.103 73.5279 255.48 73.6619C257.524 74.3889 258.068 78.2595 259.156 86.0008C259.458 88.1505 259.609 89.2253 260.242 90.0004C260.368 90.155 260.507 90.2988 260.657 90.4303C261.409 91.0894 262.478 91.2779 264.616 91.6548C272.315 93.0123 276.164 93.691 276.819 95.7597C276.94 96.1409 276.996 96.5397 276.985 96.9394C276.925 99.1085 273.412 100.822 266.386 104.249C264.435 105.2 263.459 105.676 262.918 106.517C262.81 106.685 262.716 106.862 262.637 107.045C262.243 107.964 262.394 109.039 262.696 111.189C263.784 118.93 264.328 122.801 262.563 124.063C262.238 124.296 261.876 124.472 261.492 124.585C259.411 125.199 256.696 122.387 251.265 116.764C249.757 115.202 249.003 114.422 248.036 114.166C247.843 114.115 247.646 114.081 247.448 114.063C246.451 113.972 245.476 114.447 243.525 115.399C236.498 118.826 232.985 120.539 231.239 119.251C230.918 119.014 230.638 118.724 230.412 118.394C229.185 116.604 231.02 113.153 234.69 106.251C235.709 104.334 236.219 103.376 236.163 102.377C236.152 102.178 236.124 101.98 236.08 101.785C235.858 100.809 235.104 100.029 233.596 98.4671C228.166 92.8438 225.451 90.0321 226.137 87.9734C226.263 87.594 226.452 87.2385 226.696 86.9216C228.019 85.2018 231.868 85.8805 239.567 87.238C241.705 87.6149 242.774 87.8034 243.706 87.4415C243.892 87.3692 244.072 87.2816 244.243 87.1794C245.103 86.6674 245.612 85.7091 246.631 83.7924Z" fill="url(#paint10_linear_631_189)"/>
</g>
<g filter="url(#filter5_d_631_189)">
<path d="M115.055 83.7924C111.385 76.89 109.55 73.4389 107.38 73.455C106.98 73.458 106.584 73.5279 106.207 73.6619C104.162 74.3889 103.618 78.2595 102.53 86.0008C102.228 88.1505 102.077 89.2253 101.445 90.0004C101.319 90.155 101.18 90.2988 101.03 90.4303C100.277 91.0894 99.2081 91.2779 97.0703 91.6548C89.3717 93.0123 85.5224 93.691 84.8672 95.7597C84.7465 96.1409 84.6904 96.5397 84.7014 96.9394C84.761 99.1085 88.2741 100.822 95.3003 104.249C97.2514 105.2 98.227 105.676 98.7687 106.517C98.8768 106.685 98.9706 106.862 99.0493 107.045C99.4436 107.964 99.2925 109.039 98.9904 111.189C97.9024 118.93 97.3584 122.801 99.1234 124.063C99.4486 124.296 99.8105 124.472 100.194 124.585C102.275 125.199 104.991 122.387 110.421 116.764C111.929 115.202 112.683 114.422 113.65 114.166C113.843 114.115 114.04 114.081 114.239 114.063C115.235 113.972 116.211 114.447 118.162 115.399C125.188 118.826 128.701 120.539 130.447 119.251C130.769 119.014 131.048 118.724 131.275 118.394C132.501 116.604 130.666 113.153 126.996 106.251C125.977 104.334 125.468 103.376 125.524 102.377C125.535 102.178 125.563 101.98 125.607 101.785C125.828 100.809 126.582 100.029 128.09 98.4671C133.521 92.8438 136.236 90.0321 135.55 87.9734C135.423 87.594 135.234 87.2385 134.991 86.9216C133.667 85.2018 129.818 85.8805 122.119 87.238C119.982 87.6149 118.913 87.8034 117.98 87.4415C117.794 87.3692 117.614 87.2816 117.443 87.1794C116.584 86.6674 116.074 85.7091 115.055 83.7924Z" fill="url(#paint11_linear_631_189)"/>
</g>
<defs>
<filter id="filter0_d_631_189" x="10.5994" y="135.681" width="78.16" height="91.6775" filterUnits="userSpaceOnUse" color-interpolation-filters="sRGB">
<feFlood flood-opacity="0" result="BackgroundImageFix"/>
<feColorMatrix in="SourceAlpha" type="matrix" values="0 0 0 0 0 0 0 0 0 0 0 0 0 0 0 0 0 0 127 0" result="hardAlpha"/>
<feOffset dy="4"/>
<feComposite in2="hardAlpha" operator="out"/>
<feColorMatrix type="matrix" values="0 0 0 0 0.886275 0 0 0 0 0.419608 0 0 0 0 0.117647 0 0 0 1 0"/>
<feBlend mode="normal" in2="BackgroundImageFix" result="effect1_dropShadow_631_189"/>
<feBlend mode="normal" in="SourceGraphic" in2="effect1_dropShadow_631_189" result="shape"/>
</filter>

<filter id="filter1_d_631_189" x="273.91" y="135.681" width="78.16" height="91.6775" filterUnits="userSpaceOnUse" color-interpolation-filters="sRGB">
<feFlood flood-opacity="0" result="BackgroundImageFix"/>
<feColorMatrix in="SourceAlpha" type="matrix" values="0 0 0 0 0 0 0 0 0 0 0 0 0 0 0 0 0 0 127 0" result="hardAlpha"/>
<feOffset dy="4"/>
<feComposite in2="hardAlpha" operator="out"/>
<feColorMatrix type="matrix" values="0 0 0 0 0.886275 0 0 0 0 0.419608 0 0 0 0 0.117647 0 0 0 1 0"/>
<feBlend mode="normal" in2="BackgroundImageFix" result="effect1_dropShadow_631_189"/>
<feBlend mode="normal" in="SourceGraphic" in2="effect1_dropShadow_631_189" result="shape"/>
</filter>
<filter id="filter2_d_631_189" x="45.917" y="108.379" width="270" height="103.627" filterUnits="userSpaceOnUse" color-interpolation-filters="sRGB">
<feFlood flood-opacity="0" result="BackgroundImageFix"/>
<feColorMatrix in="SourceAlpha" type="matrix" values="0 0 0 0 0 0 0 0 0 0 0 0 0 0 0 0 0 0 127 0" result="hardAlpha"/>
<feOffset dy="4"/>
<feComposite in2="hardAlpha" operator="out"/>
<feColorMatrix type="matrix" values="0 0 0 0 0.886275 0 0 0 0 0.419608 0 0 0 0 0.117647 0 0 0 1 0"/>
<feBlend mode="normal" in2="BackgroundImageFix" result="effect1_dropShadow_631_189"/>
<feBlend mode="normal" in="SourceGraphic" in2="effect1_dropShadow_631_189" result="shape"/>
</filter>
<filter id="filter3_d_631_189" x="139.635" y="42.9766" width="81.841" height="82.1541" filterUnits="userSpaceOnUse" color-interpolation-filters="sRGB">
<feFlood flood-opacity="0" result="BackgroundImageFix"/>
<feColorMatrix in="SourceAlpha" type="matrix" values="0 0 0 0 0 0 0 0 0 0 0 0 0 0 0 0 0 0 127 0" result="hardAlpha"/>
<feOffset dy="4"/>
<feComposite in2="hardAlpha" operator="out"/>
<feColorMatrix type="matrix" values="0 0 0 0 1 0 0 0 0 0.720277 0 0 0 0 0.000989556 0 0 0 1 0"/>
<feBlend mode="normal" in2="BackgroundImageFix" result="effect1_dropShadow_631_189"/>
<feBlend mode="normal" in="SourceGraphic" in2="effect1_dropShadow_631_189" result="shape"/>
</filter>
<filter id="filter4_d_631_189" x="226.032" y="73.4548" width="50.9543" height="55.2134" filterUnits="userSpaceOnUse" color-interpolation-filters="sRGB">
<feFlood flood-opacity="0" result="BackgroundImageFix"/>
<feColorMatrix in="SourceAlpha" type="matrix" values="0 0 0 0 0 0 0 0 0 0 0 0 0 0 0 0 0 0 127 0" result="hardAlpha"/>
<feOffset dy="4"/>
<feComposite in2="hardAlpha" operator="out"/>
<feColorMatrix type="matrix" values="0 0 0 0 1 0 0 0 0 0.720277 0 0 0 0 0.000989556 0 0 0 1 0"/>
<feBlend mode="normal" in2="BackgroundImageFix" result="effect1_dropShadow_631_189"/>
<feBlend mode="normal" in="SourceGraphic" in2="effect1_dropShadow_631_189" result="shape"/>
</filter>
<filter id="filter5_d_631_189" x="84.7001" y="73.4548" width="50.9542" height="55.2134" filterUnits="userSpaceOnUse" color-interpolation-filters="sRGB">
<feFlood flood-opacity="0" result="BackgroundImageFix"/>
<feColorMatrix in="SourceAlpha" type="matrix" values="0 0 0 0 0 0 0 0 0 0 0 0 0 0 0 0 0 0 127 0" result="hardAlpha"/>
<feOffset dy="4"/>
<feComposite in2="hardAlpha" operator="out"/>
<feColorMatrix type="matrix" values="0 0 0 0 1 0 0 0 0 0.720277 0 0 0 0 0.000989556 0 0 0 1 0"/>
<feBlend mode="normal" in2="BackgroundImageFix" result="effect1_dropShadow_631_189"/>
<feBlend mode="normal" in="SourceGraphic" in2="effect1_dropShadow_631_189" result="shape"/>
</filter>
<linearGradient id="paint0_linear_631_189" x1="135.232" y1="5.06302" x2="152.658" y2="149.142" gradientUnits="userSpaceOnUse">
<stop stop-color="#FFEDAD" stop-opacity="0"/>
<stop offset="1" stop-color="#FFEFB8" stop-opacity="0.5"/>
</linearGradient>
<linearGradient id="paint1_linear_631_189" x1="227.073" y1="3.78588" x2="211.279" y2="148.053" gradientUnits="userSpaceOnUse">
<stop stop-color="#FFEDAD" stop-opacity="0"/>
<stop offset="1" stop-color="#FFEFB8" stop-opacity="0.5"/>
</linearGradient>
<linearGradient id="paint2_linear_631_189" x1="63.5102" y1="40.4621" x2="99.715" y2="159.653" gradientUnits="userSpaceOnUse">
<stop stop-color="#FFEDAD" stop-opacity="0"/>
<stop offset="1" stop-color="#FFEFB8" stop-opacity="0.5"/>
</linearGradient>
<linearGradient id="paint3_linear_631_189" x1="299.19" y1="38.3705" x2="264.337" y2="157.963" gradientUnits="userSpaceOnUse">
<stop stop-color="#FFEDAD" stop-opacity="0"/>
<stop offset="1" stop-color="#FFEFB8" stop-opacity="0.5"/>
</linearGradient>
<linearGradient id="paint4_linear_631_189" x1="19.1333" y1="96.277" x2="60.1391" y2="175.242" gradientUnits="userSpaceOnUse">
<stop stop-color="#FFEDAD" stop-opacity="0"/>
<stop offset="1" stop-color="#FFEFB8" stop-opacity="0.5"/>
</linearGradient>
<linearGradient id="paint5_linear_631_189" x1="344.196" y1="93.6799" x2="304.087" y2="173.104" gradientUnits="userSpaceOnUse">
<stop stop-color="#FFEDAD" stop-opacity="0"/>
<stop offset="1" stop-color="#FFEFB8" stop-opacity="0.5"/>
</linearGradient>
<linearGradient id="paint6_linear_631_189" x1="28.417" y1="94.8791" x2="44.917" y2="180.379" gradientUnits="userSpaceOnUse">
<stop stop-color="#FFCF25"/>
<stop offset="1" stop-color="#FD8C43"/>
</linearGradient>
<linearGradient id="paint7_linear_631_189" x1="334.252" y1="94.8791" x2="317.752" y2="180.379" gradientUnits="userSpaceOnUse">
<stop stop-color="#FFCF25"/>
<stop offset="1" stop-color="#FD8C43"/>
</linearGradient>
<linearGradient id="paint8_linear_631_189" x1="180.917" y1="55.3794" x2="180.917" y2="162.379" gradientUnits="userSpaceOnUse">
<stop stop-color="#FFCF25"/>
<stop offset="1" stop-color="#FD8C43"/>
</linearGradient>
<linearGradient id="paint9_linear_631_189" x1="180.556" y1="46.828" x2="180.556" y2="108.623" gradientUnits="userSpaceOnUse">
<stop stop-color="#FFF2C2"/>
<stop offset="1" stop-color="#FFCF25"/>
</linearGradient>
<linearGradient id="paint10_linear_631_189" x1="254.568" y1="75.4037" x2="247.669" y2="114.526" gradientUnits="userSpaceOnUse">
<stop stop-color="#FFF2C2"/>
<stop offset="1" stop-color="#FFCF25"/>
</linearGradient>
<linearGradient id="paint11_linear_631_189" x1="107.119" y1="75.4037" x2="114.017" y2="114.526" gradientUnits="userSpaceOnUse">
<stop stop-color="#FFF2C2"/>
<stop offset="1" stop-color="#FFCF25"/>
</linearGradient>
</defs>
</svg>
