<svg width="16" height="16" viewBox="0 0 16 16" fill="none" xmlns="http://www.w3.org/2000/svg">
<path fill-rule="evenodd" clip-rule="evenodd" d="M10.8896 1.8335H5.11028C3.09628 1.8335 1.83362 3.2595 1.83362 5.2775V10.7228C1.83362 12.7408 3.09028 14.1668 5.11028 14.1668H10.889C12.9096 14.1668 14.167 12.7408 14.167 10.7228V5.2775C14.167 3.2595 12.9096 1.8335 10.8896 1.8335Z" stroke="white" stroke-width="1.5" stroke-linecap="round" stroke-linejoin="round"/>
<path fill-rule="evenodd" clip-rule="evenodd" d="M7.12821 8.00005C7.12821 8.68138 6.57555 9.23471 5.89355 9.23471C5.21221 9.23471 4.65955 8.68138 4.65955 8.00005C4.65955 7.31871 5.21221 6.76538 5.89355 6.76538C6.57555 6.76538 7.12821 7.31871 7.12821 8.00005Z" stroke="white" stroke-width="1.5" stroke-linecap="round" stroke-linejoin="round"/>
<path d="M7.12823 8.00024H11.3402V9.23491" stroke="white" stroke-width="1.5" stroke-linecap="round" stroke-linejoin="round"/>
<path d="M9.45443 9.23442V7.99976" stroke="white" stroke-width="1.5" stroke-linecap="round" stroke-linejoin="round"/>
</svg>
