<svg width="30" height="30" viewBox="0 0 30 30" fill="none" xmlns="http://www.w3.org/2000/svg">
<g clip-path="url(#clip0_624_2122)">
<path d="M19.6875 29.0625H10.3125V15.9375C10.3125 15.6889 10.4113 15.4504 10.5871 15.2746C10.7629 15.0988 11.0014 15 11.25 15H18.75C18.9986 15 19.2371 15.0988 19.4129 15.2746C19.5887 15.4504 19.6875 15.6889 19.6875 15.9375V29.0625ZM28.125 29.0625H19.6875V24.5312C19.6875 24.2826 19.7863 24.0441 19.9621 23.8683C20.1379 23.6925 20.3764 23.5937 20.625 23.5937H28.125C28.3736 23.5937 28.6121 23.6925 28.7879 23.8683C28.9637 24.0441 29.0625 24.2826 29.0625 24.5312V28.125C29.0625 28.3736 28.9637 28.6121 28.7879 28.7879C28.6121 28.9637 28.3736 29.0625 28.125 29.0625ZM10.3125 29.0625V21.4062C10.3125 21.1576 10.2137 20.9191 10.0379 20.7433C9.8621 20.5675 9.62364 20.4687 9.375 20.4687H1.875C1.62636 20.4687 1.3879 20.5675 1.21209 20.7433C1.03627 20.9191 0.9375 21.1576 0.9375 21.4062V28.125C0.9375 28.3736 1.03627 28.6121 1.21209 28.7879C1.3879 28.9637 1.62636 29.0625 1.875 29.0625H10.3125ZM13.1344 4.23906L14.5547 1.22812C14.593 1.14205 14.6555 1.06893 14.7345 1.01762C14.8136 0.966304 14.9058 0.938995 15 0.938995C15.0942 0.938995 15.1864 0.966304 15.2655 1.01762C15.3445 1.06893 15.407 1.14205 15.4453 1.22812L16.8672 4.23906L20.0422 4.72499C20.45 4.78749 20.6125 5.31249 20.3172 5.61249L18.0203 7.95624L18.5625 11.2656C18.6312 11.6906 18.2062 12.0156 17.8406 11.8141L15 10.2516L12.1594 11.8141C11.7953 12.0141 11.3688 11.6906 11.4375 11.2656L11.9797 7.95624L9.68281 5.61249C9.38594 5.31249 9.55 4.78749 9.95625 4.72499L13.1344 4.23906Z" fill="#6CC9F0"/>
<path d="M19.6875 29.0625H10.3125M19.6875 29.0625V15.9375C19.6875 15.6889 19.5887 15.4504 19.4129 15.2746C19.2371 15.0988 18.9986 15 18.75 15H11.25C11.0014 15 10.7629 15.0988 10.5871 15.2746C10.4113 15.4504 10.3125 15.6889 10.3125 15.9375V29.0625M19.6875 29.0625H28.125C28.3736 29.0625 28.6121 28.9637 28.7879 28.7879C28.9637 28.6121 29.0625 28.3736 29.0625 28.125V24.5312C29.0625 24.2826 28.9637 24.0441 28.7879 23.8683C28.6121 23.6925 28.3736 23.5937 28.125 23.5937H20.625C20.3764 23.5937 20.1379 23.6925 19.9621 23.8683C19.7863 24.0441 19.6875 24.2826 19.6875 24.5312V29.0625ZM10.3125 29.0625V21.4062C10.3125 21.1576 10.2137 20.9191 10.0379 20.7433C9.8621 20.5675 9.62364 20.4687 9.375 20.4687H1.875C1.62636 20.4687 1.3879 20.5675 1.21209 20.7433C1.03627 20.9191 0.9375 21.1576 0.9375 21.4062V28.125C0.9375 28.3736 1.03627 28.6121 1.21209 28.7879C1.3879 28.9637 1.62636 29.0625 1.875 29.0625H10.3125ZM13.1344 4.23906L14.5547 1.22812C14.593 1.14205 14.6555 1.06893 14.7345 1.01762C14.8136 0.966304 14.9058 0.938995 15 0.938995C15.0942 0.938995 15.1864 0.966304 15.2655 1.01762C15.3445 1.06893 15.407 1.14205 15.4453 1.22812L16.8672 4.23906L20.0422 4.72499C20.45 4.78749 20.6125 5.31249 20.3172 5.61249L18.0203 7.95624L18.5625 11.2656C18.6312 11.6906 18.2062 12.0156 17.8406 11.8141L15 10.2516L12.1594 11.8141C11.7953 12.0141 11.3688 11.6906 11.4375 11.2656L11.9797 7.95624L9.68281 5.61249C9.38594 5.31249 9.55 4.78749 9.95625 4.72499L13.1344 4.23906Z" stroke="#E7F3FD" stroke-linecap="round" stroke-linejoin="round"/>
</g>
<defs>
<clipPath id="clip0_624_2122">
<rect width="30" height="30" fill="white"/>
</clipPath>
</defs>
</svg>
