<svg width="131" height="150" viewBox="0 0 131 150" fill="none" xmlns="http://www.w3.org/2000/svg">
<g opacity="0.2">
<path opacity="0.5" d="M63.3798 150C98.0607 150 126.175 144.095 126.175 136.811C126.175 129.527 98.0607 123.622 63.3798 123.622C28.6989 123.622 0.584534 129.527 0.584534 136.811C0.584534 144.095 28.6989 150 63.3798 150Z" fill="#630E0E"/>
</g>
<path d="M112.086 122.498C108.055 132.6 92.484 129.049 92.4673 128.791C92.4673 128.791 82.3393 119.162 95.389 121.102C96.2875 121.235 97.1117 121.325 97.8691 121.37C110.624 122.167 104.109 111.245 104.154 106.018C104.183 102.691 106.152 100.539 107.718 99.352C108.688 98.6189 110.073 98.8527 110.769 99.8483L110.803 99.8984C111.285 100.584 111.307 101.481 110.892 102.205C109.712 104.264 109.744 106.091 110.233 107.917C111.326 111.962 114.683 115.988 112.086 122.498Z" fill="#F99D28"/>
<path d="M112.086 122.498C108.055 132.6 92.484 129.049 92.4673 128.791C92.4673 128.791 82.3393 119.162 95.389 121.102C96.2875 121.235 97.1117 121.325 97.8691 121.37C100.378 123.254 105.214 125.767 109.802 121.839C113.746 118.462 109.78 111.892 110.233 107.915C111.326 111.962 114.683 115.988 112.086 122.498Z" fill="#F47D2A"/>
<path d="M98.8662 130.472C96.975 130.472 95.3662 130.28 94.3963 130.128C92.6266 129.852 91.9694 129.644 91.7296 129.284C90.6338 128.217 86.8637 124.278 88.1082 121.727C88.9096 120.085 91.2637 119.614 95.518 120.247C99.8284 120.888 102.67 120.505 103.958 119.107C105.591 117.338 104.775 113.827 104.057 110.731C103.656 109.003 103.277 107.372 103.289 106.013C103.319 102.362 105.431 100.002 107.197 98.6645C107.85 98.1712 108.656 97.9693 109.468 98.0968C110.277 98.2243 111.01 98.6827 111.48 99.355L111.515 99.4051C112.177 100.352 112.227 101.621 111.644 102.638C110.029 105.456 110.958 107.732 112.133 110.612C113.467 113.883 114.98 117.59 112.892 122.821C110.336 129.217 103.685 130.472 98.8662 130.472ZM92.962 128.067C93.9941 128.382 100.745 129.694 105.978 127.463C108.531 126.374 110.316 124.596 111.281 122.176C113.11 117.594 111.798 114.375 110.527 111.263C109.336 108.345 108.105 105.326 110.139 101.774C110.394 101.328 110.377 100.8 110.093 100.393L110.058 100.343C109.853 100.05 109.547 99.8589 109.196 99.8043C108.855 99.7497 108.515 99.8347 108.241 100.041C106.786 101.143 105.045 103.077 105.019 106.024C105.01 107.178 105.365 108.712 105.743 110.336C106.56 113.851 107.486 117.835 105.232 120.279C103.506 122.15 100.246 122.7 95.263 121.958C90.6429 121.27 89.8096 122.187 89.6655 122.484C89.1191 123.6 91.2773 126.432 92.962 128.067ZM93.3293 128.73H93.3324H93.3293ZM93.2368 128.398C93.2884 128.499 93.3202 128.612 93.3293 128.727C93.3202 128.601 93.2853 128.492 93.2368 128.398Z" fill="#630E0E"/>
<path d="M108.758 100.9C109.006 101.574 109.472 102.193 110.124 102.693C111.952 104.1 115.653 105.13 118.927 104.783C123.263 104.324 123.847 102.427 129.546 102.392C129.581 102.392 127.279 96.4349 122.663 93.7241C121.308 92.9243 119.757 92.4067 118.004 92.4006C113.338 92.387 110.521 95.4028 109.073 97.854C108.478 98.8633 108.401 99.9363 108.758 100.9Z" fill="#AE3C39"/>
<g opacity="0.4">
<path d="M127.725 98.88C126.637 97.5701 125.303 96.3043 123.727 95.377C122.225 94.4891 120.504 93.9138 118.561 93.9093C113.385 93.8941 110.262 97.2362 108.657 99.9561C108.627 100.008 108.597 100.059 108.569 100.112C108.481 99.3702 108.639 98.5946 109.076 97.8539C110.524 95.4028 113.341 92.3885 118.005 92.4006C119.758 92.4067 121.311 92.9242 122.666 93.7256C124.888 95.0339 126.578 97.0966 127.725 98.88Z" fill="white"/>
</g>
<g opacity="0.3">
<path d="M108.758 100.9C109.006 101.574 109.472 102.193 110.123 102.693C111.952 104.1 115.653 105.13 118.927 104.783C123.263 104.324 123.847 102.427 129.546 102.392C129.581 102.392 127.279 96.4349 122.663 93.7241C123.328 94.612 123.876 95.8202 123.618 97.2393C123.374 98.5886 120.623 100.217 116.425 99.9955C113.922 99.865 113.432 98.4079 113.432 98.4079C113.432 98.4079 113.634 100.991 112.3 101.466C111.036 101.917 109.733 101.607 108.758 100.9Z" fill="#630E0E"/>
</g>
<path d="M117.615 105.716C114.656 105.716 111.456 104.81 109.595 103.379C107.624 101.861 107.115 99.4643 108.329 97.4123C109.629 95.2161 112.608 91.5355 117.97 91.5355C117.982 91.5355 117.995 91.5355 118.008 91.5355C126.268 91.5613 130.415 101.809 130.415 102.391C130.415 102.867 130.029 103.256 129.552 103.259C126.462 103.278 125.002 103.854 123.457 104.464C122.247 104.942 120.997 105.435 119.019 105.645C118.561 105.693 118.09 105.716 117.615 105.716ZM117.97 93.2688C113.466 93.2688 110.931 96.4166 109.818 98.2956C109.049 99.5979 109.368 101.02 110.65 102.007C112.212 103.209 115.703 104.254 118.834 103.924C120.578 103.738 121.666 103.309 122.818 102.855C124.222 102.301 125.667 101.73 128.237 101.571C127.034 99.1183 123.583 93.287 117.999 93.2703C117.99 93.2688 117.979 93.2688 117.97 93.2688Z" fill="#630E0E"/>
<path d="M128.792 102.819C127.768 101.656 125.963 101.384 124.41 101.46C122.513 101.541 120.663 102.239 118.754 102.266C117.471 102.298 116.06 102.202 114.941 101.481C114.842 101.398 114.52 101.245 114.668 101.061C114.674 101.053 114.681 101.047 114.687 101.043L115.255 100.627C115.264 100.621 115.339 100.662 115.39 100.679C117.022 101.19 118.782 100.792 120.417 100.428C121.698 100.09 122.956 99.7011 124.296 99.6191C126.426 99.4446 128.964 99.9576 130.237 101.862C130.926 102.876 129.443 103.858 128.792 102.819Z" fill="#630E0E"/>
<path d="M48.7298 122.255C48.7298 122.255 43.7925 113.279 35.2702 114.502C30.2798 115.219 28.5177 121.108 28.5177 121.108C25.5383 114.92 14.7273 115.568 14.5102 126.446C14.3858 132.681 16.5926 136.501 19.0241 139.119C24.3969 144.905 31.7885 140.411 35.2702 138.806C38.752 137.202 49.56 140.55 55.7176 136.958" fill="#F99D28"/>
<path d="M55.719 136.958C49.5599 140.552 38.7519 137.202 35.2702 138.806C31.7869 140.412 24.3969 144.905 19.024 139.121C17.277 137.24 15.6454 134.734 14.9139 131.158C14.6604 129.929 14.5162 128.574 14.5086 127.071C14.5086 127.069 14.5086 127.069 14.5086 127.066C14.5041 126.863 14.5071 126.655 14.5101 126.446C14.7272 115.569 25.5367 114.921 28.5161 121.108C28.5161 121.108 28.5449 121.017 28.6011 120.857C29.0033 119.725 30.8975 115.132 35.2702 114.504C37.3131 114.211 39.1496 114.504 40.7614 115.117C45.8748 117.07 48.7282 122.257 48.7282 122.257L55.719 136.958Z" fill="#F99D28"/>
<g opacity="0.4">
<path d="M29.5983 123.853C25.9177 118.688 21.2354 118.688 18.6127 120.394C15.1855 122.624 14.545 126.807 14.5086 127.066C14.5041 126.863 14.5071 126.655 14.5101 126.446C14.7272 115.569 25.5367 114.921 28.5161 121.108C28.5161 121.108 28.5449 121.017 28.6011 120.857L29.5983 123.853Z" fill="white"/>
</g>
<path d="M55.719 136.958C49.5599 140.552 38.7519 137.202 35.2701 138.806C31.7868 140.412 24.3968 144.905 19.0239 139.121C17.277 137.24 15.6454 134.734 14.9138 131.158C16.1113 133.388 18.9678 137.279 23.5514 136.771C30.4527 136.005 29.2522 123.714 29.1839 123.331C29.2947 123.57 31.2465 127.763 33.5095 126.916C35.2671 126.261 33.6628 123.321 36.1337 118.359C36.6771 117.268 38.5728 116.126 40.7644 115.116C45.8778 117.069 48.7312 122.255 48.7312 122.255L55.719 136.958Z" fill="#F47D2A"/>
<path d="M25.4608 142.85C23.0369 142.85 20.5645 142.051 18.3895 139.709C15.0899 136.156 13.5372 131.812 13.645 126.429C13.7694 120.171 17.2405 117.195 20.4476 116.497C23.4755 115.838 26.508 116.94 28.3491 119.23C29.3053 117.271 31.3816 114.187 35.1472 113.646C44.1597 112.355 49.2745 121.451 49.4885 121.839C49.7192 122.258 49.566 122.785 49.1471 123.016C48.7281 123.246 48.2015 123.093 47.9708 122.676C47.9237 122.591 43.208 114.237 35.393 115.361C31.0204 115.99 29.363 121.307 29.3463 121.36C29.243 121.701 28.9395 121.945 28.5843 121.973C28.2261 122.003 27.8922 121.807 27.7374 121.486C26.505 118.927 23.6592 117.571 20.8164 118.191C17.4986 118.913 15.4648 122.006 15.3752 126.465C15.2766 131.445 16.6365 135.281 19.6583 138.533C24.0811 143.296 30.1583 140.33 33.7903 138.559C34.1955 138.362 34.5689 138.18 34.9074 138.023C36.5101 137.284 39.2087 137.449 42.3323 137.641C46.5668 137.9 51.8365 138.224 55.2819 136.212C55.6947 135.971 56.2259 136.111 56.4657 136.524C56.7055 136.936 56.5674 137.466 56.1546 137.707C52.2554 139.983 46.6943 139.643 42.226 139.368C39.4561 139.198 36.8395 139.037 35.6328 139.594C35.305 139.746 34.9423 139.922 34.5507 140.113C32.312 141.204 28.938 142.85 25.4608 142.85Z" fill="#630E0E"/>
<path d="M23.5032 136.422C25.5699 136.07 26.8605 133.527 26.386 130.742C25.9114 127.958 23.8513 125.986 21.7846 126.338C19.718 126.69 18.4273 129.233 18.9019 132.018C19.3765 134.802 21.4366 136.774 23.5032 136.422Z" fill="#FFE9C2"/>
<path d="M25.025 125.764C25.7256 125.778 26.3093 125.024 26.3288 124.08C26.3483 123.135 25.7961 122.358 25.0954 122.343C24.3948 122.329 23.8111 123.083 23.7916 124.027C23.7721 124.972 24.3243 125.749 25.025 125.764Z" fill="#FFE9C2"/>
<path d="M21.1536 125.385C22.131 125.294 22.8243 124.153 22.7022 122.836C22.5801 121.519 21.6889 120.525 20.7115 120.615C19.7341 120.706 19.0408 121.847 19.1629 123.164C19.285 124.481 20.1763 125.475 21.1536 125.385Z" fill="#FFE9C2"/>
<path d="M18.3722 127.729C19.0532 127.531 19.3896 126.627 19.1235 125.709C18.8573 124.792 18.0895 124.208 17.4084 124.405C16.7273 124.603 16.391 125.507 16.6571 126.424C16.9232 127.342 17.6911 127.926 18.3722 127.729Z" fill="#FFE9C2"/>
<path d="M30.5545 131.819C30.4999 130.029 30.1189 128.228 29.6514 126.494C29.1748 124.778 28.5708 123.046 27.7375 121.487C27.2245 120.466 28.6861 119.67 29.2629 120.665C30.0582 122.449 30.5408 124.304 30.9157 126.2C31.2633 128.064 31.5092 129.934 31.4181 131.841C31.4044 132.08 31.2011 132.263 30.9628 132.25C30.7336 132.237 30.556 132.046 30.5545 131.819Z" fill="#630E0E"/>
<path d="M73.1067 122.255C73.1067 122.255 78.044 113.279 86.5663 114.502C91.5582 115.219 93.3188 121.108 93.3188 121.108C96.2982 114.92 107.109 115.568 107.326 126.446C107.451 132.681 105.244 136.501 102.812 139.119C97.4395 144.905 90.048 140.411 86.5663 138.806C83.0845 137.202 72.2765 140.55 66.1189 136.958" fill="#F99D28"/>
<path d="M66.1174 136.958C72.2765 140.552 83.0845 137.202 86.5662 138.806C90.0495 140.412 97.4395 144.905 102.812 139.121C104.559 137.24 106.191 134.734 106.923 131.158C107.176 129.929 107.322 128.574 107.328 127.071C107.328 127.069 107.328 127.069 107.328 127.066C107.332 126.863 107.329 126.655 107.326 126.446C107.109 115.569 96.2997 114.921 93.3203 121.108C93.3203 121.108 93.2915 121.017 93.2353 120.857C92.8331 119.725 90.9389 115.132 86.5662 114.504C84.5233 114.211 82.6868 114.504 81.075 115.117C75.9616 117.07 73.1082 122.257 73.1082 122.257L66.1174 136.958Z" fill="#F99D28"/>
<g opacity="0.4">
<path d="M92.2366 123.853C95.9172 118.688 100.599 118.688 103.222 120.394C106.649 122.624 107.29 126.807 107.326 127.066C107.331 126.863 107.328 126.655 107.325 126.446C107.108 115.569 96.2981 114.921 93.3187 121.108C93.3187 121.108 93.2899 121.017 93.2337 120.857L92.2366 123.853Z" fill="white"/>
</g>
<path d="M66.1174 136.958C72.2765 140.552 83.0845 137.202 86.5662 138.806C90.0495 140.412 97.4395 144.905 102.812 139.121C104.559 137.24 106.191 134.734 106.923 131.158C105.725 133.388 102.869 137.279 98.2849 136.771C91.3836 136.005 92.5842 123.714 92.6525 123.331C92.5417 123.57 90.5898 127.763 88.3269 126.916C86.5693 126.261 88.1736 123.321 85.7026 118.359C85.1593 117.268 83.2636 116.126 81.0719 115.116C75.9586 117.069 73.1052 122.255 73.1052 122.255L66.1174 136.958Z" fill="#F47D2A"/>
<path d="M96.3755 142.85C92.8968 142.85 89.5243 141.204 87.2856 140.112C86.8925 139.92 86.5297 139.743 86.2034 139.593C84.9953 139.036 82.3801 139.196 79.6102 139.366C75.1419 139.641 69.5808 139.981 65.6817 137.706C65.2688 137.465 65.1292 136.935 65.3705 136.522C65.6119 136.109 66.1416 135.97 66.5544 136.211C69.9997 138.222 75.2694 137.899 79.504 137.639C82.6275 137.448 85.3246 137.283 86.9289 138.022C87.2674 138.178 87.6407 138.36 88.046 138.557C91.678 140.329 97.7566 143.294 102.178 138.532C105.198 135.279 106.56 131.444 106.46 126.464C106.372 122.005 104.338 118.911 101.02 118.189C98.1786 117.57 95.3313 118.925 94.0988 121.484C93.944 121.806 93.6056 122 93.2504 121.971C92.8937 121.942 92.5917 121.698 92.4885 121.357C92.4733 121.305 90.8144 115.988 86.4417 115.36C78.6297 114.238 73.911 122.589 73.864 122.674C73.6333 123.091 73.1066 123.245 72.6877 123.014C72.2688 122.783 72.117 122.258 72.3462 121.839C72.5602 121.451 77.6751 112.352 86.6876 113.646C90.4532 114.187 92.5295 117.271 93.4856 119.23C95.3267 116.94 98.3607 115.84 101.387 116.497C104.594 117.195 108.065 120.171 108.191 126.429C108.299 131.812 106.746 136.156 103.447 139.709C101.272 142.05 98.7978 142.85 96.3755 142.85Z" fill="#630E0E"/>
<path d="M100.036 126.335C97.9689 125.982 95.9088 127.954 95.4342 130.739C94.9596 133.524 96.2503 136.067 98.3169 136.419C100.384 136.771 102.444 134.799 102.918 132.015C103.393 129.23 102.102 126.687 100.036 126.335Z" fill="#FFE9C2"/>
<path d="M96.7414 122.338C96.0408 122.352 95.4886 123.13 95.5081 124.074C95.5275 125.019 96.1113 125.773 96.8119 125.758C97.5125 125.744 98.0647 124.967 98.0453 124.022C98.0258 123.078 97.4421 122.324 96.7414 122.338Z" fill="#FFE9C2"/>
<path d="M101.13 120.623C100.153 120.532 99.2617 121.527 99.1396 122.844C99.0175 124.161 99.7109 125.302 100.688 125.392C101.666 125.483 102.557 124.489 102.679 123.172C102.801 121.855 102.108 120.714 101.13 120.623Z" fill="#FFE9C2"/>
<path d="M104.429 124.414C103.748 124.216 102.98 124.8 102.714 125.718C102.448 126.636 102.785 127.54 103.466 127.737C104.147 127.935 104.915 127.351 105.181 126.433C105.447 125.515 105.11 124.611 104.429 124.414Z" fill="#FFE9C2"/>
<path d="M90.4153 131.84C90.309 128.988 90.8221 126.18 91.5749 123.442C91.839 122.53 92.1455 121.624 92.5417 120.725C92.736 120.288 93.2474 120.089 93.6846 120.284C94.146 120.485 94.3372 121.048 94.0959 121.49C92.8543 123.858 92.0757 126.514 91.5779 129.144C91.4185 130.037 91.3017 130.938 91.2804 131.828C91.2577 132.374 90.4578 132.391 90.4153 131.84Z" fill="#630E0E"/>
<path d="M84.5703 131.46C84.5703 131.46 80.2431 139.19 60.9978 139.19C57.3081 139.19 54.1648 138.907 51.4966 138.445C48.2683 137.891 45.7336 137.081 43.759 136.205C38.8415 134.031 37.392 131.46 37.392 131.46C36.967 128.575 37.1901 125.174 37.7502 121.724C38.4772 117.25 39.7749 112.696 40.9603 109.081C42.3551 104.837 43.6012 101.89 43.6012 101.89L44.8382 100.613L61.0084 83.9512L77.1271 100.613L78.3626 101.89C78.3626 101.89 79.3841 104.306 80.6104 107.915C82.0159 112.044 83.6915 117.729 84.4215 123.134C84.8207 126.095 84.9361 128.97 84.5703 131.46Z" fill="#F99D28"/>
<path d="M84.5703 131.459C84.5703 131.459 80.2432 139.192 60.9963 139.192C57.3082 139.192 54.1649 138.908 51.4951 138.445C48.2668 137.891 45.7322 137.081 43.756 136.205C38.84 134.031 37.389 131.46 37.389 131.46C36.964 128.577 37.1871 125.174 37.7487 121.725C38.0674 119.769 38.4939 117.796 38.9735 115.896C39.9631 116.776 41.4915 117.861 43.756 118.861C45.7322 119.739 48.2668 120.548 51.4951 121.102C54.1649 121.563 57.3082 121.847 60.9963 121.847C74.2449 121.847 80.4223 118.184 82.9873 115.9C83.5807 118.26 84.0937 120.725 84.4201 123.135C84.8192 126.095 84.9361 128.97 84.5703 131.459Z" fill="#F47D2A"/>
<path d="M37.1097 123.076C37.5256 115.591 40.0679 108.469 42.8014 101.553C42.8439 101.451 42.9031 101.362 42.9774 101.287L60.3847 83.3487C60.7171 83.0057 61.2665 82.9966 61.6095 83.3305C61.6293 83.3199 78.9607 101.289 78.9819 101.287C79.0517 101.36 79.1064 101.44 79.1458 101.527C79.542 102.4 79.888 103.265 80.2356 104.141C81.9233 108.477 83.2939 112.944 84.2167 117.509C84.5688 119.341 84.8086 121.202 84.8496 123.076C84.8481 123.58 84.1317 123.695 83.9921 123.196C83.5246 121.413 83.0905 119.64 82.6139 117.873C81.4771 113.444 80.0535 109.093 78.5114 104.789C78.2033 103.93 77.8785 103.066 77.5613 102.225L77.7373 102.491C77.7373 102.489 60.3832 84.5523 60.3832 84.5523L61.6262 84.5538L44.2205 102.492L44.3965 102.227C43.706 103.898 43.0624 105.628 42.4584 107.354C41.2426 110.808 40.3031 114.348 39.2923 117.863C38.8066 119.626 38.3665 121.402 37.9673 123.195C37.8701 123.68 37.09 123.63 37.1097 123.076Z" fill="#630E0E"/>
<path d="M81.9825 134.595C77.156 138.674 69.8661 139.77 63.7298 140.083C59.1583 140.282 54.5564 140.055 50.0486 139.095C46.4576 138.313 42.777 137.106 39.9919 134.596C39.8143 134.434 39.8007 134.157 39.9631 133.98C40.1012 133.828 40.3197 133.796 40.4928 133.889C43.627 135.516 46.9478 136.647 50.4099 137.322C54.3044 138.061 58.3341 138.286 62.3213 138.214C65.3978 138.167 68.5502 137.914 71.5706 137.346C75.0296 136.66 78.4005 135.607 81.4816 133.889C81.9187 133.635 82.3816 134.244 81.9825 134.595Z" fill="#630E0E"/>
<path d="M43.1975 101.287C42.9379 102.592 42.5312 103.805 42.0045 104.913C39.0282 111.178 32.2559 114.05 26.8982 110.787C22.4663 108.09 22.3767 103.118 23.9309 98.03V98.0285C26.3988 89.9585 33.0102 81.6017 33.0102 81.6017C33.0102 81.6017 44.3707 95.4073 43.1975 101.287Z" fill="#F99D28"/>
<path d="M42.0045 104.913C39.0282 111.178 32.2559 114.05 26.8982 110.787C22.4663 108.09 22.3767 103.118 23.9309 98.03C23.9173 98.1773 23.3618 104.242 25.517 103.866C27.3702 103.543 25.4214 97.2757 28.9547 93.9897C30.8929 92.1882 37.9931 100.099 42.0045 104.913Z" fill="#F47D2A"/>
<path d="M31.7004 113.003C29.8639 113.003 28.0623 112.508 26.4489 111.524C24.1829 110.145 22.7971 108.123 22.3297 105.516C20.6237 95.9932 31.8537 81.6685 32.3333 81.0629C32.4957 80.858 32.7416 80.7366 33.0041 80.735C33.2667 80.7305 33.5141 80.8489 33.6811 81.0507C34.871 82.4956 45.2662 95.3511 44.0489 101.456C43.0776 106.328 40.0784 110.298 36.0245 112.077C34.613 112.696 33.1453 113.003 31.7004 113.003ZM33.033 83.0086C30.6516 86.2354 22.6894 97.7128 24.0341 105.212C24.4151 107.338 25.5003 108.92 27.3489 110.046C29.7774 111.524 32.611 111.682 35.3278 110.491C38.8627 108.94 41.4884 105.435 42.349 101.117C43.1823 96.9326 36.451 87.3328 33.033 83.0086Z" fill="#630E0E"/>
<path d="M78.6435 101.287C78.903 102.592 79.3098 103.805 79.8364 104.913C82.8128 111.178 89.5835 114.05 94.9428 110.787C99.3747 108.09 99.4642 103.118 97.91 98.03V98.0285C95.4421 89.9585 88.8307 81.6017 88.8307 81.6017C88.8307 81.6017 77.4702 95.4073 78.6435 101.287Z" fill="#F99D28"/>
<path d="M79.8364 104.913C82.8128 111.178 89.5835 114.05 94.9428 110.787C99.3747 108.09 99.4642 103.118 97.91 98.03C97.9237 98.1773 98.4792 104.242 96.3239 103.866C94.4707 103.543 96.4196 97.2757 92.8862 93.9897C90.948 92.1882 83.8479 100.099 79.8364 104.913Z" fill="#F47D2A"/>
<path d="M90.142 113.003C88.6956 113.003 87.2294 112.695 85.8179 112.077C81.7654 110.298 78.7663 106.328 77.7934 101.456C76.5762 95.3511 86.9714 82.4957 88.1613 81.0507C88.3283 80.8489 88.5787 80.7426 88.8382 80.735C89.0993 80.7381 89.3467 80.858 89.5091 81.0629C89.9887 81.6685 101.217 95.9932 99.5112 105.516C99.0437 108.123 97.658 110.145 95.392 111.524C93.7801 112.508 91.9785 113.003 90.142 113.003ZM88.8094 83.0087C85.3914 87.3328 78.6586 96.9327 79.4933 101.119C80.3539 105.437 82.9797 108.941 86.5145 110.492C89.2313 111.685 92.065 111.528 94.4934 110.048C96.3436 108.922 97.4273 107.34 97.8082 105.214C99.1515 97.7128 91.1908 86.2354 88.8094 83.0087Z" fill="#630E0E"/>
<path d="M116.223 35.8683C115.316 35.9776 108.935 36.7092 106.434 35.9397C106.382 35.9215 106.341 35.9746 106.379 36.011C106.772 36.3662 107.765 37.3466 108.779 39.0648C111.054 42.9244 113.438 50.4951 109.457 63.05C109.443 63.0956 109.369 63.0956 109.355 63.0531C109.135 62.276 108.131 59.0113 106.422 56.9122C106.393 56.8742 106.327 56.894 106.327 56.938C106.333 58.7821 105.98 78.1473 89.6638 86.9974C89.6244 87.0216 89.6092 86.9807 89.5865 86.9473C89.2313 86.4176 89.2981 82.2179 88.7851 81.8521C88.3252 81.5228 78.9059 86.797 60.6882 86.8031C42.4689 86.8092 33.0451 81.541 32.5867 81.8703C32.0737 82.2376 32.1435 86.4358 31.7883 86.967C31.7641 87.0004 31.7504 87.0399 31.7109 87.0171C15.3904 78.1776 15.0246 58.8124 15.0292 56.9683C15.0292 56.9228 14.9624 56.9046 14.9351 56.9425C13.2291 59.0431 12.2258 62.3094 12.0058 63.0865C11.9921 63.129 11.9177 63.129 11.9056 63.0834C7.65736 49.7301 10.6246 42.0062 12.9984 38.4045C13.8499 37.1084 14.6239 36.3464 14.9624 36.0429C15.0003 36.008 14.9593 35.9533 14.9077 35.9715C12.408 36.7426 6.02576 36.014 5.11813 35.9063C5.0726 35.9017 5.05591 35.8562 5.0893 35.8304C5.88005 35.2005 12.3306 29.8777 19.7464 17.6475C23.9658 10.6871 31.7458 8.55308 38.0947 8.07802C41.581 5.20034 46.9645 1.3786 51.4267 0.950586C60.6472 0.0687634 60.6639 7.06415 60.6639 7.06415C60.6639 7.06415 60.673 0.0687639 69.8949 0.944516C74.3556 1.36949 79.7452 5.18668 83.2316 8.06284C89.5804 8.53487 97.362 10.6628 101.586 17.6217C109.009 29.8474 115.463 35.1656 116.254 35.7955C116.285 35.8182 116.269 35.8638 116.223 35.8683Z" fill="#AE3C39"/>
<g opacity="0.3">
<path d="M109.457 63.05C109.444 63.0956 109.369 63.0955 109.356 63.0531C109.135 62.276 108.131 59.0112 106.422 56.9122C106.393 56.8742 106.328 56.894 106.328 56.938C106.334 58.7821 105.98 78.1472 89.664 86.9973C89.6245 87.0216 89.6094 86.9807 89.5866 86.9473C89.2314 86.4176 89.2982 82.2179 88.7852 81.8521C88.3253 81.5228 78.906 86.797 60.6883 86.8031C42.469 86.8091 33.0452 81.541 32.5868 81.8703C32.0738 82.2376 32.1436 86.4358 31.7885 86.967C31.7642 87.0004 31.7505 87.0398 31.7111 87.0171C15.3905 78.1776 15.0247 58.8124 15.0293 56.9683C15.0293 56.9228 14.9625 56.9046 14.9352 56.9425C13.2292 59.0431 12.226 62.3093 12.0059 63.0864C11.9922 63.1289 11.9179 63.1289 11.9057 63.0834C7.65748 49.7301 10.6247 42.0062 12.9985 38.4045C12.4718 40.877 11.1999 48.2245 13.5828 52.3923L20.1563 47.1453C20.1563 47.1453 18.8222 57.1747 22.5437 62.2714C23.3649 59.6517 27.9728 52.3877 32.9162 52.3862C40.6522 52.3831 52.1068 56.2793 60.8234 56.2777C69.5399 56.2747 80.993 52.371 88.729 52.3695C93.6739 52.368 98.2864 59.629 99.1091 62.2471C102.828 57.1474 101.486 47.1195 101.486 47.1195L108.064 52.3619C110.253 48.5326 109.351 42.0183 108.782 39.0678C111.054 42.9244 113.438 50.495 109.457 63.05Z" fill="#630E0E"/>
</g>
<g opacity="0.4">
<path d="M116.223 35.8683C115.889 35.9093 114.816 36.0323 113.467 36.1339C110.743 33.4005 106.365 28.3903 101.584 20.5161C97.3605 13.5587 89.5789 11.4293 83.2301 10.9572C79.7438 8.08106 74.3557 4.26387 69.8935 3.8389C60.673 2.96315 62.5991 9.95702 60.6624 9.95854C58.7257 9.95854 60.6457 2.96315 51.4253 3.84497C46.9646 4.27298 41.581 8.0932 38.0932 10.9724C31.7444 11.4475 23.9643 13.5814 19.7449 20.5419C14.9685 28.4191 10.5943 33.4308 7.87293 36.1673C6.52364 36.0657 5.45058 35.9427 5.11667 35.9032C5.07114 35.8987 5.05444 35.8532 5.08783 35.8274C5.87859 35.1975 12.3291 29.8747 19.7449 17.6445C23.9643 10.684 31.7444 8.55005 38.0932 8.07499C41.5795 5.1973 46.963 1.37556 51.4253 0.94755C60.6457 0.0657275 60.6624 7.06112 60.6624 7.06112C60.6624 7.06112 60.6715 0.0657273 69.8935 0.941479C74.3542 1.36645 79.7438 5.18364 83.2301 8.05981C89.5789 8.53183 97.3605 10.6597 101.584 17.6187C109.008 29.8443 115.461 35.1626 116.252 35.7925C116.286 35.8183 116.269 35.8638 116.223 35.8683Z" fill="white"/>
</g>
<path d="M31.7338 87.8853C31.5775 87.8853 31.4242 87.8458 31.2937 87.7745C17.5306 80.3192 14.8137 65.7183 14.2856 59.5819C13.4538 61.2302 12.9575 62.8891 12.8361 63.3187C12.8331 63.3308 12.8285 63.3445 12.824 63.3566C12.6965 63.7421 12.3307 63.9865 11.9239 63.9804C11.5263 63.9683 11.1893 63.7103 11.0755 63.3354C6.40835 48.654 10.2438 40.5643 12.8118 37.1463C9.85368 37.3102 5.95606 36.8777 5.01352 36.7638C4.65229 36.7259 4.34419 36.4694 4.24098 36.1112C4.13777 35.756 4.26071 35.3766 4.55364 35.1474C5.25485 34.5873 11.6689 29.2964 19.0043 17.1968C23.4316 9.89479 31.5851 7.73956 37.7533 7.23414C41.4946 4.1728 46.8174 0.521055 51.3419 0.0869733C54.7659 -0.240864 57.4175 0.425435 59.2236 2.06311C59.8641 2.64289 60.3255 3.28491 60.6594 3.90719C60.9918 3.28339 61.4532 2.64289 62.0937 2.06159C63.8999 0.420882 66.5514 -0.2439 69.974 0.0793846C74.5045 0.51043 79.8258 4.15763 83.5671 7.21744C89.7353 7.71983 97.8918 9.86898 102.324 17.1679C109.668 29.2645 116.084 34.5509 116.791 35.114C117.079 35.3386 117.202 35.7181 117.101 36.0748C116.999 36.4299 116.695 36.6849 116.327 36.7274C115.381 36.8412 111.489 37.2768 108.533 37.1144C111.096 40.5218 114.947 48.61 110.284 63.3111C110.164 63.6905 109.814 63.947 109.413 63.9485C109.412 63.9485 109.409 63.9485 109.407 63.9485C109.009 63.9485 108.66 63.6981 108.536 63.3247C108.531 63.3126 108.528 63.3005 108.524 63.2883C108.402 62.8588 107.905 61.1999 107.071 59.5531C106.548 65.6864 103.84 80.2919 90.0783 87.7578C89.7125 87.9551 89.1753 87.9095 88.8702 87.4314C88.6076 87.0383 88.5393 86.4282 88.4118 84.7814C88.3693 84.229 88.3071 83.417 88.2251 82.8751C88.0202 82.948 87.785 83.0345 87.5528 83.1195C84.1606 84.3625 75.1526 87.6652 60.6898 87.6697C60.6807 87.6697 60.6685 87.6697 60.6594 87.6697C46.2118 87.6697 37.2114 84.3777 33.8208 83.1377C33.5885 83.0527 33.3518 82.9662 33.1469 82.8933C33.0664 83.4352 33.0042 84.2472 32.9617 84.7996C32.8357 86.4464 32.7689 87.0581 32.5064 87.4481C32.5049 87.4497 32.5033 87.4512 32.5033 87.4542C32.306 87.7578 32.0131 87.8853 31.7338 87.8853ZM89.2253 86.2506C89.2238 86.2506 89.2238 86.2506 89.2253 86.2506C89.2238 86.2506 89.2238 86.2506 89.2253 86.2506ZM32.6187 80.984C32.9799 80.984 33.4793 81.1676 34.4157 81.5091C37.7275 82.7203 46.5199 85.9364 60.6594 85.9364C60.6701 85.9364 60.6792 85.9364 60.6898 85.9364C74.8445 85.9319 83.6445 82.7066 86.9578 81.4924C88.4255 80.9551 88.8201 80.8094 89.2906 81.1479C89.8537 81.5486 89.9645 82.3788 90.139 84.6479C90.1633 84.9575 90.1922 85.34 90.2255 85.6845C96.3513 82.0585 100.747 76.4716 103.298 69.0589C105.374 63.0288 105.465 57.9063 105.462 56.941C105.462 56.5464 105.714 56.1988 106.089 56.0729C106.458 55.9499 106.86 56.0698 107.1 56.3719C108.067 57.5633 108.817 59.0917 109.339 60.3742C111.063 53.8994 111.195 48.2017 109.73 43.4101C108.469 39.2833 106.405 37.1979 105.802 36.6576C105.475 36.351 105.409 35.8729 105.634 35.5071C105.854 35.1489 106.296 34.988 106.696 35.117C108.213 35.58 111.618 35.4388 114.259 35.2036C111.776 32.9011 106.561 27.4872 100.844 18.0695C96.7292 11.2911 88.9582 9.35598 83.1649 8.92493C82.9858 8.91127 82.8158 8.84297 82.6777 8.72914C77.6402 4.57349 73.0717 2.11471 69.8101 1.80509C66.905 1.52885 64.7058 2.04186 63.2761 3.32892C61.5716 4.86339 61.5276 7.04594 61.5276 7.0687C61.523 7.54376 61.136 7.92776 60.6625 7.92776C60.661 7.92776 60.6594 7.92776 60.6594 7.92776C60.1829 7.92624 59.7989 7.54225 59.7973 7.06567C59.7973 7.04745 59.7518 4.8649 58.0443 3.33196C56.6131 2.04641 54.4138 1.53341 51.5088 1.81268C47.335 2.21337 42.2095 5.80289 38.6457 8.74584C38.5076 8.85967 38.3376 8.92797 38.1601 8.94163C32.3667 9.37571 24.5973 11.3169 20.4872 18.0968C14.7758 27.5191 9.56076 32.9375 7.08224 35.2385C9.73075 35.4722 13.1305 35.6088 14.6453 35.1474C15.046 35.0184 15.4892 35.1793 15.7092 35.5375C15.9339 35.9017 15.8686 36.3813 15.5544 36.6743C14.9382 37.2283 12.8771 39.3152 11.6173 43.442C10.1557 48.2351 10.2923 53.9298 12.0211 60.403C12.5416 59.122 13.2914 57.5937 14.2567 56.4022C14.4965 56.1002 14.8987 55.9818 15.2676 56.1047C15.6424 56.2292 15.8929 56.5768 15.8929 56.9699C15.8883 59.0234 16.2875 76.9179 31.1495 85.7057C31.1829 85.3612 31.2117 84.9787 31.236 84.6691C31.409 82.4 31.5198 81.5698 32.0844 81.1676C32.2529 81.0417 32.4138 80.984 32.6187 80.984ZM15.2023 36.7836C15.1977 36.7851 15.1947 36.7866 15.1902 36.7881C15.1947 36.7866 15.1993 36.7851 15.2023 36.7836ZM5.64036 36.4967C5.63733 36.4997 5.63277 36.5028 5.62974 36.5058C5.63277 36.5028 5.63581 36.4997 5.64036 36.4967ZM115.707 36.4648C115.712 36.4679 115.715 36.4709 115.719 36.4739C115.715 36.4709 115.71 36.4679 115.707 36.4648ZM5.2078 35.0427C5.21539 35.0442 5.22449 35.0442 5.2336 35.0457C5.22449 35.0442 5.21539 35.0427 5.2078 35.0427Z" fill="#630E0E"/>
<path d="M94.2294 68.8555C92.6752 73.9962 86.5555 77.2548 79.9593 79.3053C70.7844 82.1618 60.6882 82.6839 60.6882 82.6839C60.6882 82.6839 50.5905 82.1678 41.4095 79.3175C34.8118 77.2715 28.6891 74.0174 27.1349 68.8767C25.3242 62.8891 28.7893 58.7866 28.7893 58.7866C28.7893 58.7866 28.0517 42.1519 36.2613 31.4865C40.0769 26.5295 48.3184 20.8667 60.6685 25.9588H60.6715C73.0186 20.8591 81.2631 26.5158 85.0818 31.4714C93.2974 42.1322 92.5704 58.7669 92.5704 58.7669C92.5704 58.7669 96.037 62.8664 94.2294 68.8555Z" fill="#F99D28"/>
<path d="M94.2294 68.8555C92.6752 73.9962 86.5555 77.2548 79.9593 79.3053C70.7844 82.1618 60.6882 82.6839 60.6882 82.6839C60.6882 82.6839 50.5905 82.1678 41.4096 79.3175C34.8118 77.2715 28.6892 74.0174 27.135 68.8767C26.5263 66.8672 26.5127 65.0671 26.7631 63.5661C26.8481 64.0776 26.9695 64.6027 27.1334 65.1461C28.6892 70.2868 34.8103 73.5408 41.408 75.5868C50.589 78.4372 60.6867 78.9532 60.6867 78.9532C60.6867 78.9532 70.7829 78.4311 79.9578 75.5747C86.554 73.5241 92.6752 70.267 94.2279 65.1248C94.3918 64.583 94.5117 64.0563 94.5967 63.5448C94.8486 65.0459 94.8365 66.846 94.2294 68.8555Z" fill="#F47D2A"/>
<path d="M83.4987 74.324C82.708 76.1833 81.3739 77.9044 79.9578 79.3053C70.7829 82.1618 60.6867 82.6839 60.6867 82.6839C60.6867 82.6839 50.589 82.1679 41.408 79.3175C39.9935 77.9181 38.6578 76.197 37.8671 74.3407C39.016 74.7991 40.2044 75.2119 41.408 75.5853C50.589 78.4357 60.6867 78.9517 60.6867 78.9517C60.6867 78.9517 70.7829 78.4296 79.9578 75.5732C81.1614 75.1998 82.3513 74.7839 83.4987 74.324Z" fill="#EBCFA3"/>
<path d="M67.4818 63.349L60.6807 69.6189L53.875 63.3536C53.875 63.3536 55.1803 49.5343 60.6731 48.6419C66.1674 49.5313 67.4818 63.349 67.4818 63.349Z" fill="#EC7726"/>
<path d="M79.9594 79.3053C70.7844 82.1618 60.6883 82.6839 60.6883 82.6839C60.6883 82.6839 50.5906 82.1679 41.4096 79.3175C38.0599 76.0057 35.1579 70.8924 38.8354 66.4195C44.7502 59.2313 60.6822 64.7272 60.6822 64.7272C60.6822 64.7272 76.6096 59.2207 82.5289 66.4058C86.2095 70.8757 83.3091 75.9921 79.9594 79.3053Z" fill="#FFE9C2"/>
<path d="M63.7556 72.7971C63.7556 73.4225 63.6782 74.0174 63.5356 74.5638C63.0984 76.2501 62.0512 77.4385 60.8278 77.4385C59.6045 77.4385 58.5573 76.2501 58.1202 74.5638C57.9775 74.019 57.8986 73.4225 57.8986 72.7971C57.8986 70.2367 59.2099 68.1573 60.8278 68.1573C62.4458 68.1573 63.7556 70.2367 63.7556 72.7971Z" fill="#630E0E"/>
<path d="M63.5356 74.5638C63.0985 76.25 62.0513 77.4385 60.8279 77.4385C59.6046 77.4385 58.5574 76.25 58.1202 74.5638C58.4648 74.3103 58.8731 74.1631 59.3087 74.1631C59.8945 74.1631 60.4257 74.4257 60.8279 74.8583C61.2301 74.4257 61.7614 74.1631 62.3472 74.1631C62.7828 74.1631 63.1911 74.3103 63.5356 74.5638Z" fill="#F0689E"/>
<path d="M60.8279 78.3036C58.7 78.3036 57.0335 75.8858 57.0335 72.7986C57.0335 69.7115 58.7 67.2937 60.8279 67.2937C62.9558 67.2937 64.6223 69.7115 64.6223 72.7986C64.6223 75.8858 62.9558 78.3036 60.8279 78.3036ZM60.8279 69.024C59.852 69.024 58.7653 70.5736 58.7653 72.7971C58.7653 75.0207 59.852 76.5718 60.8279 76.5718C61.8039 76.5718 62.8906 75.0222 62.8906 72.7971C62.8906 70.5736 61.8023 69.024 60.8279 69.024Z" fill="#630E0E"/>
<path d="M83.4987 74.324C82.708 76.1833 81.3739 77.9044 79.9578 79.3053C70.7829 82.1618 60.6867 82.6839 60.6867 82.6839C60.6867 82.6839 50.589 82.1679 41.408 79.3175C39.9935 77.9181 38.6578 76.197 37.8671 74.3407C39.016 74.7991 40.2044 75.2119 41.408 75.5853C50.589 78.4357 60.6867 78.9517 60.6867 78.9517C60.6867 78.9517 70.7829 78.4296 79.9578 75.5732C81.1614 75.1998 82.3513 74.7839 83.4987 74.324Z" fill="#EBCFA3"/>
<path d="M60.6868 83.549C60.6716 83.549 60.6579 83.549 60.6427 83.5475C59.3997 83.4837 30.1569 81.8491 26.3063 69.1272C24.6292 63.5873 27.1335 59.5743 27.9121 58.5043C27.8483 56.0592 27.7998 41.0591 35.5738 30.9568C37.7882 28.0791 46.1086 19.2048 60.667 25.0224C75.2224 19.1956 83.5489 28.064 85.7648 30.9401C93.5449 41.0363 93.5055 56.0379 93.4447 58.4831C94.2249 59.5516 96.7307 63.5645 95.0581 69.1044C91.2167 81.8278 61.9738 83.4822 60.7308 83.546C60.7156 83.549 60.7004 83.549 60.6868 83.549ZM51.3768 24.8372C43.2643 24.8372 38.4879 30.0113 36.9458 32.0147C29.0322 42.2991 29.6454 58.5863 29.653 58.7502C29.6621 58.9672 29.5892 59.1812 29.4496 59.3467C29.3221 59.4984 26.3169 63.1881 27.9637 68.6278C31.3999 79.9792 59.3891 81.7428 60.6868 81.8172C61.9875 81.7413 89.9721 79.9595 93.4007 68.6066C95.0551 63.1305 91.9406 59.3649 91.9088 59.3269C91.7676 59.16 91.6948 58.9475 91.7054 58.7305C91.713 58.5665 92.3155 42.2794 84.3943 31.9995C82.3514 29.348 74.6244 21.1323 60.9994 26.7602C60.8901 26.8057 60.7778 26.8239 60.664 26.8255C60.5547 26.8255 60.4454 26.8042 60.3392 26.7602C56.9971 25.3821 54.0116 24.8372 51.3768 24.8372Z" fill="#630E0E"/>
<path d="M69.4959 69.9179C69.3669 72.2082 66.946 74.4151 64.4387 73.7807C60.752 72.8472 60.8203 67.872 60.8203 67.872H60.8188H60.8173C60.8173 67.872 60.9099 72.8457 57.2278 73.7973C54.7234 74.4439 52.292 72.2492 52.1523 69.9589C52.1523 69.9589 54.8525 64.3462 60.8218 64.3447C66.7912 64.3432 69.4959 69.9179 69.4959 69.9179Z" fill="#FFE9C2"/>
<path d="M69.2318 71.0897C68.5214 72.8897 66.5119 74.3043 64.4402 73.7791C60.7535 72.8472 60.8218 67.872 60.8218 67.872H60.8188C60.8188 67.872 60.9129 72.8472 57.2308 73.7973C55.156 74.3331 53.1358 72.9231 52.4225 71.12C53.4379 71.5253 54.5641 71.6421 55.7024 71.3492C59.4452 70.3824 60.4515 66.4939 60.7171 64.3477C60.7505 64.3447 60.7854 64.3447 60.8218 64.3447C60.8552 64.3447 60.8886 64.3447 60.922 64.3477C61.1997 66.4923 62.2242 70.3763 65.9731 71.3249C67.1054 71.6118 68.2255 71.4934 69.2318 71.0897Z" fill="#EBCFA3"/>
<path d="M70.2001 69.9574C70.1774 72.1915 68.485 74.1965 66.3298 74.7429C63.0469 75.4912 60.5775 72.955 59.9795 69.9194C59.8262 69.2364 59.7488 68.561 59.7457 67.8568C59.7442 67.8568 60.8325 68.9511 60.8218 68.9481L61.8949 67.8522C61.8995 68.0389 61.8843 68.2226 61.8752 68.3986C61.731 70.3247 61.1239 72.2963 59.6304 73.641C57.8667 75.2104 55.1742 75.2711 53.3742 73.7503C52.8111 73.2904 52.3421 72.7303 52.0066 72.0929C51.6606 71.4357 50.8774 69.3655 52.1448 69.2865C52.5136 69.2805 52.8202 69.5597 52.8581 69.9179C52.9962 70.8847 53.6216 71.7969 54.4351 72.3554C56.1107 73.5636 58.2659 72.8244 59.087 70.9515C59.5196 70.0272 59.729 68.9253 59.7427 67.8917L59.7564 66.8019C60.2815 66.8004 61.3379 66.7898 61.863 66.7883C61.8661 66.9112 61.8995 67.9721 61.901 68.0571C61.9571 69.03 62.1605 70.0697 62.5855 70.9333C64.123 74.1661 68.183 73.0749 68.7947 69.8496C68.9404 68.9966 70.1895 69.0968 70.2001 69.9574Z" fill="#630E0E"/>
<path d="M40.2651 22.7867C38.5318 24.2195 36.5511 25.7433 34.9575 26.9393C32.5731 26.4718 25.9799 24.6854 25.9116 19.22C25.8311 12.5478 32.8629 11.3306 36.1186 13.1398C38.6881 14.5695 39.9722 19.5281 40.2651 22.7867Z" fill="#F6A0A9"/>
<path d="M34.9575 27.8045C34.9013 27.8045 34.8467 27.7984 34.7905 27.7878C32.5245 27.3431 25.1223 25.4109 25.0464 19.2306C25.0115 16.3468 26.2303 14.0216 28.4781 12.6814C30.8823 11.2471 34.273 11.1227 36.5405 12.3839C39.5836 14.0762 40.857 19.6707 41.1287 22.7093C41.1545 22.9931 41.0376 23.2724 40.8176 23.4545C38.9856 24.9693 36.9032 26.5629 35.4781 27.6329C35.3263 27.7453 35.1442 27.8045 34.9575 27.8045ZM32.8523 13.2475C31.7003 13.2475 30.4558 13.5192 29.3645 14.1703C28.1655 14.8852 26.7433 16.3392 26.7782 19.2109C26.8344 23.7277 32.0995 25.4383 34.7495 26.0135C36.0427 25.0376 37.7729 23.7095 39.3575 22.4133C38.9644 18.9073 37.6196 14.9672 35.6981 13.8987C34.9757 13.4965 33.9557 13.2475 32.8523 13.2475Z" fill="#512819"/>
<path d="M43.1535 20.2186C40.0435 23.3377 31.963 29.1446 31.963 29.1446C31.963 29.1446 26.7676 28.2446 23.254 24.4259C22.1734 23.2542 21.2551 21.8077 20.6905 20.0274C18.2393 12.2822 26.9012 3.75997 36.1945 6.69837C38.4423 7.40869 39.9631 9.19054 40.9937 11.2365C43.0077 15.2267 43.1535 20.2186 43.1535 20.2186Z" fill="#F99D28"/>
<path d="M43.1535 20.2186C40.0436 23.3376 31.963 29.1446 31.963 29.1446C31.963 29.1446 26.7677 28.2446 23.254 24.4259C24.8613 24.5868 26.4641 24.177 26.5901 21.9641L37.0035 13.8152C37.0035 13.8152 40.5535 15.1356 40.9922 11.235C43.0078 15.2267 43.1535 20.2186 43.1535 20.2186Z" fill="#F47D2A"/>
<g opacity="0.4">
<path d="M43.1535 20.2186C43.1459 20.2262 43.1413 20.2308 43.1353 20.2368C42.6435 16.7733 41.1121 10.5671 36.404 9.07822C28.3568 6.53292 20.7816 12.5858 20.4902 19.2837C18.7918 11.7495 27.1987 3.84951 36.1945 6.69532C42.8181 8.79136 43.1535 20.2186 43.1535 20.2186Z" fill="white"/>
</g>
<path d="M40.2651 22.7867C38.5318 24.2195 36.5511 25.7433 34.9575 26.9393C33.3881 26.6327 29.9959 25.7524 27.8407 23.6291C26.7205 22.5287 25.9359 21.0883 25.9116 19.22C25.8676 15.5621 27.9606 13.5435 30.3996 12.7634C32.4076 12.1229 34.6478 12.3217 36.1186 13.1398C38.6881 14.5695 39.9722 19.5281 40.2651 22.7867Z" fill="#F0689E"/>
<g opacity="0.3">
<path d="M40.2651 22.7867C38.5319 24.2195 36.5512 25.7433 34.9575 26.9393C33.3881 26.6327 29.9959 25.7524 27.8407 23.629C29.9853 22.8611 34.83 20.8925 35.126 18.6189C35.5555 15.3436 32.951 14.1582 30.3997 12.7649C32.4077 12.1244 34.6479 12.3232 36.1186 13.1413C38.6882 14.5695 39.9722 19.528 40.2651 22.7867Z" fill="#630E0E"/>
</g>
<path d="M31.9629 30.0098C31.9144 30.0098 31.8643 30.0052 31.8142 29.9976C31.4302 29.9308 22.3919 28.2765 19.8633 20.2885C18.6764 16.5396 19.8663 12.2822 22.9671 9.17992C26.5142 5.63138 31.6822 4.36404 36.454 5.8727C43.583 8.12659 44.0034 19.7026 44.0186 20.1944C44.0262 20.4326 43.9336 20.6633 43.7666 20.8318C40.6415 23.966 32.8008 29.6091 32.4684 29.8474C32.3196 29.9536 32.1436 30.0098 31.9629 30.0098ZM32.4198 6.97916C29.3827 6.97916 26.4216 8.17516 24.192 10.4048C21.5101 13.0882 20.5084 16.5866 21.5146 19.7648C23.4634 25.9209 30.1659 27.8409 31.7656 28.2173C33.2227 27.1594 39.4334 22.6091 42.2656 19.8756C42.1365 17.9602 41.2562 9.20724 35.9304 7.52252C34.7769 7.15673 33.593 6.97916 32.4198 6.97916Z" fill="#630E0E"/>
<path d="M34.9575 27.8045C34.9013 27.8045 34.8467 27.7984 34.7905 27.7878C32.5245 27.3431 25.1223 25.4109 25.0464 19.2306C25.0115 16.3468 26.2303 14.0216 28.4781 12.6814C30.8823 11.2471 34.273 11.1227 36.5405 12.3839C39.5836 14.0762 40.857 19.6707 41.1287 22.7093C41.1545 22.9931 41.0376 23.2724 40.8176 23.4545C38.9856 24.9693 36.9032 26.5629 35.4781 27.6329C35.3263 27.7453 35.1442 27.8045 34.9575 27.8045ZM32.8523 13.2475C31.7003 13.2475 30.4558 13.5192 29.3645 14.1703C28.1655 14.8852 26.7433 16.3392 26.7782 19.2109C26.8344 23.7277 32.0995 25.4383 34.7495 26.0135C36.0427 25.0376 37.7729 23.7095 39.3575 22.4133C38.9644 18.9073 37.6196 14.9672 35.6981 13.8987C34.9757 13.4965 33.9557 13.2475 32.8523 13.2475Z" fill="#630E0E"/>
<path d="M77.9649 20.2065C81.0778 23.324 89.1615 29.1249 89.1615 29.1249C89.1615 29.1249 94.3568 28.2203 97.8674 24.4001C98.9465 23.2268 99.8648 21.7804 100.428 20.0001C102.875 12.2534 94.2065 3.73719 84.9163 6.68014C82.67 7.39197 81.1492 9.17535 80.1201 11.2213C78.1076 15.2161 77.9649 20.2065 77.9649 20.2065Z" fill="#F99D28"/>
<path d="M77.9649 20.2065C81.0778 23.324 89.1615 29.1249 89.1615 29.1249C89.1615 29.1249 94.3568 28.2203 97.8674 24.4001C96.2601 24.561 94.6558 24.1527 94.5298 21.9413L84.1103 13.7985C84.1103 13.7985 80.5618 15.1205 80.1201 11.2213C78.1076 15.2161 77.9649 20.2065 77.9649 20.2065Z" fill="#F47D2A"/>
<g opacity="0.4">
<path d="M77.9649 20.2065C77.9725 20.2141 77.977 20.2187 77.9831 20.2247C78.4718 16.7597 80.0002 10.5535 84.7068 9.06306C92.7525 6.51321 100.332 12.56 100.627 19.2594C102.319 11.7237 93.909 3.8298 84.9132 6.68169C78.2927 8.77924 77.9649 20.2065 77.9649 20.2065Z" fill="white"/>
</g>
<path d="M80.8549 22.773C82.5881 24.2058 84.5719 25.7266 86.1655 26.9226C87.7349 26.6145 91.1256 25.7327 93.2808 23.6078C94.4009 22.5059 95.1841 21.0671 95.2069 19.1987C95.2478 15.5409 93.1548 13.5237 90.7158 12.7451C88.7078 12.1062 86.4676 12.3065 84.9968 13.1261C82.4257 14.5558 81.1448 19.5144 80.8549 22.773Z" fill="#F0689E"/>
<g opacity="0.3">
<path d="M80.8549 22.773C82.5881 24.2058 84.5719 25.7266 86.1655 26.9226C87.7349 26.6145 91.1256 25.7327 93.2808 23.6078C91.1347 22.8413 86.29 20.8758 85.9925 18.6022C85.5599 15.3269 88.1644 14.14 90.7143 12.7451C88.7063 12.1062 86.466 12.3065 84.9953 13.1261C82.4258 14.5558 81.1448 19.5144 80.8549 22.773Z" fill="#630E0E"/>
</g>
<path d="M89.16 29.9915C88.9794 29.9915 88.8033 29.9354 88.6546 29.8291C88.3222 29.5908 80.4784 23.9523 77.3518 20.8197C77.1833 20.6512 77.0922 20.4205 77.0983 20.1837C77.112 19.692 77.5263 8.11443 84.6522 5.85751C89.4226 4.34581 94.5906 5.61012 98.1406 9.15714C101.243 12.2564 102.436 16.5122 101.251 20.2626C98.7265 28.2522 89.6897 29.9126 89.3057 29.9794C89.2602 29.987 89.2101 29.9915 89.16 29.9915ZM78.8498 19.8635C81.6835 22.5939 87.8972 27.1412 89.3543 28.1975C90.9525 27.8211 97.6565 25.8981 99.6007 19.739C100.604 16.5608 99.6007 13.0608 96.9173 10.3805C93.8256 7.2918 89.327 6.19142 85.1759 7.50732C79.8531 9.19356 78.9788 17.9496 78.8498 19.8635Z" fill="#630E0E"/>
<path d="M86.164 27.7878C85.9788 27.7878 85.7951 27.7286 85.6449 27.6147C84.2182 26.5447 82.1343 24.9526 80.3023 23.4409C80.0823 23.2587 79.9654 22.981 79.9912 22.6957C80.2629 19.6571 81.5317 14.0626 84.5733 12.3673C86.8394 11.1045 90.2301 11.2274 92.6357 12.6602C94.8835 13.9989 96.1038 16.3226 96.0704 19.2063C95.9976 25.3882 88.5969 27.3248 86.3309 27.7711C86.2763 27.7832 86.2201 27.7878 86.164 27.7878ZM81.7624 22.3982C83.347 23.6928 85.0772 25.0209 86.3719 25.9953C89.0219 25.42 94.2855 23.7065 94.3402 19.1881C94.3736 16.318 92.9499 14.864 91.7509 14.1506C89.6108 12.8772 86.891 13.0624 85.4172 13.882C83.4957 14.9505 82.154 18.8921 81.7624 22.3982Z" fill="#630E0E"/>
<path d="M47.0435 19.569C47.0435 19.569 39.2285 18.4428 35.6633 20.5889C32.3652 22.5742 37.9627 23.3877 37.9627 23.3877C37.9627 23.3877 29.2887 24.5883 29.2553 27.2853C29.231 29.1461 31.9341 29.3677 32.0207 29.6257C32.1072 29.8838 29.5148 32.2591 29.5148 32.2591" fill="#AE3C39"/>
<path d="M46.9827 19.9971C43.7954 20.0593 38.251 19.7603 35.6981 21.7152C35.6101 21.7896 35.5524 21.8654 35.5479 21.8776C35.5448 21.8837 35.554 21.8685 35.56 21.826C35.5676 21.785 35.5646 21.7152 35.5494 21.6681C35.513 21.5695 35.5008 21.5953 35.5585 21.6438C35.6739 21.7471 35.941 21.8912 36.2187 22.002C36.7818 22.2251 37.4633 22.4027 38.0871 22.5302C38.5895 22.5894 38.9538 23.0599 38.8475 23.5623C38.7701 23.9433 38.4499 24.2134 38.081 24.2453C36.0154 24.5716 33.8768 25.0194 31.9523 25.8359C30.049 26.6737 29.1717 27.6754 31.632 28.4935C31.9872 28.6347 32.1557 28.6499 32.5275 28.9079C32.6793 29.0278 32.8022 29.2023 32.8554 29.4012C32.913 29.6349 32.8872 29.7897 32.8265 29.9688C32.5731 30.5364 32.0525 30.9053 31.6411 31.2786C31.0568 31.7567 30.4634 32.1984 29.8062 32.5794C29.5937 32.7023 29.3235 32.6294 29.2006 32.417C29.111 32.2621 29.1247 32.077 29.2218 31.9404C29.8077 31.057 30.7108 30.0948 31.2283 29.3313C31.1342 29.5104 31.1342 29.7715 31.2329 29.987C31.2845 30.1008 31.3649 30.1995 31.4514 30.2708C31.5683 30.3573 31.547 30.3331 31.5349 30.3361C30.9657 30.1828 30.4527 30.0401 29.8942 29.7199C28.6891 29.1022 27.9408 27.5085 28.6724 26.2321C29.2491 25.2318 30.2767 24.6991 31.2556 24.2514C33.3775 23.3544 35.5828 22.8899 37.8427 22.5317L37.8367 24.2468C37.0368 24.1436 36.3235 24.0009 35.56 23.7262C32.9646 22.8247 33.1665 20.721 35.5327 19.5888C37.779 18.499 40.3683 18.3882 42.777 18.496C44.2401 18.5855 45.6775 18.7737 47.1042 19.1426C47.3364 19.2033 47.4775 19.44 47.4168 19.6723C47.3667 19.8726 47.1816 20.0031 46.9827 19.9971Z" fill="#630E0E"/>
<path d="M74.2206 19.5599C74.2206 19.5599 82.0341 18.4292 85.6009 20.5738C88.9005 22.5575 83.303 23.3741 83.303 23.3741C83.303 23.3741 91.977 24.5701 92.0134 27.2656C92.0392 29.1264 89.3361 29.3511 89.2496 29.6091C89.1631 29.8671 91.7569 32.2409 91.7569 32.2409" fill="#AE3C39"/>
<path d="M74.1584 19.1319C77.7525 18.2455 83.7583 17.8236 86.8105 20.2839C87.7409 21.0276 87.8715 22.2919 86.9198 23.0508C86.1427 23.6533 85.4263 23.8218 84.5688 24.0343C84.1893 24.1193 83.8312 24.18 83.4289 24.2301C83.4289 24.2301 83.4214 22.515 83.4229 22.515C85.994 22.9506 91.2029 23.8385 92.5963 26.2092C93.0228 26.9438 92.9545 27.9638 92.487 28.6756C91.8723 29.609 90.9039 29.9976 89.9386 30.2617L89.7368 30.3163C89.7246 30.3133 89.7049 30.3376 89.8203 30.2511C89.9068 30.1797 89.9872 30.0811 90.0388 29.9672C90.1375 29.7502 90.1375 29.4906 90.0434 29.3116C90.0206 29.2721 90.0282 29.2949 90.0388 29.3116C90.2194 29.5939 90.4699 29.8777 90.7142 30.1843C91.1635 30.7443 91.6355 31.3105 92.0544 31.9236C92.3215 32.3 91.8601 32.7979 91.467 32.5581C90.4623 31.9525 89.588 31.3089 88.7669 30.4468C88.644 30.3027 88.5286 30.1645 88.4452 29.9505C88.3845 29.7714 88.3587 29.6166 88.4163 29.3829C88.4695 29.1841 88.5924 29.0095 88.7442 28.8896C89.116 28.6331 89.2875 28.6164 89.6397 28.4737C90.2392 28.2172 91.0451 28.029 91.1468 27.3567C91.1377 26.2791 88.3177 25.4139 87.3554 25.124C86.0031 24.7355 84.5779 24.438 83.1876 24.2301C82.7156 24.1891 82.365 23.7732 82.406 23.3012C82.4409 22.8762 82.7793 22.5666 83.18 22.515C84.0072 22.3253 85.0621 22.1037 85.7086 21.6271C85.7663 21.58 85.7542 21.5527 85.7177 21.6514C85.6919 21.6969 85.7056 21.835 85.7208 21.8608C85.4309 21.4981 84.8921 21.2431 84.4504 21.0397C82.6018 20.2748 80.4981 20.1442 78.4992 20.0425C77.1029 19.9834 75.6792 19.9834 74.2692 19.9864C73.7699 19.9894 73.6636 19.2609 74.1584 19.1319Z" fill="#630E0E"/>
<path d="M60.6806 68.9511C55.4989 67.8249 53.9387 63.8302 54.0313 63.091C54.0768 62.7116 56.8892 61.6598 60.6776 61.6582C64.4674 61.6567 67.2814 62.707 67.3284 63.0865C67.418 63.8256 65.8607 67.8204 60.6806 68.9511Z" fill="#630E0E"/>
<g opacity="0.4">
<path d="M60.6791 64.7287C58.4662 64.4175 57.8014 63.3126 57.8409 63.1092C57.8606 63.0045 59.0612 62.7131 60.6791 62.7131C62.297 62.7131 63.4991 63.003 63.5188 63.1077C63.5568 63.3111 62.892 64.416 60.6791 64.7287Z" fill="white"/>
</g>
<path d="M80.5831 36.8928C80.9564 36.2599 77.5035 29.5408 72.5556 31.2058C70.7434 31.8159 71.1076 33.4217 72.1868 33.8937C73.2128 34.343 74.7731 34.2519 76.0859 34.7437C78.6449 35.7059 80.2097 37.5257 80.5831 36.8928Z" fill="#630E0E"/>
<path d="M40.757 36.8928C40.3836 36.2599 43.8365 29.5408 48.7844 31.2058C50.5967 31.8159 50.2324 33.4217 49.1533 33.8937C48.1273 34.343 46.567 34.2519 45.2541 34.7437C42.6952 35.7059 41.1303 37.5257 40.757 36.8928Z" fill="#630E0E"/>
<path d="M33.5793 84.8619V77.0181C48.1089 79.4632 52.5908 76.2789 60.9795 83.2576C69.3667 76.2789 73.8487 79.4632 88.3798 77.0181V84.8619L60.9795 95.6213L33.5793 84.8619Z" fill="white"/>
<path d="M60.9795 96.488C60.8718 96.488 60.764 96.4682 60.6623 96.4288L33.2621 85.6678C32.9312 85.5373 32.7126 85.2186 32.7126 84.8619V77.0181C32.7126 76.7631 32.825 76.5217 33.0192 76.3578C33.2135 76.1939 33.4715 76.1241 33.722 76.1651C38.6183 76.9892 42.2837 77.1638 45.5181 77.3171C51.4965 77.6009 55.511 77.7921 60.978 82.142C66.445 77.7921 70.4595 77.6009 76.438 77.3171C79.6724 77.1638 83.3378 76.9892 88.2341 76.1651C88.4861 76.1241 88.7426 76.1939 88.9368 76.3578C89.1311 76.5217 89.2434 76.7646 89.2434 77.0181V84.8619C89.2434 85.2186 89.0249 85.5373 88.694 85.6678L61.2937 96.4288C61.1951 96.4682 61.0873 96.488 60.9795 96.488ZM34.4459 84.2715L60.9795 94.6909L87.5132 84.2715V78.035C82.9978 78.7377 79.428 78.9077 76.5215 79.0458C70.4853 79.3326 66.8412 79.5057 61.532 83.9224C61.2118 84.1895 60.7458 84.1895 60.424 83.9224C55.1149 79.5057 51.4723 79.3326 45.4346 79.0458C42.5281 78.9077 38.9598 78.7377 34.4429 78.035V84.2715H34.4459Z" fill="#630E0E"/>
<path d="M66.5058 86.9852V126.074C65.4843 125.846 64.4492 125.682 63.408 125.581C61.6929 125.409 59.9642 125.409 58.2476 125.581C57.2064 125.682 56.1713 125.846 55.1498 126.074V86.9852C58.879 86.1581 62.7736 86.1581 66.5058 86.9852Z" fill="#94DAF8"/>
<g opacity="0.4">
<path d="M66.5058 86.9852V89.0221C62.7736 88.1949 58.879 88.1949 55.1498 89.0221V86.9852C58.879 86.1581 62.7736 86.1581 66.5058 86.9852Z" fill="white"/>
</g>
<path d="M64.3416 123.506C63.1775 123.36 62.0027 123.287 60.828 123.287C59.6532 123.287 58.4785 123.36 57.3143 123.506V113.387C58.4754 113.215 59.6517 113.129 60.828 113.129C62.0042 113.129 63.1805 113.215 64.3416 113.387V123.506Z" fill="white"/>
<path d="M63.4081 113.267V123.404C62.5506 123.327 61.69 123.287 60.8279 123.287C59.9658 123.287 59.1052 123.327 58.2477 123.404V113.267C59.1022 113.174 59.9643 113.129 60.8279 113.129C61.6885 113.129 62.5506 113.174 63.4081 113.267Z" fill="#DCDBDB"/>
<path d="M64.3416 111.128C63.1775 110.983 62.0027 110.91 60.828 110.91C59.6532 110.91 58.4785 110.983 57.3143 111.128V108.229C58.4754 108.058 59.6517 107.971 60.828 107.971C62.0042 107.971 63.1805 108.058 64.3416 108.229V111.128Z" fill="white"/>
<path d="M63.4081 108.11V111.03C62.5506 110.949 61.69 110.911 60.8279 110.911C59.9658 110.911 59.1052 110.951 58.2477 111.03V108.11C59.1022 108.017 59.9643 107.971 60.8279 107.971C61.6885 107.97 62.5506 108.015 63.4081 108.11Z" fill="#DCDBDB"/>
<g opacity="0.3">
<path d="M63.4081 93.4494V125.581C61.693 125.409 59.9643 125.409 58.2477 125.581V93.4494C58.2477 92.6146 58.8836 91.9164 59.7154 91.8405C60.456 91.7707 61.1997 91.7707 61.9404 91.8405C62.7721 91.9164 63.4081 92.6131 63.4081 93.4494Z" fill="#630E0E"/>
</g>
<path d="M63.4081 108.11V111.03C62.5506 110.949 61.69 110.911 60.8279 110.911C59.9658 110.911 59.1052 110.951 58.2477 111.03V108.11C59.1022 108.017 59.9643 107.971 60.8279 107.971C61.6885 107.97 62.5506 108.015 63.4081 108.11Z" fill="#E5E5E5"/>
<path d="M60.8279 113.129C61.69 113.129 62.5506 113.174 63.4081 113.267V123.404C62.5506 123.327 61.69 123.287 60.8279 123.287C59.9658 123.287 59.1052 123.327 58.2477 123.404V113.267C59.1022 113.174 59.9643 113.129 60.8279 113.129Z" fill="#E5E5E5"/>
<path d="M66.5059 126.939C66.4437 126.939 66.3799 126.933 66.3177 126.918C62.7251 126.121 58.9277 126.121 55.3351 126.918C55.0786 126.974 54.81 126.912 54.6051 126.748C54.4002 126.584 54.2803 126.335 54.2803 126.072V86.9867C54.2803 86.5815 54.5626 86.2293 54.9587 86.1413C58.7971 85.2898 62.8541 85.2898 66.6926 86.1413C67.0887 86.2293 67.371 86.58 67.371 86.9867V126.074C67.371 126.336 67.2511 126.585 67.0477 126.749C66.8929 126.874 66.7017 126.939 66.5059 126.939ZM60.8279 124.589C62.4428 124.589 64.0562 124.732 65.6408 125.017V87.691C62.4777 87.0808 59.1781 87.0808 56.0151 87.691V125.016C57.5981 124.732 59.213 124.589 60.8279 124.589Z" fill="#630E0E"/>
<path d="M55.1499 86.9868V126.074C55.1499 126.074 48.0802 121.335 32.517 119.144L30.9112 91.0301L30.1796 78.2292C30.1796 78.2308 42.2003 80.1811 55.1499 86.9868Z" fill="#3F90CE"/>
<g opacity="0.3">
<path d="M55.1498 88.1084V126.074C55.1498 126.074 48.0801 121.335 32.5169 119.144L30.9111 91.0301C34.0635 90.2636 40.3926 89.3241 42.3975 93.4631C45.6258 100.125 43.4539 106.105 42.0105 108.902C40.9299 110.989 41.3351 113.584 43.082 115.157C44.363 116.31 46.4393 117.005 49.7967 116.148C55.2576 114.75 52.049 88.3118 55.1498 88.1084Z" fill="#630E0E"/>
</g>
<path d="M50.8198 115.503V119.241C47.4291 117.94 42.7285 116.497 36.6408 115.416L35.8136 98.4595C38.2223 99.1046 40.9391 99.7739 44.0718 100.861C44.0278 104.339 42.8849 107.208 42.0091 108.903C40.9285 110.99 41.3337 113.586 43.0807 115.158C44.3617 116.312 46.438 117.007 49.7953 116.149C50.1793 116.05 50.5192 115.83 50.8198 115.503Z" fill="#4570B6"/>
<path d="M50.8182 119.242C47.4275 117.942 42.727 116.498 36.6392 115.416L35.812 98.4611C39.8053 99.5296 44.6378 100.665 50.8167 103.661V119.242H50.8182Z" fill="white"/>
<g opacity="0.3">
<path d="M50.8198 115.503V119.241C47.4291 117.94 42.7285 116.497 36.6408 115.416L35.8136 98.4595C38.2223 99.1046 40.9391 99.7739 44.0718 100.861C44.0278 104.339 42.8849 107.208 42.0091 108.903C40.9285 110.99 41.3337 113.586 43.0807 115.158C44.3617 116.312 46.438 117.007 49.7953 116.149C50.1793 116.05 50.5192 115.83 50.8198 115.503Z" fill="#630E0E"/>
</g>
<path d="M55.1484 126.939C54.9799 126.939 54.8114 126.89 54.6657 126.792C54.5974 126.746 47.5322 122.132 32.3955 120C31.9872 119.942 31.6761 119.604 31.6518 119.192L29.3144 78.2778C29.2993 78.0152 29.404 77.7618 29.5998 77.5857C29.794 77.4096 30.0597 77.3322 30.3177 77.3747C30.4391 77.3945 42.6283 79.4252 55.5521 86.2188C55.8374 86.369 56.015 86.6635 56.015 86.9852V126.072C56.015 126.393 55.8389 126.685 55.5566 126.836C55.4276 126.906 55.288 126.939 55.1484 126.939ZM33.3411 118.388C44.8473 120.091 51.5968 123.134 54.2832 124.57V87.5104C43.9837 82.18 34.2639 79.9246 31.1069 79.2856L33.3411 118.388Z" fill="#630E0E"/>
<path d="M91.4762 78.2307L90.7492 90.9633L89.1388 119.144C73.5756 121.334 66.5059 126.074 66.5059 126.074V86.9867C79.4555 80.1811 91.4762 78.2307 91.4762 78.2307Z" fill="#3F90CE"/>
<path d="M63.8634 85.0212C65.9655 81.9022 70.2593 80.5529 73.8852 80.773C74.4195 80.8185 74.9522 80.8914 75.4758 80.9915C74.9461 81.1039 74.424 81.1585 73.9065 81.2435C70.3397 81.802 66.8124 82.8538 63.8634 85.0212Z" fill="#630E0E"/>
<path d="M58.0959 85.0212C55.1469 82.8538 51.6196 81.802 48.0528 81.242C47.5353 81.157 47.0132 81.1039 46.4835 80.99C47.0071 80.8899 47.5398 80.8185 48.0741 80.7715C51.7 80.5529 55.9938 81.9022 58.0959 85.0212Z" fill="#630E0E"/>
<g opacity="0.3">
<path d="M90.7492 90.9633L89.1388 119.144C73.5756 121.334 66.5059 126.074 66.5059 126.074V88.2161C66.5969 88.1387 66.6895 88.1008 66.7866 88.1084C69.8844 88.3118 66.6758 114.75 72.1383 116.149C75.4956 117.007 77.5719 116.312 78.8529 115.158C80.5998 113.586 81.0051 110.99 79.9244 108.903C78.481 106.106 76.3091 100.125 79.5374 93.4646C81.4862 89.444 87.5163 90.215 90.7492 90.9633Z" fill="#630E0E"/>
</g>
<path d="M66.5059 126.939C66.3662 126.939 66.2251 126.906 66.0976 126.837C65.8168 126.687 65.6392 126.394 65.6392 126.074V86.9868C65.6392 86.665 65.8168 86.3705 66.1021 86.2203C79.0259 79.4268 91.2151 77.396 91.3365 77.3762C91.5961 77.3353 91.8602 77.4127 92.0544 77.5872C92.2487 77.7633 92.3534 78.0183 92.3398 78.2793L90.0024 119.194C89.9797 119.607 89.667 119.944 89.2587 120.001C74.1205 122.134 67.0568 126.746 66.987 126.793C66.8428 126.89 66.6743 126.939 66.5059 126.939ZM67.3725 87.5104V124.568C70.059 123.132 76.8085 120.091 88.3147 118.386L90.5488 79.2841C87.3919 79.9246 77.6706 82.1815 67.3725 87.5104ZM89.1388 119.144H89.1403H89.1388Z" fill="#630E0E"/>
<path d="M76.0588 98.7009C76.0588 99.1471 75.9191 99.5144 75.7871 99.9272C75.5291 100.73 75.2786 101.538 74.9508 102.328C74.8051 102.665 74.6305 103.098 74.2056 103.218C73.9066 103.303 73.6759 103.11 73.5438 102.957C73.3207 102.679 73.2342 102.292 73.1962 101.906C73.1598 101.548 73.1613 101.176 73.0991 100.829C73.0991 100.815 73.0991 100.808 73.0915 100.803C73.0915 100.795 73.0703 100.786 73.0642 100.788C73.0581 100.789 73.0551 100.789 73.0505 100.791C73.043 100.792 73.0232 100.826 73.0156 100.833C72.835 101.237 72.6407 101.636 72.4647 102.029C72.2173 102.586 71.9562 103.268 71.3704 103.518C71.2732 103.559 71.1822 103.584 71.0911 103.593C70.5204 103.655 70.3003 103.165 70.2002 102.7C70.0196 101.864 70.012 100.981 69.8314 100.134C69.7615 99.8286 69.672 99.4932 69.6705 99.1805C69.6705 98.9786 69.7069 98.7844 69.8162 98.6083C69.9346 98.4201 70.1364 98.2349 70.4218 98.2167C70.4779 98.2137 70.5265 98.2167 70.5887 98.2258C71.2505 98.3245 71.513 98.9407 71.6193 99.61C71.7058 100.158 71.7028 100.733 71.724 101.301C71.724 101.349 71.7453 101.409 71.7938 101.401C71.8287 101.395 71.85 101.351 71.8636 101.328C72.0792 100.903 72.2886 100.375 72.7212 100.109C72.7971 100.065 72.8806 100.026 72.9655 100.008C73.3556 99.9197 73.4831 100.247 73.5787 100.509C73.6516 100.707 73.7184 100.911 73.7593 101.131C73.7593 101.144 73.7669 101.164 73.773 101.176C73.773 101.19 73.7942 101.205 73.8079 101.202C73.8777 101.219 73.8914 101.117 73.905 101.064C73.9825 100.556 74.1206 100.044 74.2192 99.5357C74.2815 99.2124 74.33 98.8754 74.4848 98.5537C74.6169 98.279 74.8673 97.9466 75.2088 97.8373C75.7795 97.6567 76.0588 98.1302 76.0588 98.7009ZM70.6312 98.6265C70.5553 98.6326 70.4825 98.6827 70.4916 98.7616C70.4946 98.7859 70.5128 98.8162 70.5265 98.8436C70.61 98.9695 70.7359 99.0576 70.8604 99.1365C70.8817 99.1486 70.9029 99.1608 70.9302 99.1653C70.9469 99.1638 70.956 99.1623 70.9727 99.1608C70.994 99.1593 71.0213 99.1274 71.0213 99.1076C71.0213 99.091 71.0213 99.0819 71.0213 99.0667C71.0152 98.8648 70.868 98.6098 70.6312 98.6265ZM75.2437 98.197C75.1678 98.2213 75.0935 98.2881 75.1041 98.367C75.1071 98.3897 75.1253 98.4156 75.139 98.4398C75.2225 98.5461 75.3484 98.6038 75.4729 98.6538C75.4941 98.6599 75.5154 98.6675 75.5427 98.666C75.5594 98.6599 75.5685 98.6584 75.5852 98.6523C75.6065 98.6447 75.6338 98.6083 75.6338 98.5871C75.6338 98.5704 75.6338 98.5613 75.6338 98.5446C75.6262 98.3442 75.4805 98.1211 75.2437 98.197Z" fill="white"/>
<path d="M77.8694 100.967C77.8132 101.155 77.7085 101.339 77.4854 101.421C77.1166 101.554 77.0103 101.243 76.942 100.962C76.816 100.445 76.6673 99.9363 76.5444 99.4173C76.4594 99.0591 76.3835 98.7145 76.3835 98.2759C76.3835 97.7249 76.5853 97.2651 76.9618 96.957C77.0801 96.8583 77.2061 96.7854 77.3306 96.7399C77.6296 96.6322 77.8603 96.7126 78.006 96.8279C78.1669 96.9554 78.2777 97.2013 78.2777 97.5428C78.2777 97.7447 78.2564 97.9405 78.2352 98.1287C78.1653 98.6978 78.1092 99.2549 78.047 99.8134C78.009 100.199 77.9665 100.604 77.8694 100.967ZM77.9453 97.561C77.9453 97.3243 77.8891 97.1846 77.7844 97.0769C77.7358 97.0313 77.6797 96.9903 77.5689 97.0298C77.5203 97.048 77.4641 97.0677 77.4641 97.1239C77.4641 97.1376 77.4641 97.1452 77.4641 97.1588C77.4778 97.2514 77.5689 97.2605 77.625 97.303C77.7161 97.3668 77.7222 97.5185 77.7647 97.6566C77.7783 97.7067 77.8208 97.7265 77.8694 97.7295C77.883 97.7249 77.8906 97.7219 77.9043 97.7174C77.9255 97.7098 77.9453 97.6733 77.9453 97.6536C77.9453 97.6157 77.9453 97.5974 77.9453 97.561Z" fill="white"/>
<path d="M83.0662 99.1046C83.0662 99.3839 82.878 99.6464 82.7034 99.818C82.5122 100.006 82.2784 100.15 82.0553 100.288C81.5742 100.583 81.1143 100.88 80.571 101.069C80.0701 101.243 79.6648 101.243 79.3932 101.064C79.1564 100.908 79.038 100.609 78.9606 100.302C78.8164 99.7299 78.7724 99.097 78.7724 98.4489C78.7724 98.2122 78.7785 97.9648 78.7861 97.7265C78.7982 97.3394 78.8119 96.9327 78.9667 96.5244C79.1109 96.145 79.419 95.6896 79.8652 95.5288C80.3327 95.3618 80.6514 95.638 80.785 95.9446C80.8791 96.1601 80.9109 96.4242 80.9109 96.6959C80.9109 96.8553 80.8973 97.0207 80.8897 97.177C80.8274 98.1105 80.744 99.0439 80.5133 100.009C80.5057 100.032 80.5057 100.053 80.5057 100.074C80.5057 100.102 80.5133 100.12 80.5406 100.111C80.5679 100.102 80.5968 100.085 80.6104 100.065C81.0081 99.6358 81.3905 99.0879 81.9127 98.7783C82.0174 98.7176 82.1221 98.672 82.2329 98.6387C82.67 98.5066 83.0662 98.666 83.0662 99.1046ZM80.5026 96.6124C80.5026 96.5988 80.5102 96.5821 80.5102 96.5684C80.5102 96.5411 80.5102 96.5259 80.5102 96.4986C80.5102 96.1859 80.3918 95.9477 80.1961 95.8778C80.1611 95.8627 80.105 95.8611 80.0564 95.8778C80.0003 95.8976 79.9517 95.9507 79.9517 96.0342C79.979 96.1222 80.0777 96.1526 80.1323 96.1996C80.1718 96.233 80.2158 96.2816 80.237 96.3362C80.2856 96.4652 80.2644 96.7156 80.4177 96.6974C80.4313 96.6929 80.4389 96.6898 80.4526 96.6853C80.4814 96.6762 80.5026 96.6413 80.5026 96.6124ZM82.6761 99.2822C82.6761 99.2655 82.6761 99.2564 82.6761 99.2397C82.6761 99.0591 82.5501 98.9331 82.3968 98.9437C82.3346 98.9483 82.2511 98.9877 82.2511 99.05C82.2511 99.0697 82.2511 99.0788 82.2511 99.0985C82.286 99.2275 82.4181 99.2852 82.5152 99.3414C82.5365 99.349 82.5577 99.3566 82.585 99.3566C82.5987 99.352 82.6063 99.3581 82.6199 99.3535C82.6412 99.3474 82.6761 99.3034 82.6761 99.2822Z" fill="white"/>
<path d="M83.1846 99.9166C83.1846 99.7497 83.3167 99.5964 83.4138 99.4886C83.5535 99.3353 83.7128 99.1987 83.8813 99.0834C83.8813 99.0333 83.8813 99.0075 83.8813 98.9574C83.8813 98.1985 83.9071 96.8477 83.7553 96.708C83.6643 96.6246 83.0936 96.5183 82.9752 96.195C82.9403 96.0934 82.9266 95.9917 82.9266 95.8885C82.9266 95.3527 83.2818 94.8852 83.6719 94.6317C83.7204 94.4739 83.8525 94.2751 84.0407 94.2326C84.1803 94.2022 84.2987 94.2675 84.3609 94.3464C84.5628 94.3054 84.7646 94.2887 84.9604 94.2978C86.1655 94.3252 87.2659 95.1387 87.2659 96.5532C87.2659 97.2924 86.9457 97.9921 86.507 98.499C86.1382 98.9255 85.6647 99.2716 85.1562 99.5387C85.0454 99.5979 84.9331 99.6586 84.8223 99.7056C84.8147 99.7208 84.8147 99.7345 84.8087 99.7497C84.7464 99.9212 84.5931 100.115 84.3837 100.158C84.2091 100.193 84.0847 100.109 84.0073 100.008C83.8616 100.055 83.7144 100.096 83.5686 100.131C83.3455 100.187 83.1846 100.146 83.1846 99.9166ZM84.8921 98.4899C84.8997 98.4823 84.9058 98.4808 84.9134 98.4732C85.2761 98.2304 85.6237 97.9086 85.6935 97.426C85.7011 97.3835 85.7011 97.3485 85.7011 97.3136C85.7011 96.9585 85.4431 96.7247 85.1927 96.6519C85.0606 96.6094 84.921 96.5973 84.7753 96.6033C84.836 97.2241 84.877 97.8585 84.8921 98.4899ZM86.7241 95.808C86.7241 95.7913 86.7241 95.7822 86.7241 95.7655C86.7241 95.6335 86.6482 95.5303 86.592 95.4513C86.5253 95.3588 86.4433 95.2722 86.3689 95.1873C86.3128 95.1235 86.2429 95.0431 86.1534 95.0309C86.1109 95.0279 86.0381 95.037 86.0214 95.0643C86.0031 95.0932 86.0001 95.122 86.0001 95.1569C86.0274 95.2722 86.1185 95.298 86.202 95.3542C86.3143 95.4286 86.3978 95.5348 86.4524 95.6623C86.4873 95.7367 86.5435 95.852 86.633 95.8672C86.6467 95.8672 86.6543 95.8657 86.6679 95.8657C86.6892 95.8642 86.7241 95.8277 86.7241 95.808Z" fill="white"/>
<path d="M76.0588 108.641C76.0588 109.087 75.9191 109.454 75.7871 109.867C75.5291 110.67 75.2786 111.477 74.9508 112.268C74.8051 112.607 74.6305 113.038 74.2056 113.158C73.9066 113.243 73.6759 113.05 73.5438 112.897C73.3207 112.619 73.2342 112.232 73.1962 111.846C73.1598 111.488 73.1613 111.116 73.0991 110.769C73.0991 110.755 73.0991 110.747 73.0915 110.743C73.0915 110.735 73.0703 110.726 73.0642 110.729C73.0581 110.731 73.0551 110.731 73.0505 110.732C73.043 110.734 73.0232 110.767 73.0156 110.775C72.835 111.178 72.6407 111.578 72.4647 111.971C72.2173 112.528 71.9562 113.209 71.3704 113.46C71.2732 113.501 71.1822 113.525 71.0911 113.534C70.5204 113.596 70.3003 113.106 70.2002 112.642C70.0196 111.804 70.012 110.922 69.8314 110.075C69.7615 109.77 69.672 109.435 69.6705 109.122C69.6705 108.92 69.7069 108.726 69.8162 108.55C69.9346 108.361 70.1364 108.176 70.4218 108.158C70.4779 108.155 70.5265 108.158 70.5887 108.167C71.2505 108.266 71.513 108.882 71.6193 109.551C71.7058 110.099 71.7028 110.675 71.724 111.242C71.724 111.291 71.7453 111.35 71.7938 111.342C71.8287 111.336 71.85 111.292 71.8636 111.268C72.0792 110.843 72.2886 110.315 72.7212 110.049C72.7971 110.005 72.8806 109.966 72.9655 109.948C73.3556 109.86 73.4831 110.187 73.5787 110.448C73.6516 110.647 73.7184 110.851 73.7593 111.071C73.7593 111.084 73.7669 111.104 73.773 111.116C73.773 111.13 73.7942 111.145 73.8079 111.142C73.8777 111.159 73.8914 111.057 73.905 111.004C73.9825 110.495 74.1206 109.984 74.2192 109.476C74.2815 109.152 74.33 108.815 74.4848 108.494C74.6169 108.219 74.8673 107.886 75.2088 107.777C75.7795 107.597 76.0588 108.069 76.0588 108.641ZM70.6312 108.566C70.5553 108.572 70.4825 108.623 70.4916 108.701C70.4946 108.726 70.5128 108.756 70.5265 108.783C70.61 108.909 70.7359 108.997 70.8604 109.076C70.8817 109.088 70.9029 109.101 70.9302 109.105C70.9469 109.104 70.956 109.102 70.9727 109.101C70.994 109.099 71.0213 109.067 71.0213 109.047C71.0213 109.031 71.0213 109.023 71.0213 109.007C71.0152 108.803 70.868 108.548 70.6312 108.566ZM75.2437 108.135C75.1678 108.16 75.0935 108.226 75.1041 108.305C75.1071 108.328 75.1253 108.355 75.139 108.378C75.2225 108.484 75.3484 108.542 75.4729 108.592C75.4941 108.598 75.5154 108.606 75.5427 108.604C75.5594 108.598 75.5685 108.597 75.5852 108.591C75.6065 108.583 75.6338 108.547 75.6338 108.525C75.6338 108.509 75.6338 108.5 75.6338 108.483C75.6262 108.283 75.4805 108.061 75.2437 108.135Z" fill="white"/>
<path d="M77.8694 110.907C77.8132 111.095 77.7085 111.279 77.4854 111.361C77.1166 111.494 77.0103 111.183 76.942 110.902C76.816 110.385 76.6673 109.876 76.5444 109.357C76.4594 108.999 76.3835 108.654 76.3835 108.214C76.3835 107.663 76.5853 107.205 76.9618 106.895C77.0801 106.797 77.2061 106.724 77.3306 106.68C77.6296 106.572 77.8603 106.652 78.006 106.768C78.1669 106.895 78.2777 107.141 78.2777 107.483C78.2777 107.685 78.2564 107.88 78.2352 108.07C78.1653 108.639 78.1092 109.196 78.047 109.755C78.009 110.137 77.9665 110.544 77.8694 110.907ZM77.9453 107.501C77.9453 107.264 77.8891 107.124 77.7844 107.017C77.7358 106.971 77.6797 106.93 77.5689 106.97C77.5203 106.988 77.4641 107.008 77.4641 107.064C77.4641 107.077 77.4641 107.085 77.4641 107.099C77.4778 107.191 77.5689 107.2 77.625 107.243C77.7161 107.307 77.7222 107.458 77.7647 107.596C77.7783 107.647 77.8208 107.666 77.8694 107.669C77.883 107.665 77.8906 107.662 77.9043 107.657C77.9255 107.65 77.9453 107.615 77.9453 107.593C77.9453 107.554 77.9453 107.536 77.9453 107.501Z" fill="white"/>
<path d="M83.0662 109.043C83.0662 109.322 82.878 109.585 82.7034 109.756C82.5122 109.944 82.2784 110.087 82.0553 110.225C81.5742 110.52 81.1143 110.817 80.571 111.005C80.0701 111.18 79.6648 111.18 79.3932 111.001C79.1564 110.845 79.038 110.546 78.9606 110.239C78.8164 109.667 78.7724 109.034 78.7724 108.386C78.7724 108.149 78.7785 107.902 78.7861 107.663C78.7982 107.276 78.8119 106.869 78.9667 106.461C79.1109 106.082 79.419 105.626 79.8652 105.466C80.3327 105.299 80.6514 105.575 80.785 105.881C80.8791 106.097 80.9109 106.361 80.9109 106.633C80.9109 106.794 80.8973 106.958 80.8897 107.114C80.8274 108.047 80.744 108.981 80.5133 109.946C80.5057 109.969 80.5057 109.99 80.5057 110.011C80.5057 110.039 80.5133 110.058 80.5406 110.048C80.5679 110.039 80.5968 110.022 80.6104 110.002C81.0081 109.573 81.3905 109.025 81.9127 108.715C82.0174 108.654 82.1221 108.609 82.2329 108.575C82.67 108.446 83.0662 108.604 83.0662 109.043ZM80.5026 106.552C80.5026 106.539 80.5102 106.522 80.5102 106.508C80.5102 106.481 80.5102 106.466 80.5102 106.438C80.5102 106.124 80.3918 105.888 80.1961 105.818C80.1611 105.803 80.105 105.801 80.0564 105.818C80.0003 105.837 79.9517 105.891 79.9517 105.974C79.979 106.062 80.0777 106.092 80.1323 106.139C80.1718 106.173 80.2158 106.221 80.237 106.276C80.2856 106.405 80.2644 106.655 80.4177 106.637C80.4313 106.633 80.4389 106.63 80.4526 106.625C80.4814 106.615 80.5026 106.58 80.5026 106.552ZM82.6761 109.221C82.6761 109.204 82.6761 109.195 82.6761 109.178C82.6761 108.997 82.5501 108.873 82.3968 108.882C82.3346 108.887 82.2511 108.926 82.2511 108.988C82.2511 109.008 82.2511 109.017 82.2511 109.037C82.286 109.166 82.4181 109.224 82.5152 109.278C82.5365 109.286 82.5577 109.293 82.585 109.293C82.5987 109.289 82.6063 109.295 82.6199 109.29C82.6412 109.286 82.6761 109.242 82.6761 109.221Z" fill="white"/>
<path d="M83.1846 109.855C83.1846 109.688 83.3167 109.535 83.4138 109.427C83.5535 109.274 83.7128 109.137 83.8813 109.022C83.8813 108.972 83.8813 108.946 83.8813 108.896C83.8813 108.137 83.9071 106.786 83.7553 106.646C83.6643 106.563 83.0936 106.457 82.9752 106.133C82.9403 106.032 82.9266 105.93 82.9266 105.827C82.9266 105.291 83.2818 104.824 83.6719 104.57C83.7204 104.412 83.8525 104.213 84.0407 104.171C84.1803 104.141 84.2987 104.206 84.3609 104.285C84.5628 104.244 84.7646 104.227 84.9604 104.236C86.1655 104.263 87.2659 105.077 87.2659 106.492C87.2659 107.229 86.9457 107.93 86.507 108.437C86.1382 108.864 85.6647 109.21 85.1562 109.477C85.0454 109.536 84.9331 109.597 84.8223 109.644C84.8147 109.659 84.8147 109.673 84.8087 109.688C84.7464 109.859 84.5931 110.054 84.3837 110.096C84.2091 110.131 84.0847 110.048 84.0073 109.946C83.8616 109.993 83.7144 110.034 83.5686 110.069C83.3455 110.127 83.1846 110.086 83.1846 109.855ZM84.8921 108.428C84.8997 108.421 84.9058 108.419 84.9134 108.412C85.2761 108.169 85.6237 107.847 85.6935 107.364C85.7011 107.322 85.7011 107.287 85.7011 107.252C85.7011 106.897 85.4431 106.663 85.1927 106.59C85.0606 106.548 84.921 106.536 84.7753 106.542C84.836 107.164 84.877 107.797 84.8921 108.428ZM86.7241 105.746C86.7241 105.73 86.7241 105.721 86.7241 105.704C86.7241 105.572 86.6482 105.469 86.592 105.39C86.5253 105.296 86.4433 105.211 86.3689 105.126C86.3128 105.062 86.2429 104.981 86.1534 104.969C86.1109 104.966 86.0381 104.975 86.0214 105.003C86.0031 105.031 86.0001 105.06 86.0001 105.095C86.0274 105.211 86.1185 105.236 86.202 105.293C86.3143 105.367 86.3978 105.473 86.4524 105.601C86.4873 105.675 86.5435 105.79 86.633 105.806C86.6467 105.806 86.6543 105.804 86.6679 105.804C86.6892 105.804 86.7241 105.768 86.7241 105.746Z" fill="white"/>
<path d="M42.0606 102.303C41.6887 105.044 40.5125 107.557 38.4104 108.507C35.7178 109.726 33.728 109.782 32.057 109.715C27.5689 109.533 25.7142 98.0285 28.9 93.1352C29.4449 92.2929 30.1446 91.6463 31.0036 91.2866C31.0036 91.2866 38.4225 89.828 41.115 95.1493C42.0591 97.0116 42.4082 99.7542 42.0606 102.303Z" fill="#F99D28"/>
<g opacity="0.4">
<path d="M42.0591 102.316C42.0576 102.316 42.0606 102.316 42.0591 102.316C42.0743 100.355 41.7009 98.4307 40.9845 97.0146C39.0175 93.1276 34.5294 92.859 32.2513 92.9956C30.8519 93.0806 29.5527 93.803 28.7847 94.9763C28.7786 94.9854 28.7741 94.993 28.768 95.0021C27.997 96.1844 27.5204 97.7538 27.3064 99.4552C27.3489 97.0617 27.8543 94.741 28.9001 93.1367C29.4449 92.2944 30.1446 91.6478 31.0037 91.2881C31.0037 91.2881 38.4225 89.8295 41.115 95.1508C42.0606 97.0146 42.4082 99.7633 42.0591 102.316Z" fill="white"/>
</g>
<path d="M42.0606 102.303C41.6887 105.044 40.5125 107.557 38.4104 108.507C35.7178 109.726 33.728 109.782 32.057 109.715C27.5689 109.533 25.7142 98.0285 28.9 93.1352C28.859 93.3735 27.2138 103.14 33.1498 104.725C37.6575 105.928 40.5504 104.49 42.0606 102.303Z" fill="#F47D2A"/>
<path d="M32.8812 110.599C32.5883 110.599 32.3029 110.591 32.0237 110.579C29.5163 110.477 27.5463 107.777 26.754 103.357C25.8221 98.1636 26.8693 92.0743 30.6729 90.4867C30.726 90.4639 30.7821 90.4473 30.8398 90.4366C31.1692 90.3729 38.9371 88.9189 41.8907 94.7592C43.2658 97.4791 43.4434 101.783 42.3126 104.995C41.572 107.097 40.3471 108.585 38.7702 109.298C36.4085 110.363 34.5341 110.599 32.8812 110.599ZM31.2557 92.1214C28.4994 93.369 27.6647 98.6311 28.4569 103.052C29.0671 106.457 30.5287 108.786 32.0935 108.85C33.6295 108.912 35.4842 108.882 38.0538 107.719C39.4896 107.07 40.2727 105.566 40.6765 104.42C41.6494 101.657 41.5067 97.8403 40.3426 95.5409C38.1281 91.1591 32.0464 91.9923 31.2557 92.1214Z" fill="#630E0E"/>
<path d="M33.8586 95.6471C35.9698 95.081 38.204 95.0142 40.2924 95.7352C41.0073 95.975 41.6766 96.3605 42.3111 96.8037C42.7042 97.0784 42.7998 97.6187 42.5266 98.0118C42.2261 98.4489 41.5901 98.5066 41.2107 98.1393C39.3286 96.4288 36.5147 96.1025 34.0772 96.4849C33.5293 96.5973 33.3259 95.8126 33.8586 95.6471Z" fill="#630E0E"/>
<path d="M34.0178 103.351C36.1716 103.407 39.5622 103.336 41.1362 101.743C41.9102 100.902 43.1745 102.005 42.4415 102.887C41.2166 104.034 39.6321 104.291 38.093 104.42C36.68 104.505 35.311 104.424 33.9146 104.21C33.6779 104.172 33.517 103.951 33.5549 103.716C33.5913 103.489 33.7962 103.333 34.0178 103.351Z" fill="#630E0E"/>
<path d="M79.0714 102.303C79.4432 105.044 80.6195 107.557 82.7216 108.507C85.4141 109.726 87.4039 109.782 89.075 109.715C93.563 109.533 95.4177 98.0285 92.2304 93.1352C91.6855 92.2929 90.9858 91.6463 90.1268 91.2866C90.1268 91.2866 82.7079 89.828 80.0154 95.1493C79.0729 97.0116 78.7253 99.7542 79.0714 102.303Z" fill="#F99D28"/>
<g opacity="0.4">
<path d="M79.0729 102.316C79.0714 102.316 79.0745 102.316 79.0729 102.316C79.0578 100.355 79.4311 98.4307 80.1475 97.0146C82.1145 93.1276 86.6026 92.859 88.8792 92.9956C90.2786 93.0806 91.5778 93.803 92.3458 94.9763C92.3519 94.9854 92.3564 94.993 92.3625 95.0021C93.1335 96.1844 93.6086 97.7538 93.8241 99.4552C93.7801 97.0617 93.2762 94.741 92.2305 93.1367C91.6856 92.2944 90.9859 91.6478 90.1268 91.2881C90.1268 91.2881 82.708 89.8295 80.0155 95.1508C79.0714 97.0146 78.7239 99.7633 79.0729 102.316Z" fill="white"/>
</g>
<path d="M79.0714 102.303C79.4433 105.044 80.6195 107.557 82.7216 108.507C85.4142 109.726 87.404 109.782 89.075 109.715C93.5631 109.533 95.4178 98.0285 92.2305 93.1352C92.2714 93.3735 93.9167 103.14 87.9807 104.725C83.4745 105.928 80.5831 104.49 79.0714 102.303Z" fill="#F47D2A"/>
<path d="M88.2524 110.599C86.5996 110.599 84.7251 110.363 82.365 109.296C80.7881 108.583 79.5632 107.096 78.8225 104.994C77.6903 101.782 77.8679 97.4776 79.2445 94.7577C82.1996 88.9173 89.966 90.3714 90.2954 90.4351C90.353 90.4457 90.4077 90.4639 90.4623 90.4852C94.2658 92.0728 95.3131 98.1621 94.3812 103.356C93.5889 107.776 91.6189 110.476 89.1115 110.579C88.8292 110.591 88.5438 110.599 88.2524 110.599ZM87.9049 91.9741C85.7026 91.9741 82.321 92.5099 80.7896 95.5394C79.627 97.8388 79.4828 101.656 80.4557 104.418C80.8609 105.566 81.6426 107.068 83.0784 107.718C85.648 108.881 87.5042 108.911 89.0386 108.849C90.6035 108.785 92.0651 106.455 92.6752 103.051C93.4675 98.6295 92.6342 93.369 89.8765 92.1198C89.6336 92.0804 88.8869 91.9741 87.9049 91.9741Z" fill="#630E0E"/>
<path d="M87.0579 96.4849C84.6204 96.104 81.8064 96.4288 79.9244 98.1393C79.0502 98.93 77.8815 97.649 78.7572 96.8537C79.9927 95.9249 81.4922 95.3952 83.0055 95.2616C84.4595 95.1341 85.8649 95.2586 87.2749 95.6456C87.5041 95.7108 87.6392 95.9491 87.5739 96.1798C87.5087 96.406 87.2795 96.535 87.0579 96.4849Z" fill="#630E0E"/>
<path d="M87.2172 104.212C84.5839 104.562 80.9306 104.821 78.7648 102.961C77.8921 102.116 79.1579 100.859 79.9957 101.742C81.5696 103.336 84.9588 103.407 87.114 103.351C87.6634 103.319 87.7591 104.113 87.2172 104.212Z" fill="#630E0E"/>
<path d="M74.7534 48.4339C77.5067 48.2837 79.8972 51.4027 80.0899 55.402C80.2827 59.4013 78.2079 62.7632 75.4531 62.915C72.6999 63.0652 70.3094 59.9462 70.1167 55.9469C69.9224 51.9476 71.9987 48.5842 74.7534 48.4339Z" fill="#630E0E"/>
<path d="M74.8671 50.1111C75.7231 50.5163 76.0358 51.8899 75.5638 53.1769C75.0917 54.464 74.0172 55.1789 73.1611 54.7736C72.3051 54.3684 71.9924 52.9948 72.4645 51.7077C72.935 50.4192 74.0111 49.7043 74.8671 50.1111Z" fill="white"/>
<path d="M77.4018 58.8064C77.801 59.1312 77.8162 59.8809 77.4352 60.4804C77.0543 61.08 76.4229 61.3016 76.0237 60.9752C75.6245 60.6504 75.6094 59.9007 75.9903 59.3011C76.3713 58.7031 77.0042 58.4815 77.4018 58.8064Z" fill="#B199C4"/>
<path d="M46.9144 48.4339C44.1597 48.2837 41.7707 51.4027 41.578 55.402C41.3852 59.4013 43.46 62.7632 46.2147 62.915C48.9695 63.0652 51.3585 59.9462 51.5512 55.9469C51.7455 51.9476 49.6692 48.5842 46.9144 48.4339Z" fill="#630E0E"/>
<path d="M46.8008 50.1111C45.9448 50.5163 45.6321 51.8899 46.1041 53.1769C46.5746 54.464 47.6507 55.1789 48.5067 54.7736C49.3628 54.3684 49.6754 52.9948 49.2034 51.7077C48.7329 50.4192 47.6568 49.7043 46.8008 50.1111Z" fill="white"/>
<path d="M44.2644 58.8064C43.8653 59.1312 43.8501 59.8809 44.231 60.4804C44.612 61.08 45.2434 61.3016 45.6426 60.9752C46.0417 60.6504 46.0569 59.9007 45.6759 59.3011C45.2965 58.7031 44.6636 58.4815 44.2644 58.8064Z" fill="#B199C4"/>
</svg>
