<?xml version="1.0" encoding="utf-8"?>
<!-- Generator: Adobe Illustrator 26.2.1, SVG Export Plug-In . SVG Version: 6.00 Build 0)  -->
<svg version="1.1" id="Layer_1" xmlns="http://www.w3.org/2000/svg" xmlns:xlink="http://www.w3.org/1999/xlink" x="0px" y="0px"
	 viewBox="0 0 1024 1280" style="enable-background:new 0 0 1024 1280;" xml:space="preserve">
<style type="text/css">
	.st0{fill:url(#SVGID_1_);}
	.st1{fill:url(#SVGID_00000053537261999290627500000001205591954007955600_);}
	.st2{fill:url(#SVGID_00000113322737416436750400000005239729436132737180_);}
	.st3{fill:url(#SVGID_00000181775530440842436240000003760355407164741548_);}
	.st4{fill:#1C75BC;stroke:#414042;stroke-width:0.5;stroke-miterlimit:10;}
	.st5{fill:#EF4136;}
	.st6{fill:#BE1E2D;}
	.st7{fill:#6D6E71;}
	.st8{fill:#58595B;}
	.st9{fill:#414042;}
	.st10{fill:none;}
	.st11{fill:#00AEEF;}
	.st12{fill:#414042;stroke:#414042;stroke-width:0.5;stroke-miterlimit:10;}
	.st13{fill:#BE1E2D;stroke:#414042;stroke-width:0.5;stroke-miterlimit:10;}
	.st14{fill:#00AEEF;stroke:#8B5E3C;stroke-width:0.25;stroke-miterlimit:10;}
	.st15{fill:#EF4136;stroke:#8B5E3C;stroke-width:0.25;stroke-miterlimit:10;}
	.st16{fill:none;stroke:#8B5E3C;stroke-width:0.25;stroke-miterlimit:10;}
	.st17{fill:#BE1E2D;stroke:#8B5E3C;stroke-width:0.25;stroke-miterlimit:10;}
	.st18{fill:#A97C50;}
	.st19{fill:#F1F2F2;}
	.st20{fill:#A97C50;stroke:#8B5E3C;stroke-width:0.25;stroke-miterlimit:10;}
	.st21{fill:#A41D2E;}
	.st22{fill:#3A91CF;}
	.st23{opacity:0.64;fill:#A41D2E;enable-background:new    ;}
	.st24{fill:url(#SVGID_00000037684853235469463000000001050258389582392750_);}
	.st25{fill:#1C75BC;}
	.st26{fill:#FFF200;}
	.st27{opacity:0.27;fill:#1C75BC;enable-background:new    ;}
	.st28{fill:url(#SVGID_00000003093708947871995380000013524780765076848792_);}
	.st29{fill:url(#SVGID_00000034811611063734966100000018402444891122043272_);}
	.st30{fill:url(#SVGID_00000040548946760404657310000011202359699550081931_);}
	.st31{fill:#27AAE1;stroke:#231F20;stroke-width:0.5;stroke-miterlimit:10;}
	
		.st32{fill:url(#SVGID_00000108993003236407385830000009234367048551953321_);stroke:#231F20;stroke-width:0.25;stroke-miterlimit:10;}
	.st33{fill:#414042;stroke:#8B5E3C;stroke-width:0.25;stroke-miterlimit:10;}
	.st34{fill:#9A6C45;}
	.st35{opacity:0.84;fill:url(#SVGID_00000141425819807559954630000005119204458677026212_);enable-background:new    ;}
	.st36{opacity:0.84;fill:url(#SVGID_00000047052235390028061680000005844806545424134566_);enable-background:new    ;}
	.st37{opacity:0.84;fill:url(#SVGID_00000108996101269302890280000000506784423110124442_);enable-background:new    ;}
	.st38{opacity:0.84;fill:#4A4B4C;enable-background:new    ;}
	.st39{fill:url(#SVGID_00000107573309289716008850000004777911539950749340_);}
	.st40{opacity:0.84;fill:url(#SVGID_00000143614784518474891420000001563662999840494498_);enable-background:new    ;}
	.st41{fill:#00539E;}
	.st42{fill:url(#SVGID_00000082345602339880135200000005974495492681634462_);}
	.st43{fill:url(#SVGID_00000164489977579186640770000013726079670496814010_);}
	.st44{fill:#6D6E71;stroke:#231F20;stroke-width:0.5;stroke-miterlimit:10;}
	.st45{fill:#9A6C45;stroke:#231F20;stroke-width:0.5;stroke-miterlimit:10;}
	.st46{opacity:0.84;fill:url(#SVGID_00000014634410521169628950000004478553005057035397_);enable-background:new    ;}
	.st47{opacity:0.84;fill:url(#SVGID_00000089562868506410084790000012177681288824727478_);enable-background:new    ;}
	.st48{opacity:0.84;fill:url(#SVGID_00000108310471811099458620000001994253510230922916_);enable-background:new    ;}
	.st49{fill:none;stroke:#231F20;stroke-width:0.75;stroke-miterlimit:10;}
	.st50{opacity:0.54;fill:#9A6C45;enable-background:new    ;}
	
		.st51{fill:url(#SVGID_00000148662470838443963990000004320065674360331941_);stroke:#231F20;stroke-width:0.25;stroke-miterlimit:10;}
	.st52{opacity:0.84;fill:url(#SVGID_00000041994535870116860880000006638353960067959945_);enable-background:new    ;}
	.st53{fill:#F7931E;}
	.st54{fill:#009245;}
	.st55{fill:#D3751A;}
	.st56{fill:#333333;}
	.st57{fill:#C25A12;}
	.st58{fill:url(#SVGID_00000057127808860632256130000016328488359377060528_);}
	.st59{fill:#D26912;}
	.st60{opacity:0.57;fill:url(#SVGID_00000074416749933674714720000016655041723254791103_);enable-background:new    ;}
	.st61{opacity:0.57;fill:url(#SVGID_00000029734738374611689820000015126304915039947946_);enable-background:new    ;}
	.st62{opacity:0.43;fill:#C25A12;enable-background:new    ;}
	.st63{fill:#C1272D;}
	.st64{fill:#D9B821;}
	.st65{fill:#D9E021;}
	.st66{fill:#C25A12;stroke:#D9B821;stroke-width:0.75;stroke-miterlimit:10;}
	.st67{fill:#C25A12;stroke:#D9B821;stroke-miterlimit:10;}
	.st68{opacity:0.42;fill:#C1272D;enable-background:new    ;}
	.st69{fill:url(#SVGID_00000108991673293821645810000015716076445021103531_);}
	.st70{fill:url(#SVGID_00000123440590729961438060000009436341786699137968_);}
	.st71{fill:url(#SVGID_00000086682076934964552360000002691049907648903307_);}
	.st72{fill:url(#SVGID_00000055686231589788405640000004051928589101153982_);}
	.st73{opacity:0.32;fill:#D3751A;enable-background:new    ;}
	.st74{opacity:0.26;fill:#333333;enable-background:new    ;}
	.st75{opacity:0.56;}
	.st76{opacity:0.63;}
	.st77{fill:url(#SVGID_00000050663237980117919610000003191328579576167336_);}
	.st78{fill:url(#SVGID_00000161622629416544095160000014149846124769861038_);}
	.st79{fill:#4D4D4D;}
	
		.st80{opacity:0.7;fill:url(#SVGID_00000181063569431538920090000008731284417936690596_);stroke:url(#SVGID_00000160896832047223303770000005006182686259455663_);stroke-width:0.5;stroke-miterlimit:10;enable-background:new    ;}
	.st81{fill:url(#SVGID_00000018205322445857591640000006594647657100857775_);}
	.st82{fill:#FFFF00;}
	.st83{fill:#F15A24;}
	.st84{fill:#FFFFFF;stroke:#FFFFB4;stroke-miterlimit:10;}
	.st85{fill:#FFFFFF;stroke:#FBB03B;stroke-miterlimit:10;}
	.st86{fill:#FFFFFF;stroke:#FFFF00;stroke-width:0.25;stroke-miterlimit:10;}
</style>
<g>
	<g id="Layer_4">
		
			<linearGradient id="SVGID_1_" gradientUnits="userSpaceOnUse" x1="284.5774" y1="2082.9438" x2="354.7221" y2="2082.9438" gradientTransform="matrix(1 0 0 -1 0 2582)">
			<stop  offset="0" style="stop-color:#1C75BC"/>
			<stop  offset="0.67" style="stop-color:#0063A9"/>
		</linearGradient>
		<path class="st0" d="M352.5,547.13c-0.28,1.15-0.47,1.75-0.47,1.75l-0.58,1.4l-6.55,15.9c-1.29-1.75-6.99-5.05-19.82-13.39
			c-15.13-9.45-28.77-21.08-40.51-34.51l21.16-77.26l22.09-9.09c0,0,18.16,22.18,24.2,60.48
			C357.01,523.98,353.8,541.89,352.5,547.13z"/>
		
			<linearGradient id="SVGID_00000075157274712632813320000005017579082132020159_" gradientUnits="userSpaceOnUse" x1="404.2652" y1="1604.6469" x2="404.2652" y2="1739.4333" gradientTransform="matrix(1 0 0 -1 0 2582)">
			<stop  offset="0" style="stop-color:#1C75BC"/>
			<stop  offset="0.46" style="stop-color:#1B75BC"/>
			<stop  offset="0.78" style="stop-color:#0F77BE"/>
		</linearGradient>
		<path style="fill:url(#SVGID_00000075157274712632813320000005017579082132020159_);" d="M496.53,977.35
			c-1.75-0.56-109.67-36.98-184.54-65.51c7.34-23.56,16-46.69,25.95-69.27c0.72,1.12,1.49,2.2,2.32,3.29
			c5.79,7.25,13,13.23,21.2,17.58l0.4,0.23c22.04,12.88,50.98,20.13,67.7,23.52c0.59,3.3,1.98,6.4,4.05,9.03L496.53,977.35z"/>
		
			<linearGradient id="SVGID_00000147204571237160885220000008775080544946300295_" gradientUnits="userSpaceOnUse" x1="162.2769" y1="1781.173" x2="339.0302" y2="1957.9261" gradientTransform="matrix(1 0 0 -1 0 2582)">
			<stop  offset="0" style="stop-color:#1C75BC"/>
			<stop  offset="0.46" style="stop-color:#0F77BE"/>
			<stop  offset="1" style="stop-color:#00AEEF"/>
		</linearGradient>
		<path style="fill:url(#SVGID_00000147204571237160885220000008775080544946300295_);" d="M291.79,737.51L291.79,737.51
			c-1.85,10.49-3.32,20.97-4.3,31.14c-3.3,34.64-5.24,55.13-6.41,67.23l-9.3,22.53c-7.36,4.95-18.96,13.07-29.88,22.05
			c-20.01-20.11-31.98-115.6-40.07-176.5c-4.14-31.14,18.93-95.89,42.95-152.72c9.38,2.11,19.35,4.46,28.19,6.78
			c0,0-1.59,57.34,3.01,109.71C277.66,687.63,283.7,712.41,291.79,737.51z"/>
		
			<linearGradient id="SVGID_00000093173053848439718160000011137066246731799436_" gradientUnits="userSpaceOnUse" x1="272.6554" y1="1934.2385" x2="315.2289" y2="1934.2385" gradientTransform="matrix(1 0 0 -1 0 2582)">
			<stop  offset="0" style="stop-color:#1C75BC"/>
			<stop  offset="1" style="stop-color:#0063A9"/>
		</linearGradient>
		<path style="fill:url(#SVGID_00000093173053848439718160000011137066246731799436_);" d="M315.23,645.71L315.23,645.71
			c-9.87,30.03-17.7,60.69-23.43,91.78c-8.09-25.09-14.14-49.87-15.87-69.74c-4.6-52.43-3.01-109.71-3.01-109.71
			c14.22,3.74,25.62,7.44,27.26,10.01c4.81,7.46-15.29,5.24-11.8,20.97c0.17,0.77,0.35,1.5,0.56,2.22l0,0
			c1.22,4.5,3.26,8.73,6.01,12.49l0,0l10.07,20.85c-0.63,1.14-2.07,1.55-3.21,0.92c-0.13-0.07-0.26-0.16-0.38-0.26
			c-2.62-2.18,0-6.57-9.17-9.19s-8.3,0.28-1.75,9.75c6.55,9.47,9.3,22.33,17.48,19.54c1.19-0.4,2.73-2.31,4.51-5.24L315.23,645.71z"
			/>
		<path class="st4" d="M361.47,863.43c-8.2-4.37-15.42-10.37-21.2-17.65C346.17,852.94,353.36,858.92,361.47,863.43z"/>
		<path class="st4" d="M412.51,704.15c0,0,8.62,8.48-35.32,69.9c-1.26,1.75-2.59,3.62-3.95,5.49
			c-13.61,18.68-25.39,40.82-35.3,63.02c-9.96,22.59-18.63,45.72-25.97,69.29c-12.06-4.6-23.24-8.98-32.99-12.97
			c-18.38-7.55-31.65-13.72-35.93-17.28c-0.42-0.35-0.82-0.73-1.22-1.14c10.92-8.98,22.53-17.11,29.88-22.05l9.35-22.51
			c1.17-12.09,3.11-32.59,6.41-67.23c0.98-10.22,2.45-20.67,4.3-31.14l0,0c5.73-31.09,13.56-61.75,23.43-91.78l0,0l-2.67-5.54
			c-1.75,2.95-3.32,4.86-4.51,5.24c-8.18,2.8-10.92-10.05-17.48-19.54c-6.55-9.49-7.43-12.35,1.75-9.75s6.55,6.99,9.17,9.19
			c1,0.84,2.49,0.71,3.32-0.29c0.1-0.12,0.18-0.24,0.26-0.38l-10.07-20.85l0,0c-2.75-3.76-4.79-8-6.01-12.49l0,0
			c-0.21-0.72-0.38-1.45-0.56-2.22c-3.5-15.73,16.6-13.51,11.8-20.97c-1.64-2.57-13.04-6.27-27.26-10.01
			c-8.84-2.32-18.8-4.67-28.19-6.78c5.38-12.7,10.8-25.02,15.97-36.47v-0.09c2.69-5.98,5.24-11.71,7.85-17.13
			c1.75,2.41,3.6,5.09,5.8,8.04c3.01,4.04,5.98,7.76,8.93,11.22l1.24,1.43c11.73,13.43,25.38,25.06,40.51,34.51
			c12.83,8.34,18.52,11.62,19.82,13.39l6.55-15.9l0.58-1.4c0,0,0.19-0.56,0.47-1.75l0.89,1.54l0,0l1.75,3.04l2.46,4.07v0.1
			l4.89,8.37l12.04,20.64l11.17,19.22l0,0l50.68,86.99L412.51,704.15z"/>
		<path class="st4" d="M547.61,881.59c0,0-7.58-0.75-18.65-2.15c-9.7-1.24-22.07-2.97-34.32-5.16c1.14-7.67,0.64-15.49-1.47-22.95
			c-8.07-28.24-58.49-155.27-58.49-155.27l3.39-2.22l72.91,124.93l0,0L547.61,881.59z"/>
		<path class="st5" d="M377.2,774.06c-1.26,1.75-2.59,3.62-3.95,5.49c-13.61,18.68-25.39,40.82-35.3,63.02
			c-9.96,22.58-18.63,45.71-25.97,69.27c-8.21,26.11-12.39,44.35-12.39,44.35c-7.84,1.16-15.75,1.74-23.68,1.75
			c-14.98,0.23-29.96-0.36-44.88-1.75l8.06-20.17c1.02-2.56,2.19-5.07,3.5-7.5c7.15-13.44,15.54-16.37,32.87-26.79
			c1.32-0.8,2.52-1.76,3.6-2.87l0,0c0.51-0.51,1.01-1.07,1.49-1.64c0.51-0.6,0.99-1.23,1.43-1.89c0.24-0.33,0.47-0.66,0.7-1.01
			l0.37-0.58c0.19-0.3,0.37-0.59,0.54-0.89c0.35-0.59,0.7-1.22,1.05-1.85l0.94-1.89l0.63-1.33c0.23-0.49,0.44-1,0.65-1.5
			s0.52-1.26,0.77-1.9c0.24-0.65,0.35-0.89,0.51-1.33c0.16-0.44,0.4-1.1,0.59-1.75l0.58-1.75c0.56-1.75,1.07-3.5,1.56-5.24
			c0.24-0.87,0.47-1.75,0.7-2.62c0.23-0.87,0.49-2.01,0.72-3.02c0.12-0.51,0.23-1.01,0.33-1.52c0.19-0.82,0.35-1.66,0.52-2.48
			c0.12-0.54,0.23-1.08,0.33-1.63c0.1-0.54,0.26-1.31,0.37-1.96l0.26-1.5c0.1-0.51,0.17-1.01,0.26-1.5s0.16-1,0.24-1.49
			c0.16-1,0.31-1.97,0.45-2.94c0.3-1.94,0.54-3.83,0.77-5.66c0.1-0.93,0.23-1.75,0.31-2.69c0.14-1.17,0.26-2.31,0.37-3.39
			c0-0.44,0.09-0.87,0.12-1.29c0.17-1.75,0.31-3.34,0.42-4.81c0-0.58,0.1-1.14,0.14-1.75c0.1-1.61,0.19-2.99,0.26-4.09
			c0-0.33,0-0.63,0-0.91s0-0.37,0-0.54c0-0.17,0-0.61,0-0.86c0-0.24,0-0.7,0-0.7c0-0.08,0-0.15,0-0.23c0.05-0.17,0.08-0.34,0.1-0.51
			v-0.26l0.26-1.43c0-0.3,0.12-0.61,0.19-0.94s0.14-0.7,0.21-1.08c0.07-0.38,0.23-1.21,0.37-1.87c0-0.23,0-0.47,0.14-0.72
			s0.19-0.98,0.3-1.5l0.16-0.8c0.12-0.52,0.23-1.07,0.35-1.64c0-0.3,0.1-0.59,0.17-0.89c0.17-0.87,0.37-1.75,0.56-2.74
			c0.19-1,0.44-2.15,0.68-3.29c0.35-1.75,0.73-3.49,1.12-5.33c0.31-1.45,0.65-2.97,0.98-4.53c0.26-1.21,0.52-2.43,0.8-3.69
			c0.28-1.26,0.52-2.43,0.8-3.67c0.16-0.72,0.33-1.45,0.49-2.18c0.66-2.97,1.38-6.06,2.11-9.26c0.52-2.24,1.07-4.54,1.61-6.89
			c0.37-1.56,0.75-3.15,1.14-4.74c0.31-1.29,0.63-2.59,0.96-3.9l0.42-1.75l0.42-1.75l27.38-65.81l0,0l24.34-58.49l2.39-5.73
			c1.13,0.75,2.19,1.59,3.18,2.52c0.37,0.31,0.73,0.66,1.1,1.01c0.37,0.35,0.73,0.73,1.12,1.12c1.36,1.42,2.76,3.01,4.18,4.74
			l0.79,0.98l0.91,1.15l0.91,1.21c0.44,0.58,0.87,1.14,1.29,1.75l1.12,1.56c4.04,5.68,8.09,12.23,11.9,18.68l1.75,3.06
			c3.77,6.59,7.23,13.09,10.1,18.65l1.19,2.31v0.19l0.96,1.89l2.15,4.3l0.44,0.91c0.59,1.17,1.1,2.22,1.52,3.11
			c0.12,0.23,0.23,0.44,0.31,0.65l0.94,1.96c0.05,0.08,0.08,0.16,0.1,0.24l0,0l0,0c0,0,0.14,0.31,0.19,0.4v0.16
			C412.06,703.88,421.13,712.62,377.2,774.06z"/>
		<path class="st6" d="M366.15,631.55l-2.39,5.73l-24.34,58.49l0,0l-27.44,65.83l-0.42,1.75l-0.42,1.75
			c-0.33,1.31-0.65,2.6-0.96,3.9c-0.38,1.59-0.77,3.18-1.14,4.74c-0.54,2.34-1.08,4.65-1.61,6.89c-0.73,3.2-1.45,6.29-2.11,9.26
			c-0.16,0.73-0.33,1.47-0.49,2.18c-0.28,1.24-0.54,2.46-0.8,3.67c-0.26,1.21-0.54,2.48-0.8,3.69c-0.77,3.5-1.47,6.87-2.1,9.86
			c-0.24,1.14-0.47,2.24-0.68,3.29c-0.21,1.05-0.38,1.87-0.56,2.74c0,0.3-0.12,0.59-0.17,0.89c-0.12,0.58-0.23,1.12-0.35,1.64
			l-0.16,0.8c-0.1,0.52-0.21,1.03-0.3,1.5c-0.09,0.47-0.1,0.49-0.14,0.72c-0.14,0.66-0.26,1.29-0.37,1.87
			c-0.1,0.58-0.14,0.75-0.21,1.08s-0.12,0.65-0.19,0.94l-0.26,1.43v0.26c-0.02,0.17-0.06,0.34-0.1,0.51c0,0.08,0,0.15,0,0.23
			c0,0,0,0.24,0,0.7c0,0.45,0,0.52,0,0.86s0,0.35,0,0.54s0,0.58,0,0.91c0,1.1-0.16,2.48-0.26,4.09c0,0.54-0.09,1.1-0.14,1.75
			c-0.1,1.47-0.24,3.08-0.42,4.81c0,0.42-0.09,0.86-0.12,1.29c-0.1,1.08-0.23,2.22-0.37,3.39c-0.09,0.87-0.21,1.75-0.31,2.69
			c-0.23,1.75-0.47,3.72-0.77,5.66c-0.14,0.96-0.3,1.94-0.45,2.94c-0.09,0.49-0.16,1-0.24,1.49s-0.16,1-0.26,1.5l-0.26,1.5
			c-0.1,0.65-0.24,1.31-0.37,1.96c-0.12,0.65-0.21,1.08-0.33,1.63c-0.17,0.82-0.33,1.75-0.52,2.48c-0.1,0.51-0.21,1.01-0.33,1.52
			c-0.23,1.01-0.47,2.03-0.72,3.02s-0.45,1.75-0.7,2.62c-0.49,1.75-1,3.5-1.56,5.24l-0.58,1.75c-0.19,0.56-0.38,1.1-0.59,1.75
			c-0.21,0.65-0.33,0.89-0.51,1.33c-0.17,0.44-0.51,1.28-0.77,1.9c-0.26,0.63-0.42,1.01-0.65,1.5l-0.63,1.33l-0.94,1.89
			c-0.35,0.63-0.7,1.26-1.05,1.85c-0.17,0.3-0.35,0.59-0.54,0.89l-0.37,0.58c-0.23,0.35-0.45,0.68-0.7,1.01
			c-0.44,0.65-0.92,1.28-1.43,1.89c-0.47,0.58-0.98,1.14-1.49,1.64l0,0c-1.08,1.1-2.28,2.07-3.6,2.87
			c-17.34,10.49-25.72,13.35-32.87,26.79c-1.31,2.43-2.47,4.93-3.5,7.5l-8.06,20.17c-46.38-4.04-26.21-24.2-16.13-46.38
			c4-8.84,15.06-19.61,26.93-29.36c10.92-8.98,22.53-17.11,29.88-22.05c4.72-3.2,7.71-5.05,7.71-5.05l1.64-17.48
			c1.17-12.09,3.11-32.59,6.41-67.23c0.98-10.22,2.45-20.67,4.3-31.14l0,0c5.73-31.09,13.56-61.75,23.43-91.78l0,0
			c11.8-36.7,22.72-62.54,22.72-62.54l0,0c0.23,0.84,6.17,21.76,16.97,36.87c2.94,4.33,6.59,8.12,10.8,11.22
			C365.98,631.5,366.07,631.52,366.15,631.55z"/>
		<path class="st6" d="M242.53,928.53l-11.48,27.66l8.06-20.17C240.11,933.46,241.25,930.96,242.53,928.53z"/>
		<path class="st6" d="M281.08,835.89l-1.64,17.48c0,0-2.99,1.85-7.71,5.05L281.08,835.89z"/>
		<path class="st5" d="M525.72,619.69c-0.04,0.64-0.12,1.28-0.24,1.9l-0.37-1.75c-0.19-1.14-0.4-2.1-0.56-2.94l-0.24-1.17l-0.49-2.5
			c0-0.3-0.1-0.52-0.16-0.73c-0.05-0.21,0-0.28-0.09-0.38c-0.09-0.1,0-0.23,0-0.31l0,0c0,0,0-0.09,0-0.1v-0.19
			c0.04,0.03,0.07,0.07,0.09,0.12l0.1,0.12C525.4,614.05,526.1,616.89,525.72,619.69z"/>
		<path class="st5" d="M565.75,923.93c0,0-6.05,12.09-28.22,20.17c-9.8,3.26-19.89,5.6-30.13,6.99c0,0,16.01-29.2,22.07-45.33
			c1.54-4.11,2.14-8.52,1.75-12.9v-0.8c-0.1-1.47-0.31-3.04-0.61-4.75c0-0.35-0.1-0.68-0.17-1.03c-0.24-1.49-0.58-3.06-0.96-4.75
			c-0.14-0.59-0.28-1.21-0.44-1.83c0.01-0.09,0.01-0.17,0-0.26c0-0.38-0.17-0.79-0.28-1.19c-0.21-0.79-0.42-1.61-0.63-2.46
			c-0.31-1.26-0.68-2.59-1.07-3.98c-0.17-0.61-0.35-1.22-0.52-1.87c-0.17-0.65-0.33-1.19-0.51-1.75c-0.35-1.22-0.72-2.48-1.1-3.79
			v-0.16c-0.28-1-0.59-2.04-0.93-3.11c-0.16-0.58-0.33-1.15-0.51-1.75c-0.31-1.07-0.65-2.13-0.98-3.25
			c-0.7-2.31-1.45-4.75-2.24-7.32c-0.19-0.63-0.38-1.28-0.59-1.94c-0.59-1.97-1.22-4.02-1.89-6.15l-2.76-8.72
			c-1.27-4.12-2.62-8.53-4.05-13.23l0,0c-0.8-2.62-1.63-5.33-2.46-8.13l-1.64-5.45c-1.49-4.95-3.04-10.15-4.67-15.73
			c-0.42-1.4-0.82-2.8-1.24-4.23c-0.24-0.84-0.51-1.75-0.75-2.53c-2.38-8.14-4.47-15.82-6.24-22.95c-0.42-1.68-0.82-3.34-1.21-4.98
			c0-0.24-0.12-0.47-0.17-0.72s-0.12-0.52-0.17-0.77c-0.37-1.5-0.7-2.97-1.03-4.42c-0.33-1.45-0.73-3.29-1.07-4.88l-0.16-0.73
			l-0.21-1.03c-0.21-0.91-0.38-1.75-0.56-2.71c-0.1-0.45-0.19-0.91-0.28-1.35l-0.26-1.33c-0.12-0.63-0.23-1.24-0.35-1.83
			c-0.21-1.12-0.42-2.24-0.61-3.34c-0.3-1.75-0.59-3.32-0.86-4.93l0,0c-0.26-1.61-0.52-3.16-0.75-4.7l0,0
			c-0.17-1.15-0.35-2.27-0.51-3.39c0-0.38-0.1-0.77-0.14-1.14c-0.1-0.73-0.19-1.45-0.3-2.15l-0.26-2.17
			c-0.24-2.11-0.47-4.14-0.65-6.1l-0.1-0.98c-0.1-1.14-0.19-2.24-0.28-3.32c-0.12-1.63-0.23-3.18-0.31-4.68c0-0.51,0-1,0-1.49
			c0.01-0.14,0.01-0.28,0-0.42v-0.96c0-0.21,0-0.42,0-0.63c0-0.54,0-1.08,0-1.61c0-2.73-0.09-5.24,0-7.57c0-0.49,0-0.94,0-1.42
			c0-0.47,0-0.93,0-1.36s0-1.19,0.09-1.75c0.09-0.56,0-1.14,0.1-1.75v-0.79l0.1-1.12c0-0.37,0-0.73,0.09-1.08l0,0l0,0v-0.58
			c0-0.52,0.12-1.05,0.17-1.54c0.05-0.49,0.09-0.45,0.12-0.7l0.1-0.93c0-0.3,0-0.59,0.12-0.87c0.16-1.03,0.33-1.97,0.51-2.83
			c0-0.28,0.1-0.56,0.17-0.82c-0.02-0.08-0.02-0.16,0-0.24c0.09-0.37,0.16-0.72,0.24-1.05l0.1-0.44l0.1-0.42c0,0,0,0,0-0.1
			s0.1-0.33,0.14-0.49l0,0c0-0.19,0.05-0.36,0.16-0.52l0,0l0.16-0.49c-0.01-0.03-0.01-0.06,0-0.09c0.07-0.22,0.14-0.43,0.21-0.63
			c0.09-0.28,0.17-0.51,0.24-0.72l0,0l0.17-0.44l0.14-0.35l0,0c28.61-18.68,36.7-31.98,38.36-40.19c1.4,6.99,3.76,18.73,7.71,38.55
			c1.28,6.4,2.73,13.63,4.35,21.83c14.12,70.57,10.08,177.43,10.08,199.62C547.51,903.92,565.75,923.93,565.75,923.93z"/>
		<path class="st6" d="M531.35,894.63c0.13,3.8-0.5,7.6-1.87,11.15c-0.38,1-0.79,2.06-1.26,3.16s-0.93,2.24-1.43,3.5
			c-0.24,0.58-0.51,1.16-0.79,1.75c-0.44,1.01-0.91,2.03-1.4,3.08c-1.5,3.29-3.13,6.68-4.77,10l-0.93,1.87
			c-1.08,2.17-2.15,4.28-3.18,6.29l-0.87,1.75l-0.44,0.82l-0.82,1.61c-0.14,0.26-0.26,0.52-0.4,0.77l-0.79,1.5l-2.1,3.97l-0.79,1.45
			l-0.44,0.82l-0.58,1.07l0,0l-0.37,0.68l-0.1,0.19l-0.19,0.37l-0.12,0.23l-0.28,0.51l-2.94,0.44c-13.98,1.99-25.41,2.64-25.41,2.64
			L481.1,928c1.45-18.73,11.11-35.4,13.58-53.68c1.14-7.67,0.64-15.49-1.47-22.95c-8.07-28.24-61.16-160.2-61.16-160.2
			s1.75,2.97,4.53,0c6.62-7.13,14.29-5.59,33.31-18.02l0,0l0.12-0.09c4.96-3.27,10.62-6.99,17.11-11.18c0.01,0.06,0.01,0.12,0,0.17
			v0.16v0.12l-0.14,0.38c0,0.21-0.16,0.44-0.24,0.72s-0.14,0.4-0.21,0.63s-0.16,0.47-0.24,0.73c0.01,0.09,0.01,0.17,0,0.26
			c0,0,0,0.09,0,0.14c-0.05,0.16-0.09,0.31-0.12,0.47c-0.01,0.04-0.01,0.08,0,0.12l-0.1,0.42c-0.01,0.08-0.01,0.16,0,0.24
			c-0.01,0.06-0.01,0.13,0,0.19c-0.01,0.09-0.01,0.19,0,0.28c-0.04,0.12-0.07,0.24-0.09,0.37c-0.17,0.77-0.35,1.63-0.52,2.59
			l-0.21,1.24c0,0.44-0.14,0.87-0.21,1.35l-0.1,0.93c0,0.24-0.09,0.47-0.12,0.7c-0.03,0.23-0.12,1.01-0.17,1.54
			c0,0.21,0,0.42,0,0.63l0,0l-0.1,1.19c0,0.33,0,0.66-0.09,1.01v0.79c-0.09,1.08-0.14,2.22-0.19,3.5v0.12v1.24l0,0
			c0,0.23,0,0.47,0,0.72c0,0.86,0,1.75,0,2.66v0.89c0,1.22,0,2.5,0,3.81c0,0.8,0,1.64,0,2.5c0,0.52,0,1.05,0,1.59
			c0.01,0.14,0.01,0.28,0,0.42c0,0.73,0,1.5,0.12,2.27c0.12,0.77,0.1,1.57,0.16,2.38l0,0l0.1,1.43c0,0.54,0,1.08,0.14,1.64
			c0,0.87,0.16,1.75,0.24,2.66c0.17,1.96,0.4,3.98,0.65,6.1l0.26,2.17c0.1,0.72,0.19,1.43,0.3,2.15c0.19,1.49,0.42,2.99,0.65,4.53
			l0,0c0.23,1.54,0.49,3.09,0.75,4.7l0,0c0.26,1.61,0.56,3.25,0.86,4.93l0,0c0.1,0.65,0.23,1.28,0.35,1.92
			c0.44,2.31,0.89,4.67,1.4,7.11c0,0.4,0.16,0.8,0.26,1.22c0.19,1.01,0.42,2.03,0.63,3.06l0.31,1.4c0.31,1.42,0.63,2.87,0.96,4.32
			l0,0c0,0.1,0,0.21,0,0.31s0.17,0.75,0.26,1.14c0.09,0.38,0.16,0.73,0.26,1.1c0.1,0.37,0,0.26,0.09,0.4
			c0.09,0.14,0.16,0.72,0.26,1.08c0.38,1.64,0.79,3.3,1.21,4.98c1.75,7.13,3.86,14.8,6.24,22.94l1.26,4.26l0.73,2.5
			c0.98,3.3,1.93,6.49,2.85,9.59c0.61,2.06,1.22,4.09,1.75,6.06l1.64,5.45c0.85,2.8,1.67,5.5,2.46,8.13l0,0
			c1.43,4.66,2.78,9.07,4.05,13.23l1.29,4.26c2.99,9.7,5.5,17.84,7.55,24.78c0.33,1.07,0.63,2.11,0.93,3.11l1.15,3.95
			c0.17,0.61,0.33,1.21,0.51,1.75c0.58,2.08,1.12,4.02,1.59,5.85c0.21,0.85,0.42,1.67,0.63,2.46c0.1,0.4,0.21,0.8,0.28,1.19
			c0.21,0.82,0.4,1.61,0.56,2.38c0.16,0.77,0.3,1.35,0.44,2.01c0,0,0,0.1,0,0.16c0.12,0.59,0.23,1.17,0.33,1.75
			c0.05,0.18,0.09,0.37,0.1,0.56c0,0.35,0.12,0.68,0.17,1.03s0.14,0.86,0.21,1.26c0.07,0.4,0,0.44,0,0.66c0,0.56,0.14,1.1,0.19,1.63
			s0.1,0.82,0.12,1.21v0.8c0,0.35,0,0.7,0,1.03S531.35,894.38,531.35,894.63z"/>
		<path class="st5" d="M493.98,759.84c-18.59-74.57-6.87-98.04-6.87-98.04L493.98,759.84z"/>
		<path class="st7" d="M255.24,1127.59c2.03,40.32,46.38,84.68,38.32,98.79l0,0c-4.88,8.48-14.15,13.32-28.26,14.89
			c-8.48-14.73-19.92-34.95-27.79-49.65c-13.84-25.93-1.94-34.57,6.99-97.23c8.14-57.18,27.96-125.14,31.46-136.59
			c7.92-0.01,15.84-0.59,23.68-1.75C299.64,956.05,253.23,1087.25,255.24,1127.59z"/>
		<path class="st8" d="M244.47,1094.47c-8.95,62.67-20.85,71.3-6.99,97.23c7.86,14.71,19.22,34.95,27.79,49.65
			c-11.4,1.02-22.87,0.73-34.2-0.86c-34.29-4.04-42.34-36.3-44.37-64.52c-2.03-28.22,20.17-44.37,30.25-74.6
			c10.08-30.23-15.73-159.02-15.73-159.02l12.81,10.89l16.95,2.95h68.56c-7.84,1.16-15.75,1.74-23.68,1.75
			C272.5,969.33,252.56,1037.29,244.47,1094.47z"/>
		<path class="st9" d="M293.51,1226.46c-0.47,2.01-8.3,34.2-17.09,34.2c-9.07,0-53.44,0-74.65-18.66
			c-21.21-18.66-15.08-66.02-15.08-66.02c2.03,28.22,10.08,60.48,44.37,64.52c11.33,1.59,22.8,1.87,34.2,0.86
			C279.35,1239.78,288.63,1234.94,293.51,1226.46z"/>
		<path class="st10" d="M276.42,956.19l-0.49,1.75"/>
		<path class="st7" d="M725.06,1161.86c-1.66,5.73-9.59,10.76-20.48,14.12c-5.96-14.75-17.37-26.64-31.86-33.2
			c-29.71-13.6-66.02-35.09-78.73-46.29c-14.68-12.98-78.76-125.82-90.01-145.87c9.77-1.57,22.32-1.4,33.55-6.57
			c15.82-7.3,25.29-15.85,28.22-20.17c-3.79,31.94,40.82,142.39,46.38,157.28c6.06,16.13,46.38,34.27,66.55,34.27
			S729.09,1147.74,725.06,1161.86z"/>
		<path class="st8" d="M704.58,1175.98c-15.94,4.88-38.15,6.01-56.15,0c-30.23-10.08-16.13-16.13-28.22-24.2
			c-12.09-8.07-66.55,0-66.55,0v-32.26c0-32.26,12.09-50.42,12.09-50.42l-86.69-114.92c0,0,10.21-1.1,24.92-3.5
			c11.25,19.99,75.34,132.81,90.01,145.87c12.7,11.2,49.04,32.7,78.73,46.29C687.2,1149.39,698.6,1161.25,704.58,1175.98z"/>
		<path class="st9" d="M725.42,1175.98c0,0-8.74,2.5-20.85,5.43c-15.16,3.87-30.54,6.79-46.06,8.74
			c-26.89,2.69-32.26-10.78-43.02-22.88s-61.83,0-61.83,0v-15.5c0,0,54.45-8.06,66.55,0c12.09,8.06-2.01,14.12,28.22,24.2
			c18,6.01,40.19,4.88,56.15,0c10.89-3.36,18.82-8.39,20.48-14.12L725.42,1175.98z"/>
		<path class="st10" d="M503.98,950.67l-1.75-3.02"/>
		<path class="st11" d="M525.47,621.59c-1.57,8.23-9.75,21.53-38.36,40.19l0,0c-6.48,4.21-12.15,7.92-17.11,11.18l-0.12,0.09l0,0
			l-33.31,18.02l-23.99,13v-0.16c0-0.09-0.1-0.23-0.19-0.4l0,0c-1.9-3.5-11.78-20.2-23.15-36.14v-0.09l-0.21-0.31
			c-6.75-9.4-13.98-18.52-20.27-24.47c-1.74-1.6-3.33-3.35-4.75-5.24c-1.55-2.03-2.86-4.22-3.93-6.54l-4.91-10.69l0,0l-16.95-36.82
			c0.65,0.31,8.11,4.11,19.05,9.07l1.28,0.58c5.24,2.29,11.01,4.82,17.3,7.34l0,0l3.27,1.29l3.3,1.29l1.36,0.52l2.18,0.8l0,0
			l3.16,1.15c2.25,0.8,4.53,1.61,6.82,2.38s4.65,1.57,6.99,2.25c1.14,0.37,2.31,0.73,3.5,1.05l3.5,0.96l1.57,0.44l1.87,0.49
			l0.37,0.09l1.63,0.42l1.63,0.38l4,0.89c2.92,0.59,5.77,1.1,8.51,1.45c0.98,0.14,1.94,0.24,2.88,0.35l2.55,0.21l2.03,0.1h1.15h1.15
			c0.59,0,1.19,0,1.75,0c0.56,0,0.82,0,1.24,0c0.42,0,1.01,0,1.5-0.1l1.29-0.14h-0.24c17.88-2.34,37.4-11.57,51.78-19.76
			c6.34-3.63,11.71-6.99,15.45-9.47l0.68-0.45c0.45-0.28,0.89-0.56,1.28-0.84l0.58-0.38l1.47-1l0.82-0.58l0.52-0.37l0.52-0.38h0.1
			l1.49,7.58l0.14,0.8l3.5,18.26l0,0l0.31,1.66c-0.02-0.05-0.05-0.09-0.09-0.12v0.19c0,0,0,0,0,0.1l0,0l0,0v0.23
			c0,0.1,0,0.23,0.09,0.38s0.09,0.44,0.16,0.73l0.49,2.5l0.24,1.17c0.16,0.84,0.37,1.75,0.56,2.94L525.47,621.59z"/>
		<path class="st10" d="M412.44,703.99l-46.29-72.43C383.73,643.24,410.75,700.39,412.44,703.99z"/>
		<path class="st12" d="M366.15,560.69c-0.59,0.38-1.14,0.83-1.64,1.33c-0.16,0.16-0.33,0.33-0.49,0.52l-0.37,0.4
			c-0.27,0.29-0.52,0.59-0.75,0.91l-0.35,0.49l-0.42,0.59c-0.14,0.2-0.27,0.41-0.38,0.63c-0.71,1.17-1.29,2.41-1.75,3.7
			c-0.12,0.31-0.23,0.63-0.33,0.98c-0.42,1.36-0.72,2.75-0.89,4.16c-1.36,10.08-1.75,17.86-1.75,17.86
			c-10.94-4.96-18.4-8.74-19.05-9.07l0,0l6.15-15.1l0.77-1.89l6.55-15.9l0.58-1.4l0,0c0.24,0.23,1.33,1.24,3.09,2.8
			C357.64,553.89,361.43,557.13,366.15,560.69z"/>
		<path class="st10" d="M375.57,600.19c-6.29-2.52-12.13-5.05-17.3-7.34L375.57,600.19z"/>
		<path class="st12" d="M429.06,616.14l-0.84-0.12h-0.37l-3.5-0.56c-1.29-0.24-2.62-0.49-3.91-0.77l-4-0.89l-1.63-0.38l-1.63-0.42
			l-0.37-0.09l-1.87-0.49l-1.57-0.44l-3.5-0.96c-1.12-0.31-2.29-0.68-3.5-1.05c-2.29-0.68-4.63-1.45-6.99-2.25
			c-2.36-0.8-4.56-1.57-6.82-2.38c-1.75-0.65-3.58-1.35-5.36-1.97c-0.45-0.2-0.9-0.37-1.36-0.52l-3.3-1.29l-3.27-1.29l0,0
			c-0.4-0.77-5.07-9.89,0-16.99c2.94-4.07,4.88-6.99,6.05-8.74c1.01-1.49,1.42-2.22,1.42-2.22c3.63,2.17,7.38,4.14,11.24,5.89
			c5.84,2.74,12.04,4.63,18.42,5.63l0,0c3.96,0.61,8,0.58,11.95-0.1c-4.24,3.7-6.67,9.05-6.66,14.68c0,0.4,0,0.8,0,1.21v0.66
			c0,0.19,0,0.38,0,0.58c0,0.19,0,0.56,0.12,0.82c0.12,0.26,0.12,0.7,0.19,1.05c0.07,0.35,0.23,0.93,0.37,1.36
			c0.14,0.44,0.3,0.89,0.45,1.33c0.16,0.44,0.35,0.87,0.54,1.28l0.65,1.24l0.72,1.17l0.61,0.89l0.31,0.42l0.31,0.42l0.09,0.1v0.1
			c0.06,0.07,0.12,0.13,0.19,0.19l0.59,0.63l0.44,0.47l0.12,0.1c0.33,0.33,0.67,0.65,1.03,0.94l0.16,0.12
			c0.23,0.21,0.48,0.41,0.73,0.59l0.28,0.19l0.84,0.58l0,0l0.93,0.56l0,0c0.43,0.27,0.88,0.51,1.35,0.72H429.06z"/>
		<path class="st12" d="M497.72,576.42l-1.17,20.29c-14.38,8.2-33.9,17.48-51.78,19.76c7.39-3.01,12.22-10.18,12.23-18.16
			c0-0.52,0-1.05,0-1.57c0-0.52,0-0.77-0.12-1.15c-0.02-0.18-0.05-0.36-0.09-0.54c-0.1-0.65-0.24-1.29-0.42-1.92
			c-0.09-0.31-0.19-0.63-0.28-0.94c-0.21-0.61-0.45-1.21-0.7-1.75c-0.25-0.6-0.54-1.18-0.86-1.75c-0.16-0.28-0.31-0.56-0.49-0.82
			c-0.17-0.26-0.4-0.61-0.61-0.91l0,0c-0.31-0.44-0.68-0.87-1.05-1.33c-0.37-0.45-0.72-0.8-1.12-1.21c-0.4-0.4-0.42-0.4-0.63-0.58
			l-0.56-0.49l0,0l-0.19-0.16l-1.14-0.84l-0.73-0.49l-0.59-0.37h-0.12c-0.49-0.3-1.01-0.52-1.49-0.77l-0.31-0.14l-0.44-0.17
			l-0.28-0.12l-0.59-0.21l-0.68-0.24h-0.19l-0.77-0.19c-0.27-0.09-0.55-0.16-0.84-0.21l-0.84-0.16c5.5-0.63,10.95-1.66,16.3-3.09
			c7.48-2.33,14.75-5.29,21.72-8.86c2.15-1.07,4.33-2.17,6.5-3.3l4.09-2.17l0,0L497.72,576.42z"/>
		<path class="st5" d="M429.06,616.11c0.98,0.14,1.94,0.24,2.88,0.35l-2.81-0.31L429.06,616.11z"/>
		<path class="st5" d="M440.63,579.04l-0.93,0.12l0,0l0.56-0.19h0.33L440.63,579.04z"/>
		<path class="st5" d="M441.49,579.2c0.54,0.1,1.08,0.24,1.61,0.4l-0.77-0.19C442.05,579.32,441.77,579.25,441.49,579.2z"/>
		<path class="st10" d="M496.55,596.71l15.45-9.47C508.26,589.74,502.9,593.07,496.55,596.71z"/>
		<path class="st12" d="M517.98,583.16h-0.1l-0.52,0.38l-0.52,0.37l-0.82,0.58l-1.47,1l-0.58,0.38l-1.28,0.84l-0.68,0.45
			c-0.9-6.22-2.48-12.32-4.72-18.19c-2.05-4.72-4.93-9.04-8.51-12.74c3.5-1.96,6.38-3.69,8.55-5l0.47-0.28l0.44-0.26l0.79-0.47
			l0.14-0.1l0.65-0.38l0.75-0.47l0.38-0.23h0.1l0,0l0,0l0,0l0,0h0.09l5.49,28.22c-0.01,0.05-0.01,0.09,0,0.14L517.98,583.16z"/>
		<path class="st10" d="M523.43,611.51l0.16,0.93l-0.24-1.05C523.38,611.42,523.41,611.46,523.43,611.51z"/>
		<path class="st10" d="M487.2,662.92c-0.22,0.16-0.45,0.32-0.68,0.45c-4.88,3.06-10.36,6.29-16.53,9.63
			c4.96-3.27,10.64-6.99,17.13-11.2c28.61-18.68,36.7-31.98,38.36-40.19C525.47,621.59,526.8,637.63,487.2,662.92z"/>
		<path class="st13" d="M496.55,596.71l1.17-20.29l-8.46-14.8c3.5-1.85,6.66-3.67,9.51-5.24c3.58,3.7,6.46,8.02,8.51,12.74
			c2.24,5.87,3.82,11.97,4.72,18.19L496.55,596.71z"/>
		<path class="st14" d="M469.99,339.18l3.5,22.72l-8.06-8.55H449.3c0,0-0.61,2.53-12.98,2.01c2.41-10.08-17.75-28.22-17.75-28.22
			S460.9,331.12,469.99,339.18z"/>
		<path class="st6" d="M587.95,464.19l-11.69,5.24l-10.49,4.75c-0.08,0.04-0.16,0.08-0.24,0.1c-0.04,0.01-0.08,0.01-0.12,0
			c-0.65-0.19-1.32-0.33-1.99-0.42l0,0c-0.73-0.13-1.49-0.09-2.2,0.12l1.5-0.56l-1.75-0.37c-0.68-0.12-1.33-0.21-1.94-0.28
			c-1.55-1.67-2.8-3.61-3.67-5.71l0,0c-9.07-7.55-23.66-19.12-33.95-24.57c-1.13-0.65-2.3-1.23-3.5-1.75l-4.44-1.89
			c-10.76-4.63-10.89-4.53-13.14-1.05c-0.04,0.07-0.1,0.13-0.17,0.16c-2.62,1.9-8.34-44.07-17.13-52.55
			c1.75,0.77,56.65,26.58,80.56,52.43l5.24,5.68l1.64,1.75l1.12,1.21l1.75,1.75l2.29,2.48c0.49,0.52,0.96,1.01,1.4,1.5l0.37,0.4
			l1.85,1.99l0.79,0.84l1.96,2.13l0.86,0.91l1.75,1.89l0.3,0.31l0.84,0.91l1.75,1.96c0.05,0.04,0.09,0.08,0.12,0.12l0.16,0.17l0,0
			L587.95,464.19z"/>
		<path class="st15" d="M513.54,439.03c-6.17-2.43-11.17-3.3-13.14-1.05C502.65,434.5,502.77,434.4,513.54,439.03z"/>
		<path class="st5" d="M616.33,485.16c-0.16,0.59-0.3,1.19-0.47,1.75c-0.63,2.38-1.35,4.65-2.06,6.69c-0.3,0.84-0.59,1.66-0.89,2.43
			c-0.79,2.04-1.5,3.77-2.08,5.07c-3.18-3.27-9.45-5.24-20.64-12.37c-2.46-1.75-5.02-3.5-7.53-5.24h-0.09l-2.41-1.56l-2.38-1.47
			l-2.2-1.31h-0.12l-1.07-0.61l0,0c-1.16-0.65-2.25-1.23-3.25-1.75l-1.54-0.73l-0.49-0.23l-0.28-0.12c-0.77-0.35-1.5-0.63-2.18-0.87
			h-0.21h-0.1l-0.28-0.09l-0.56-0.17c-0.65-0.19-1.32-0.33-1.99-0.42l0,0c-0.73-0.13-1.49-0.09-2.2,0.12l1.5-0.56h0.14l13.46-5
			l11.62-4.33l0,0l0,0l-0.16-0.17c-0.04-0.05-0.08-0.09-0.12-0.12l-1.75-1.96l-0.84-0.91l-0.3-0.31l-1.75-1.89l-0.86-0.91
			l-1.96-2.13l-0.79-0.84l-2.1-2.38l-0.37-0.4c-0.44-0.49-0.91-0.98-1.4-1.5l-2.29-2.48l-1.75-1.75l-1.12-1.21l-1.64-1.75L563.6,438
			c-23.91-25.81-78.87-51.62-80.56-52.43c8.74,8.48,14.5,54.45,17.13,52.55c-4.47,5.24-6.83,18.45-6.66,34.57
			c0.13,10.17,1.13,20.31,2.99,30.3c2.47,13.6,6.44,26.89,11.83,39.62l0.12,0.3l0.23,0.52l0,0l0.56,1.24l0.79,1.75v0.12
			c0.72,1.54,1.15,2.34,1.15,2.34h-0.09l0,0h-0.1h-0.1l-0.38,0.23l-0.42,0.24l-0.33,0.23l-0.65,0.38l-0.14,0.1l-0.79,0.47
			l-0.44,0.26l-0.47,0.28c-2.17,1.31-5.1,3.04-8.55,5l-2.2,1.26l0,0l-1.75,1l-0.54,0.31l-0.21,0.12l-1,0.56l0,0
			c-0.8,0.45-1.61,0.91-2.43,1.35l-1.28,0.7l-4.09,2.17c-2.17,1.14-4.35,2.24-6.5,3.3c-6.96,3.65-14.22,6.7-21.7,9.1
			c-5.35,1.43-10.8,2.47-16.3,3.09h-0.09h-0.33c-0.95-0.17-1.91-0.25-2.87-0.24c-2.36-0.01-4.7,0.42-6.9,1.24
			c-1.16,0.44-2.27,0.99-3.32,1.66c-1.04,0.44-2.1,0.81-3.18,1.12c-3.73,1.09-7.64,1.43-11.5,1l0,0c-6.3-0.86-12.42-2.78-18.09-5.66
			c-3.85-1.75-7.6-3.72-11.24-5.89l-0.33-0.21c2.04-15.06,3-30.24,2.88-45.44v-0.45c0-0.37,0-0.72,0-1.07c0-0.35,0-0.52,0-0.79
			c0-1.1,0-2.2,0-3.32c0-1.12,0-2.03-0.12-3.06c-0.12-1.03-0.09-2.1-0.16-3.16c-0.07-1.07-0.09-1.92-0.17-2.88
			c0-0.58,0-1.17-0.12-1.75c0-0.94-0.14-1.9-0.24-2.87c0-0.7-0.12-1.42-0.21-2.11c-0.09-0.7-0.16-1.75-0.26-2.5
			c-0.1-0.75-0.12-1.19-0.21-1.75c-0.16-1.31-0.33-2.6-0.52-3.91c-0.19-1.31-0.47-3.04-0.75-4.56
			c-6.54-36.3-30.72-76.61-30.72-76.61l-24.2,16.13l-22.09,9.09l-1.43,0.58l-10.8,4.44c-25.32,10.49-29.71,23.03-36.37,31.46l0,0
			l-0.17,0.09l-0.24,0.12l-0.3,0.12l-0.21,0.1l-0.52,0.26l-2.69,1.4l-1.35,0.72c-1.5,0.84-3.27,1.85-5.24,3.02l0,0l0,0l-0.63,0.4
			c-0.45,0.26-0.89,0.54-1.33,0.82l-0.73,0.47l-0.52,0.33l0,0l0,0l0,0l-1.38,0.91l-0.72,0.49l-2.13,1.49l-0.28,0.21
			c-0.63,0.44-1.26,0.91-1.9,1.4l-0.23,0.17c-0.91,0.68-1.83,1.42-2.74,2.15c-0.52,0.42-1.05,0.86-1.56,1.31
			c-0.18,0.13-0.34,0.27-0.49,0.42l-0.72,0.61l-0.7,0.63l-0.14,0.12c-0.68,0.63-1.35,1.24-1.99,1.89c-0.65,0.65-1.38,1.36-2.04,2.08
			c-0.38,0.4-0.75,0.8-1.12,1.22c-0.86,0.94-1.66,1.9-2.43,2.9c-6.89,8.88-9.8,11.83-11.04,12.74l0,0l-0.89,0.16
			c-3.02,0.36-6.08-0.25-8.74-1.75c-19.52-10-27.59-44.28-27.59-44.28l44.35-12.09c44.37-12.11,26.21-22.18,52.79-52.43
			c26.58-30.25,66.21-42.34,66.21-42.34h14.92l3.88,3.02l26.21-9.05l0,0c0,0,32.98,10.49,37.97,12.58c5,2.1,33.48,4.02,35.89,2.53
			s16.53-10.61,16.53-10.61l0,0l-3.5-22.72c9.07,8.07,69.55,42.34,83.67,64.52c5.59,8.74,15.27,17.91,25.34,26.32l0,0l2.88,2.38
			c0.96,0.8,1.92,1.57,2.88,2.34c2.2,1.75,4.39,3.5,6.52,5.24l3.39,2.66l2.11,1.66h0.09l0,0c4.72,3.7,8.95,7.08,12.23,9.94
			l1.99,1.83c0.65,0.61,1.22,1.19,1.75,1.75l0.59,0.65l0.73,0.89c0.19,0.24,0.37,0.49,0.52,0.72l0.09,0.12
			c0.56,0.84,1.04,1.73,1.43,2.66c0.21,0.49,0.38,1,0.56,1.5c0,0,0,0,0,0.09c0.32,1.01,0.57,2.05,0.75,3.09
			C618.23,473.4,617.86,479.4,616.33,485.16z"/>
		<path class="st5" d="M430.46,579.97c-1.07,0.62-2.18,1.17-3.32,1.66C428.19,580.96,429.3,580.4,430.46,579.97z"/>
		<path class="st6" d="M382.75,571.98l0.33,0.21c-0.03,0.04-0.06,0.09-0.09,0.14c-0.16,0.28-0.56,0.96-1.33,2.08l0,0
			c-1.8-0.77-3.55-1.66-5.24-2.66c-4.44-2.59-8.58-5.67-12.34-9.19c-2.45-2.31-4.6-4.56-6.36-6.57l-0.19-0.21
			c-1.91-2.2-3.7-4.51-5.36-6.9l0,0c0,0,0.19-0.56,0.47-1.75c1.29-5.24,4.51-23.19-0.47-54.75c-6.05-38.31-24.2-60.48-24.2-60.48
			l24.2-16.13c0,0,24.19,40.32,30.72,76.61c0.28,1.52,0.52,3.04,0.75,4.56c0.23,1.52,0.37,2.6,0.52,3.91
			c0.09,0.59,0.16,1.18,0.21,1.75c0.1,0.82,0.19,1.66,0.26,2.5c0.07,0.84,0.16,1.42,0.21,2.11c0.1,0.96,0.17,1.92,0.24,2.87
			c0,0.58,0.09,1.17,0.12,1.75c0,0.96,0.14,1.92,0.17,2.88c0.03,0.96,0.12,2.11,0.16,3.16c0.03,1.05,0,2.04,0.12,3.06s0,2.22,0,3.32
			c0,0.26,0,0.52,0,0.79c0,0.26,0,0.7,0,1.07v0.31C385.79,541.66,384.81,556.88,382.75,571.98z"/>
		<path class="st16" d="M394.32,578.08c-2.95-0.53-5.87-1.24-8.74-2.13c-1.36-0.43-2.69-0.95-3.98-1.54
			c1.01-1.49,1.42-2.22,1.42-2.22C386.67,574.36,390.45,576.33,394.32,578.08z"/>
		<path class="st16" d="M440.63,579.04l-0.93,0.12l0,0l0.56-0.19h0.33L440.63,579.04z"/>
		<path class="st17" d="M383.09,357.33l-30.21,6.05h3.88C359.16,362.36,383.09,357.33,383.09,357.33z"/>
		<path class="st18" d="M517.98,214.16c-0.23-3.39-2.85-5.63-4.42-7.62l0,0l0,0c-7.95-9.93,1.96-10.89-7.95-9.93
			c1.75-0.86,2.78-4.16,2.27-24.78c-0.29-6.2-1.56-12.32-3.76-18.12l-0.16,0.21l-0.84-2.8l-2.71-4.86l-3.83-6.83l-7.78-13.98l0,0
			l-70.23-46.4l-52.79,98.58l-7.69,14.35l1.89-13.23l6.17-43.23c0,0-14.68,33.57-35.81,48.93c-5.37,4.22-11.83,6.82-18.63,7.5
			l-30.62,2.01c6.41,8.07-13.02-4.02-9.35,18.16c2.36,14.21,13.14,29.25,20.59,38.24c4.03,4.85,10.93,6.17,16.46,3.13l6.71-3.67
			c2.72-1.49,6.13-0.49,7.61,2.23c0.17,0.32,0.32,0.65,0.43,1c3.15,10.21,11.17,29.71,28.5,39.72c3.88,2.25,8.3,4.51,13.05,6.68
			c4.04,1.85,8.32,3.65,12.72,5.33c5.68,3.14,11.77,5.49,18.09,6.99c2.52,0.51,5.1,0.96,7.62,1.4l0.8,0.12l1.22,0.21
			c10.59,1.75,19.55,2.73,17.81,2.81c-0.41,0.03-0.78,0.28-0.96,0.65c4.62,0.82,9.36,0.82,13.98,0
			c14.61-3.76,55.12-30.69,52.43-56.46c-1.33-12.65,2.71-14.96,6.4-14.63c5.45,0.42,10.75-1.85,14.21-6.08
			C515.51,232.68,518.58,223.49,517.98,214.16z M447.85,277.07c0,0,3.08,0-3.5,6.26c-5.75,5.42-4.3,5.54-15.73,5.1
			c-11.43-0.44-8.39,0-15.55-1.75s-16.78-10.49-16.78-10.49l-8.74-7.85l8.74,3.67h10.05l14.4-0.19c0,0,10.57,0.44,19.4,0
			c8.83-0.44,3.41-1.31,10.83-5.68L447.85,277.07z"/>
		<path class="st19" d="M444.28,283.39c-5.75,5.42-4.3,5.54-15.73,5.1c-11.43-0.44-8.39,0-15.55-1.75s-16.78-10.49-16.78-10.49
			l-8.74-7.85l8.74,3.67h10.12l14.4-0.19c0,0,10.57,0.44,19.4,0c8.83-0.44,3.41-1.31,10.83-5.68l-3.06,10.92
			C447.92,277.14,450.92,277.14,444.28,283.39z"/>
		<path class="st20" d="M423.35,316.46c-0.41,0.03-0.78,0.28-0.96,0.65c-6.09-0.84-12.13-2.07-18.07-3.67l1.22,0.21
			C416.13,315.3,425.1,316.3,423.35,316.46z"/>
		<path class="st20" d="M504.1,153.69l-0.16,0.21l-0.84-2.8l-2.71-4.86l-3.83-6.83l-7.78-13.98c5.79,7.91,10.6,16.49,14.31,25.57
			C503.45,151.9,503.79,152.8,504.1,153.69z"/>
		<line class="st10" x1="483.1" y1="385.59" x2="483.04" y2="385.55"/>
		<path class="st16" d="M555.39,467.22c3.5,2.9,6.19,5.24,7.48,6.31l0.12,0.1l0.44,0.38"/>
		<path class="st16" d="M563.74,474.28l-0.3-0.26"/>
		<path class="st17" d="M473.48,361.89c0,0-14.1,9.12-16.53,10.61c-2.43,1.49-30.81-0.52-35.89-2.53s-37.97-12.58-37.97-12.58
			c-0.19-0.25-0.36-0.5-0.52-0.77l-0.24-0.37l-0.28-0.4c-0.12-0.14-0.23-0.29-0.33-0.45c-1.75-2.32-5.36-7.09-12.37-16.16
			c-4.72-6.05-6.5-8.91-6.54-10.28l0.96-0.24l5.57-1.42c0.24,0,0.44-0.12,0.68-0.16c0.24-0.03,63.87,38.31,66.3,28.22
			c12.37,0.52,12.98-2.01,12.98-2.01h16.13l4.56,4.84L473.48,361.89z"/>
		<path class="st16" d="M369.33,327.24l-5.57,1.42l-0.96,0.24C362.8,327.03,365.91,327.89,369.33,327.24z"/>
		<path class="st21" d="M385.65,526.16c0,0,0,0.1,0,0.3l0,0c-0.19,3.58-1.89,35.82-3.36,45.44c-0.09,0.8-0.27,1.59-0.52,2.36
			c-0.01,0.07-0.04,0.14-0.09,0.19l0,0c-0.56,0.4-2.55-0.75-5.24-2.74c-1.94-1.42-4.26-3.29-6.69-5.33c-1.75-1.4-3.5-2.9-5.16-4.39
			c-2.46-2.15-4.86-4.3-6.99-6.15l-0.14-0.1c-3.5-3.2-5.99-5.49-5.99-5.49l0.58-1.4l1.36-0.17l0,0c3.74-0.49,13.98-2.22,18.28-6.24
			c3.7-3.76,7.04-7.86,9.98-12.23c1.23-1.44,2.55-2.79,3.97-4.05L385.65,526.16z"/>
		<path class="st5" d="M525.72,619.69c-0.72-2.45-1.43-5.16-2.11-8.06C525.33,613.94,526.09,616.83,525.72,619.69z"/>
		<path class="st22" d="M565.37,474.43c-1.47,0.7-3.19,0.64-4.61-0.16h-0.14l-5.24,17.09c-4,14.33-6.99,28.75-9.24,38.8
			c-2.25,10.05-3.36,17.39-10.62,20.27c-0.57,0.23-1.15,0.43-1.75,0.59c-6.2,1.75-9.72-0.31-12.13,11.59
			c-1.6,9.31-2.33,18.76-2.17,28.2l-1.49-7.58l-1.15-5.92c-0.01-0.05-0.01-0.09,0-0.14c-1.64-9.44-2.81-16.83-3.27-18.61
			c-1.47-5.75,17.89-12.23,21.98-19.66c0.24-0.45,0.45-0.91,0.63-1.38c0.65-1.75,1.43-4.32,2.27-7.51
			c4.77-18.23,11.66-55.76,11.66-55.76c0.85-0.47,1.77-0.79,2.73-0.96c2.06-0.44,4.17-0.54,6.26-0.28c0.61,0,1.26,0.16,1.94,0.28
			l1.75,0.37l-1.5,0.56c0.71-0.21,1.47-0.26,2.2-0.12l0,0C564.11,474.15,564.74,474.27,565.37,474.43z"/>
		<path class="st5" d="M519.46,591.97L519.46,591.97c-0.56-2.95-1.1-5.89-1.59-8.74c-0.37-2.06-0.72-4.07-1.05-5.99l1.15,5.92
			l1.49,7.58l0.14,0.8l3.5,18.26C521.86,604.2,520.62,598.04,519.46,591.97z"/>
		<path class="st5" d="M582.56,483.54l-2.41-1.56l-2.38-1.47l-2.2-1.31h-0.12l-1.07-0.61l0,0c-1.12-0.63-2.2-1.22-3.25-1.75
			l-1.54-0.73l-0.49-0.23l-0.28-0.12c-0.77-0.35-1.5-0.63-2.18-0.87h-0.21h-0.1l-0.28-0.09l-0.56-0.17
			c-0.65-0.19-1.32-0.33-1.99-0.42l0,0c-0.73-0.13-1.49-0.09-2.2,0.12l1.5-0.56h0.26c0.8,0.21,1.75,0.45,2.57,0.75
			c3.5,1.18,6.86,2.73,10.03,4.61C578.04,480.48,580.34,481.95,582.56,483.54z"/>
		<path class="st11" d="M244.35,484.55l-0.73,0.47C243.82,484.81,244.07,484.64,244.35,484.55z"/>
		<path class="st11" d="M250.5,481.23c-1.95,1.28-4.01,2.39-6.15,3.32c0.44-0.28,0.87-0.56,1.33-0.82l0.7-0.44l0,0
			c1.9-1.17,3.67-2.18,5.24-3.02l1.35-0.72l2.69-1.4l0.52-0.26l0.21-0.1c0.18-0.07,0.36-0.15,0.52-0.24l0,0l-0.87,0.47l-1.03,0.56
			l-0.7,0.4c-1.24,0.7-2.32,1.36-3.3,1.97L250.5,481.23z"/>
		<path class="st11" d="M337.4,582.66c-6.99,17.48-17.79,45.79-24.85,57.51c-1.75,2.95-3.32,4.86-4.51,5.24
			c-8.18,2.8-10.92-10.05-17.48-19.54c-6.55-9.49-7.43-12.36,1.75-9.75c9.17,2.6,6.55,6.99,9.17,9.19c1,0.84,2.49,0.71,3.32-0.29
			c0.1-0.12,0.18-0.24,0.26-0.38c1.17-1.57,1.59-4.53-0.09-8.18c-1.75-3.93-6.06-7.3-9.98-12.67l0,0c-2.75-3.76-4.79-8-6.01-12.49
			l0,0c-0.21-0.72-0.38-1.45-0.56-2.22c-3.5-15.73,16.6-13.51,11.8-20.97c-1.64-2.57-13.04-6.27-27.26-10.01
			c-8.84-2.32-18.8-4.67-28.19-6.78c-19.35-4.33-36.3-7.64-36.3-7.64l2.03-27.3c0,0,0,0.51,0.89-0.16l0,0
			c1.24-0.91,4.16-3.86,11.04-12.74c0.77-1,1.57-1.96,2.43-2.9c0.37-0.42,0.73-0.82,1.12-1.22c0.66-0.7,1.35-1.4,2.04-2.08
			c0.7-0.68,1.31-1.26,1.99-1.89l0.14-0.12l0.7-0.63l0.72-0.61c0.15-0.15,0.31-0.29,0.49-0.42c0.51-0.45,1.03-0.89,1.56-1.31
			c0.91-0.73,1.75-1.47,2.74-2.15l0.23-0.17c0.65-0.49,1.28-0.96,1.9-1.4l0.28-0.21l2.13-1.49l0.72-0.49l1.38-0.93l0,0l0,0
			l0.52-0.33c-0.58,0.72,0.4,1.63-1.08,2.87c-0.82-0.61-1.14-0.54-0.98,0l0,0c0.66,2.76,9.35,15.52,19.14,26.79
			c1.75,1.99,3.5,3.93,5.24,5.75c0.45,0.51,0.94,1,1.42,1.47l1.45,1.43c0.96,0.94,1.92,1.85,2.9,2.71
			c15.73,13.98,39.76,38.59,50.05,42.88c1.44,0.6,2.83,1.32,4.16,2.15l10,10.01l0,0L337.4,582.66z"/>
		<path class="st5" d="M337.47,582.48c-0.01,0.06-0.01,0.12,0,0.17l-11.52-11.46C330.53,574.13,334.45,577.97,337.47,582.48z"/>
		<path class="st5" d="M344.13,568.1l0.77-1.89C345.51,567.02,345.18,567.52,344.13,568.1z"/>
		<path class="st5" d="M519.6,591.55l-0.14,0.4c0-0.1,0-0.52,0-1.21L519.6,591.55z"/>
		<path class="st23" d="M511.2,548.88L511.2,548.88h-0.1h-0.1l-0.38,0.23l-0.42,0.24c-2.15,1.28-7.44,4.42-15.36,8.98l-0.54,0.31
			l-0.21,0.12l-1,0.56l0,0c-0.8,0.45-1.61,0.91-2.43,1.35c-0.42,0.24-0.84,0.49-1.28,0.72c-1.34,0.73-2.7,1.45-4.09,2.15
			c-2.17,1.14-4.35,2.24-6.5,3.3c-7.32,3.62-14.17,6.82-18.59,9.42c-2.39,1.42-8.34,2.67-15.24,3.72l-0.28-0.12l-0.59-0.21
			l-0.68-0.24h-0.19l-0.77-0.19c-0.27-0.09-0.55-0.16-0.84-0.21l-0.84-0.16l0,0l-0.93,0.12l0,0l0.56-0.19
			c-0.95-0.17-1.91-0.25-2.87-0.24c-2.36-0.01-4.7,0.42-6.9,1.24c-1.07,0.62-2.18,1.17-3.32,1.66c-0.49,0.28-0.95,0.6-1.4,0.94
			l-1.75,0.17l55.59-26.25c16.39-6.99,24.88-10.89,28.99-12.86l0,0l0.56,1.24l0.79,1.75v0.12L511.2,548.88z"/>
		
			<linearGradient id="SVGID_00000155868879927030675650000012231557967141478288_" gradientUnits="userSpaceOnUse" x1="526.3077" y1="2052.0652" x2="526.3077" y2="2145.3242" gradientTransform="matrix(1 0 0 -1 0 2582)">
			<stop  offset="0" style="stop-color:#1C75BC"/>
			<stop  offset="1" style="stop-color:#0063A9"/>
		</linearGradient>
		<path style="fill:url(#SVGID_00000155868879927030675650000012231557967141478288_);" d="M559.06,472.93l-6.05-0.63l-0.21,0.91
			c-0.96,0.17-1.88,0.49-2.73,0.96c0,0-6.89,37.54-11.66,55.76l-44.86-57.23c-0.17-16.11,2.18-29.38,6.66-34.57
			c0.08-0.03,0.14-0.08,0.17-0.16c1.97-2.25,6.99-1.38,13.14,1.05l4.44,1.89c1.2,0.51,2.37,1.1,3.5,1.75
			c10.29,5.45,24.88,17.02,33.95,24.57l0,0C556.29,469.33,557.52,471.26,559.06,472.93z"/>
		<path class="st25" d="M552.8,473.21c-1.61,6.99-12.34,53.67-16.65,64.24c-0.18,0.47-0.39,0.93-0.63,1.38
			c-4.09,7.43-23.45,13.98-21.98,19.66c0.45,1.75,1.63,9.17,3.27,18.61l-5.49-28.22c0,0-0.44-0.8-1.15-2.34v-0.12l-0.79-1.75
			l-0.56-1.24l-0.24-0.52l-0.12-0.3c-5.39-12.73-9.36-26.01-11.83-39.62c-1.86-10-2.86-20.13-2.99-30.3l44.86,57.23
			c4.77-18.23,11.66-55.76,11.66-55.76C550.98,473.7,551.87,473.38,552.8,473.21z"/>
		<path class="st26" d="M457.02,598.32c-0.01,7.97-4.85,15.15-12.23,18.16l0,0l-1.33,0.16c-0.49,0-1,0.09-1.5,0.1
			c-0.51,0.02-0.82,0-1.24,0c-0.42,0-1.17,0-1.75,0h-1.17h-1.15l-2.03-0.1l-2.55-0.21c-0.94-0.1-1.9-0.21-2.88-0.35
			c-0.45-0.23-0.91-0.45-1.35-0.72l0,0l-0.93-0.56l0,0c-0.29-0.17-0.57-0.36-0.84-0.58c-0.35-0.24-0.68-0.51-1.01-0.79l-0.16-0.12
			c-0.35-0.3-0.7-0.61-1.03-0.94l-0.56-0.58l-0.59-0.63c-0.23-0.26-0.45-0.54-0.66-0.82l-0.31-0.42l-0.61-0.89
			c-0.01-0.05-0.01-0.09,0-0.14c-0.23-0.33-0.44-0.68-0.65-1.03l-0.65-1.24c-0.19-0.4-0.37-0.84-0.54-1.28s-0.31-0.87-0.45-1.33
			c-0.14-0.45-0.26-0.89-0.37-1.36c-0.1-0.47-0.14-0.7-0.19-1.05c-0.05-0.35-0.09-0.54-0.12-0.82c-0.04-0.28,0-0.38,0-0.58v-0.66
			c0-0.4,0-0.8,0-1.21c-0.01-5.63,2.41-10.98,6.66-14.68c0.73-0.12,1.49-0.28,2.22-0.47c1.24-0.33,2.52-0.7,3.84-1.08l-4.74,0.49
			c0.44-0.35,0.91-0.66,1.4-0.94c1.14-0.49,2.25-1.04,3.32-1.66c2.21-0.83,4.55-1.25,6.9-1.24c0.96-0.01,1.92,0.08,2.87,0.24
			l-0.56,0.19l0,0l0.93-0.12l0,0l0.84,0.16c0.28,0.05,0.56,0.12,0.84,0.21l0.77,0.19h0.19l0.68,0.24l0.59,0.21l0.28,0.12l0.44,0.17
			l0.31,0.14c0.47,0.24,1,0.47,1.49,0.77h0.12l0.59,0.37l0.73,0.49l1.14,0.84l0.19,0.16l0,0l0.56,0.49
			c0.21,0.17,0.42,0.38,0.63,0.58s0.77,0.8,1.12,1.21c0.35,0.4,0.73,0.89,1.05,1.33l0,0c0.21,0.3,0.42,0.59,0.61,0.91
			c0.19,0.31,0.33,0.54,0.49,0.82c0.3,0.56,0.59,1.12,0.86,1.75s0.49,1.19,0.7,1.75c0.09,0.31,0.19,0.63,0.28,0.94
			c0.17,0.63,0.31,1.27,0.42,1.92c0.04,0.18,0.07,0.36,0.09,0.54c0,0.38,0.1,0.77,0.12,1.15S457.02,597.81,457.02,598.32z"/>
		<path class="st26" d="M420.88,608.87c-0.01,0.05-0.01,0.09,0,0.14l-0.72-1.17C420.45,608.19,420.66,608.54,420.88,608.87z"/>
		<path class="st26" d="M421.88,610.32c0.21,0.28,0.44,0.56,0.66,0.82l-0.26-0.3l-0.09-0.1L421.88,610.32z"/>
		<path class="st26" d="M430.48,582.08c-1.33,0.38-2.6,0.75-3.84,1.08c-0.73,0.19-1.49,0.35-2.22,0.47
			c0.42-0.37,0.87-0.73,1.33-1.07L430.48,582.08z"/>
		<path class="st26" d="M430.46,579.97c-1.07,0.62-2.18,1.17-3.32,1.66C428.19,580.96,429.3,580.4,430.46,579.97z"/>
		<path class="st26" d="M439.7,579.16L439.7,579.16l0.56-0.19h0.33l0,0L439.7,579.16z"/>
		<path class="st26" d="M444.79,616.47L444.79,616.47c-2.32,0.95-4.8,1.43-7.3,1.43c-2.83,0.01-5.62-0.59-8.2-1.75l0,0l0,0
			c0.98,0.14,1.94,0.24,2.88,0.35l2.55,0.21l2.03,0.1h1.15h1.15c0.59,0,1.19,0,1.75,0c0.56,0,0.82,0,1.24,0c0.42,0,1.01,0,1.5-0.1
			L444.79,616.47z"/>
		<path class="st5" d="M337.91,583.16l-11.95-11.97c4.58,2.93,8.5,6.77,11.53,11.29C337.77,582.92,337.91,583.16,337.91,583.16z"/>
		<path class="st27" d="M614.3,516.79l-58.93,35.91c4.26-3.11,9.82-6.76,15.73-10.49C589.14,530.91,611,518.63,614.3,516.79z"/>
		<path class="st27" d="M614.74,516.55l-1.31-9.61C616.05,512.74,614.74,516.55,614.74,516.55z"/>
		<path class="st27" d="M617.99,483.54c-1.96,13.6-5.43,16.71-5.24,20.48c-0.41-1.08-1.05-2.07-1.87-2.88
			c3.22-7.3,11.8-29.17,3.98-40.86C615.56,461.24,620.22,468.04,617.99,483.54z"/>
		
			<linearGradient id="SVGID_00000090984726196035233420000005790808142765116571_" gradientUnits="userSpaceOnUse" x1="533.18" y1="1811.1342" x2="597.4538" y2="1811.1342" gradientTransform="matrix(1 0 0 -1 0 2582)">
			<stop  offset="0" style="stop-color:#1C75BC"/>
			<stop  offset="1" style="stop-color:#0063A9"/>
		</linearGradient>
		<path style="fill:url(#SVGID_00000090984726196035233420000005790808142765116571_);" d="M547.61,881.59
			c0-22.19,4.04-129.05-10.08-199.62c-1.63-8.2-3.08-15.43-4.35-21.83c7.15,12.49,17.81,35.13,25.29,68.49
			c12.23,54.31,5.49,52.57,10.14,87.52c4.65,34.95,21.23,43.79,21.23,43.79l7.62,8.56C581.69,875.61,564.84,880.03,547.61,881.59z"
			/>
		
			<linearGradient id="SVGID_00000023276426525028959640000008798646972104351128_" gradientUnits="userSpaceOnUse" x1="525.4908" y1="1871.3976" x2="714.0836" y2="1871.3976" gradientTransform="matrix(1 0 0 -1 0 2582)">
			<stop  offset="0" style="stop-color:#1C75BC"/>
			<stop  offset="0.46" style="stop-color:#0F77BE"/>
			<stop  offset="1" style="stop-color:#00AEEF"/>
		</linearGradient>
		<path style="fill:url(#SVGID_00000023276426525028959640000008798646972104351128_);" d="M714.08,659.85
			c-17.48,4.04-29.43,10.71-46.34,20.1c-24.94,13.84-35.09,5.24-32.47,72.52c2.62,67.28,7.86,85.16-20.53,105.93
			c-5.43,3.92-11.22,7.31-17.3,10.12l-7.6-8.58c0,0-16.57-8.86-21.21-43.81c-4.65-34.95,2.03-33.2-10.14-87.52
			c-7.48-33.36-18.14-55.92-25.29-68.49c-3.95-19.82-6.31-31.58-7.71-38.55c0.12-0.63,0.2-1.27,0.24-1.9
			c1.87,6.41,3.81,10.96,5.64,11.87c7.5,3.7,12.6-0.98,24.03-13.63c11.43-12.65,2.99-14.87-1.38-17.74
			c-4.37-2.87-1.75,8.11-11.36,11.2c-9.61,3.09-2.18-7.9,0-11.2c2.18-3.3,9.61-3.25,10.49-17.02c0.87-13.77-6.99-15.5-6.12-22.47
			c0.19-1.49,3.41-4.37,8.37-7.99c0,0,43.18,29.38,62.6,62.91C633.1,641.78,689.67,655.18,714.08,659.85z"/>
		<path class="st25" d="M913,521.72c-2.78,25.25-9.44,64.96-24.62,83.5C903.76,581.22,910.3,545.03,913,521.72z"/>
		
			<linearGradient id="SVGID_00000054261532984105805560000012167476055218738053_" gradientUnits="userSpaceOnUse" x1="579.0175" y1="2119.4321" x2="973.416" y2="2119.4321" gradientTransform="matrix(1 0 0 -1 0 2582)">
			<stop  offset="0" style="stop-color:#1C75BC"/>
			<stop  offset="1" style="stop-color:#00AEEF"/>
		</linearGradient>
		<path style="fill:url(#SVGID_00000054261532984105805560000012167476055218738053_);" d="M973.42,495.11
			c0,0-133.69-6.52-223.98-14.96c-76.03-7.11-132.27-27.72-148.12-34.04c-2.78-1.12-4.33-1.75-4.51-1.85
			c-5.54-4.35-11.73-9.16-17.79-14.22c0.94,0.31,31.46,10.73,87.69,15.41c36.35,2.9,72.87,3.02,109.24,0.37
			c126.7-8.74,156.4-15.73,156.4-15.73L973.42,495.11z"/>
		<path class="st11" d="M547.02,560.69c-0.87,6.99,6.99,8.74,6.12,22.47c-0.87,13.74-8.3,13.7-10.49,17.02
			c-2.18,3.32-9.61,14.29,0,11.2c9.61-3.09,6.99-14.09,11.36-11.2c4.37,2.88,12.83,5.09,1.38,17.74s-16.53,17.34-24.03,13.63
			c-1.83-0.91-3.77-5.45-5.64-11.87c0.37-2.86-0.39-5.75-2.11-8.06c-0.16-0.59-0.3-1.18-0.42-1.75l0,0l-3.5-18.26l-0.14-0.8
			c-0.18-9.47,0.54-18.94,2.13-28.27c2.41-11.9,5.92-9.79,12.13-11.59c0.59-0.17,1.18-0.36,1.75-0.59
			c7.27-2.88,8.44-10.22,10.62-20.27c2.18-10.05,5.24-24.47,9.24-38.8l5.24-17.09h0.14c1.42,0.8,3.14,0.86,4.61,0.16l0.56,0.17
			l0.38,0.14h0.21c0.68,0.24,1.42,0.52,2.18,0.87l0.28,0.12l0.49,0.23l1.54,0.73c1.05,0.51,2.13,1.1,3.25,1.75l0,0l1.07,0.61h0.12
			l2.2,1.31l2.38,1.47l2.41,1.56h0.09c2.73,1.97,5.24,3.67,7.53,5.24c11.18,7.18,17.48,9.1,20.64,12.37
			c1.57,1.62,2.52,3.74,2.67,5.99l1.31,9.61c0,0-24.08,13.4-43.53,25.62C558.26,550.31,547.37,557.91,547.02,560.69z"/>
		<path class="st5" d="M610.8,501.14c-3.18-3.27-9.45-5.24-20.64-12.37c-2.31-1.49-4.81-3.18-7.53-5.24h-0.09l-2.41-1.56l-2.38-1.47
			l-2.2-1.31v-0.21l0.66-9.47v-1l1.08-15.73l1.7-22.74l0,0c15.33,12.81,31.54,24.03,35.7,30.13
			C622.67,471.81,614.06,493.81,610.8,501.14z"/>
		<path class="st25" d="M333.68,573.75l-0.58-0.28c-0.1-0.07-0.21-0.1-0.33-0.1c-0.11-0.04-0.24-0.04-0.35,0
			c-0.11,0.02-0.22,0.08-0.3,0.16c-0.1,0.06-0.18,0.14-0.23,0.24l-0.09,0.21c-0.04,0.15-0.04,0.3,0,0.45l0.09,0.21
			c0.08,0.13,0.19,0.24,0.31,0.31l0.58,0.3c0.1,0.05,0.22,0.09,0.33,0.1c0.12,0.03,0.23,0.03,0.35,0c0.11-0.03,0.21-0.09,0.3-0.16
			c0.09-0.06,0.17-0.15,0.23-0.24l0.09-0.21c0.03-0.16,0.03-0.32,0-0.47l-0.09-0.21C333.91,573.94,333.8,573.83,333.68,573.75
			L333.68,573.75z"/>
		<path class="st25" d="M328.02,572.42l0.59,1.45c0.02,0.11,0.08,0.22,0.16,0.3c0.06,0.1,0.14,0.18,0.24,0.23
			c0.21,0.09,0.45,0.09,0.66,0c0.22-0.07,0.4-0.21,0.52-0.4c0.1-0.22,0.1-0.46,0-0.68l-0.58-1.45c-0.03-0.11-0.09-0.21-0.16-0.3
			c-0.06-0.09-0.15-0.17-0.24-0.23c-0.22-0.09-0.46-0.09-0.68,0c-0.22,0.07-0.4,0.21-0.52,0.4
			C327.94,571.96,327.94,572.2,328.02,572.42z"/>
		<path class="st25" d="M327.25,571.46l1.4,2.36c0.26,0.41,0.78,0.55,1.21,0.31c0.41-0.26,0.54-0.79,0.3-1.21l-1.4-2.36
			c-0.24-0.41-0.77-0.55-1.19-0.31C327.15,570.5,327.01,571.04,327.25,571.46L327.25,571.46z"/>
		<path class="st25" d="M248.51,485.16c0.77-0.99,1.85-1.71,3.06-2.04c1.32-0.45,2.54-1.15,3.6-2.06c0.34-0.35,0.34-0.9,0-1.24
			c-1.12-1.33-3.25,0-4.42,0.61c-1.75,0.79-3.27,1.64-4.84,2.57c-0.79,0.47-1.56,0.94-2.32,1.45c-0.77,0.42-1.49,0.94-2.11,1.56
			c-0.52,0.64-0.52,1.56,0,2.2c0.53,0.77,1.11,1.49,1.75,2.17c0.75,0.84,1.99-0.4,1.24-1.24c-0.44-0.49-0.86-1-1.24-1.54
			c-0.14-0.17-0.38-0.44-0.31-0.56s0.61-0.44,0.8-0.56c1.14-0.79,2.29-1.52,3.5-2.2s2.32-1.29,3.5-1.89l1.87-0.87
			c0.23-0.1,1.22-0.63,1.36-0.45v-1.24c-1.08,0.87-2.31,1.53-3.63,1.96c-1.34,0.47-2.49,1.35-3.29,2.52
			C246.41,485.25,247.91,486.04,248.51,485.16z"/>
		<path class="st13" d="M375.62,583.2c-5.12,7.09-0.45,16.22,0,16.99l-17.3-7.34l-1.28-0.58c0,0,0.4-7.78,1.75-17.86
			c0.44-4.41,2.27-8.57,5.24-11.87c4.81,4.44,12.23,6.75,19.08,9.65C381.88,573.97,378.56,579.13,375.62,583.2z"/>
		<path class="st22" d="M344.9,566.18l-0.77,1.92c-0.87,0.45-3.36,6.22-6.66,14.42c-0.09-0.12-0.14-0.23-0.19-0.31
			c-0.24-0.38-0.3-0.51-0.4-0.56c-0.1-0.05,0,0,0,0s-0.33-0.1-0.86-0.33l0,0c-1.38-0.67-2.71-1.41-4-2.24
			c-1.29-0.8-8.74-9.31-10.15-9.93c-10.38-4.4-34.36-29.01-50.08-42.99c-0.98-0.86-1.94-1.75-2.9-2.71l-1.45-1.43l-1.42-1.47
			c-1.75-1.87-3.5-3.84-5.24-5.84c-7.02-8.45-13.44-17.37-19.22-26.7l0,0l-0.66-1.14l0.72-0.49l1.38-0.91l0,0l0,0
			c0.87-0.95,1.98-1.65,3.22-2.03l0,0l0,0c1.25-0.48,2.46-1.06,3.62-1.75l0.47-0.28l0.54-0.33l0.72-0.44
			c0.75-0.45,1.57-0.96,2.59-1.54l0.65-0.37l1.03-0.56l0,0l0.8-0.44l0.17-0.09l0,0c0,0,0.51,4.47,11.46,20.18
			c1.75,2.41,3.6,5.09,5.8,8.04c3.01,4.04,5.98,7.76,8.93,11.22l1.24,1.43c11.73,13.43,25.38,25.06,40.51,34.51
			C337.91,561.11,343.61,564.41,344.9,566.18z"/>
		<path class="st20" d="M504.1,153.69l-0.16,0.21l-0.84-2.8l0,0C503.45,151.93,503.79,152.8,504.1,153.69z"/>
		<path class="st31" d="M336.27,179.12c-4.2,5.39-6.51,12.02-6.55,18.86c0.02,5.62,1.59,11.13,4.54,15.92l-54.94-17.63l19.35-11.41
			c0,0,35.82-8.18,37.61-5.77L336.27,179.12z"/>
		<path class="st31" d="M463.65,158.18c-18.63,0-34.79,8.55-42.73,20.97c-7.78-12.84-24.22-21.72-43.23-21.72
			c-17.48,0-32.87,7.55-41.22,18.84c-4.33,5.66-6.69,12.57-6.75,19.69c0.02,5.86,1.64,11.61,4.68,16.62l0,0
			c7.72,12.91,24.2,27.7,43.29,27.7c18.65,0,34.79-14.35,42.73-26.81c7.78,12.86,24.19,29.55,43.22,29.55
			c26.49,0,47.99-25.04,47.99-46.34S490.23,158.18,463.65,158.18z M377.7,227.09c-18.54,0-33.6-16.11-33.6-31.3
			c0-15.19,15.05-27.51,33.59-27.51c18.54,0,33.6,12.23,33.6,27.51S396.26,227.09,377.7,227.09L377.7,227.09z M463.65,229.38
			c-18.58,0-33.6-17.48-33.6-32.66s15.03-27.47,33.6-27.47s33.6,12.23,33.6,27.47S482.2,229.38,463.65,229.38L463.65,229.38z"/>
		
			<radialGradient id="SVGID_00000018226953817231627100000015112948993457114775_" cx="377.5106" cy="2385.7373" r="32.03" gradientTransform="matrix(1 0 0 -1 0 2582)" gradientUnits="userSpaceOnUse">
			<stop  offset="0.18" style="stop-color:#FFF200"/>
			<stop  offset="0.75" style="stop-color:#FBB040"/>
		</radialGradient>
		
			<ellipse style="fill:url(#SVGID_00000018226953817231627100000015112948993457114775_);stroke:#231F20;stroke-width:0.25;stroke-miterlimit:10;" cx="377.51" cy="196.26" rx="33.45" ry="30.55"/>
		<path class="st33" d="M526.31,171.41c-0.63,12.72-5.08,24.96-12.76,35.13l0,0c-7.95-9.93,1.96-10.89-7.95-9.93
			c1.75-0.86,2.78-4.16,2.27-24.78c-0.29-6.2-1.56-12.32-3.76-18.12c-0.31-0.9-0.65-1.77-1-2.62c-3.71-9.07-8.52-17.66-14.31-25.57
			l0,0l-70.23-46.47l-52.79,98.58l-7.69,14.35l1.89-13.23l6.17-43.23c0,0-14.68,33.57-35.81,48.93c-5.54,3.91-11.92,6.48-18.63,7.5
			l-36.03,6.36c-6.4-8.06-21.11-93.91,8.3-125.33c25.02-26.74,86.21-36.3,112.24-32.26s48.56,0,73.78,8.07
			c1.23,0.39,2.4,0.94,3.5,1.63l1.83,1.31l7.72,5.49c0,0,25.81,18.09,36.54,34.39c5.1,7.74,6.27,12.6,5.66,17.74l0,0
			c1.12,4.44,2.46,10.75,3.98,20.11C533.15,153.36,526.92,151.02,526.31,171.41z"/>
		<path class="st34" d="M289.92,205.96c0,0-3.74-5.47-6.99,0c-3.25,5.47-6.38,0.79,0,14.38c6.38,13.6,10.66,28.29,16.81,24.83
			c6.15-3.46,2.71-4.23,0-12.65c-2.71-8.42-5.24-6.1-8.53-12.65s-2.71-3.63-3.27-9.84L289.92,205.96z"/>
		<path class="st18" d="M436.84,358.07c-4,2.95-14.42-1.57-23.71-4.82c-9.3-3.25-43.48-27.17-43.48-27.17l-4.02-23.22l-0.09-0.58
			c6.76,3.18,23.96,11.39,29.08,15.34c6.43,4.95,14.19,10.14,18.37,13.98l0,0c2.29,2.44,4.84,4.61,7.6,6.48l1,0.7l0.44,0.33
			l0.52,0.4c1,0.79,1.75,1.4,2.24,1.75l0.21,0.17l0.12,0.09l0,0l0,0L436.84,358.07z"/>
		<path class="st18" d="M424.87,341.31c-0.45-0.33-1.24-0.94-2.24-1.75C423.37,340.1,424.12,340.68,424.87,341.31z"/>
		<path class="st34" d="M436.84,358.07l-11.55-16.43l0,0l0,0l-0.12-0.09l-0.21-0.17c-0.75-0.63-1.5-1.21-2.24-1.75l-0.65-0.45
			l-0.44-0.33c-2.67-2.11-6.26-5-8.6-7.18l0,0c-4.18-3.86-11.94-9.05-18.37-13.98c-5.12-3.95-22.32-12.23-29.08-15.34l-0.49-2.8
			c4.04,1.85,8.32,3.65,12.72,5.33c5.68,3.14,11.77,5.49,18.09,6.99c2.52,0.51,5.1,0.96,7.62,1.4l0.8,0.12
			c5.94,1.6,11.98,2.83,18.07,3.67c-1.12,1.75-0.68,6.85,0.26,10.87c1.15,4.91,9.61,10.96,14.19,17.39S440.84,355.13,436.84,358.07z
			"/>
		<path class="st34" d="M421.67,338.84l-1-0.7c-2.77-1.87-5.32-4.05-7.6-6.48C415.41,333.93,419,336.73,421.67,338.84z"/>
		<path class="st34" d="M423.35,316.46c-0.41,0.03-0.78,0.28-0.96,0.65c-6.09-0.84-12.13-2.07-18.07-3.67l1.22,0.21
			C416.13,315.3,425.1,316.3,423.35,316.46z"/>
		
			<linearGradient id="SVGID_00000006682529459792847820000005064281045364386479_" gradientUnits="userSpaceOnUse" x1="289.438" y1="2484.5818" x2="335.5701" y2="2484.5818" gradientTransform="matrix(1 0 0 -1 0 2582)">
			<stop  offset="0.17" style="stop-color:#4A4B4C"/>
			<stop  offset="0.65" style="stop-color:#414042"/>
		</linearGradient>
		<path style="opacity:0.84;fill:url(#SVGID_00000006682529459792847820000005064281045364386479_);enable-background:new    ;" d="
			M335.57,60.88c0,0-16.16-6.99-26.21,10.92c-10.05,17.91-13.44,15.29-18.09,36.26c-4.65,20.97,1.15,28.4,0,27.09
			c-1.15-1.31,0.61-0.75,3.67-11.95s0.87-16.01,8.3-28.68c7.43-12.67-3.5-8.3,14.42-20.97L335.57,60.88z"/>
		
			<linearGradient id="SVGID_00000083777308450450264820000003716260411615771569_" gradientUnits="userSpaceOnUse" x1="320.368" y1="2452.9351" x2="362.7965" y2="2452.9351" gradientTransform="matrix(1 0 0 -1 0 2582)">
			<stop  offset="0.17" style="stop-color:#4A4B4C"/>
			<stop  offset="0.65" style="stop-color:#414042"/>
		</linearGradient>
		<path style="opacity:0.84;fill:url(#SVGID_00000083777308450450264820000003716260411615771569_);enable-background:new    ;" d="
			M362.8,82.13c-0.8,1.31-0.98,3.37-2.36,3.79c-10.89,3.36-11.17,20.08-13.98,25.2c-10.92,20.1-11.48,8.3-14.85,28.57
			c-4.37,26.21-13.98,41.61-10.49,34.62c3.5-6.99,1.12-0.87,12.79-29.27C345.58,116.65,362.8,82.13,362.8,82.13z"/>
		
			<linearGradient id="SVGID_00000091711117704856171680000016097353764547355039_" gradientUnits="userSpaceOnUse" x1="289.4529" y1="2419.7229" x2="303.0661" y2="2419.7229" gradientTransform="matrix(1 0 0 -1 0 2582)">
			<stop  offset="0.17" style="stop-color:#4A4B4C"/>
			<stop  offset="0.65" style="stop-color:#414042"/>
		</linearGradient>
		<path style="opacity:0.84;fill:url(#SVGID_00000091711117704856171680000016097353764547355039_);enable-background:new    ;" d="
			M303.07,143.84c-0.24,0.52-0.51,1.01-0.73,1.49c-1.57,3.09-2.9,5.4-4.04,7.2c-4.47,7.11-5.96,6.34-6.99,14.29
			c-1.38,10.29-2.48,15.95-1.38,13.21c1.1-2.74,0.37-0.33,4.05-11.48C297.67,157.4,303.07,143.84,303.07,143.84z"/>
		<path class="st38" d="M406.34,46.67l-1.63,0.3c-3.41,0.58-6.05,0.87-8.18,1.05c-8.37,0.63-6.36,0.33-13.39,4.21
			c-9.09,5.02-16.58,6.17-13.72,5.42c3.95-0.96,7.84-2.16,11.64-3.6C392.15,50.38,406.34,46.67,406.34,46.67z"/>
		
			<linearGradient id="SVGID_00000088825096183312887830000011878482405363497400_" gradientUnits="userSpaceOnUse" x1="377.5106" y1="2483.9829" x2="402.3429" y2="2483.9829" gradientTransform="matrix(1 0 0 -1 0 2582)">
			<stop  offset="0.17" style="stop-color:#4A4B4C"/>
			<stop  offset="0.65" style="stop-color:#414042"/>
		</linearGradient>
		<path style="fill:url(#SVGID_00000088825096183312887830000011878482405363497400_);" d="M399.46,75.74
			c-14.52,32.33-21.95,44.56-21.95,44.56s17.48-27.09,17.93-28.4c0.45-1.31,6.99-16.16,6.99-16.16H399.46z"/>
		
			<linearGradient id="SVGID_00000093149001638231776050000007147349242124748448_" gradientUnits="userSpaceOnUse" x1="428.5558" y1="2500.3948" x2="504.6621" y2="2500.3948" gradientTransform="matrix(1 0 0 -1 0 2582)">
			<stop  offset="0.17" style="stop-color:#4A4B4C"/>
			<stop  offset="0.65" style="stop-color:#414042"/>
		</linearGradient>
		<path style="opacity:0.84;fill:url(#SVGID_00000093149001638231776050000007147349242124748448_);enable-background:new    ;" d="
			M447.41,59.57c0,0,38.45,7.99,44.12,19.52c5.68,11.53,10.71,17.65,12.56,23.33c1.85,5.68-0.45-9.77-13.44-20.25
			c-12.98-10.49-30.74-15.61-46.38-16.92l-15.73-1.31L447.41,59.57z"/>
		<path class="st41" d="M613.43,506.94c-0.44-0.91-0.69-1.91-0.73-2.92C613.05,504.96,613.3,505.94,613.43,506.94z"/>
		<path class="st41" d="M614.72,460.16l-17.89-15.83C605.32,451.02,612.22,456.49,614.72,460.16z"/>
		<path class="st41" d="M888.35,605.25c-3.86,6.27-8.81,11.8-14.61,16.34c3.76-4.42,7.69-9.05,12.23-13.75
			C886.91,607.04,887.6,606.18,888.35,605.25z"/>
		<path class="st41" d="M914.68,502.67c-0.21,3.74-0.66,10.17-1.59,18.24C913.97,512.91,914.44,506.43,914.68,502.67z"/>
		<line class="st10" x1="601.21" y1="872.75" x2="597.44" y2="868.52"/>
		<path class="st10" d="M533.18,660.14c-2.23-4.07-4.75-7.99-7.53-11.71"/>
		<line class="st10" x1="493.56" y1="472.7" x2="489.26" y2="467.22"/>
		
			<linearGradient id="SVGID_00000142163507453987948500000018405166636394671544_" gradientUnits="userSpaceOnUse" x1="555.3735" y1="2028.9368" x2="973.416" y2="2028.9368" gradientTransform="matrix(1 0 0 -1 0 2582)">
			<stop  offset="0" style="stop-color:#1C75BC"/>
			<stop  offset="1" style="stop-color:#0063A9"/>
		</linearGradient>
		<path style="fill:url(#SVGID_00000142163507453987948500000018405166636394671544_);" d="M973.42,495.11l-58.54,3.97
			c0,0,0,0.51,0,1.45c0,0.19,0,0.38,0,0.61l0,0c0,0.21,0,0.44,0,0.68c0,0.24,0,0.49,0,0.75l0,0c-0.24,3.76-0.72,10.24-1.59,18.24
			c0,0.26,0,0.52-0.09,0.8c-2.71,23.31-9.24,59.5-24.62,83.5l0,0c-0.75,0.93-1.52,1.75-2.31,2.59c-4.61,4.7-8.55,9.33-12.23,13.75
			c-17.14,19.94-30.62,35.46-88.48,34.02c-5.4-0.14-10.49-0.21-15.24-0.21c-25.41,4.49-44.89,6.54-44.89,6.54s-4.35-0.63-11.34-1.96
			c-24.47-4.67-80.98-18.07-96.11-44.19c-19.41-33.57-62.6-62.91-62.6-62.91l58.93-35.95l0.42-0.24c0,0,1.29-3.81-1.31-9.61
			c-0.13-1-0.37-1.98-0.73-2.92c-0.14-3.77,3.34-6.89,5.24-20.48c2.24-15.5-2.43-22.3-3.18-23.26l-0.09-0.12
			c-2.5-3.67-9.4-9.21-17.82-15.83h-0.09c0.17,0,1.75,0.73,4.51,1.85c15.85,6.33,72.09,26.93,148.12,34.04
			C839.73,488.59,973.42,495.11,973.42,495.11z"/>
		<path class="st4" d="M294.98,603.77c-2.75-3.76-4.79-8-6.01-12.49L294.98,603.77z"/>
		
			<linearGradient id="SVGID_00000139256101941866990090000005659323344054061201_" gradientUnits="userSpaceOnUse" x1="338.0341" y1="1792.829" x2="495.2737" y2="1792.829" gradientTransform="matrix(1 0 0 -1 0 2582)">
			<stop  offset="0" style="stop-color:#1C75BC"/>
			<stop  offset="0.67" style="stop-color:#0063A9"/>
		</linearGradient>
		<path style="fill:url(#SVGID_00000139256101941866990090000005659323344054061201_);" d="M494.65,874.28
			c-14.1-2.5-28.07-5.61-37.62-9.1l-0.82-0.3c-8.45-3.11-17.93-0.12-23.05,7.29c-3.12,4.35-4.38,9.77-3.5,15.05
			c-16.72-3.39-45.66-10.64-67.7-23.52l-0.4-0.23c-8.11-4.51-15.3-10.49-21.2-17.65c-0.84-1.08-1.61-2.17-2.32-3.29
			c9.91-22.19,21.69-44.33,35.3-63.02c1.36-1.87,2.69-3.7,3.95-5.49c43.93-61.44,35.32-69.9,35.32-69.9l23.99-13l1.57,2.71
			l-3.39,2.22c0,0,50.42,127.03,58.49,155.27C495.35,858.79,495.82,866.62,494.65,874.28z"/>
		<path class="st25" d="M305.74,441.02l-21.16,77.26l-1.24-1.43c-2.95-3.5-5.92-7.18-8.93-11.22c-2.2-2.95-4.12-5.63-5.8-8.04
			c14.15-30.49,24.9-51.55,24.9-51.55l10.8-4.44L305.74,441.02z"/>
		<path class="st25" d="M283.34,516.85l1.24,1.43l-2.17,7.88C282.41,526.16,282.69,522.56,283.34,516.85z"/>
		<path class="st18" d="M365.58,302.27l0.09,0.58l-2.8-1.83L365.58,302.27z"/>
		<path class="st18" d="M421.67,338.84l-1-0.7c-2.77-1.87-5.32-4.05-7.6-6.48C415.41,333.93,419,336.73,421.67,338.84z"/>
		<path class="st44" d="M450.91,285.44c0.44,4.95-6.62,9.61-6.62,9.61s-32.92,2.62-38.01,0c-5.09-2.62-18.35-25.9-18.75-26.63
			l8.74,7.85c0,0,9.61,8.74,16.78,10.49c7.16,1.75,4.19,1.31,15.55,1.75s9.91,0.31,15.73-5.1c6.64-6.26,3.5-6.26,3.5-6.26
			l3.06-10.92C450.87,266.22,450.47,280.49,450.91,285.44z"/>
		<path class="st45" d="M450.91,266.22c-7.43,4.37-2.03,5.24-10.83,5.68c-8.81,0.44-19.4,0-19.4,0l-14.4,0.19h-9.98l-8.74-3.67l0,0
			v-2.18c0,0,23.19,3.06,34.13,2.18c10.94-0.87,17.75,0.87,22.72-2.18S450.91,266.22,450.91,266.22z"/>
		<path class="st33" d="M469.99,339.18c0,0-18.8-7.41-25.71-8.53s-21.63-2.74-21.63-2.74l-0.26-10.87c0,0,17.7,2.15,28.54-5.96
			c10.83-8.11,30.2-20.24,34.04-33.64c3.84-13.4,2.39-24.36,4.3-27.38c1.9-3.02,6.24-2.06,11.13-4.37c3.21-1.58,6.21-3.54,8.93-5.85
			c0,0,3.67,3.81,4.23,17.79c0.56,13.98,3.5,18.96-2.32,31.04c-5.82,12.08-9.61,8.74-6.57,24.71s18.51,21.9,6.99,36.7
			c-12.42,15.9-5.59,13.47-5.59,13.47S478.36,342.34,469.99,339.18z"/>
		<path class="st33" d="M292.32,250.38c-0.97,0.24-1.93,0.54-2.87,0.89c-12.87,4.65-21.89,16.31-23.17,29.94
			c-3.23,25.93,4.98,60.1,4.98,60.1l12.23-20.18c0,0-8.09,28.71-12.23,36.21c-2.61,4.89-4.38,10.17-5.24,15.64
			c0,0,42.53-26.95,49.12-30.37c6.59-3.43,54.51-16.53,54.51-16.53l-4.11-23.8c0,0-21.44-17.84-29.31-24.83
			c-7.86-6.99-13.18-27.82-13.18-27.82s0.72-0.75-3.5-0.26s-14.36,7.3-20.04,5.47L292.32,250.38z"/>
		<path class="st14" d="M383.09,357.33c0,0-23.92,8.06-26.34,9.07l-3.88-3.02l-31.09-24.2l41.01-10.28c0,1.36,1.75,4.23,6.54,10.28
			c6.99,9.07,10.61,13.84,12.37,16.16c0.1,0.16,0.21,0.31,0.33,0.45l0.28,0.4l0.24,0.37C382.72,356.83,382.9,357.09,383.09,357.33z"
			/>
		<path class="st6" d="M352.87,363.38h-14.92c0,0-39.63,12.09-66.21,42.34c-26.58,30.25-8.42,40.32-52.79,52.43l-44.35,12.09
			l27.17-18.14c27.23-18.16,27.26-44.37,49.44-66.55c22.18-22.18,70.58-46.38,70.58-46.38L352.87,363.38z"/>
		
			<linearGradient id="SVGID_00000080918668267173919470000006657526433658764732_" gradientUnits="userSpaceOnUse" x1="324.4368" y1="2275.4148" x2="335.3254" y2="2275.4148" gradientTransform="matrix(1 0 0 -1 0 2582)">
			<stop  offset="0.17" style="stop-color:#4A4B4C"/>
			<stop  offset="0.65" style="stop-color:#414042"/>
		</linearGradient>
		<path style="opacity:0.84;fill:url(#SVGID_00000080918668267173919470000006657526433658764732_);enable-background:new    ;" d="
			M335.33,291.68l-0.65,1.24c-1.1,2.07-2.3,4.09-3.62,6.03c-4.12,6.05-5.82,5.73-6.12,11.85c-0.35,7.93-0.94,12.36,0,10.12
			c0.94-2.24,0.35-0.31,3.16-9.26C330.92,302.7,335.33,291.68,335.33,291.68z"/>
		
			<linearGradient id="SVGID_00000176024379182930207680000012942154316939066024_" gradientUnits="userSpaceOnUse" x1="464.5372" y1="2268.6343" x2="475.4418" y2="2268.6343" gradientTransform="matrix(1 0 0 -1 0 2582)">
			<stop  offset="0.17" style="stop-color:#4A4B4C"/>
			<stop  offset="0.65" style="stop-color:#414042"/>
		</linearGradient>
		<path style="opacity:0.84;fill:url(#SVGID_00000176024379182930207680000012942154316939066024_);enable-background:new    ;" d="
			M475.44,298.46c-0.23,0.42-0.44,0.84-0.66,1.24c-1.1,2.07-2.3,4.08-3.6,6.03c-4.12,6.06-5.84,5.73-6.12,11.87
			c-0.37,7.92-0.94,12.34,0,10.1s0.37-0.31,3.16-9.26C471.02,309.48,475.44,298.46,475.44,298.46z"/>
		
			<linearGradient id="SVGID_00000162329307462599406390000012463020317772404384_" gradientUnits="userSpaceOnUse" x1="290.6574" y1="2300.7876" x2="315.8231" y2="2300.7876" gradientTransform="matrix(1 0 0 -1 0 2582)">
			<stop  offset="0.17" style="stop-color:#4A4B4C"/>
			<stop  offset="0.65" style="stop-color:#414042"/>
		</linearGradient>
		<path style="opacity:0.84;fill:url(#SVGID_00000162329307462599406390000012463020317772404384_);enable-background:new    ;" d="
			M315.82,254.53c-0.54,0.82-0.4,1.75-1.61,2.39c-9.66,5.24-7.34,12.15-9.14,15.22c-7.11,12.09-9.45,7.46-9.47,16.95
			c0,12.23-6.69,21.95-4.51,17.86c2.18-4.09,0.93-0.75,7.43-16.48C305.02,274.74,315.82,254.53,315.82,254.53z"/>
		<path class="st49" d="M424.54,221.3l-2.29,9.3c-0.14,0.43-0.21,0.88-0.21,1.33c0.1,0.93,0.46,1.82,1.03,2.57l5.24,8.37
			c1.1,1.34,1.63,3.06,1.5,4.79c-0.57,1.56-1.75,2.82-3.27,3.5c-2.11,1.24-4.36,2.24-6.69,2.97c-0.34,0.14-0.72,0.17-1.08,0.1
			c-0.4-0.15-0.73-0.43-0.94-0.8c-1.52-2.03-6.57-3.88-4.54-6.05"/>
		<path class="st49" d="M408.09,243.83c0.67-1,1.55-1.85,2.57-2.48c1.43,1.02,2.75,2.19,3.93,3.5"/>
		<path class="st50" d="M334.26,213.9c2.07,10.09,5.38,19.88,9.84,29.17c6.76,13.11,2.11,21.41,23.87,41.07
			c13.96,12.35,29.41,22.92,45.98,31.46c0,0-38.45-5.87-48.37-13.35c-9.93-7.48-39.67-25.2-42.05-49.19
			c-2.38-23.99-17.79-48.34-17.79-48.34L334.26,213.9z"/>
		
			<radialGradient id="SVGID_00000034793934427743244390000016880114943440423347_" cx="462.9995" cy="2383.1685" r="32.03" gradientTransform="matrix(1 0 0 -1 0 2582)" gradientUnits="userSpaceOnUse">
			<stop  offset="0.18" style="stop-color:#FFF200"/>
			<stop  offset="0.75" style="stop-color:#FBB040"/>
		</radialGradient>
		
			<ellipse style="fill:url(#SVGID_00000034793934427743244390000016880114943440423347_);stroke:#231F20;stroke-width:0.25;stroke-miterlimit:10;" cx="463" cy="198.83" rx="33.45" ry="30.55"/>
		<path class="st50" d="M415.78,227.54c0,0-1.75,1.99,0,6.99c1.08,3,1.69,6.15,1.83,9.33l-6.13-7.79L415.78,227.54z"/>
		
			<linearGradient id="SVGID_00000039133613205815549480000010440507824935843515_" gradientUnits="userSpaceOnUse" x1="491.3268" y1="2284.3628" x2="498.7713" y2="2284.3628" gradientTransform="matrix(1 0 0 -1 0 2582)">
			<stop  offset="0.17" style="stop-color:#4A4B4C"/>
			<stop  offset="0.65" style="stop-color:#414042"/>
		</linearGradient>
		<path style="opacity:0.84;fill:url(#SVGID_00000039133613205815549480000010440507824935843515_);enable-background:new    ;" d="
			M498.11,264.61c-0.96-0.49-7.15,10.17-4.51,15.19c1.12,2.11,2.76,1.24,4.09,3.5c2.57,4.3,0.26,13.98-3.79,19.66
			c-1.3,1.41-2.17,3.16-2.52,5.05c-0.37,3.29,1.64,5.47,2.94,8.56s2.13,7.32,0.86,14.12c-2.91-11.01-4.04-22.41-3.37-33.78
			C492.99,277.82,499.16,265.13,498.11,264.61z"/>
		<path class="st17" d="M433.22,328.9l32.21,24.47c0,0-8.07,6.36-16.11,5.73c-8.04-0.63-9.65-4.25-9.65-4.25
			c0.43-5.32-2.03-10.47-6.45-13.47c-4.64-3.46-8.29-8.08-10.57-13.4L433.22,328.9z"/>
		<g transform="translate(257.63 382.8) scale(0.02)">
		</g>
		<g transform="translate(253.85 289.43) rotate(-12.36) scale(0.02)">
		</g>
	</g>
</g>
<g>
	<path class="st84" d="M456.98,438.75c0.12,0.4,0.26,0.77,0.43,1.12c0.17,0.35,0.38,0.65,0.63,0.9c0.26,0.24,0.56,0.42,0.9,0.54
		c0.34,0.11,0.75,0.13,1.22,0.05c0.6-0.1,1.32-0.38,2.15-0.83c0.83-0.45,1.81-1.15,2.95-2.1l-23.96,23.81
		c0.71-0.77,1.31-1.65,1.81-2.63c0.5-0.98,0.91-1.93,1.23-2.85c0.32-0.92,0.57-1.73,0.75-2.44c0.18-0.71,0.3-1.2,0.36-1.47
		l-18.85,3.13l-4.29,11.18l-15.9,2.64l6.47-14.87c0.61-1.54,0.91-2.69,0.9-3.46c-0.01-0.77-0.38-1.09-1.11-0.97
		c-0.45,0.07-1.15,0.4-2.12,0.98c-0.97,0.58-1.99,1.23-3.06,1.94c-1.07,0.71-2.08,1.42-3.03,2.11c-0.95,0.69-1.64,1.19-2.08,1.5
		l16.99-17.01l28.95-28.79l8.55,27.2l0.06,0.15C456.96,438.66,456.97,438.73,456.98,438.75z M463.26,393.21l-45.78,45.58
		c0.65-0.63,1.29-1.34,1.91-2.14c0.62-0.8,1.21-1.58,1.75-2.37c0.54-0.78,1.02-1.51,1.44-2.18c0.42-0.67,0.72-1.21,0.93-1.6
		l9.52-21.85l0.04-0.01l0.03-0.08l5.39-0.89c2.26-0.37,4.55-1.03,6.89-1.97c2.34-0.94,4.4-2.1,6.19-3.5
		c1.27-0.94,2.55-1.91,3.83-2.89c1.28-0.98,2.45-1.89,3.51-2.72c1.06-0.83,1.98-1.54,2.76-2.14
		C462.44,393.86,462.97,393.44,463.26,393.21z M459.63,447.17l4.13-4.1c-0.39,0.59-0.79,1.24-1.19,1.96
		c-0.41,0.72-0.75,1.47-1.04,2.25c-0.29,0.78-0.48,1.58-0.57,2.39c-0.1,0.81-0.03,1.58,0.2,2.3c0.05,0.12,0.09,0.29,0.12,0.49
		l2.47,7.82l-13.89,2.3c-0.33,0.11-1.04,0.38-2.13,0.82c-1.09,0.44-2.5,1.2-4.23,2.29c-1.74,1.08-3.78,2.55-6.15,4.39
		c-2.36,1.84-4.99,4.21-7.88,7.09l17.56-17.5l-0.01-0.04l12.6-12.52L459.63,447.17z M431.17,444.09l11.53-1.91l-4.22-17.14
		L431.17,444.09z"/>
</g>
<g>
	<path class="st86" d="M444.39,599.34c0.04,0.14,0.09,0.27,0.15,0.39c0.06,0.12,0.13,0.22,0.22,0.31c0.09,0.08,0.19,0.15,0.31,0.18
		c0.12,0.04,0.26,0.05,0.42,0.02c0.21-0.03,0.45-0.13,0.74-0.29c0.29-0.15,0.62-0.4,1.02-0.72l-8.25,8.2
		c0.24-0.27,0.45-0.57,0.62-0.91c0.17-0.34,0.31-0.67,0.42-0.98s0.2-0.59,0.26-0.84c0.06-0.24,0.1-0.41,0.13-0.51l-6.49,1.08
		l-1.48,3.85l-5.48,0.91l2.23-5.12c0.21-0.53,0.31-0.93,0.31-1.19c0-0.27-0.13-0.38-0.38-0.33c-0.15,0.03-0.4,0.14-0.73,0.34
		c-0.33,0.2-0.69,0.42-1.05,0.67c-0.37,0.25-0.71,0.49-1.04,0.73c-0.33,0.24-0.57,0.41-0.72,0.52l5.85-5.86l9.97-9.92l2.95,9.37
		l0.02,0.05C444.38,599.31,444.38,599.33,444.39,599.34z M446.55,583.66l-15.77,15.7c0.22-0.22,0.44-0.46,0.66-0.74
		c0.21-0.27,0.42-0.55,0.6-0.81c0.19-0.27,0.35-0.52,0.5-0.75c0.14-0.23,0.25-0.41,0.32-0.55l3.28-7.52l0.01,0l0.01-0.03l1.86-0.31
		c0.78-0.13,1.57-0.35,2.37-0.68c0.81-0.32,1.52-0.72,2.13-1.2c0.44-0.32,0.88-0.66,1.32-1s0.84-0.65,1.21-0.94
		c0.37-0.29,0.68-0.53,0.95-0.74C446.27,583.88,446.45,583.74,446.55,583.66z M445.3,602.24l1.42-1.41
		c-0.13,0.2-0.27,0.43-0.41,0.68c-0.14,0.25-0.26,0.51-0.36,0.77c-0.1,0.27-0.17,0.54-0.2,0.82c-0.03,0.28-0.01,0.54,0.07,0.79
		c0.02,0.04,0.03,0.1,0.04,0.17l0.85,2.7l-4.79,0.79c-0.11,0.04-0.36,0.13-0.73,0.28c-0.37,0.15-0.86,0.42-1.46,0.79
		c-0.6,0.37-1.3,0.88-2.12,1.51s-1.72,1.45-2.72,2.44l6.05-6.03l0-0.01l4.34-4.31L445.3,602.24z M435.5,601.18l3.97-0.66l-1.45-5.9
		L435.5,601.18z"/>
</g>
</svg>
