<?xml version="1.0" encoding="utf-8"?>
<!-- Generator: Adobe Illustrator 26.2.1, SVG Export Plug-In . SVG Version: 6.00 Build 0)  -->
<svg version="1.1" id="Layer_1" xmlns="http://www.w3.org/2000/svg" xmlns:xlink="http://www.w3.org/1999/xlink" x="0px" y="0px"
	 viewBox="0 0 1024 1280" style="enable-background:new 0 0 1024 1280;" xml:space="preserve">
<style type="text/css">
	.st0{fill:url(#SVGID_1_);}
	.st1{fill:url(#SVGID_00000047773969425049148150000007162377999984192388_);}
	.st2{fill:url(#SVGID_00000041984834414653122180000002435495721975312536_);}
	.st3{fill:url(#SVGID_00000178204074850713014340000005172182004177686189_);}
	.st4{fill:#1C75BC;stroke:#414042;stroke-width:0.5;stroke-miterlimit:10;}
	.st5{fill:#EF4136;}
	.st6{fill:#BE1E2D;}
	.st7{fill:#6D6E71;}
	.st8{fill:#58595B;}
	.st9{fill:#414042;}
	.st10{fill:none;}
	.st11{fill:#00AEEF;}
	.st12{fill:#414042;stroke:#414042;stroke-width:0.5;stroke-miterlimit:10;}
	.st13{fill:#BE1E2D;stroke:#414042;stroke-width:0.5;stroke-miterlimit:10;}
	.st14{fill:#00AEEF;stroke:#8B5E3C;stroke-width:0.25;stroke-miterlimit:10;}
	.st15{fill:#EF4136;stroke:#8B5E3C;stroke-width:0.25;stroke-miterlimit:10;}
	.st16{fill:none;stroke:#8B5E3C;stroke-width:0.25;stroke-miterlimit:10;}
	.st17{fill:#BE1E2D;stroke:#8B5E3C;stroke-width:0.25;stroke-miterlimit:10;}
	.st18{fill:#A97C50;}
	.st19{fill:#F1F2F2;}
	.st20{fill:#A97C50;stroke:#8B5E3C;stroke-width:0.25;stroke-miterlimit:10;}
	.st21{fill:#A41D2E;}
	.st22{fill:#3A91CF;}
	.st23{opacity:0.64;fill:#A41D2E;enable-background:new    ;}
	.st24{fill:url(#SVGID_00000016773593187058029450000007204096919162588570_);}
	.st25{fill:#1C75BC;}
	.st26{fill:#FFF200;}
	.st27{opacity:0.27;fill:#1C75BC;enable-background:new    ;}
	.st28{fill:url(#SVGID_00000104698358255476746260000007006709419195728057_);}
	.st29{fill:url(#SVGID_00000137839007390559924930000010195836193395977867_);}
	.st30{fill:url(#SVGID_00000010994075444254735570000010130044381138982844_);}
	.st31{fill:#27AAE1;stroke:#231F20;stroke-width:0.5;stroke-miterlimit:10;}
	
		.st32{fill:url(#SVGID_00000036940921586882995990000018436351574016048542_);stroke:#231F20;stroke-width:0.25;stroke-miterlimit:10;}
	.st33{fill:#414042;stroke:#8B5E3C;stroke-width:0.25;stroke-miterlimit:10;}
	.st34{fill:#9A6C45;}
	.st35{opacity:0.84;fill:url(#SVGID_00000037686321639330351970000018248004110798429116_);enable-background:new    ;}
	.st36{opacity:0.84;fill:url(#SVGID_00000140692892683355174410000008892422231328713126_);enable-background:new    ;}
	.st37{opacity:0.84;fill:url(#SVGID_00000122706740367936410600000010630311116785356450_);enable-background:new    ;}
	.st38{opacity:0.84;fill:#4A4B4C;enable-background:new    ;}
	.st39{fill:url(#SVGID_00000132801356943442631100000016471068855384071569_);}
	.st40{opacity:0.84;fill:url(#SVGID_00000084495904138407010170000014594646009956076962_);enable-background:new    ;}
	.st41{fill:#00539E;}
	.st42{fill:url(#SVGID_00000058590162704951621750000016785932341372342668_);}
	.st43{fill:url(#SVGID_00000027580341973925026640000000573377931192971962_);}
	.st44{fill:#6D6E71;stroke:#231F20;stroke-width:0.5;stroke-miterlimit:10;}
	.st45{fill:#9A6C45;stroke:#231F20;stroke-width:0.5;stroke-miterlimit:10;}
	.st46{opacity:0.84;fill:url(#SVGID_00000139988428741065772490000009005911428131919760_);enable-background:new    ;}
	.st47{opacity:0.84;fill:url(#SVGID_00000170275426679602287400000017294880881957046155_);enable-background:new    ;}
	.st48{opacity:0.84;fill:url(#SVGID_00000179605339580878592160000015120235813590582927_);enable-background:new    ;}
	.st49{fill:none;stroke:#231F20;stroke-width:0.75;stroke-miterlimit:10;}
	.st50{opacity:0.54;fill:#9A6C45;enable-background:new    ;}
	
		.st51{fill:url(#SVGID_00000040533014847887151830000007738734451017841338_);stroke:#231F20;stroke-width:0.25;stroke-miterlimit:10;}
	.st52{opacity:0.84;fill:url(#SVGID_00000155134431622951200550000008771137684361283236_);enable-background:new    ;}
	.st53{fill:#F7931E;}
	.st54{fill:#009245;}
	.st55{fill:#D3751A;}
	.st56{fill:#333333;}
	.st57{fill:#C25A12;}
	.st58{fill:url(#SVGID_00000136382342068291863050000000318871199055183282_);}
	.st59{fill:#D26912;}
	.st60{opacity:0.57;fill:url(#SVGID_00000142140524531064850550000015865566624362829707_);enable-background:new    ;}
	.st61{opacity:0.57;fill:url(#SVGID_00000061442340199083594990000004230338146173216169_);enable-background:new    ;}
	.st62{opacity:0.43;fill:#C25A12;enable-background:new    ;}
	.st63{fill:#C1272D;}
	.st64{fill:#D9B821;}
	.st65{fill:#D9E021;}
	.st66{fill:#C25A12;stroke:#D9B821;stroke-width:0.75;stroke-miterlimit:10;}
	.st67{fill:#C25A12;stroke:#D9B821;stroke-miterlimit:10;}
	.st68{opacity:0.42;fill:#C1272D;enable-background:new    ;}
	.st69{fill:url(#SVGID_00000183215299967133184800000000955637582196768434_);}
	.st70{fill:url(#SVGID_00000129928703298570780230000000187993337940326331_);}
	.st71{fill:url(#SVGID_00000000903085399448841410000014666571120537272460_);}
	.st72{fill:url(#SVGID_00000036223967968427128640000003268280676714029215_);}
	.st73{opacity:0.32;fill:#D3751A;enable-background:new    ;}
	.st74{opacity:0.26;fill:#333333;enable-background:new    ;}
	.st75{opacity:0.56;}
	.st76{opacity:0.63;}
	.st77{fill:url(#SVGID_00000125564751715459287190000015348372672550404235_);}
	.st78{fill:url(#SVGID_00000094583976007869076200000016167575648822140842_);}
	.st79{fill:#4D4D4D;}
	
		.st80{opacity:0.7;fill:url(#SVGID_00000054956558244035335840000013663435725283793315_);stroke:url(#SVGID_00000088830697848162655980000007543776702694752669_);stroke-width:0.5;stroke-miterlimit:10;enable-background:new    ;}
	.st81{fill:url(#SVGID_00000000223758230583879660000013729558806607926959_);}
	.st82{fill:#FFFF00;}
	.st83{fill:#F15A24;}
	.st84{fill:#FFFFFF;stroke:#FFFFB4;stroke-miterlimit:10;}
	.st85{fill:#FFFFFF;stroke:#FBB03B;stroke-miterlimit:10;}
	.st86{fill:#FFFFFF;stroke:#FFFF00;stroke-width:0.25;stroke-miterlimit:10;}
</style>
<g>
	<path class="st53" d="M455.23,857.43c-8.96,0.53-36.23-2.22-49.76-3.97c10.66,2.35,30.2,7.6,46.1,12.77c1.84-2.87,3.46-5.88,4.83-9
		C456.01,857.32,455.62,857.39,455.23,857.43z M629.4,833.64c-25.36,15.73-121.63,76.54-121.63,76.54l12.34,18.95l10.79,15.77
		l40.17-29.15l55.88-40.55l50.24-43.21l29.6-25.5l0.21-0.17v0.25l-0.17,2.09c-0.78,8.04-3.28,35.7-5.29,65.22l-2.49,54.21
		l4.32-32.38c0,0,9.84-76.39,10.05-77.53c1.26-6.81,6.85-39.42,7.01-39.66C720.37,778.47,654.77,817.77,629.4,833.64z"/>
	<path class="st53" d="M717.78,1084.61l35.7-0.08c0,0,0.25-2.16,0.75-6.15L717.78,1084.61z"/>
	<path class="st53" d="M789.04,689.53c-7.75-12.49-95.79,2.78-160.73,26.44c-60.82,22.11-140.58,67.62-150.51,73.34l-1.03,0.61
		l-25.98,36.26l-58.48-24.54c-7.46-3.13-18.15-9.77-28.98-17.02l-0.08-0.07c-15.52-10.39-31.36-22.07-38.58-26.63
		c-2.31-1.47-3.75-2.18-3.97-1.92c-6.85,7.24-25.94,28.57-39.82,54.8c-12.26,23.1-20.45,49.99-12.71,74.39
		c16.58,52.21,71.19,109.11,122.07,150.33l-6.61-1.07c-12.66,0.94-25.38,1-38.05,0.17c-22.96-1.32-80.44,5.54-80.44,5.54
		c3.81,6.44-1.67,18.28-6.04,25.9l0,0l-0.78,3.31c0,0,148.92,57.06,171.87,62.31c22.95,5.25,163.94,30.74,183.92,16.9
		c21.63-11.79,31.25-3.78,10.26-67.43c-14.42-43.71-56.04-88.08-89.29-130.27l-4.12-6.03l-10.79-15.77l-12.32-19
		c0,0,96.22-60.82,121.63-76.54c25.41-15.72,90.97-55.1,90.97-55.1c-0.16,0.25-5.75,32.87-7.01,39.66
		c-0.21,1.14-10.05,77.53-10.05,77.53l-4.32,32.38l2.49-54.21c-1.63,23.24-2.99,47.74-2.99,64.95c0,43.3,19.29,145.85,19.29,145.85
		l36.41-6.23c3.7-29.61,20.36-160.77,39.44-270.02C815.27,684.37,797.57,703.24,789.04,689.53z M530.57,945.09l0.11,0.17
		c-0.04-0.06-0.08-0.12-0.13-0.17H530.57z M451.57,866.24c-15.87-5.17-35.45-10.42-46.1-12.77c13.54,1.69,40.8,4.44,49.76,3.97
		c0.39-0.03,0.78-0.08,1.16-0.15l0,0c2.31-0.41,4.52-1.31,6.45-2.64c-0.44,5.15-0.44,10.33,0,15.48
		C459.47,868.87,455.65,867.55,451.57,866.24z"/>
	<path class="st53" d="M462.91,870.13c-3.38-1.32-7.21-2.64-11.29-3.89c1.84-2.87,3.46-5.88,4.83-9l0,0
		c2.31-0.41,4.52-1.31,6.45-2.64C462.46,859.76,462.47,864.96,462.91,870.13z"/>
	<path class="st54" d="M259.08,1065.98l6.04-25.9C268.93,1046.49,263.46,1058.39,259.08,1065.98z"/>
	<path class="st55" d="M508.77,911.76c-11.22-14.38-27.38-33.34-37.68-38.23c-2.22-1.06-5.04-2.19-8.24-3.4
		c-3.2-1.2-7.21-2.64-11.29-3.89c-15.87-5.17-35.45-10.42-46.1-12.77c13.54,1.69,40.8,4.44,49.76,3.97
		c0.39-0.03,0.78-0.08,1.16-0.15l0,0c2.31-0.41,4.52-1.31,6.45-2.64c9.25-5.94,16.78-19.99,20.96-27.29
		c4.81-8.38,10.4-24.35,11.4-27.21l-4.85,16.3c0,0-10.22,23.8-10.14,42C480.25,870.02,496.65,894.92,508.77,911.76z"/>
	<path class="st55" d="M720.37,778.47c-0.16,0.25-5.75,32.87-7.01,39.66c-0.21,1.14-10.05,77.53-10.05,77.53l-4.32,32.38l2.49-54.21
		l5.29-65.22l0.17-2.09v-0.25l0,0l-0.21,0.19l-22.83,21.3l0,0l-0.56,0.53l-0.54,0.5l-0.32,0.3l-0.74,0.7l-1.72,1.61l-22.5,20.99
		l-0.7,0.66l-25.12,23.41l-11.01,8.9l0,0l-42.45,34.29h-0.08l-1.76,1.43l-2.9,2.06l-0.53,0.37l-0.56,0.4
		c-0.19,0.16-0.38,0.29-0.57,0.42l-0.53,0.52l-23.8,17.09l-1.32,0.97l-11.07,7.93l-4.12-6.03l-10.79-15.77l-12.36-18.95
		c0,0,96.22-60.82,121.63-76.54C654.9,817.85,720.37,778.47,720.37,778.47z"/>
	<path class="st56" d="M519.1,316.49c-0.83-4.61-1.32-9.27-1.48-13.95c-5.61,5.07-12.04,9.14-19.01,12.04
		c0.86,12.04,1.07,23.43-1.65,30.8c-0.2,0.52-0.41,1.04-0.63,1.57s-0.44,1-0.69,1.52l0,0c-0.03,0.08-0.07,0.16-0.12,0.24l-0.07,0.13
		c-0.19,0.4-0.38,0.77-0.58,1.15c-0.2,0.38-0.29,0.54-0.44,0.79c-0.02,0.06-0.05,0.12-0.09,0.17v0.07l-0.3,0.53
		c-0.2,0.36-0.4,0.7-0.61,1.04c-0.09,0.13-0.17,0.26-0.25,0.4c-0.21,0.34-0.44,0.69-0.66,1.03c-0.22,0.34-0.46,0.71-0.7,1.07
		c-0.24,0.36-0.53,0.74-0.79,1.11s-0.7,0.97-1.06,1.44c-0.56,0.73-1.14,1.47-1.75,2.18c-0.41,0.53-0.86,1.04-1.32,1.56
		s-0.87,0.99-1.32,1.49l-0.77,0.85c-0.24,0.25-0.49,0.5-0.73,0.77l-0.52,0.53c-0.53,0.53-1.04,1.07-1.6,1.6l-0.3,0.29l-0.11,0.11
		c-0.77,0.74-1.55,1.45-2.34,2.18s-1.59,1.41-2.41,2.09c-0.82,0.67-1.32,1.07-1.94,1.6c-1.18,0.95-2.39,1.86-3.6,2.74
		c-0.4,0.29-0.79,0.58-1.2,0.85c-0.75,0.54-1.52,1.04-2.29,1.53c-0.44,0.3-0.87,0.57-1.32,0.85c-1.2,0.75-2.41,1.47-3.61,2.12
		c-0.48,0.28-0.95,0.53-1.43,0.78l-1.02,0.5c-0.4,0.21-0.81,0.41-1.2,0.59c-0.4,0.19-1.08,0.5-1.6,0.71
		c-0.52,0.21-1.06,0.45-1.57,0.63l0,0l-0.66,0.24l-0.48,0.17l-1.07,0.37l0,0l-0.28,0.08l-0.22,0.08l-1.39,0.41
		c-1.67,0.4-3.38,0.56-5.09,0.49l0,0h-0.94c-0.56,0-1.12-0.08-1.71-0.15c-0.58-0.07-1.18-0.12-1.78-0.2l-1.97-0.25h-0.19l-1.76-0.34
		l0,0L438,385c-0.99-0.21-1.98-0.44-3.01-0.69c-1.03-0.25-2.42-0.61-3.68-0.98c-0.61-0.16-1.22-0.34-1.81-0.52l-2.43-0.75h-0.15
		l-2.45-0.79l-2.64-0.91l-2.72-0.97c-2.22-0.81-4.46-1.67-6.61-2.51h-0.07l0,0c-1.1-0.42-2.19-0.87-3.27-1.32c0,0.04,0,0.07,0,0.11
		l-6.61,18.05l-0.82,2.27c0,0,0,0.07,0,0.08l0,0l0,0l0,0l-0.85,2.27v9.59l-1.49-0.53l-1.96-0.7l-3.78-1.32l0,0l-7.43-2.74l0,0l0,0
		c-0.01-0.04-0.01-0.09,0-0.13c0.01-0.06,0.01-0.11,0-0.17c0-0.11,0.08-0.24,0.12-0.38c0.04-0.15,0-0.21,0.09-0.33s0-0.24,0.12-0.37
		c-0.01-0.04-0.01-0.08,0-0.12c0.07-0.22,0.12-0.46,0.21-0.74l0,0c0.13-0.46,0.28-0.99,0.45-1.57s0.21-0.81,0.33-1.23
		c0.32-1.32,0.69-2.84,1-4.44c0.09-0.44,0.19-0.89,0.26-1.32c0.08-0.44,0.08-0.52,0.13-0.79s0.11-0.59,0.15-0.9
		c0.05-0.21,0.08-0.43,0.11-0.65l0.22-1.75c0.01-0.11,0.01-0.22,0-0.33c0.04-0.25,0.07-0.49,0.08-0.74c0-0.42,0.08-0.86,0.09-1.32
		c0-0.79,0-1.55,0-2.29c0.01-0.11,0.01-0.23,0-0.34v-0.13c0-0.07,0-0.15,0-0.22l-0.08-0.73l0,0c0.01-0.14,0.01-0.27,0-0.41
		l-0.08-0.41c0.01-0.04,0.01-0.08,0-0.12c0-0.13,0-0.26-0.08-0.42l0,0c-1.6-6.86-5.38-17.95-5.84-19.32v-0.13
		c-0.02-0.06-0.04-0.12-0.07-0.17c-2.45-6.28-7.27-18.32-11.65-27.13l0,0c-1.81-3.43-3.85-6.74-6.09-9.9
		c-0.67-0.67-1.24-1.43-1.71-2.26c-3.25-5.87,0.3-13.43,1.82-20.12c0-0.22,0.12-0.45,0.19-0.67c0.07-0.22,0.16-0.46,0.25-0.67
		c0.19-0.44,0.43-0.85,0.7-1.24c0.3-0.39,0.65-0.73,1.03-1.03c0.55-0.39,1.15-0.7,1.78-0.91h0.08c0.43-0.14,0.88-0.25,1.32-0.34
		h0.13c1.91-0.3,3.83-0.5,5.75-0.59l0,0l7.93-1.68l0,0c3.68-1.49,11.01-13.39,19.5-27.05c0.56-0.91,1.14-1.82,1.72-2.75
		c0.29-0.48,0.59-0.95,0.9-1.43c0.11-0.17,0.21-0.34,0.33-0.52l0,0c0.06-0.11,0.12-0.21,0.2-0.3c0.53-0.88,1.08-1.76,1.67-2.64
		c0.57-0.93,1.16-1.86,1.76-2.79l1.45-2.27c0.4-0.59,0.77-1.18,1.11-1.72c3.72-6.15,7.81-12.07,12.26-17.72l0.22-0.28l0.2-0.25
		c4.92-6.07,9.52-10.4,13.38-11.44c16.22-4.38,28.39-11.37,44.33-3.5c13.08,6.47,15.15,25.32,14.03,42.49
		c-0.08,1.32-0.19,2.53-0.29,3.77c-0.15,1.6-0.33,3.16-0.5,4.68c-0.11,0.82-0.21,1.63-0.32,2.42c-0.48,4.19-0.63,8.42-0.44,12.64
		c0.08,2.64,0.22,5.35,0.42,8.16l0,0c0.38,5.66,0.94,11.57,1.4,17.41c6.98-2.88,13.42-6.93,19.04-11.96
		c-0.56-10.58-0.93-24.29-1.48-38.08c0-1.23-0.09-2.43-0.13-3.66c-1.02-24.29-2.64-48.11-6.73-55.4
		c-8.38-14.89-25.74-20.99-62.87-33.25c-37.12-12.26-98.46,27.13-125.44,46.27s-38.62,115.52-55.33,153.36
		s-96.12,117.8-119.74,161.06s32.36,101.06,5.67,122.95c-11.36,9.25-19.62,24.79-25.12,42.02c-7.4,23.24-9.7,49.6-7.69,68.18
		c0.26,2.42,0.85,4.79,1.75,7.05c10.76,27.61,63.83,41.1,63.83,41.1l0,0c7.79-22.21,16.01-44.55,18.28-52.88
		c0.52-2.06,0.91-4.15,1.19-6.25c1.61-11.3,2.53-31.21,3.23-53.48c0.56-17.69,0.97-36.87,1.48-54.42
		c1.32-44.62,32.8-148.27,44.61-172.89c9.98-20.82,98.19-55.16,125.29-65.28c0.29,0.44,5.38,8.32,9.52,10.03
		c4.14,1.72,71.39,8.84,74.71,7.22c0.17-0.07,0.33-0.17,0.48-0.28c0.17-0.1,0.33-0.21,0.49-0.33c0.29-0.24,0.61-0.52,0.91-0.82
		c0.13-0.13,0.25-0.26,0.37-0.4c1.32-1.47,2.51-3.05,3.56-4.73l1.32-2.14c0.59-0.91,1.15-1.73,1.71-2.46l10.83,1.32l3.81-8.3
		c0,0,15.75-23.37,23.11-36.2C516.33,355.52,522.71,332.22,519.1,316.49z M364.51,602.34c-7.22-5.29-20.33-9.25-28.87-30.84
		c-8.22-20.86-6.08-56.39-5.91-58.91l-6.08,44.18v0.07l-7.48,54.38l-39.33,54.42h11.96l-28.35,76.13c0.41-0.74,8.84-15.39,0,37.72
		c-1.97,11.78-3.32,22.73-4.2,32.63c2.41-0.07,4.77-0.13,7.09-0.22l2.47-0.11c5.29-0.24,10.38-0.58,14.89-1.04h0.19
		c13.88-26.23,32.97-47.6,39.82-54.8c0.25-0.26,1.69,0.45,3.97,1.92l1.49-5.29l1.11-3.97h-6.29c0,0,0.13-13.66-0.12-47.89l8.86-20.7
		c8.86-20.72,12.47-32.44,28.89-47.6c7.03-6.48,17.93-9.57,28.08-10.99l3.79-8.28C379.62,609.37,368.04,604.92,364.51,602.34z
		 M245.03,754.14c-5.04,1.59-10.37,2.05-15.6,1.32c-5.02-0.58-12.34-3.72-13.64-7.68c-2.64-7.93-3.2,5.04,12.55,8.32
		c15.35,3.19,22.24-4.09,22.58-4.46L245.03,754.14z"/>
	<path class="st56" d="M363.96,321.12c0.57,0.72,1.14,1.48,1.71,2.26C365,322.7,364.43,321.94,363.96,321.12z"/>
	<path class="st56" d="M365.79,323.51c1.64,1.63,3.74,5.29,5.98,9.77c-1.81-3.43-3.85-6.74-6.09-9.9L365.79,323.51z"/>
	<path class="st56" d="M371.13,296.09l-1.32,0.34C370.24,296.29,370.68,296.18,371.13,296.09z"/>
	<path class="st56" d="M371.79,333.32c4.59,8.72,8.48,17.79,11.65,27.13C380.94,354.17,376.17,342.12,371.79,333.32z"/>
	<path class="st56" d="M385,293.79c-2.55,0.94-5.22,1.51-7.93,1.68L385,293.79z"/>
	<path class="st56" d="M385.04,364.64c0,0,10.81,5.42,24.06,10.81c0,0.04,0,0.07,0,0.11l-8.33,22.74v9.62l-14.54-5.29
		c0,0,4.93-15.16,3.23-22.48c-1.6-6.86-5.38-17.95-5.84-19.32C384.48,363.16,385.04,364.64,385.04,364.64z"/>
	<path class="st56" d="M425.89,234.89c-3.97,4.96-8.13,11.04-12.26,17.37C417.36,246.23,421.45,240.42,425.89,234.89z"/>
	<path class="st56" d="M414.93,299.74c-0.17-0.36-0.32-0.71-0.46-1.07c0.44-0.46,0.85-0.89,1.2-1.32c2.19-2.53,4.81-9.25,5.82-14.97
		c0.26-2.53,0.08-5.09-0.54-7.56l40.64,4.5l2.79-0.7l2.08-0.53h0.26l1.59-0.41l28.98-7.25c-0.11,0.82-0.21,1.63-0.32,2.42
		c-0.48,4.19-0.63,8.42-0.44,12.64c0.08,2.64,0.22,5.35,0.42,8.16l0,0c0.38,5.66,0.94,11.57,1.4,17.41
		c-11.82,4.96-23.14,5.86-25.9,1.1c-3.97-6.82-7.71-7.93-8.54-8.03c-0.06-0.01-0.12-0.01-0.19,0c0,0,0,0.26-0.11,0.71
		c-0.45,2.3-2.26,9.57-8.05,10.48C448.71,316.3,422.16,315.66,414.93,299.74z"/>
	<path class="st56" d="M498.61,314.58c-11.9,5.08-23.36,6.03-26.16,1.22c-1.4-2.64-3.37-4.94-5.76-6.73l9.25,16.51l-2.83,1.96
		l-3.86,2.64l2.76-4.93l-6.97-17.19c-0.42-0.19-0.87-0.31-1.32-0.37c0,0-1.32,10.11-8.16,11.2c-6.84,1.08-33.4,0.45-40.65-15.42
		c-0.52-1.16-1-2.41-1.45-3.7c-2.98,2.98-4.82,6.91-5.21,11.11c-0.87,7.85-3.41,20.11-2.8,33.22c0.58,12.55,3.41,29.88,3.66,31.39
		c15.38,6.28,34.03,12.51,42.78,10.17l1.39-0.41l0.22-0.08l0.28-0.08l1.12-0.4l1.14-0.41l0,0l1.57-0.63l1.6-0.71
		c0.4-0.19,0.81-0.38,1.2-0.59l1.02-0.5c0.48-0.25,0.95-0.5,1.43-0.78c2.48-1.36,4.89-2.86,7.21-4.5c0.41-0.26,0.81-0.56,1.2-0.85
		c1.2-0.87,2.42-1.78,3.6-2.74c0.66-0.53,1.32-1.04,1.94-1.6c1.63-1.37,3.21-2.79,4.75-4.27l0.11-0.11l0.3-0.29
		c0.56-0.53,1.07-1.07,1.6-1.6s1.32-1.41,2.01-2.14c0.46-0.5,0.9-0.99,1.32-1.49c0.42-0.5,0.9-1.03,1.32-1.56
		c0.61-0.71,1.19-1.45,1.75-2.18c0.36-0.48,0.71-0.95,1.06-1.44s0.52-0.74,0.79-1.11s0.46-0.73,0.7-1.07
		c0.24-0.34,0.45-0.69,0.66-1.03c0.08-0.13,0.16-0.26,0.25-0.4c0.21-0.34,0.41-0.69,0.61-1.04l0.34-0.59
		c0.04-0.05,0.07-0.11,0.09-0.17l0,0c0.13-0.26,0.28-0.5,0.4-0.74c0.12-0.24,0.4-0.75,0.58-1.15c0.07-0.13,0.13-0.24,0.19-0.37l0,0
		c0.25-0.52,0.49-1.02,0.69-1.52c0.2-0.5,0.44-1.06,0.63-1.57C499.72,338.01,499.5,326.63,498.61,314.58z M460.03,325.33
		c0.27-0.86,1.15-1.37,2.04-1.19l3.33,0.67c2.35,0.48,2.51,1.12,2.04,1.68c-0.52,0.45-1.11,0.81-1.76,1.04l-2.64-0.16
		c-0.54-0.03-1.06-0.19-1.53-0.46l-1.07-0.61c-0.08-0.04-0.15-0.11-0.2-0.19c-0.15-0.14-0.23-0.34-0.22-0.54
		c0.01-0.09,0.03-0.17,0.07-0.25H460.03z"/>
	<path class="st57" d="M477.81,789.2l-1.03,0.61l-25.98,36.26l-58.48-24.54c-7.46-3.13-18.15-9.77-28.98-17.02l-0.08-0.07
		c-15.52-10.39-31.36-22.07-38.58-26.63c-2.31-1.47-3.75-2.18-3.97-1.92c-0.2-0.7-0.27-1.44-0.2-2.17l0.12-1.23l0.4-3.89h152.15
		l0.56,4.71l2.04,17.49c0.36,3.04,1.04,11.34,1.73,14.33C477.79,786.48,477.89,787.85,477.81,789.2z"/>
	
		<linearGradient id="SVGID_1_" gradientUnits="userSpaceOnUse" x1="-929.4008" y1="-546.9798" x2="-776.2633" y2="-546.9798" gradientTransform="matrix(1 0 0 -1 1250 204)">
		<stop  offset="0.01" style="stop-color:#F7931E"/>
		<stop  offset="0.67" style="stop-color:#F2F2F2"/>
		<stop  offset="0.91" style="stop-color:#F7931E"/>
	</linearGradient>
	<polygon class="st0" points="473.74,753.33 326.18,752.54 320.6,752.5 321,748.63 473.18,748.63 	"/>
	<path class="st53" d="M222.8,959.87c-12.24,0.75-24.51,0.75-36.74,0H222.8z"/>
	<path class="st53" d="M250.91,751.67c-0.34,0.37-7.23,7.64-22.58,4.46c-15.75-3.28-15.18-16.26-12.55-8.32
		c1.32,3.97,8.62,7.1,13.64,7.68c5.23,0.72,10.56,0.27,15.6-1.32L250.91,751.67z"/>
	<path class="st53" d="M538.49,539.67l-30.67-59.49l20.4,21.15C532.37,513.9,535.8,526.7,538.49,539.67z"/>
	<path class="st53" d="M531.95,601.49l-0.97,2.74l0,0l0,0l-7.68,10.51l-18.36,13.97l-59.03-6.77c0,0,35.22,2.46,56.19-3.5
		c0.5-0.13,0.98-0.28,1.47-0.45c9.86-3.19,20.06-10.18,25.94-14.64l1.32-1.04C531.23,602.05,531.66,601.77,531.95,601.49z"/>
	<path class="st53" d="M412.41,620.7c-8.57-0.59-17.18-0.32-25.7,0.82c-10.15,1.41-21.05,4.51-28.08,10.99
		c-16.42,15.08-20.03,26.81-28.89,47.6l-8.86,20.7v-0.12c0-3.48,0-7.18-0.09-11.09v-0.26c-0.05-5.18-0.11-10.77-0.17-16.75
		c-0.49-49.16-4.32-54.44-5.14-55.08c-0.05-0.04-0.11-0.07-0.17-0.08l-0.58,2.08l-6.61,23.65l-0.36,1.32
		c-0.02,0.08-0.04,0.15-0.08,0.22c-0.26,0.97-0.56,1.9-0.82,2.83l-0.32,1.02c-3.8,12.35-8.8,24.31-14.91,35.7l-10.5,28.81v0.09
		l-5.95,16.25l-0.54,1.52c0,0-0.09,1.22-0.28,3.44c0,0,0,0.07,0,0.11c0,0.34,0,0.7-0.09,1.06c-0.94,11.58-3.75,43.35-8.46,76.26
		c-0.4,2.64-0.78,5.39-1.2,8.09c-0.01,0.13-0.01,0.26,0,0.38c-2.23,14.7-4.85,29.34-7.85,42.13c-0.09,0.4-0.17,0.78-0.28,1.16
		c-0.33,1.44-0.69,2.87-1.03,4.3c0,0,0,0.09,0,0.13c-1.18-16.9-1.02-33.87,0.46-50.74c0.13-1.68,0.26-3.4,0.42-5.13
		c0.89-9.9,2.23-20.85,4.2-32.63c8.86-53.11,0.42-38.46,0-37.72l28.35-76.13H276.9l39.25-54.42l7.48-54.38v-0.07l6.08-44.18
		c-0.17,2.53-2.31,38.05,5.91,58.91c8.54,21.64,21.66,25.6,28.87,30.84c3.53,2.56,15.11,7.03,25.99,10.91
		C401.82,617.29,412.41,620.7,412.41,620.7z"/>
	<path class="st59" d="M412.41,620.7c-8.57-0.59-17.18-0.32-25.7,0.82c-10.15,1.41-21.05,4.51-28.08,10.99
		c-16.42,15.08-20.03,26.81-28.89,47.6l-8.86,20.7v-0.12l-0.26-3.82l0,0l-5.29-78.78v-0.53l0.56-3.97l0.3-2.19l7.48-54.38v-0.07
		l6.08-44.18c-0.17,2.53-2.31,38.05,5.91,58.91c8.54,21.64,21.66,25.6,28.87,30.84c3.53,2.56,15.11,7.03,25.99,10.91
		C401.82,617.29,412.41,620.7,412.41,620.7z"/>
	<path class="st59" d="M317.82,608.88c0,0-0.94,3.45-2.35,8.61l-0.15,0.45l-0.94,3.4c-1.89,6.82-4.34,15.43-6.61,23.07
		c-0.02,0.08-0.04,0.15-0.08,0.22c-0.26,0.97-0.56,1.9-0.82,2.83l-0.32,1.02c0,0.22-0.13,0.45-0.19,0.66
		c-6.8,22.48-18.68,49.45-25.28,63.95v0.09c-2.55,5.63-4.31,9.39-4.63,10.23c-0.57,1.96-1.01,3.95-1.32,5.96
		c-0.24,1.44-0.52,3.09-0.82,4.96c0,0,0,0.07,0,0.11c0,0.34,0,0.7-0.09,1.06c-1.68,18.91-4.64,47.99-8.46,76.26
		c-0.38,2.72-0.78,5.42-1.2,8.09c-0.01,0.13-0.01,0.26,0,0.38c-2.97,18.43-6.99,34.69-8.13,43.3c-0.54,4.19-0.86,6.61-0.86,6.61
		s0-0.21,0-0.32c0-0.33-0.11-0.95-0.17-1.84c-1.18-16.9-1.02-33.87,0.46-50.74c0.13-1.68,0.26-3.4,0.42-5.13
		c0.89-9.9,2.23-20.85,4.2-32.63c8.86-53.11,0.42-38.46,0-37.72l28.35-76.13h-11.96l39.28-54.43l0.15-0.2L317.82,608.88z"/>
	<path class="st59" d="M250.91,751.67c-0.34,0.37-7.23,7.64-22.58,4.46c-15.75-3.28-15.18-16.26-12.55-8.32
		c1.32,3.97,8.62,7.1,13.64,7.68c5.23,0.72,10.56,0.27,15.6-1.32L250.91,751.67z"/>
	<path class="st59" d="M531.95,601.48L531.95,601.48l-0.97,2.74l0,0l0,0l-4.93,6.74c-1.82,2.5-3.99,4.73-6.45,6.61l-14.66,11.15
		l-59.03-6.77c0,0,35.22,2.46,56.19-3.5c0.5-0.13,0.98-0.28,1.47-0.45c11.21-3.53,20.82-10.58,25.94-14.64l1.32-1.04L531.95,601.48z
		"/>
	<polygon class="st57" points="320.6,696.8 320.86,700.62 314.39,621.35 314.39,621.31 314.72,619.5 315.85,613.4 316.3,611.01 
		320.45,588.55 323.64,556.83 320.77,689.26 320.77,689.53 320.6,696.75 	"/>
	<path class="st53" d="M255.8,817.23c-1.49,16.89-1.64,33.87-0.46,50.78c0.07,0.89,0.13,1.51,0.17,1.84c0-0.56-0.09-1.22-0.15-1.97
		C254.3,851.01,254.45,834.08,255.8,817.23z"/>
	<path class="st53" d="M765.32,297.37c-9.68,6.18-19.03,12.87-28.02,20.03c0,0,2.99,0-3.33,3.89l-46.27,53.84
		c0,0-9.59,17.93-17.45,20.56c-7.63,2.54-107.71,24.14-113.7,25.44h-0.12l0,0l0,0c-1.32,0.42-1.96,0.69-2.1,0.73l0,0l-71.95-9.04
		l-10.83-1.32c-0.56,0.73-1.11,1.55-1.71,2.46l-1.32,2.14c-1.02,1.7-2.2,3.31-3.5,4.8c-0.12,0.14-0.24,0.27-0.37,0.4
		c-0.3,0.3-0.62,0.58-0.91,0.82c-0.16,0.12-0.32,0.23-0.49,0.33c-0.15,0.11-0.31,0.2-0.48,0.28c-3.28,1.63-70.44-5.46-74.71-7.22
		s-9.25-9.6-9.52-10.03c-27.1,10.13-115.31,44.46-125.29,65.28c-11.81,24.62-43.29,128.24-44.61,172.89
		c-0.52,17.54-0.93,36.73-1.48,54.42c-0.7,22.26-1.61,42.17-3.23,53.48c-0.28,2.11-0.67,4.19-1.19,6.25
		c-2.27,8.36-10.5,30.7-18.28,52.88l0,0c-5.94,16.21-11.37,32.23-14.13,42.81c-6.61,25.12-11.81,91.62-11.81,91.62
		c6.65,8.63,16.67,14.01,27.54,14.78h36.74c0,0,19.83-37.34,32.73-89.74c0-0.11,0-0.21,0-0.32c0-0.33-0.11-0.95-0.17-1.84
		c-1.18-16.9-1.02-33.87,0.46-50.74c0.13-1.68,0.26-3.4,0.42-5.13c0.89-9.9,2.23-20.85,4.2-32.63c8.86-53.11,0.42-38.46,0-37.72
		l28.35-76.13h-11.96l39.32-54.42l7.48-54.38v-0.07l6.08-44.18c-0.17,2.53-2.31,38.05,5.91,58.91c8.54,21.64,21.66,25.6,28.87,30.84
		c3.53,2.56,15.11,7.03,25.99,10.91c11.32,4.05,21.91,7.46,21.91,7.46c-8.57-0.59-17.18-0.32-25.7,0.82
		c-10.15,1.41-21.05,4.51-28.08,10.99c-16.42,15.08-20.03,26.81-28.89,47.6l-8.86,20.7c0.25,34.23,0.12,47.89,0.12,47.89h152.19
		c0,0,12.03-45.81,29.09-80.04c9.4-18.84,20.52-41.7,28.41-63.46l0.29-0.85l-7.68,10.51l-18.35,13.86l-59.03-6.77
		c0,0,35.22,2.46,56.19-3.5c0.5-0.13,0.98-0.28,1.47-0.45c9.86-3.19,20.06-10.18,25.94-14.64l1.32-1.04c0.38-0.3,0.77-0.58,1.1-0.86
		l0,0l0.17-0.5c5.61-16.26,9.19-31.73,8.63-44.21c-0.32-5.75-1.08-11.46-2.26-17.09l-30.67-59.49l20.4,21.15l15.36,16l70.51-30.41
		h-24.59l93.18-29.52l34.74-23.47l52.8-40.31c20.58-27.05,40.42-56.31,40.42-56.31L765.32,297.37z M228.33,756.14
		c-15.75-3.28-15.18-16.26-12.55-8.32c1.32,3.97,8.62,7.1,13.64,7.68c5.23,0.72,10.56,0.27,15.6-1.32l5.88-2.53
		c-0.34,0.33-7.23,7.6-22.58,4.42L228.33,756.14z M672.09,400.08l7.13-8.03l6.15,26.86L672.09,400.08z"/>
	<path class="st53" d="M471.33,411.52c-0.56,0.73-1.11,1.55-1.71,2.46l-1.32,2.14l-3.04-5.35L471.33,411.52z"/>
	<polygon class="st53" points="685.36,418.92 672.09,400.08 679.22,392.06 	"/>
	<path class="st53" d="M733.94,321.29l-46.27,53.84c0,0-9.59,17.93-17.45,20.56c-7.63,2.54-107.71,24.14-113.7,25.44l0.19-0.07
		l0.22-0.07l0.57-0.19c6.28-2.13,22.13-7.28,52.43-15.94c5.57-1.6,10.67-2.96,15.31-4.15c21.27-5.45,33.41-7.32,41.5-10.81
		c3.04-1.24,5.81-3.06,8.14-5.37c3.65-3.84,7.03-7.92,10.11-12.23l0.38-0.52l0.37-0.49l0.34-0.46c0.22-0.32,0.41-0.59,0.58-0.79
		s0.42-0.57,0.77-1.02l0.73-0.94l0.5-0.66l0.54-0.69c3.38-4.5,7.5-9.66,12.86-15.77l0,0c3.12-3.56,6.7-7.44,10.83-11.67
		c5.29-5.47,11.03-10.68,16.59-15.42c2.64-2.26,5.29-4.4,7.85-6.44C737.31,317.4,740.3,317.4,733.94,321.29z"/>
	<path class="st53" d="M770.24,393.57c-0.06,0.06-0.11,0.13-0.15,0.2l-0.32,0.4c-12.08,15.87-24.33,30.92-32.87,38.67l0,0
		c-0.1,0.11-0.21,0.22-0.33,0.32c-0.33,0.3-0.59,0.53-0.81,0.69l0,0c-0.03,0.04-0.07,0.07-0.12,0.09c-1.35,1.22-2.82,2.3-4.38,3.24
		c-14.38,8.26-116.94,62.47-166.32,88.5l-1.6,0.85c-0.82,0.42-1.59,0.82-2.27,1.2l-0.17,0.09c-0.87,0.45-1.61,0.86-2.26,1.2
		l-2.16,1.14l-0.25,0.13l0,0l-7.27,3.85l-1.98,1.04l-8.42,4.43l-30.67-59.49l20.4,21.15l15.26,16.04l70.51-30.41h-24.59l93.18-29.52
		l34.74-23.47L770.24,393.57z"/>
	<polygon class="st57" points="556.17,530.35 548.9,534.2 546.91,535.24 538.49,539.67 507.82,480.19 528.22,501.36 543.6,517.3 	
		"/>
	<path class="st57" d="M378.3,405.48l0.63-0.22c-0.22,0.07-0.43,0.15-0.63,0.24V405.48z"/>
	<polygon class="st57" points="685.36,418.92 672.09,400.08 679.22,392.06 	"/>
	<path class="st57" d="M554.13,421.91c-2.08,9.36-1.32,18.13,7.23,23.93l0,0c-8.57-3.97-12.35-15.94-7.22-23.96L554.13,421.91z"/>
	<path class="st57" d="M687.66,422.9c7.44,6.06,15.64,9.25,24.64,4.24l0,0c-7.38,5.88-19.83,3.97-24.66-4.26L687.66,422.9z"/>
	<path class="st57" d="M770.28,393.54l-0.19,0.22l-0.32,0.4c-3.74,4.59-26.36,32.34-32.87,38.67l0,0c-0.1,0.11-0.21,0.22-0.33,0.32
		c-0.33,0.3-0.59,0.53-0.81,0.69l0,0c-0.03,0.04-0.07,0.07-0.12,0.09c-6.16,4.07-135.51,72.98-170.69,91.74l-1.6,0.85
		c-0.82,0.42-1.59,0.82-2.27,1.2l-0.17,0.09c-0.87,0.45-1.61,0.86-2.26,1.2l-2.16,1.14l-0.25,0.13l0,0l-12.69-12.98l70.51-30.41
		h-24.59l93.18-29.52l34.74-23.47l52.8-40.31L770.28,393.54z"/>
	
		<linearGradient id="SVGID_00000152960826902832865140000001721286214328081316_" gradientUnits="userSpaceOnUse" x1="-693.4874" y1="-167.2033" x2="-516.0631" y2="-167.2033" gradientTransform="matrix(1 0 0 -1 1250 204)">
		<stop  offset="0.19" style="stop-color:#F7931E"/>
		<stop  offset="0.96" style="stop-color:#FFFAF5;stop-opacity:0.2"/>
		<stop  offset="1" style="stop-color:#FFFFFF;stop-opacity:0.3"/>
	</linearGradient>
	<path style="opacity:0.57;fill:url(#SVGID_00000152960826902832865140000001721286214328081316_);enable-background:new    ;" d="
		M733.94,321.29l-46.27,53.84c0,0-9.59,17.93-17.45,20.56c-7.63,2.54-107.71,24.14-113.7,25.44l0.19-0.07l0.22-0.07l0.57-0.19
		c6.81-2.05,39.74-12.03,67.74-20.1c20.99-6.06,39.2-11.04,41.5-10.81c4.9,0.46,14.04-11.83,18.26-17.6l0.38-0.52l0.37-0.49
		l0.34-0.46c0.22-0.32,0.41-0.59,0.58-0.79s0.42-0.57,0.77-1.02l0.73-0.94l0.5-0.66l0.54-0.69c2.82-3.58,7.52-9.47,12.86-15.77l0,0
		c9.43-11.13,20.85-23.56,27.42-27.09C731.29,322.83,732.8,321.99,733.94,321.29z"/>
	
		<linearGradient id="SVGID_00000020362108879459416890000014305969373411962516_" gradientUnits="userSpaceOnUse" x1="-516.0234" y1="-115.3444" x2="-511.9911" y2="-115.3444" gradientTransform="matrix(1 0 0 -1 1250 204)">
		<stop  offset="0.19" style="stop-color:#F7931E"/>
		<stop  offset="0.96" style="stop-color:#FFFAF5;stop-opacity:0.2"/>
		<stop  offset="1" style="stop-color:#FFFFFF;stop-opacity:0.3"/>
	</linearGradient>
	<path style="opacity:0.57;fill:url(#SVGID_00000020362108879459416890000014305969373411962516_);enable-background:new    ;" d="
		M733.94,321.29l3.33-3.89C737.27,317.4,740.3,317.4,733.94,321.29z"/>
	<path class="st53" d="M383.49,360.62c0,0,6.82,16.39,6.39,25.5c-0.28,5.67-1.52,11.25-3.65,16.51l3.73,3.77l65.47,6.81l4.05-3.66
		c0,0-2.06-14.03-3.08-19.54l-1.02-5.51l-11.7,2.27l-31.28-9.93L383.49,360.62z"/>
	<path class="st53" d="M363.96,321.12c0.57,0.72,1.14,1.48,1.71,2.26C365,322.7,364.43,321.94,363.96,321.12z"/>
	<path class="st53" d="M369.82,296.43c0.43-0.14,0.88-0.25,1.32-0.34L369.82,296.43z"/>
	<path class="st53" d="M371.79,333.32c4.59,8.72,8.48,17.79,11.65,27.13C380.94,354.17,376.17,342.12,371.79,333.32z"/>
	<path class="st53" d="M414.93,299.74c-0.17-0.36-0.32-0.71-0.46-1.07c0.44-0.46,0.85-0.89,1.2-1.32c2.19-2.53,4.81-9.25,5.82-14.97
		c0.26-2.53,0.08-5.09-0.54-7.56l40.64,4.5l2.79-0.7l2.08-0.53h0.26l1.59-0.41l28.98-7.25c-0.11,0.82-0.21,1.63-0.32,2.42
		c-0.48,4.19-0.63,8.42-0.44,12.64c0.08,2.64,0.22,5.35,0.42,8.16l0,0c0.38,5.66,0.94,11.57,1.4,17.41
		c-11.82,4.96-23.14,5.86-25.9,1.1c-3.97-6.82-7.71-7.93-8.54-8.03c-0.06-0.01-0.12-0.01-0.19,0c0,0,0,0.26-0.11,0.71
		c-0.45,2.3-2.26,9.57-8.05,10.48C448.71,316.3,422.16,315.66,414.93,299.74z"/>
	<path class="st53" d="M498.61,314.58c-11.9,5.08-23.36,6.03-26.16,1.22c-1.4-2.64-3.37-4.94-5.76-6.73l9.25,16.51l-2.83,1.96
		l-3.86,2.64l2.76-4.93l-6.97-17.19c-0.42-0.19-0.87-0.31-1.32-0.37c0,0-1.32,10.11-8.16,11.2c-6.84,1.08-33.4,0.45-40.65-15.42
		c-0.52-1.16-1-2.41-1.45-3.7c-2.98,2.98-4.82,6.91-5.21,11.11c-0.87,7.85-3.41,20.11-2.8,33.22c0.58,12.55,3.41,29.88,3.66,31.39
		c15.69,5.76,35.01,10.95,42.78,10.17c1.34-0.15,2.67-0.41,3.97-0.77l0.28-0.09c3.58-1.05,7-2.57,10.18-4.51l0.13-0.09
		c2.45-1.48,4.8-3.11,7.03-4.9c0,0,0.08,0,0.12-0.09c8.65-6.77,15.84-15.22,21.15-24.84c0.06-0.08,0.1-0.16,0.15-0.25
		c0.26-0.53,0.52-1.04,0.75-1.57l0,0c0.25-0.52,0.49-1.02,0.69-1.52c0.2-0.5,0.44-1.06,0.63-1.57
		C499.72,338.01,499.5,326.63,498.61,314.58z M460.03,325.33c0.27-0.86,1.15-1.37,2.04-1.19l3.33,0.67
		c2.35,0.48,2.51,1.12,2.04,1.68c-0.52,0.45-1.11,0.81-1.76,1.04l-2.64-0.16c-0.54-0.03-1.06-0.19-1.53-0.46l-1.07-0.61
		c-0.08-0.04-0.15-0.11-0.2-0.19c-0.15-0.14-0.23-0.34-0.22-0.54c0.01-0.09,0.03-0.17,0.07-0.25H460.03z"/>
	<path class="st57" d="M366.93,298.4c0.68-0.96,1.68-1.65,2.82-1.94c-0.64,0.21-1.24,0.52-1.78,0.91
		C367.57,297.67,367.22,298.02,366.93,298.4z"/>
	<path class="st57" d="M365.79,323.51c1.64,1.63,3.74,5.29,5.98,9.77c-1.81-3.43-3.85-6.74-6.09-9.9L365.79,323.51z"/>
	<path class="st57" d="M371.26,296.06c1.89-0.41,3.82-0.61,5.75-0.59C375.09,295.57,373.17,295.76,371.26,296.06z"/>
	<path class="st57" d="M385,293.79c-2.55,0.94-5.22,1.51-7.93,1.68L385,293.79z"/>
	<path class="st57" d="M385.05,293.76c3.58-1.69,10.97-13.46,19.5-27.05C396.06,280.37,388.73,292.27,385.05,293.76z"/>
	<path class="st57" d="M409.1,375.45c0,0.04,0,0.07,0,0.11l-8.33,22.74L394,414.65l-7.77-12.02c0,0,4.93-15.16,3.23-22.48
		c-1.6-6.86-5.38-17.95-5.84-19.32c0.94,2.41,1.49,3.89,1.49,3.89S395.85,370.06,409.1,375.45z"/>
	<path class="st57" d="M425.89,234.89c-3.97,4.96-8.13,11.04-12.26,17.37C417.36,246.23,421.45,240.42,425.89,234.89z"/>
	<path class="st57" d="M405.44,344.07c0.58,12.55,3.41,29.88,3.66,31.39c-13.22-5.39-24.06-10.81-24.06-10.81s-0.56-1.48-1.49-3.89
		v-0.13c-0.02-0.06-0.04-0.12-0.07-0.17c-3.16-9.34-7.06-18.41-11.65-27.13l0,0c-2.23-4.5-4.34-8.14-5.98-9.77l-0.12-0.13
		c-0.57-0.78-1.14-1.54-1.71-2.26c-3.25-5.87,0.3-13.43,1.82-20.12c0-0.22,0.12-0.45,0.19-0.67c0.07-0.22,0.16-0.46,0.25-0.67
		c0.19-0.44,0.43-0.85,0.7-1.24c0.3-0.39,0.65-0.73,1.03-1.03c0.55-0.39,1.15-0.7,1.78-0.91h0.08l1.32-0.34h0.13
		c1.91-0.3,3.83-0.5,5.75-0.59l0,0c2.71-0.17,5.38-0.73,7.93-1.68l0,0c3.68-1.49,11.01-13.39,19.5-27.05
		c0.56-0.91,1.14-1.82,1.72-2.75c0.29-0.48,0.59-0.95,0.9-1.43c0.11-0.17,0.21-0.34,0.33-0.52c0.38,8.42,1.71,25.66,5.95,37.72
		c-2.98,2.98-4.82,6.91-5.21,11.11C407.38,318.7,404.83,330.95,405.44,344.07z"/>
	<path class="st57" d="M498.1,261.91c-0.08,1.32-0.19,2.53-0.29,3.77c-0.15,1.6-0.33,3.16-0.5,4.68l-29.01,7.28l-1.59,0.41h-0.26
		l-2.08,0.53l-2.79,0.7l-40.64-4.5c0.62,2.47,0.8,5.03,0.54,7.56c-1,5.7-3.62,12.44-5.82,14.97c-0.36,0.41-0.77,0.83-1.2,1.32
		c-4.51-10.71-6.16-27.08-6.77-37.02c0.53-0.88,1.08-1.76,1.67-2.64c0.57-0.93,1.16-1.86,1.76-2.79l1.45-2.27
		c0.4-0.59,0.77-1.18,1.11-1.72c4.12-6.33,8.29-12.41,12.26-17.37l0.22-0.28l0.2-0.25c4.92-6.07,9.52-10.4,13.38-11.44
		c16.22-4.38,28.39-11.37,44.33-3.5C497.15,225.89,499.23,244.74,498.1,261.91z"/>
	<path class="st57" d="M461.85,300.32l2.09,3.75c-0.06-0.01-0.12-0.01-0.19,0c0,0,0,0.26-0.11,0.71L461.85,300.32z"/>
	<polygon class="st55" points="425.94,283.17 452.12,283.17 447.29,293.11 428.44,291.67 	"/>
	<path class="st57" d="M471.34,411.51L471.34,411.51c-0.56,0.73-1.11,1.55-1.71,2.46l-1.32,2.14c-1.02,1.7-2.2,3.31-3.5,4.8
		c-0.12,0.14-0.24,0.27-0.37,0.4c-0.3,0.3-0.62,0.58-0.91,0.82c-0.16,0.12-0.32,0.23-0.49,0.33c-0.15,0.11-0.31,0.2-0.48,0.28
		c-3.28,1.63-70.44-5.46-74.71-7.22s-9.25-9.6-9.52-10.03c0.21-0.09,0.42-0.17,0.63-0.24l1.32-0.52l0.86-0.33l5.08-1.76
		c0.13,0.29,0.31,0.56,0.52,0.81l0,0c0.3,0.33,0.67,0.61,1.07,0.81c1.85,0.68,3.81,1.03,5.78,1.04l0,0l4.19,0.41l3.04,0.32
		l53.9,5.43c2.22,0.28,4.24-1.3,4.52-3.51c0-0.01,0-0.03,0.01-0.04L471.34,411.51z"/>
	<path class="st57" d="M401.63,396.03c0,0,2.19-5.8,12.06-8.33c7.34-1.88,22.87-0.95,30.32-0.36c2.8,0.22,5.62-0.16,8.26-1.11
		l3.19-1.32l-3.69,0.41c-4.6,0.66-7.42-0.4-11.9-1.59l-30.77-8.22L401.63,396.03z"/>
	<path class="st57" d="M467.47,326.5c-0.52,0.45-1.11,0.81-1.76,1.04l-2.64-0.16c-0.54-0.03-1.06-0.19-1.53-0.46l-1.07-0.61
		c-0.08-0.04-0.15-0.11-0.2-0.19c-0.15-0.14-0.23-0.34-0.22-0.54c-0.01-0.08-0.01-0.17,0-0.25c0.27-0.86,1.15-1.37,2.04-1.19
		l3.33,0.67C467.79,325.29,467.95,325.95,467.47,326.5z"/>
	<path class="st62" d="M466.97,326.95c-0.42,0.25-0.86,0.45-1.32,0.59l-2.64-0.16c-0.46-0.03-0.9-0.14-1.32-0.33l-1.02-0.59
		c-0.16-0.07-0.3-0.16-0.44-0.26c0.63-0.35,1.35-0.48,2.06-0.37l2.84,0.49C465.78,326.4,466.4,326.61,466.97,326.95z"/>
	<path class="st63" d="M519.02,301.21c-0.46,0.46-0.93,0.91-1.4,1.32c0-1.11-0.15-2.3-0.2-3.5c0.56-0.52,1.08-1.02,1.61-1.55
		c6.61-6.61,8.67-15.73,8.94-24.01C528.22,282.63,526.58,293.63,519.02,301.21z"/>
	<path class="st55" d="M496.99,345.39c-0.47,1.65-1.17,3.23-2.08,4.68c-0.04,0.09-0.09,0.17-0.15,0.25
		c-0.08,0.15-0.17,0.28-0.26,0.44c-0.09,0.16,0,0,0,0c-0.02,0.06-0.05,0.12-0.09,0.17c-3.8,5.68-8.07,11.03-12.76,16.01l-0.11,0.11
		c-3.49,3.81-6.61,6.89-7.93,8.12c0,0,0,0.08-0.12,0.09c-2.14,1.91-4.5,3.55-7.03,4.9l-0.13,0.09c-3.27,1.77-6.67,3.28-10.18,4.51
		l-0.28,0.09c0,0,0-0.21,0.13-0.61l0,0c0.97-4.77,7.44-35.52,11.63-39.39c4.57-4.16,5.42-17.29,5.42-17.29l2.83-1.96l-9.25-16.51
		l4.32,0.75l20.68,3.57l6.93,1.19C498.57,314.61,498.74,337.51,496.99,345.39z"/>
	<path class="st64" d="M517.62,302.54c-5.61,5.07-12.04,9.14-19.01,12.04c-11.9,5.08-23.36,6.03-26.16,1.22
		c-1.4-2.64-3.37-4.94-5.76-6.73c-0.53-0.38-1.1-0.69-1.69-0.95c-0.42-0.19-0.87-0.31-1.32-0.37c0,0-1.32,10.11-8.16,11.2
		c-6.84,1.08-33.34,0.4-40.6-15.47c-0.52-1.16-1-2.41-1.45-3.7c-4.24-12.06-5.57-29.3-5.95-37.72l0,0c0.06-0.11,0.12-0.21,0.2-0.3
		c0.61,9.89,2.26,26.26,6.77,37.02c0.15,0.36,0.29,0.71,0.46,1.07c7.23,15.87,33.78,16.57,40.67,15.49
		c5.79-0.91,7.6-8.18,8.05-10.48c0.08-0.45,0.11-0.71,0.11-0.71c0.06-0.01,0.12-0.01,0.19,0c0.73,0.13,3.72,0.95,7.1,5.75
		c0.48,0.67,0.95,1.43,1.44,2.27c2.25,3.85,10.07,3.97,19.24,1.32c2.24-0.68,4.45-1.48,6.61-2.39c6.98-2.88,13.42-6.93,19.04-11.96
		C517.47,300.24,517.55,301.43,517.62,302.54z"/>
	<path class="st65" d="M527.97,273.48c-0.26,8.28-2.38,17.45-8.94,24.01c-0.53,0.53-1.06,1.03-1.61,1.55
		c-5.62,5.04-12.06,9.08-19.04,11.96c-11.82,4.96-23.14,5.86-25.9,1.1c-3.97-6.82-7.71-7.93-8.54-8.03c-0.06-0.01-0.12-0.01-0.19,0
		c0,0,0,0.26-0.11,0.71c-0.45,2.3-2.26,9.57-8.05,10.48c-6.89,1.07-33.44,0.42-40.67-15.49c-0.17-0.36-0.32-0.71-0.46-1.07
		c-4.51-10.71-6.16-27.08-6.77-37.02c-0.08,0.1-0.14,0.2-0.2,0.3c-0.15-3.11-0.17-5.01-0.17-5.01c0.02,0.13,0.07,0.26,0.15,0.37
		c0.46,0.72,1.12,1.31,1.89,1.68c2.79,1.69,9.43,4.14,25.2,6.25c18.17,2.43,26.44,9.14,29.81,13.34c0.93,1.07,1.69,2.27,2.25,3.57
		c0.33-1.6,0.89-3.13,1.68-4.56c2.34-4.44,7.79-10.58,20.04-11.03c3.17-0.11,6.33-0.43,9.47-0.94c6.17-1.02,12.24-2.6,18.13-4.72
		c3.28-1.14,6.49-2.47,9.62-3.97C527.01,262.37,527.82,267.91,527.97,273.48z"/>
	<path class="st66" d="M429.62,290.62c-0.45-0.52-0.38-1.31,0.14-1.75c0.1-0.09,0.21-0.15,0.34-0.2c2.91-1.19,9.32-3.38,14.37-1.92
		s9.56,5.43,11.57,7.39c0.63,0.6,0.66,1.61,0.07,2.25c-1.51,1.67-4.24,4.48-4.87,4.55c-2.13,0.2-10.91,1.75-14.83-2.64
		C433.73,295.35,431.06,292.28,429.62,290.62z"/>
	<path class="st67" d="M499.93,290.26c0.93-1.13,0.76-2.8-0.37-3.72c-0.21-0.18-0.46-0.32-0.71-0.42
		c-3.29-1.16-8.34-2.42-12.49-1.22c-3.64,1.25-6.99,3.23-9.85,5.82c-1.63,1.41-0.63,3.34-0.25,5.47c0.32,1.72,2.54,2.56,2.96,2.72
		c1.04,0.42,11.29,1.92,15.22-2.45C496.4,294.22,498.41,291.98,499.93,290.26z"/>
	<polyline class="st65" points="407.7,280.24 367.96,297.37 410.86,291.16 408.68,278.47 	"/>
	<polygon class="st68" points="411.23,291.94 366.93,298.4 367.96,297.37 410.86,291.16 	"/>
	<path class="st64" d="M966.02,221.88c0,0.19,0,0.36,0,0.54c-0.16,1.88-0.37,3.74-0.54,5.22c-0.22,1.9-1.37,3.57-3.08,4.44
		c-9.92,5.05-44.12,22.29-58.62,26.32c-17.07,4.75-34.78,3.97-42.65,8.3s0.66-12.41-20.33,28.76
		c-12.71,24.89-21.07,34.98-25.73,39.05c-2.17,1.92-5.42,1.92-7.59,0l-42.15-37.16l0,0l36.21,31.92l3.09,2.72
		c0,0,1.4-0.11,4.36-2.64c1.77-1.59,3.42-3.31,4.92-5.16c0.22-0.25,0.44-0.53,0.66-0.79c1.08-1.32,2.29-2.94,3.57-4.76
		c0.26-0.35,0.53-0.72,0.79-1.11c2.76-3.97,5.92-9.02,9.53-15.46c0.53-0.95,1.08-1.94,1.64-2.96c1.49-2.73,3.06-5.71,4.71-8.92
		c20.99-41.16,12.47-24.42,20.33-28.74c7.87-4.32,25.58-3.56,42.65-8.32c13.22-3.68,45.81-17.73,59.76-23.8
		c2.04-0.88,3.71-2.44,4.73-4.42l0,0c0.91-1.73,1.27-3.69,1.03-5.63v-0.12l0.33-0.34l1.44,0.16
		C965.66,219.85,965.98,220.85,966.02,221.88z"/>
	<path class="st64" d="M809.06,329.31c-2.96,2.56-4.36,2.64-4.36,2.64l-3.09-2.72C803.73,331.08,806.89,331.11,809.06,329.31z"/>
	<path class="st65" d="M952.7,217.54c-8.26,7.93-26.34,15.16-38.45,17.41c-13.78,2.55-33.46,0.71-48.55-7.62
		c-4.8-2.64-5.2-9.1-7.93-12c-5.37-5.83-7.15-8.49-7.36-9.16h0.57h0.13L952.7,217.54z"/>
	<path class="st65" d="M963.4,219.17c0.24,1.94-0.12,3.9-1.03,5.63l0,0c-1.17,1.86-2.8,3.38-4.73,4.42
		c-13.95,6.13-46.54,20.19-59.76,23.8c-17.07,4.76-34.77,3.97-42.65,8.32c-7.88,4.35,0.66-12.41-20.33,28.74
		c-1.64,3.22-3.21,6.19-4.71,8.92c-0.56,1.02-1.11,2.01-1.64,2.96c-3.61,6.44-6.77,11.49-9.53,15.46c-0.28,0.38-0.53,0.75-0.79,1.11
		c-1.32,1.82-2.49,3.4-3.57,4.76c-0.22,0.26-0.44,0.54-0.66,0.79c-1.5,1.85-3.14,3.57-4.92,5.16c-2.96,2.56-4.36,2.64-4.36,2.64
		l-3.09-2.72l-36.21-31.92l4.9-1.88c0,0,73.12-40.47,77.05-53.11c2.64-8.59,1.72-21.92,0.83-29.6c-0.38-3.27,2.29-6.2,2.29-6.61l0,0
		h0.3h0.26h0.13l101.54,11.32l7.87,0.89l3.15,0.34l-0.33,0.34L963.4,219.17z"/>
	
		<linearGradient id="SVGID_00000080899039223881850210000009740441408453758384_" gradientUnits="userSpaceOnUse" x1="-845.1583" y1="-13.5415" x2="-828.4662" y2="15.3721" gradientTransform="matrix(1 0 0 -1 1250 204)">
		<stop  offset="0.81" style="stop-color:#333333"/>
		<stop  offset="0.84" style="stop-color:#3A3A3A"/>
		<stop  offset="0.88" style="stop-color:#4F4F4F"/>
		<stop  offset="0.93" style="stop-color:#717171"/>
		<stop  offset="0.98" style="stop-color:#9F9F9F"/>
		<stop  offset="1" style="stop-color:#B3B3B3"/>
	</linearGradient>
	<path style="fill:url(#SVGID_00000080899039223881850210000009740441408453758384_);" d="M463.35,216.47
		c0,0-40.27-26.44-43.99-29.09c-3.72-2.64-34.14-7.36-34.14-7.36l-23.8,12.45c0,0,75.83,33.36,78.94,32.88
		c2.55-0.37,4.56,2.64,14.19-2.55C461.02,219.29,463.35,216.47,463.35,216.47z"/>
	
		<linearGradient id="SVGID_00000062156204584141362800000007151794947666229432_" gradientUnits="userSpaceOnUse" x1="4198.687" y1="-386.439" x2="4214.8003" y2="-358.5215" gradientTransform="matrix(-1 0 0 1 4667.1899 568.99)">
		<stop  offset="0.81" style="stop-color:#333333"/>
		<stop  offset="0.84" style="stop-color:#3A3A3A"/>
		<stop  offset="0.88" style="stop-color:#4F4F4F"/>
		<stop  offset="0.93" style="stop-color:#717171"/>
		<stop  offset="0.98" style="stop-color:#9F9F9F"/>
		<stop  offset="1" style="stop-color:#B3B3B3"/>
	</linearGradient>
	<path style="fill:url(#SVGID_00000062156204584141362800000007151794947666229432_);" d="M433.82,173.84
		c-2.46,1.94-4.55-2.64-14.17,2.55c-1.64,0.9-3.01,1.75-4.15,2.51c1.07,2.16,1.1,4.69,0.11,6.89c12.06,7.81,43.22,28.03,46.27,30.14
		c3.72,2.64,27.16,3.25,27.16,3.25l20.81-12.77C509.84,206.41,436.32,171.89,433.82,173.84z"/>
	<path class="st64" d="M222.8,959.87l-41.5,75.49l-0.82,9.72l0,0l-4.47,52.55c0,0-16.62,26.24-21.87,23.63
		c-5.25-2.62,4.39-13.13,7.1-27.76c2.71-14.64,0-9.84,0-9.84l-43.32,36.73l40.61-54.39l27.54-106.11L222.8,959.87z"/>
	<path class="st65" d="M186.06,959.87l-27.54,106.11l-40.61,54.39l-37.24,5.29c0,0,9.62-20.12,29.73-43.73
		c15.2-17.85,31.41-31.73,41.06-40.55c2.49-2.18,4.84-4.51,7.06-6.97c1.44-1.72,2.21-7.6,2.53-15.6
		c1.04-25.83-2.53-73.68-2.53-73.68C165.18,953.75,175.2,959.11,186.06,959.87z"/>
	
		<linearGradient id="SVGID_00000170988094857725493040000012418788287591200665_" gradientUnits="userSpaceOnUse" x1="-541.2621" y1="-914.947" x2="-432.7481" y2="-914.947" gradientTransform="matrix(1 0 0 -1 1250 204)">
		<stop  offset="0.01" style="stop-color:#F7931E"/>
		<stop  offset="0.67" style="stop-color:#F2F2F2"/>
		<stop  offset="0.91" style="stop-color:#F7931E"/>
	</linearGradient>
	<path style="fill:url(#SVGID_00000170988094857725493040000012418788287591200665_);" d="M817.23,1117.74
		c-1.77,8.75-107.59,7.93-107.59,7.93s-0.46-2.64-0.9-6.07c0,0,56.4-2.25,68.01-2.64s36.79-4.76,36.79-4.76
		C816.05,1114.41,817.45,1116.35,817.23,1117.74z"/>
	<path class="st56" d="M813.49,1112.12c0,0-25.12,4.32-36.79,4.76c-11.67,0.44-68.01,2.64-68.01,2.64
		c-0.73-6.03-1.32-14.75,0.9-17.53c3.49-4.39,8.2-17.41,8.2-17.41l36.41-6.23l0,0c0,0,4.05,1.92,10.09,4.92
		c1.69,0.85,3.56,1.77,5.51,2.78c6.33,3.21,13.84,7.14,20.97,11.16C800.04,1102.48,808.74,1107.88,813.49,1112.12z"/>
	
		<linearGradient id="SVGID_00000158739734754998547130000003174908874713999024_" gradientUnits="userSpaceOnUse" x1="-1069.595" y1="-841.1746" x2="-1000.1457" y2="-841.1746" gradientTransform="matrix(1 0 0 -1 1250 204)">
		<stop  offset="0.01" style="stop-color:#F7931E"/>
		<stop  offset="0.67" style="stop-color:#F2F2F2"/>
		<stop  offset="0.91" style="stop-color:#F7931E"/>
	</linearGradient>
	<path style="fill:url(#SVGID_00000158739734754998547130000003174908874713999024_);" d="M249.85,1027.36l-68.13,38.62
		c-0.86-1.43-1.32-3.07-1.32-4.75c0,0,6.82-5.14,14.54-10.29c7.72-5.14,16.24-10.3,19.63-10.3c8.82,0,21.66-15.28,24.29-16.17
		C240.14,1024.02,244.76,1025,249.85,1027.36z"/>
	<path class="st56" d="M265.92,1049.49c-1.12,5.61-4.19,11.9-6.87,16.49l0,0c-2.43,4.22-4.51,7.13-4.51,7.13l-64.95-2.39
		c-3.29-0.1-6.29-1.9-7.93-4.76l68.13-38.62c5.53,2.55,11.74,6.74,15.27,12.72C266.61,1042.59,266.67,1045.91,265.92,1049.49z"/>
	<path class="st57" d="M475.92,325.58l-2.83,1.96l-3.86,2.64l2.76-4.93l-6.97-17.19c0.6,0.26,1.16,0.58,1.69,0.95L475.92,325.58z"/>
	<path class="st57" d="M449.69,347.2c0,0,7.93-3.48,11.21-2.27c1.85,0.7,3.78,1.18,5.75,1.41c1.53-0.26,3.08-0.4,4.63-0.41
		c1.75,0.08,6.07,5.46,6.07,5.46L449.69,347.2z"/>
	<path class="st55" d="M449.69,347.2c0,0,7.31,5.87,9.8,6.76c1.93,0.69,9.25,2.21,12.23,0.77c1.57-0.8,3.09-1.68,4.56-2.64l1.07-0.7
		L449.69,347.2z"/>
	<path class="st73" d="M468.62,353.72c-3.63-0.44-7.23-1.16-10.75-2.17c-0.46-0.11-0.9-0.28-1.32-0.5l-6.86-3.85
		c0,0,8.2,6.35,9.8,6.76c1.37,0.4,2.76,0.72,4.16,0.97c2.23,0.44,4.52,0.51,6.77,0.21c1.85-0.64,3.6-1.53,5.21-2.64l-5.75,1.15
		C469.46,353.72,469.04,353.75,468.62,353.72z"/>
	<path class="st74" d="M366.4,306.67c-0.77,1.95-0.98,4.08-0.59,6.15c0.06,0.65,0.29,1.27,0.65,1.81c0.93,0.88,2.19,1.32,3.46,1.2
		c1.11,0,2.47,0,2.96-1.03c0.24-0.78,0.17-1.62-0.2-2.34c-0.76-1.52-0.86-3.28-0.29-4.88c0.48-0.65,0.92-1.33,1.32-2.04
		c0.89-2.33-1.32-3.54-3.13-3.15C368.95,302.73,367,305.29,366.4,306.67z"/>
	<path class="st57" d="M268.72,1049.52c25.18-3.82,50.64-5.44,76.1-4.84c38.94,1.32,81.4,8.34,106.75,12.72
		c25.34,4.38,26.27,2.18,26.27,2.18l-121.63-53.73l31.03,27.13c0,0-40.98,0.61-58.17,1.6c-17.19,0.99-63.98,5.5-63.98,5.5l0.85,9.41
		L268.72,1049.52z"/>
	<path class="st55" d="M265.14,866.24c0,0,27.21,57.76,86.25,105c59.04,47.24,126.44,88.34,126.44,88.34l-121.63-53.73
		c0,0-46.59-44.47-50.62-54.63c-4.03-10.15-32.44-44.41-36.36-62.94C265.31,869.74,265.14,866.24,265.14,866.24z"/>
	<path class="st57" d="M683.96,827.74l-0.56,0.53l-0.54,0.5l-0.32,0.3l-0.74,0.7l-1.72,1.61c-4.51,4.3-12.64,11.9-22.57,21.01
		l-0.7,0.66c-10.78,9.89-23.56,21.44-36.11,32.31l0,0c-16.49,14.29-32.93,27.1-42.45,34.29h-0.08l-4.65,3.49l-0.53,0.37l-0.56,0.4
		c-0.19,0.16-0.38,0.29-0.57,0.42l-0.56,0.52l-23.8,17.09l-1.32,0.97l-11.07,7.93l-4.12-6.03l-6.09-8.91l152.3-104L683.96,827.74z"
		/>
	<g class="st75">
		<path d="M104.89,1103.91c-3.22,6.5-6.43,12.99-9.62,19.49"/>
		<path class="st64" d="M104.91,1103.92c-2.64,5.61-6.77,13.91-9.56,19.51l-0.19-0.09C97.97,1117.75,101.93,1109.21,104.91,1103.92
			L104.91,1103.92z"/>
	</g>
	<g class="st76">
		<path d="M115.42,1102.02c-3.22,6.5-6.43,12.99-9.62,19.49"/>
		<path class="st64" d="M115.48,1102.02l-9.53,19.46l-0.2-0.09c0.11,0,9.57-19.77,9.77-19.4L115.48,1102.02z"/>
	</g>
	<polyline class="st10" points="530.67,605.11 530.97,604.27 530.98,604.23 531.95,601.49 531.95,601.48 532.12,600.98 	"/>
	
		<linearGradient id="SVGID_00000046310331537711698850000007603748362238814375_" gradientUnits="userSpaceOnUse" x1="-479.2592" y1="-898.037" x2="-472.1874" y2="-885.7703" gradientTransform="matrix(1 0 0 -1 1250 204)">
		<stop  offset="0.03" style="stop-color:#333333"/>
		<stop  offset="0.21" style="stop-color:#353535"/>
		<stop  offset="0.3" style="stop-color:#4A4A4A"/>
		<stop  offset="0.51" style="stop-color:#808080"/>
		<stop  offset="0.68" style="stop-color:#B3B3B3"/>
	</linearGradient>
	<polygon style="fill:url(#SVGID_00000046310331537711698850000007603748362238814375_);" points="762.61,1095.89 781.31,1108.13 
		790.76,1097.23 764.29,1083.3 	"/>
	
		<linearGradient id="SVGID_00000013900349820462524660000004138286979585320577_" gradientUnits="userSpaceOnUse" x1="3887.6292" y1="-1782.3954" x2="3895.1782" y2="-1769.3198" gradientTransform="matrix(-0.9103 0.4141 0.4141 0.9103 4501.7827 1070.5485)">
		<stop  offset="0.03" style="stop-color:#333333"/>
		<stop  offset="0.21" style="stop-color:#353535"/>
		<stop  offset="0.3" style="stop-color:#4A4A4A"/>
		<stop  offset="0.51" style="stop-color:#808080"/>
		<stop  offset="0.68" style="stop-color:#B3B3B3"/>
	</linearGradient>
	<polygon style="fill:url(#SVGID_00000013900349820462524660000004138286979585320577_);" points="235.02,1060.12 212.94,1056.71 
		208.57,1071.44 238.79,1072.55 	"/>
	<path class="st56" d="M813.49,1112.12c0,0-25.12,4.32-36.79,4.76c-11.67,0.44-68.01,2.64-68.01,2.64L813.49,1112.12z"/>
	<path class="st79" d="M330.34,249.08c0,0-19.73,25.98-24.13,40.23c-4.4,14.25-15.52,46.58-17.5,56.56
		c-1.98,9.98,13.41-22.95,13.41-22.95s-16.66,57.48-18.36,63.46c-1.71,5.98-12.47,28.6-12.47,28.6l33.38-69.62
		c3.97-8.33,35.08-112.14,35.08-112.14L330.34,249.08z"/>
	<path class="st79" d="M339.74,298.4c0,0,8.91,38.63,0,62.05c-8.91,23.41-34.28,44.29-37.77,47.41
		c-3.49,3.12,23.45-18.8,31.52-59.23C341.55,308.2,339.74,298.4,339.74,298.4z"/>
	<path class="st79" d="M210.39,467.27c0,0-30.2,25.69-37.02,49.8c-6.82,24.11,1.1,55.99,2.04,60.58c0.94,4.59-7.6-29.09,10.02-66.34
		S210.39,467.27,210.39,467.27z"/>
	<path class="st79" d="M394.81,212.76c-7.97,2.61-15.17,7.16-20.97,13.22c-9.77,10.13-15.87,26.35-15.87,26.35l16.2-19.75
		L394.81,212.76z"/>
	<path class="st79" d="M204.43,547.44c-3.97,39.36-24.92,94.46-24.92,94.46l-27.12,52.47L204.43,547.44z"/>
	<path class="st79" d="M286.2,772.24c1.77-15.75,19.32-87.26,19.32-87.26s6.32,27.91-3.86,54.51
		C291.47,766.09,286.2,772.24,286.2,772.24z"/>
	<path class="st79" d="M281.86,758.46c0.63-6.85,6.94-37.9,6.94-37.9s2.29,12.12-1.39,23.68S281.86,758.46,281.86,758.46z"/>
	<path class="st79" d="M509.82,333.32c0,0-0.49,26.08-11.45,37.88L487.41,383c0,0,4.32-2.25,13.12-22.55
		S509.82,333.32,509.82,333.32z"/>
	
		<radialGradient id="SVGID_00000132061117893030120180000006366875506531000981_" cx="-798.4368" cy="-335.6761" r="51.1374" gradientTransform="matrix(1 0 0 -1 1250 204)" gradientUnits="userSpaceOnUse">
		<stop  offset="0" style="stop-color:#FFFF00"/>
		<stop  offset="1" style="stop-color:#F7931E"/>
	</radialGradient>
	
		<linearGradient id="SVGID_00000157996856289379345280000004623075905028456109_" gradientUnits="userSpaceOnUse" x1="-852.3958" y1="-335.6761" x2="-744.4779" y2="-335.6761" gradientTransform="matrix(1 0 0 -1 1250 204)">
		<stop  offset="0.01" style="stop-color:#F7931E"/>
		<stop  offset="0.67" style="stop-color:#F2F2F2"/>
		<stop  offset="0.91" style="stop-color:#F7931E"/>
	</linearGradient>
	
		<path style="opacity:0.7;fill:url(#SVGID_00000132061117893030120180000006366875506531000981_);stroke:url(#SVGID_00000157996856289379345280000004623075905028456109_);stroke-width:0.5;stroke-miterlimit:10;enable-background:new    ;" d="
		M446.7,492.33c-11.33-7.1-27.14,22.74-43.87,33.24c-16.72,10.5,13.22,54.21,23.23,60.35c10.01,6.15,74.04-0.87,78.89-18.34
		c4.85-17.46-46.92-68.15-46.92-68.15L446.7,492.33z"/>
	<line class="st10" x1="966.17" y1="220.49" x2="965.16" y2="218.87"/>
	
		<linearGradient id="SVGID_00000150797829913339156840000005274006419301983120_" gradientUnits="userSpaceOnUse" x1="4162.8726" y1="-424.8349" x2="4166.1235" y2="-424.8349" gradientTransform="matrix(-0.99 -0.11 0.11 -0.99 4647.6899 390.28)">
		<stop  offset="0.03" style="stop-color:#FBB03B"/>
		<stop  offset="0.09" style="stop-color:#F6A937"/>
		<stop  offset="0.18" style="stop-color:#E8942E"/>
		<stop  offset="0.29" style="stop-color:#D2731E"/>
		<stop  offset="0.36" style="stop-color:#C25A12"/>
	</linearGradient>
	<polygon style="fill:url(#SVGID_00000150797829913339156840000005274006419301983120_);" points="473.78,353.6 476.87,351.33 
		477.28,351.39 475.97,352.2 	"/>
	<path class="st82" d="M937.54,196.02c0.65,0.77,1.26,1.45,1.82,2.17c2.09,2.23,2.67,5.49,1.48,8.3c-0.87,2.09-0.73,4.46,0.38,6.43
		c0.66,1.24,1.1,2.58,1.32,3.97c0.25,1.34-0.63,2.63-1.97,2.89c-0.09,0.02-0.17,0.03-0.26,0.03c-1.53,0.26-1.97-0.87-2.29-2.1
		c-0.41-1.77-1.71-3.2-3.44-3.75c1.14,2.69,0.72,5.79-1.08,8.09c0-3.64-2.18-4.93-4.64-6.03c-1.85-0.53-2.92-2.47-2.39-4.32
		c0.01-0.04,0.02-0.08,0.04-0.12c-3.82,1.32-4.51,3.45-2.23,6.61c1.4,1.93,1.32,3.97-0.16,5.29c-1.66,1.24-4,1-5.37-0.57
		c-2.13-2.16-2.17-4.68-1.15-7.38c1.73-4.55,0.34-8.28-4.27-11.01c1.07,2.92-0.41,4.87-1.93,6.84c-3.05,3.97-3.07,5.1-0.24,9.25
		c1.14,1.33,1.69,3.07,1.53,4.81c-0.13,1.42-1.23,2.55-2.64,2.72c-1.29,0.22-2.53-0.58-2.88-1.84c-0.94-2.29-2.09-4.34-4.8-5.12
		c0.13,0.88,0.21,1.76,0.22,2.64c-0.09,0.74-0.23,1.48-0.42,2.21c-2.09-1.75-4.06-3.34-5.99-5.01c-1.93-1.67-2.37-3.24-1.32-6.15
		c-1.45,0.14-2.52,1.43-2.38,2.88c0,0.04,0.01,0.08,0.01,0.12c0.06,1.17,0.19,2.33,0.38,3.49c0.39,2.3-1.16,4.49-3.46,4.88
		c-2.04,0.35-4.04-0.83-4.71-2.79c-0.34-1.47-0.34-3,0-4.47c0.4-1.17,0.93-2.28,1.6-3.32c1.33-2.41,0.9-5.42-1.04-7.36
		c-0.49-0.56-1.02-1.08-1.52-1.63c-2.8-2.73-3.43-7-1.53-10.42c0.19-0.38,0.4-0.75,0.62-1.18c-3.97,1.1-7.69,5.43-5.53,10.1
		c0.36,0.79,0.64,1.6,0.83,2.45c0.78,2.81-0.87,5.73-3.69,6.51c-0.96,0.27-1.97,0.26-2.92-0.03c-1.26-0.14-2.16-1.26-2.03-2.52
		c0.02-0.23,0.08-0.45,0.18-0.67c0.24-0.89,0.66-1.73,0.87-2.64c0.9-3.62-1.14-7.67-4.28-8.71c0.05,1.01-0.02,2.03-0.21,3.03
		c-0.44,1.35-1.73,2.24-3.15,2.17c-1.47,0.03-2.8-0.88-3.32-2.26c-0.87-2.02-0.78-4.32,0.25-6.27c0.81-1.8,1.76-3.54,2.49-5.37
		c0.94-1.88,0.86-4.11-0.21-5.92c-0.15,0.14-0.27,0.29-0.38,0.46c-0.89,2.19-2.01,3.01-3.81,2.75c-1.95-0.34-3.4-1.99-3.5-3.97
		c-0.1-2.14,0.86-4.19,2.56-5.49c1.36-1.07,2.65-2.22,3.86-3.45c2-2.26,1.77-4.31-0.26-6.61c-1.12-1.24-2.06-2.64-3.37-4.35
		c-0.15,0.96-0.24,1.93-0.26,2.91c0.13,0.67,0.34,1.32,0.61,1.94c0.48,1.15-0.03,2.47-1.16,2.99c-1.11,0.7-2.57,0.38-3.29-0.71
		c-0.54-0.74-0.87-1.62-0.94-2.54c-0.36-6.49,0.91-12.39,6.21-16.87c2.51-2.07,4.27-4.91,5.01-8.08
		c2.13-9.36,8.66-13.12,17.48-14.12c2.21-0.25,4.42-0.54,6.61-0.85c4.44-0.53,8.66-2.27,12.18-5.04c3.46-2.85,8.11-3.79,12.41-2.53
		c3.82,0.97,7.6,2.16,11.46,2.96c2,0.34,4.04,0.41,6.06,0.21c2.19-0.18,4.35,0.6,5.92,2.14c1.65,1.66,3.19,3.43,4.61,5.29
		c1.7,2.39,4.19,4.1,7.03,4.83c3.09,0.64,5.67,2.78,6.87,5.7c1.15,2.64,2.02,5.29,3.12,7.93c2.01,4.71,4.06,9.4,6.16,14.08
		c0.66,1.48,1.24,3.01,0,4.32c-0.74,0.83-1.81,1.31-2.92,1.32c-0.85-0.17-1.65-1.41-2.16-2.35c-0.33-0.62,0-1.55,0-2.39
		c-2.72,1.26-3.66,6.06-1.6,8.73c3.7,4.58,4.96,10.68,3.38,16.35c-0.3,0.88-0.84,1.65-1.56,2.23c-0.96,1.24-2.74,1.47-3.99,0.52
		c-1.04-0.8-1.39-2.2-0.87-3.4c0.38-1.32,1-2.51,1.48-3.78c0.92-2.3,0.81-4.88-0.3-7.09c-0.53,1.98-1.22,3.92-2.05,5.79
		c-2.23,3.73-2.06,8.42,0.45,11.96c-1.48-0.19-1.48-0.19-3.32-3.37c-0.51,1.88-0.2,3.88,0.85,5.53c0.57,1.02,1.32,1.96,1.85,2.99
		c0.94,1.77,0.54,3.45-0.85,3.97c-1.55,0.46-3.17-0.42-3.63-1.97c-0.02-0.07-0.04-0.15-0.06-0.22c-0.15-0.45-0.25-0.91-0.4-1.44
		c-1.26,1.31-1.4,3.33-0.34,4.81c0.53,0.74,1.24,1.32,1.8,2.1c1.1,1.31,0.94,3.26-0.37,4.36c-0.04,0.03-0.08,0.06-0.12,0.1
		c-1.28,0.96-3.11,0.71-4.07-0.58c-0.09-0.12-0.17-0.24-0.24-0.37c-0.62-1.64-0.92-3.38-0.89-5.13c0-1.45,0.57-2.91,0.69-4.38
		C944.33,199.03,941.82,196.39,937.54,196.02z"/>
	<path class="st83" d="M909.09,89.51c-0.63,1.52-1.19,3.07-1.67,4.64c-0.82,2.41-0.15,5.08,1.72,6.82c2.76,2.54,6.52,1.53,7.3-2.13
		c0.26-1.81,0.2-3.66-0.2-5.45c-0.36-2.06-1.32-3.97-1.59-6.07c-0.66-4.59,2.41-8.66,7.31-9.66l-1.04,1.32
		c-2.91,3.5-2.53,8.67,0.85,11.71c1.45,1.32,3.07,2.5,4.48,3.87c2.5,2.46,2.5,5.17,0,7.62c-1.19,1.15-2.64,2.08-3.87,3.15
		c-0.61,0.52-1.17,1.1-1.67,1.73c-1.76,2.26-1.64,4.71,0.26,6.04c2.05,1.51,4.94,1.06,6.45-0.99c0.11-0.15,0.21-0.31,0.31-0.48
		c0.65-1.79,1.12-3.64,1.4-5.53c3.21,1.49,4.1,6.11,1.57,10.58c1.5,1.36,3.47,2.09,5.5,2.02c1.68-0.09,2.98-1.53,2.89-3.21
		c-0.01-0.21-0.04-0.42-0.1-0.62c-0.22-1.77-0.87-3.48-1.14-5.29c-0.42-2.8,1.63-4.87,4.06-4.22c0.16,0.08,0.3,0.19,0.42,0.32
		c-1.32,3.07-0.94,4.46,1.84,6.41c3.11,2.18,3.4,2.9,2.43,6.9l4.11-1.32c-0.22,1.16-0.63,2.28-1.19,3.32
		c-2.64,3.34-1.12,7.19,0.86,10.11c1.23,1.82,3.25,1.48,4.22-0.56c0.25-0.68,0.66-1.29,1.19-1.78c0.33,0.91,0.59,1.85,0.77,2.8
		c0.12,1.03-0.12,2.1,0,3.15c-0.04,0.86,0.18,1.7,0.63,2.43c2.07,2.31,3.57,5.07,4.38,8.06c0,0.15,0.21,0.26,0.54,0.65l0.81-3.34
		c2.61,3.07,3.71,7.14,2.99,11.11c-0.24,1.21-0.36,2.43-0.36,3.66c0.01,1.15,0.96,2.08,2.11,2.07c0.03,0,0.06,0,0.1,0
		c1.17,0.12,2.22-0.73,2.34-1.89c0,0,0-0.01,0-0.01c0-0.29,0-0.58,0.11-1.19c1.45,1.7,1.97,3.99,1.4,6.15
		c-0.56,2.08-1.56,3.97-2.17,6.08c-0.82,2.63-1.48,5.3-1.98,8.01c-0.13,0.79,0.69,1.75,1.07,2.64c0.98-0.49,1.98-0.95,2.95-1.51
		c0.26-0.16,0.37-0.58,0.67-1.07c0.79,2.06,0.5,4.38-0.78,6.19c-0.99,1.64-2.12,3.19-3.19,4.77c-0.12,0.14-0.2,0.31-0.25,0.49
		c-0.22,1.16-0.42,2.33-0.63,3.49l3.19-0.24c0.24,0,0.46-0.09,1.16-0.24c-0.37,1.16-0.84,2.28-1.41,3.36
		c-1.47,2.14-3.01,4.23-4.67,6.21c-2.89,3.17-4.81,7.09-5.53,11.32c-0.58,2.96-2.32,5.57-4.84,7.23c-2.64,2-5.29,3.75-7.93,5.75
		c-1.85,1.43-5.66,0-7.1,1.81c-1.99,2.59-4.87,4.34-8.08,4.9c-9.37,1.64-16.67,6.39-26.11,7.26c-10.85,1.24-21.81-1.12-31.19-6.72
		c-4.93-2.93-8.78-7.38-10.96-12.68c-1.49-3.08-3.7-5.75-6.45-7.77c-2.54-2.14-5.2-4.19-7.56-6.52c-2.67-2.41-4.22-5.82-4.31-9.41
		c0.48,0.63,0.74,1.03,1.04,1.39c0.86,0.98,1.9,1.32,2.9,0.37c0.99-0.95,0.08-1.77-0.67-2.43c-6.47-5.63-7.93-12.78-6.25-20.85
		c0.32-1.13,0.71-2.24,1.16-3.32l1.85,5.2c0.7-4.64,1.2-8.69-0.13-12.92c-1.65-5.29-0.45-10.26,2.55-14.83
		c0.32-0.49,0.73-0.93,1.43-1.8l-0.73,5.74c1.17,0.39,2.44-0.23,2.83-1.4c0.05-0.15,0.09-0.3,0.1-0.46c0.16-0.85,0.2-1.72,0.13-2.58
		c-0.22-4.07,1.16-8.07,3.85-11.13c2.27-2.32,3.6-5.4,3.72-8.65c1.45,2.95,1.32,6.42-0.34,9.25c2.86-1.44,5.7-6.17,5.76-9.97
		c0-2.53-0.44-5.05-0.48-7.58c-0.13-2.69-0.01-5.39,0.36-8.06c0.28-1.63,1.53-3.08,2.35-4.6l0.63,0.3c-0.29,1-0.63,2.01-0.87,3.03
		c-0.79,3.31,0.2,5.86,2.64,6.98c2.45,1.12,4.69-0.19,4.65-2.83c-0.13-1.72-0.44-3.42-0.93-5.08c-1.06-4.2,0.59-8.61,4.14-11.09
		c0.22-0.16,0.5-0.25,1.04-0.53c-1.55,2.94-1.37,6.49,0.46,9.25c0.57,1.03,1.12,2.06,1.68,3.11c1.43,2.74,1.97,5.54,0.44,8.49
		c3.19,0,3.85-2,3.74-11.3c0.68,0.75,1.31,1.55,1.89,2.38c0.83,1.32,1.43,2.9,2.37,4.19c0.46,0.62,1.8,1.39,2.13,1.16
		c0.83-0.55,1.39-1.42,1.55-2.39c-0.05-1.17-0.33-2.31-0.83-3.37c-1.95-5.15-0.98-10.95,2.54-15.18c0.22-0.4,0.54-0.74,0.93-0.98
		c-1.37,5.18-0.7,10.69,1.89,15.38l1.57-5.29h0.54l1.72,8.88l0.48,0.22c0.8-1.23,1.42-2.56,1.85-3.97c0.25-2.26,0.36-4.53,0.3-6.81
		c-0.08-2.33,0-4.67,0.24-6.99C904.1,91.96,906.31,89.81,909.09,89.51z M937.54,196.02c4.35,0.32,6.86,3.04,6.54,7.13
		c-0.12,1.47-0.71,2.92-0.69,4.38c-0.04,1.75,0.26,3.49,0.89,5.13c0.76,1.42,2.52,1.95,3.94,1.19c0.13-0.07,0.25-0.15,0.37-0.24
		c1.36-1.04,1.62-2.98,0.59-4.34c-0.03-0.04-0.06-0.08-0.1-0.12c-0.56-0.74-1.32-1.32-1.8-2.1c-1.06-1.48-0.91-3.5,0.34-4.81
		c0.15,0.53,0.25,0.99,0.4,1.44c0.34,1.58,1.89,2.59,3.46,2.25c0.08-0.02,0.15-0.03,0.22-0.06c1.39-0.52,1.78-2.19,0.85-3.97
		c-0.54-1.03-1.32-1.97-1.85-2.99c-1.05-1.64-1.35-3.65-0.85-5.53c1.84,3.19,1.84,3.19,3.32,3.37c-2.51-3.55-2.68-8.24-0.45-11.96
		c0.83-1.87,1.52-3.81,2.05-5.79c1.12,2.21,1.23,4.79,0.3,7.09c-0.48,1.32-1.1,2.49-1.48,3.78c-0.63,1.44,0.02,3.11,1.45,3.75
		c1.2,0.53,2.6,0.17,3.4-0.87c0.72-0.58,1.26-1.36,1.56-2.23c1.55-5.7,0.25-11.8-3.5-16.37c-2.06-2.64-1.12-7.47,1.6-8.73
		c0,0.85-0.26,1.77,0,2.39c0.5,0.94,1.32,2.18,2.16,2.35c1.12-0.01,2.18-0.49,2.92-1.32c1.18-1.32,0.59-2.84,0-4.32
		c-2.11-4.68-4.16-9.37-6.16-14.08c-1.1-2.64-1.97-5.29-3.12-7.93c-1.21-2.92-3.78-5.05-6.87-5.7c-2.84-0.73-5.33-2.44-7.03-4.83
		c-1.42-1.86-2.96-3.63-4.61-5.29c-1.57-1.54-3.73-2.32-5.92-2.14c-2.02,0.2-4.06,0.13-6.06-0.21c-3.86-0.81-7.64-2-11.46-2.96
		c-4.3-1.27-8.95-0.32-12.41,2.53c-3.53,2.78-7.77,4.52-12.23,5.05c-2.21,0.3-4.42,0.59-6.61,0.85c-8.82,1-15.35,4.76-17.48,14.12
		c-0.74,3.17-2.5,6.01-5.01,8.08c-5.29,4.48-6.61,10.38-6.21,16.87c0.07,0.92,0.4,1.8,0.94,2.54c0.72,1.09,2.18,1.41,3.29,0.71
		c1.13-0.52,1.65-1.84,1.16-2.99c-0.27-0.62-0.48-1.28-0.61-1.94c0.02-0.97,0.11-1.95,0.26-2.91c1.32,1.71,2.25,3.11,3.37,4.35
		c2.04,2.25,2.26,4.3,0.26,6.61c-1.21,1.23-2.5,2.39-3.86,3.45c-1.71,1.29-2.67,3.35-2.56,5.49c0.1,1.98,1.55,3.62,3.5,3.97
		c1.8,0.26,2.92-0.56,3.81-2.75c0.11-0.17,0.24-0.32,0.38-0.46c1.07,1.81,1.15,4.04,0.21,5.92c-0.73,1.82-1.68,3.57-2.49,5.37
		c-1.03,1.94-1.12,4.25-0.25,6.27c0.52,1.38,1.84,2.29,3.32,2.26c1.42,0.07,2.71-0.82,3.15-2.17c0.19-1,0.26-2.01,0.21-3.03
		c3.15,1.04,5.18,5.09,4.28,8.71c-0.21,0.9-0.63,1.75-0.87,2.64c-0.5,1.16,0.03,2.51,1.19,3.01c0.21,0.09,0.44,0.15,0.67,0.18
		c2.8,0.84,5.74-0.75,6.58-3.55c0.28-0.95,0.29-1.97,0.03-2.93c-0.2-0.84-0.47-1.66-0.83-2.45c-2.17-4.67,1.63-9,5.53-10.1
		c-0.22,0.42-0.44,0.79-0.62,1.18c-1.89,3.42-1.26,7.69,1.53,10.42c0.5,0.54,1.03,1.07,1.52,1.63c1.95,1.95,2.38,4.95,1.04,7.36
		c-0.67,1.04-1.2,2.15-1.6,3.32c-0.34,1.47-0.34,3,0,4.47c0.76,2.21,3.17,3.38,5.38,2.62c1.96-0.67,3.14-2.67,2.79-4.71
		c-0.19-1.16-0.32-2.32-0.38-3.49c-0.2-1.45,0.8-2.78,2.25-2.99c0.04-0.01,0.08-0.01,0.12-0.01c-0.99,2.91-0.67,4.39,1.32,6.15
		c2,1.76,3.97,3.27,5.99,5.01c0.19-0.73,0.33-1.46,0.42-2.21c-0.02-0.89-0.09-1.77-0.22-2.64c2.64,0.78,3.86,2.83,4.8,5.12
		c0.35,1.26,1.59,2.05,2.88,1.84c1.41-0.17,2.52-1.31,2.64-2.72c0.19-1.74-0.32-3.47-1.43-4.83c-2.83-4.09-2.82-5.29,0.24-9.25
		c1.52-1.97,3-3.97,1.93-6.84c4.61,2.74,6,6.47,4.27,11.01c-1.02,2.64-0.98,5.29,1.15,7.38c1.36,1.57,3.71,1.81,5.37,0.57
		c1.49-1.32,1.56-3.41,0.16-5.29c-2.27-3.12-1.59-5.29,2.23-6.61c-0.6,1.83,0.4,3.8,2.23,4.4c0.04,0.01,0.08,0.03,0.12,0.04
		c2.46,1.1,4.61,2.39,4.64,6.03c1.81-2.3,2.22-5.4,1.08-8.09c1.73,0.56,3.03,1.99,3.44,3.75c0.32,1.23,0.75,2.37,2.29,2.1
		c1.36-0.11,2.38-1.3,2.27-2.66c-0.01-0.09-0.02-0.18-0.03-0.26c-0.22-1.39-0.66-2.73-1.32-3.97c-1.11-1.97-1.25-4.34-0.38-6.43
		c1.18-2.82,0.6-6.07-1.48-8.3C938.73,197.47,938.12,196.79,937.54,196.02z"/>
</g>
<g>
	<path class="st85" d="M467.1,541.44c0.09,0.3,0.2,0.58,0.32,0.85c0.12,0.27,0.28,0.49,0.48,0.68c0.19,0.19,0.42,0.32,0.68,0.41
		c0.26,0.08,0.57,0.1,0.92,0.04c0.46-0.08,1-0.28,1.62-0.62c0.62-0.34,1.37-0.87,2.23-1.58l-18.09,17.98
		c0.53-0.58,0.99-1.24,1.37-1.99c0.38-0.74,0.68-1.46,0.93-2.15c0.24-0.69,0.43-1.3,0.57-1.84c0.13-0.54,0.23-0.91,0.27-1.11
		l-14.24,2.36l-3.24,8.44l-12.01,1.99l4.89-11.23c0.46-1.16,0.69-2.03,0.68-2.61c-0.01-0.58-0.29-0.83-0.84-0.74
		c-0.34,0.06-0.87,0.3-1.6,0.74c-0.73,0.44-1.5,0.93-2.31,1.46c-0.81,0.54-1.57,1.07-2.29,1.59c-0.72,0.52-1.24,0.9-1.57,1.13
		l12.83-12.85l21.87-21.75l6.46,20.54l0.05,0.11C467.09,541.37,467.1,541.42,467.1,541.44z M471.84,507.04l-34.58,34.42
		c0.49-0.48,0.97-1.02,1.44-1.62c0.47-0.6,0.91-1.2,1.32-1.79c0.41-0.59,0.77-1.14,1.09-1.64c0.31-0.51,0.55-0.91,0.7-1.21
		l7.19-16.5l0.03,0l0.02-0.06l4.07-0.68c1.7-0.28,3.44-0.78,5.2-1.49c1.77-0.71,3.33-1.59,4.68-2.64c0.96-0.71,1.92-1.44,2.89-2.18
		c0.97-0.74,1.85-1.43,2.65-2.05c0.8-0.63,1.5-1.17,2.08-1.62C471.23,507.53,471.63,507.22,471.84,507.04z M469.1,547.8l3.12-3.09
		c-0.29,0.44-0.59,0.94-0.9,1.48c-0.31,0.54-0.57,1.11-0.79,1.7c-0.22,0.59-0.36,1.19-0.43,1.81c-0.07,0.61-0.02,1.19,0.15,1.74
		c0.04,0.09,0.07,0.22,0.09,0.37l1.87,5.91l-10.49,1.74c-0.25,0.08-0.79,0.29-1.61,0.62c-0.82,0.33-1.89,0.91-3.2,1.73
		c-1.31,0.82-2.86,1.92-4.64,3.32c-1.78,1.39-3.77,3.17-5.95,5.35l13.26-13.21l0-0.03l9.52-9.45L469.1,547.8z M447.61,545.47
		l8.71-1.44l-3.18-12.94L447.61,545.47z"/>
</g>
</svg>
