<svg width="47" height="50" viewBox="0 0 47 50" fill="none" xmlns="http://www.w3.org/2000/svg">
<path d="M23.4486 2.99089L8.55036 6.98286C3.14639 8.43085 0.847835 12.4381 2.30059 17.8598L7.22089 36.2227C8.69746 41.7333 12.6726 43.9833 18.0766 42.5353L32.9748 38.5433C38.4659 37.072 40.6946 33.1597 39.2181 27.649L34.2978 9.28622C32.845 3.86447 28.9397 1.51957 23.4486 2.99089Z" fill="#4C4058"/>
<path d="M37.4585 12.4931H22.0347C16.4401 12.4931 13.1827 15.7689 13.1827 21.3819V40.3925C13.1827 46.0975 16.4401 49.2997 22.0347 49.2997H37.4585C43.1433 49.2997 46.3087 46.0975 46.3087 40.3925V21.3819C46.3087 15.7689 43.1433 12.4931 37.4585 12.4931Z" fill="#F7B046"/>
<path fill-rule="evenodd" clip-rule="evenodd" d="M22.5316 21.0514V21.0698C21.7384 21.0698 21.0961 21.7139 21.0961 22.5052C21.0961 23.2966 21.7384 23.9407 22.5316 23.9407H28.0323C28.8255 23.9407 29.4696 23.2966 29.4696 22.485C29.4696 21.6955 28.8255 21.0514 28.0323 21.0514H22.5316ZM36.9597 32.2593H22.5316C21.7384 32.2593 21.0961 31.6152 21.0961 30.8239C21.0961 30.0325 21.7384 29.3866 22.5316 29.3866H36.9597C37.7511 29.3866 38.3952 30.0325 38.3952 30.8239C38.3952 31.6152 37.7511 32.2593 36.9597 32.2593ZM36.9598 40.6695H22.5316C21.9795 40.7431 21.4458 40.467 21.1514 40.0069C20.8569 39.5285 20.8569 38.9212 21.1514 38.4611C21.4458 37.9826 21.9795 37.7249 22.5316 37.7801H36.9598C37.6941 37.8538 38.248 38.4795 38.248 39.234C38.248 39.9683 37.6941 40.5958 36.9598 40.6695Z" fill="white"/>
</svg>
