<svg width="364" height="229" viewBox="0 0 364 229" fill="none" xmlns="http://www.w3.org/2000/svg">
<path d="M100.695 10.0945L169.768 1.74005L175.329 147.254L131.258 152.584L100.695 10.0945Z" fill="url(#paint0_linear_683_1986)"/>
<path d="M261.654 8.42603L192.491 0.854225L188.578 146.422L232.707 151.253L261.654 8.42603Z" fill="url(#paint1_linear_683_1986)"/>
<path d="M92.0998 32.632L34.9206 50.0005L80.9476 166.207L117.43 155.126L92.0998 32.632Z" fill="url(#paint2_linear_683_1986)"/>
<path d="M270.504 30.8649L327.876 47.5849L283.168 164.306L246.562 153.638L270.504 30.8649Z" fill="url(#paint3_linear_683_1986)"/>
<path d="M38.0742 87.2954L0.192383 106.967L47.7056 182.553L71.8755 170.001L38.0742 87.2954Z" fill="url(#paint4_linear_683_1986)"/>
<path d="M325.145 84.9133L363.247 104.155L316.593 180.274L292.282 167.997L325.145 84.9133Z" fill="url(#paint5_linear_683_1986)"/>
<g filter="url(#filter0_d_683_1986)">
<path d="M21.0899 176.558C13.0227 162.269 8.98913 155.125 11.1988 150.446C13.4084 145.766 20.5724 144.503 34.9004 141.976L56.8939 138.098C66.1788 136.461 70.8212 135.642 74.2142 138.018C77.6073 140.394 78.4259 145.037 80.063 154.321L87.196 194.775C88.8332 204.06 89.6518 208.702 87.276 212.095C84.9001 215.488 80.2577 216.307 70.9728 217.944L49.1841 221.786C34.8376 224.315 27.6644 225.58 23.9914 221.975C20.3184 218.369 21.6043 210.194 24.1762 193.843C24.7818 189.992 24.9564 186.607 24.417 184.233C23.9338 182.107 22.7253 179.455 21.0899 176.558Z" fill="url(#paint6_linear_683_1986)"/>
</g>
<g filter="url(#filter1_d_683_1986)">
<path d="M341.579 176.558C349.646 162.269 353.68 155.125 351.47 150.446C349.261 145.766 342.097 144.503 327.769 141.976L305.775 138.098C296.49 136.461 291.848 135.642 288.455 138.018C285.062 140.394 284.243 145.037 282.606 154.321L275.473 194.775C273.836 204.06 273.017 208.702 275.393 212.095C277.769 215.488 282.411 216.307 291.696 217.944L313.485 221.786C327.831 224.315 335.005 225.58 338.678 221.975C342.351 218.369 341.065 210.194 338.493 193.843C337.887 189.992 337.713 186.607 338.252 184.233C338.735 182.107 339.944 179.455 341.579 176.558Z" fill="url(#paint7_linear_683_1986)"/>
</g>
<g filter="url(#filter2_d_683_1986)">
<path d="M45.917 153.365C45.917 137.937 45.917 130.223 50.8556 124.57C55.7942 118.918 63.0567 117.934 77.5816 115.966C101.377 112.743 137.301 109.234 180.917 109.234C224.533 109.234 260.457 112.743 284.252 115.966C298.777 117.934 306.04 118.918 310.978 124.57C315.917 130.223 315.917 137.937 315.917 153.365V167.618C315.917 187.991 315.917 198.177 309.536 204.11C303.155 210.043 292.923 209.299 272.457 207.809C242.61 205.637 204.301 203.234 180.917 203.234C157.533 203.234 119.224 205.637 89.377 207.809C68.9114 209.299 58.6786 210.043 52.2978 204.11C45.917 198.177 45.917 187.991 45.917 167.618V153.365Z" fill="url(#paint8_linear_683_1986)"/>
</g>
<path d="M61.1894 160.546C61.1894 158.722 61.3494 157.026 61.6694 155.458C61.9894 153.858 62.4374 152.466 63.0134 151.282C63.5894 150.066 64.2614 149.09 65.0294 148.354C65.7974 147.586 66.6294 147.106 67.5254 146.914C68.0374 146.818 68.5334 146.642 69.0134 146.386C69.4934 146.098 69.9734 145.81 70.4534 145.522C70.9334 145.234 71.4294 144.994 71.9414 144.802C72.4854 144.578 73.0774 144.466 73.7174 144.466C75.0614 144.466 76.2934 144.914 77.4134 145.81C78.5334 146.706 79.4774 147.89 80.2454 149.362C81.0454 150.802 81.6534 152.434 82.0694 154.258C82.5174 156.05 82.7414 157.858 82.7414 159.682C82.7414 161.506 82.5814 163.362 82.2614 165.25C81.9414 167.138 81.3814 168.866 80.5814 170.434C79.7814 171.97 78.6774 173.234 77.2694 174.226C75.8934 175.186 74.1334 175.666 71.9894 175.666C69.8454 175.666 68.0694 175.234 66.6614 174.37C65.2854 173.474 64.1814 172.306 63.3494 170.866C62.5494 169.426 61.9894 167.81 61.6694 166.018C61.3494 164.194 61.1894 162.37 61.1894 160.546ZM69.3494 160.93C68.7414 160.93 68.3094 160.594 68.0534 159.922C67.7974 159.25 67.6214 158.514 67.5254 157.714C67.4614 156.882 67.4294 156.13 67.4294 155.458C67.4294 154.786 67.3814 154.45 67.2854 154.45C67.0294 154.45 66.8054 154.946 66.6134 155.938C66.4534 156.898 66.3734 158.402 66.3734 160.45C66.3734 161.474 66.4374 162.642 66.5654 163.954C66.7254 165.266 67.0134 166.514 67.4294 167.698C67.8774 168.85 68.4694 169.826 69.2054 170.626C69.9734 171.426 70.9654 171.826 72.1814 171.826C73.3974 171.826 74.3574 171.394 75.0614 170.53C75.7654 169.666 76.2934 168.626 76.6454 167.41C77.0294 166.162 77.2694 164.866 77.3654 163.522C77.4934 162.146 77.5574 160.978 77.5574 160.018C77.5574 159.058 77.4774 157.938 77.3174 156.658C77.1894 155.346 76.9654 154.114 76.6454 152.962C76.3254 151.778 75.9094 150.786 75.3974 149.986C74.9174 149.154 74.3254 148.738 73.6214 148.738C73.1094 148.738 72.7094 148.978 72.4214 149.458C72.1654 149.938 71.9734 150.53 71.8454 151.234C71.7494 151.938 71.7014 152.706 71.7014 153.538C71.7014 154.626 71.7494 155.65 71.8454 156.61C71.9414 157.538 71.9894 158.162 71.9894 158.482C71.9894 159.058 71.7974 159.618 71.4134 160.162C71.0294 160.674 70.3414 160.93 69.3494 160.93ZM93.2737 175.618C92.4097 175.618 91.8177 175.458 91.4977 175.138C91.2097 174.818 90.9057 174.338 90.5857 173.698C90.2657 173.058 89.8977 172.21 89.4817 171.154C89.0657 170.098 88.6337 168.93 88.1857 167.65C87.7697 166.338 87.3377 164.978 86.8897 163.57C86.4737 162.162 86.1057 160.802 85.7857 159.49C85.4657 158.178 85.1937 156.962 84.9697 155.842C84.7777 154.722 84.6817 153.81 84.6817 153.106C84.6817 152.85 84.7137 152.578 84.7777 152.29C84.8417 152.002 84.9377 151.73 85.0657 151.474C85.2257 151.218 85.4177 151.01 85.6417 150.85C85.8657 150.658 86.1537 150.562 86.5057 150.562C86.8897 150.562 87.2737 150.77 87.6577 151.186C88.0417 151.57 88.3457 152.13 88.5697 152.866C88.8257 153.73 89.0977 154.754 89.3857 155.938C89.7057 157.09 90.0097 158.274 90.2977 159.49C90.6177 160.706 90.9377 161.922 91.2577 163.138C91.5777 164.322 91.8657 165.378 92.1217 166.306C92.3777 167.234 92.6017 167.986 92.7937 168.562C92.9857 169.138 93.1297 169.426 93.2257 169.426C93.3217 169.426 93.4657 169.122 93.6577 168.514C93.8817 167.906 94.1377 167.106 94.4257 166.114C94.7137 165.122 95.0177 164.002 95.3377 162.754C95.6577 161.506 95.9937 160.258 96.3457 159.01C96.6977 157.73 97.0337 156.498 97.3537 155.314C97.7057 154.098 98.0257 153.058 98.3137 152.194C98.5697 151.458 98.8577 151.01 99.1777 150.85C99.5297 150.658 99.9297 150.562 100.378 150.562C100.858 150.562 101.226 150.754 101.482 151.138C101.77 151.49 101.914 151.858 101.914 152.242C101.914 152.882 101.818 153.762 101.626 154.882C101.434 155.97 101.162 157.186 100.81 158.53C100.49 159.874 100.122 161.282 99.7057 162.754C99.3217 164.194 98.9057 165.602 98.4577 166.978C98.0417 168.322 97.6417 169.554 97.2577 170.674C96.8737 171.762 96.5377 172.626 96.2497 173.266C95.8337 174.162 95.3537 174.786 94.8097 175.138C94.2657 175.458 93.7537 175.618 93.2737 175.618ZM112.44 176.002C110.872 176.002 109.528 175.666 108.408 174.994C107.288 174.29 106.376 173.394 105.672 172.306C105 171.218 104.504 170.002 104.184 168.658C103.864 167.282 103.704 165.922 103.704 164.578C103.704 162.498 103.88 160.578 104.232 158.818C104.584 157.058 105.112 155.522 105.816 154.21C106.52 152.898 107.416 151.874 108.504 151.138C109.624 150.402 110.92 150.034 112.392 150.034C113.608 150.034 114.648 150.354 115.512 150.994C116.408 151.634 117.16 152.45 117.768 153.442C118.376 154.402 118.824 155.458 119.112 156.61C119.4 157.73 119.544 158.786 119.544 159.778C119.544 159.938 119.544 160.162 119.544 160.45C119.544 160.738 119.528 160.962 119.496 161.122C119.464 161.506 119.176 161.842 118.632 162.13C118.088 162.386 117.416 162.626 116.616 162.85C115.848 163.074 115.016 163.314 114.12 163.57C113.224 163.794 112.392 164.082 111.624 164.434C110.856 164.786 110.216 165.218 109.704 165.73C109.192 166.242 108.936 166.882 108.936 167.65C108.936 168.066 109.032 168.498 109.224 168.946C109.416 169.362 109.656 169.746 109.944 170.098C110.264 170.45 110.632 170.738 111.048 170.962C111.464 171.154 111.912 171.25 112.392 171.25C112.968 171.25 113.416 171.138 113.736 170.914C114.088 170.658 114.376 170.354 114.6 170.002C114.856 169.65 115.064 169.266 115.224 168.85C115.384 168.402 115.544 168.002 115.704 167.65C115.896 167.298 116.12 167.01 116.376 166.786C116.664 166.53 117.032 166.402 117.48 166.402C118.184 166.402 118.712 166.674 119.064 167.218C119.448 167.762 119.64 168.354 119.64 168.994C119.64 169.826 119.432 170.642 119.016 171.442C118.632 172.242 118.2 172.962 117.72 173.602C117.08 174.434 116.296 175.042 115.368 175.426C114.44 175.81 113.464 176.002 112.44 176.002ZM112.392 154.882C112.04 154.882 111.688 154.994 111.336 155.218C111.016 155.442 110.712 155.73 110.424 156.082C110.168 156.402 109.96 156.77 109.8 157.186C109.64 157.602 109.56 158.002 109.56 158.386C109.56 159.026 109.688 159.426 109.944 159.586C110.232 159.746 110.6 159.826 111.048 159.826C111.336 159.826 111.672 159.794 112.056 159.73C112.472 159.634 112.856 159.506 113.208 159.346C113.592 159.154 113.896 158.93 114.12 158.674C114.376 158.386 114.504 158.05 114.504 157.666C114.504 157.41 114.456 157.122 114.36 156.802C114.296 156.482 114.168 156.178 113.976 155.89C113.816 155.602 113.592 155.362 113.304 155.17C113.048 154.978 112.744 154.882 112.392 154.882ZM133.416 152.866C133.416 153.122 133.384 153.458 133.32 153.874C133.288 154.29 133.096 154.498 132.744 154.498L132.312 154.45C131.416 154.45 130.664 154.658 130.056 155.074C129.448 155.458 128.952 155.97 128.568 156.61C128.184 157.25 127.912 157.97 127.752 158.77C127.592 159.538 127.512 160.306 127.512 161.074V163.33L127.368 168.61V170.914C127.368 171.298 127.368 171.746 127.368 172.258C127.4 172.77 127.368 173.266 127.272 173.746C127.176 174.194 126.984 174.594 126.696 174.946C126.408 175.266 125.976 175.426 125.4 175.426C124.44 175.426 123.736 175.186 123.288 174.706C122.84 174.226 122.616 173.57 122.616 172.738V168.13L122.664 158.626V154.018C122.664 153.666 122.68 153.282 122.712 152.866C122.744 152.45 122.824 152.066 122.952 151.714C123.08 151.362 123.272 151.074 123.528 150.85C123.816 150.626 124.2 150.514 124.68 150.514C125.128 150.514 125.512 150.594 125.832 150.754C126.152 150.914 126.344 151.234 126.408 151.714C126.472 152.162 126.536 152.482 126.6 152.674C126.664 152.834 126.744 152.914 126.84 152.914C126.936 152.914 127.096 152.77 127.32 152.482C127.544 152.194 127.832 151.874 128.184 151.522C128.568 151.17 129 150.85 129.48 150.562C129.992 150.274 130.584 150.13 131.256 150.13C132.024 150.13 132.568 150.418 132.888 150.994C133.24 151.57 133.416 152.194 133.416 152.866ZM134.397 169.618C134.397 168.274 134.653 167.122 135.165 166.162C135.709 165.202 136.365 164.37 137.133 163.666C137.901 162.962 138.749 162.354 139.677 161.842C140.605 161.298 141.453 160.786 142.221 160.306C142.989 159.794 143.629 159.298 144.141 158.818C144.685 158.306 144.957 157.714 144.957 157.042C144.957 156.402 144.733 155.81 144.285 155.266C143.837 154.722 143.293 154.45 142.653 154.45C141.981 154.45 141.437 154.642 141.021 155.026C140.605 155.378 140.237 155.794 139.917 156.274C139.629 156.722 139.341 157.138 139.053 157.522C138.765 157.874 138.413 158.05 137.997 158.05C137.357 158.05 136.797 157.842 136.317 157.426C135.837 157.01 135.597 156.482 135.597 155.842C135.597 155.01 135.837 154.258 136.317 153.586C136.829 152.914 137.469 152.322 138.237 151.81C139.005 151.298 139.837 150.914 140.733 150.658C141.629 150.37 142.461 150.226 143.229 150.226C144.765 150.226 145.965 150.53 146.829 151.138C147.725 151.714 148.397 152.482 148.845 153.442C149.325 154.402 149.629 155.49 149.757 156.706C149.885 157.89 149.949 159.106 149.949 160.354V162.754L149.853 167.41V169.81C149.853 170.386 149.869 171.01 149.901 171.682C149.933 172.354 149.917 172.978 149.853 173.554C149.789 174.098 149.629 174.562 149.373 174.946C149.117 175.33 148.717 175.522 148.173 175.522C147.565 175.522 147.101 175.41 146.781 175.186C146.461 174.962 146.205 174.722 146.013 174.466C145.853 174.178 145.725 173.922 145.629 173.698C145.565 173.474 145.437 173.362 145.245 173.362C145.053 173.362 144.797 173.474 144.477 173.698C144.189 173.922 143.821 174.178 143.373 174.466C142.957 174.754 142.461 175.01 141.885 175.234C141.341 175.458 140.733 175.57 140.061 175.57C139.197 175.57 138.413 175.41 137.709 175.09C137.005 174.738 136.397 174.29 135.885 173.746C135.405 173.202 135.037 172.578 134.781 171.874C134.525 171.138 134.397 170.386 134.397 169.618ZM139.005 168.754C139.005 169.554 139.245 170.146 139.725 170.53C140.237 170.882 140.861 171.058 141.597 171.058C142.333 171.058 142.925 170.914 143.373 170.626C143.853 170.306 144.221 169.89 144.477 169.378C144.765 168.866 144.957 168.306 145.053 167.698C145.181 167.058 145.245 166.434 145.245 165.826C145.245 165.378 145.165 164.978 145.005 164.626C144.845 164.274 144.493 164.098 143.949 164.098C143.469 164.098 142.941 164.242 142.365 164.53C141.789 164.818 141.245 165.202 140.733 165.682C140.253 166.13 139.837 166.626 139.485 167.17C139.165 167.714 139.005 168.242 139.005 168.754ZM153.895 155.17C153.895 153.378 153.879 151.618 153.847 149.89C153.847 148.13 153.863 146.354 153.895 144.562C153.895 144.05 153.911 143.538 153.943 143.026C153.975 142.514 154.071 142.066 154.231 141.682C154.391 141.266 154.647 140.93 154.999 140.674C155.351 140.418 155.879 140.29 156.583 140.29C157.031 140.29 157.383 140.402 157.639 140.626C157.895 140.85 158.087 141.138 158.215 141.49C158.343 141.81 158.423 142.162 158.455 142.546C158.487 142.93 158.503 143.298 158.503 143.65V149.89L158.455 162.274V168.514C158.455 169.41 158.519 170.018 158.647 170.338C158.775 170.658 158.919 170.914 159.079 171.106C159.271 171.266 159.431 171.458 159.559 171.682C159.687 171.874 159.751 172.29 159.751 172.93C159.751 173.41 159.655 173.922 159.463 174.466C159.271 174.978 158.871 175.234 158.263 175.234C156.599 175.234 155.447 174.786 154.807 173.89C154.199 172.994 153.895 171.794 153.895 170.29V155.17ZM162.589 155.17C162.589 153.378 162.573 151.618 162.541 149.89C162.541 148.13 162.557 146.354 162.589 144.562C162.589 144.05 162.605 143.538 162.637 143.026C162.669 142.514 162.765 142.066 162.925 141.682C163.085 141.266 163.341 140.93 163.693 140.674C164.045 140.418 164.573 140.29 165.277 140.29C165.725 140.29 166.077 140.402 166.333 140.626C166.589 140.85 166.781 141.138 166.909 141.49C167.037 141.81 167.117 142.162 167.149 142.546C167.181 142.93 167.197 143.298 167.197 143.65V149.89L167.149 162.274V168.514C167.149 169.41 167.213 170.018 167.341 170.338C167.469 170.658 167.613 170.914 167.773 171.106C167.965 171.266 168.125 171.458 168.253 171.682C168.381 171.874 168.445 172.29 168.445 172.93C168.445 173.41 168.349 173.922 168.157 174.466C167.965 174.978 167.565 175.234 166.957 175.234C165.293 175.234 164.141 174.786 163.501 173.89C162.893 172.994 162.589 171.794 162.589 170.29V155.17ZM185.745 163.666C185.745 162.034 185.745 160.418 185.745 158.818C185.777 157.218 185.793 155.602 185.793 153.97C185.793 153.234 185.793 152.322 185.793 151.234C185.825 150.114 185.937 149.042 186.129 148.018C186.353 146.962 186.721 146.066 187.233 145.33C187.777 144.594 188.577 144.226 189.633 144.226C190.177 144.226 190.785 144.226 191.457 144.226C192.161 144.194 192.881 144.178 193.617 144.178C196.529 144.178 198.865 144.994 200.625 146.626C202.385 148.258 203.265 150.562 203.265 153.538C203.265 155.138 202.977 156.562 202.401 157.81C201.857 159.026 201.249 160.082 200.577 160.978C199.937 161.842 199.329 162.562 198.753 163.138C198.209 163.714 197.937 164.146 197.937 164.434C197.937 164.626 198.081 164.946 198.369 165.394C198.657 165.842 199.009 166.37 199.425 166.978C199.841 167.554 200.289 168.178 200.769 168.85C201.281 169.522 201.745 170.178 202.161 170.818C202.577 171.426 202.929 172.002 203.217 172.546C203.505 173.09 203.649 173.538 203.649 173.89C203.649 174.306 203.409 174.658 202.929 174.946C202.481 175.202 201.969 175.33 201.393 175.33C200.817 175.33 200.257 175.106 199.713 174.658C199.169 174.21 198.641 173.65 198.129 172.978C197.649 172.306 197.169 171.586 196.689 170.818C196.241 170.05 195.809 169.33 195.393 168.658C195.009 167.986 194.641 167.426 194.289 166.978C193.937 166.53 193.633 166.306 193.377 166.306H191.697C191.537 166.306 191.409 166.45 191.313 166.738C191.249 166.994 191.185 167.362 191.121 167.842C191.089 168.29 191.057 168.834 191.025 169.474C191.025 170.082 191.025 170.738 191.025 171.442C191.025 171.986 191.009 172.498 190.977 172.978C190.945 173.426 190.849 173.826 190.689 174.178C190.529 174.498 190.257 174.754 189.873 174.946C189.521 175.138 189.025 175.234 188.385 175.234C187.649 175.234 187.089 175.042 186.705 174.658C186.353 174.274 186.097 173.794 185.937 173.218C185.809 172.642 185.745 172.034 185.745 171.394C185.745 170.722 185.745 170.13 185.745 169.618V163.666ZM193.617 148.546C193.393 148.546 193.169 148.562 192.945 148.594C192.753 148.594 192.545 148.61 192.321 148.642C191.937 148.674 191.649 148.85 191.457 149.17C191.265 149.49 191.121 149.874 191.025 150.322C190.961 150.738 190.929 151.17 190.929 151.618C190.961 152.034 190.977 152.386 190.977 152.674V154.594L190.929 158.386V160.306C190.929 160.69 191.057 161.01 191.313 161.266C191.569 161.522 191.889 161.65 192.273 161.65C193.073 161.65 193.841 161.346 194.577 160.738C195.313 160.098 195.969 159.33 196.545 158.434C197.121 157.538 197.585 156.594 197.937 155.602C198.289 154.61 198.465 153.762 198.465 153.058C198.465 151.554 198.017 150.434 197.121 149.698C196.225 148.93 195.057 148.546 193.617 148.546ZM214.785 176.002C213.217 176.002 211.873 175.666 210.753 174.994C209.633 174.29 208.721 173.394 208.017 172.306C207.345 171.218 206.849 170.002 206.529 168.658C206.209 167.282 206.049 165.922 206.049 164.578C206.049 162.498 206.225 160.578 206.577 158.818C206.929 157.058 207.457 155.522 208.161 154.21C208.865 152.898 209.761 151.874 210.849 151.138C211.969 150.402 213.265 150.034 214.737 150.034C215.953 150.034 216.993 150.354 217.857 150.994C218.753 151.634 219.505 152.45 220.113 153.442C220.721 154.402 221.169 155.458 221.457 156.61C221.745 157.73 221.889 158.786 221.889 159.778C221.889 159.938 221.889 160.162 221.889 160.45C221.889 160.738 221.873 160.962 221.841 161.122C221.809 161.506 221.521 161.842 220.977 162.13C220.433 162.386 219.761 162.626 218.961 162.85C218.193 163.074 217.361 163.314 216.465 163.57C215.569 163.794 214.737 164.082 213.969 164.434C213.201 164.786 212.561 165.218 212.049 165.73C211.537 166.242 211.281 166.882 211.281 167.65C211.281 168.066 211.377 168.498 211.569 168.946C211.761 169.362 212.001 169.746 212.289 170.098C212.609 170.45 212.977 170.738 213.393 170.962C213.809 171.154 214.257 171.25 214.737 171.25C215.313 171.25 215.761 171.138 216.081 170.914C216.433 170.658 216.721 170.354 216.945 170.002C217.201 169.65 217.409 169.266 217.569 168.85C217.729 168.402 217.889 168.002 218.049 167.65C218.241 167.298 218.465 167.01 218.721 166.786C219.009 166.53 219.377 166.402 219.825 166.402C220.529 166.402 221.057 166.674 221.409 167.218C221.793 167.762 221.985 168.354 221.985 168.994C221.985 169.826 221.777 170.642 221.361 171.442C220.977 172.242 220.545 172.962 220.065 173.602C219.425 174.434 218.641 175.042 217.713 175.426C216.785 175.81 215.809 176.002 214.785 176.002ZM214.737 154.882C214.385 154.882 214.033 154.994 213.681 155.218C213.361 155.442 213.057 155.73 212.769 156.082C212.513 156.402 212.305 156.77 212.145 157.186C211.985 157.602 211.905 158.002 211.905 158.386C211.905 159.026 212.033 159.426 212.289 159.586C212.577 159.746 212.945 159.826 213.393 159.826C213.681 159.826 214.017 159.794 214.401 159.73C214.817 159.634 215.201 159.506 215.553 159.346C215.937 159.154 216.241 158.93 216.465 158.674C216.721 158.386 216.849 158.05 216.849 157.666C216.849 157.41 216.801 157.122 216.705 156.802C216.641 156.482 216.513 156.178 216.321 155.89C216.161 155.602 215.937 155.362 215.649 155.17C215.393 154.978 215.089 154.882 214.737 154.882ZM231.218 175.234C230.514 175.234 229.858 174.77 229.25 173.842C228.642 172.914 228.082 171.73 227.57 170.29C227.058 168.85 226.594 167.266 226.178 165.538C225.762 163.778 225.41 162.066 225.122 160.402C224.834 158.738 224.61 157.218 224.45 155.842C224.322 154.466 224.258 153.442 224.258 152.77C224.258 152.322 224.37 151.842 224.594 151.33C224.85 150.818 225.266 150.562 225.842 150.562C226.258 150.562 226.69 150.642 227.138 150.802C227.618 150.93 227.954 151.346 228.146 152.05C228.338 152.69 228.514 153.49 228.674 154.45C228.866 155.378 229.042 156.37 229.202 157.426C229.394 158.45 229.57 159.49 229.73 160.546C229.922 161.602 230.114 162.546 230.306 163.378C230.53 164.21 230.738 164.882 230.93 165.394C231.154 165.906 231.378 166.162 231.602 166.162C231.73 166.162 231.858 166.002 231.986 165.682C232.146 165.33 232.29 164.914 232.418 164.434C232.546 163.922 232.674 163.378 232.802 162.802C232.93 162.194 233.042 161.634 233.138 161.122C233.234 160.578 233.298 160.114 233.33 159.73C233.394 159.314 233.442 159.058 233.474 158.962C233.538 158.514 233.634 157.842 233.762 156.946C233.89 156.018 234.082 155.106 234.338 154.21C234.594 153.282 234.93 152.482 235.346 151.81C235.794 151.138 236.354 150.802 237.026 150.802C237.698 150.802 238.274 151.202 238.754 152.002C239.234 152.802 239.65 153.794 240.002 154.978C240.354 156.162 240.658 157.458 240.914 158.866C241.202 160.274 241.458 161.57 241.682 162.754C241.906 163.938 242.13 164.93 242.354 165.73C242.578 166.53 242.834 166.93 243.122 166.93C243.442 166.93 243.746 166.434 244.034 165.442C244.354 164.45 244.674 163.234 244.994 161.794C245.314 160.322 245.618 158.77 245.906 157.138C246.226 155.506 246.546 154.05 246.866 152.77C247.058 152.002 247.378 151.442 247.826 151.09C248.306 150.738 248.738 150.562 249.122 150.562C249.442 150.562 249.698 150.642 249.89 150.802C250.082 150.962 250.226 151.17 250.322 151.426C250.45 151.65 250.53 151.906 250.562 152.194C250.594 152.482 250.61 152.738 250.61 152.962C250.61 153.794 250.546 154.674 250.418 155.602C250.322 156.498 250.178 157.426 249.986 158.386C249.794 159.314 249.586 160.226 249.362 161.122C249.138 162.018 248.93 162.85 248.738 163.618C248.642 164.034 248.498 164.626 248.306 165.394C248.146 166.13 247.954 166.946 247.73 167.842C247.506 168.738 247.234 169.65 246.914 170.578C246.626 171.506 246.274 172.354 245.858 173.122C245.474 173.858 245.026 174.466 244.514 174.946C244.034 175.426 243.49 175.666 242.882 175.666C242.114 175.666 241.458 175.314 240.914 174.61C240.402 173.906 239.954 173.026 239.57 171.97C239.186 170.914 238.866 169.778 238.61 168.562C238.354 167.346 238.114 166.21 237.89 165.154C237.698 164.098 237.506 163.218 237.314 162.514C237.154 161.81 236.978 161.458 236.786 161.458C236.594 161.458 236.386 161.81 236.162 162.514C235.97 163.186 235.762 164.034 235.538 165.058C235.314 166.05 235.058 167.154 234.77 168.37C234.514 169.554 234.21 170.658 233.858 171.682C233.538 172.674 233.154 173.522 232.706 174.226C232.258 174.898 231.762 175.234 231.218 175.234ZM251.742 169.618C251.742 168.274 251.998 167.122 252.51 166.162C253.054 165.202 253.71 164.37 254.478 163.666C255.246 162.962 256.094 162.354 257.022 161.842C257.95 161.298 258.798 160.786 259.566 160.306C260.334 159.794 260.974 159.298 261.486 158.818C262.03 158.306 262.302 157.714 262.302 157.042C262.302 156.402 262.078 155.81 261.63 155.266C261.182 154.722 260.638 154.45 259.998 154.45C259.326 154.45 258.782 154.642 258.366 155.026C257.95 155.378 257.582 155.794 257.262 156.274C256.974 156.722 256.686 157.138 256.398 157.522C256.11 157.874 255.758 158.05 255.342 158.05C254.702 158.05 254.142 157.842 253.662 157.426C253.182 157.01 252.942 156.482 252.942 155.842C252.942 155.01 253.182 154.258 253.662 153.586C254.174 152.914 254.814 152.322 255.582 151.81C256.35 151.298 257.182 150.914 258.078 150.658C258.974 150.37 259.806 150.226 260.574 150.226C262.11 150.226 263.31 150.53 264.174 151.138C265.07 151.714 265.742 152.482 266.19 153.442C266.67 154.402 266.974 155.49 267.102 156.706C267.23 157.89 267.294 159.106 267.294 160.354V162.754L267.198 167.41V169.81C267.198 170.386 267.214 171.01 267.246 171.682C267.278 172.354 267.262 172.978 267.198 173.554C267.134 174.098 266.974 174.562 266.718 174.946C266.462 175.33 266.062 175.522 265.518 175.522C264.91 175.522 264.446 175.41 264.126 175.186C263.806 174.962 263.55 174.722 263.358 174.466C263.198 174.178 263.07 173.922 262.974 173.698C262.91 173.474 262.782 173.362 262.59 173.362C262.398 173.362 262.142 173.474 261.822 173.698C261.534 173.922 261.166 174.178 260.718 174.466C260.302 174.754 259.806 175.01 259.23 175.234C258.686 175.458 258.078 175.57 257.406 175.57C256.542 175.57 255.758 175.41 255.054 175.09C254.35 174.738 253.742 174.29 253.23 173.746C252.75 173.202 252.382 172.578 252.126 171.874C251.87 171.138 251.742 170.386 251.742 169.618ZM256.35 168.754C256.35 169.554 256.59 170.146 257.07 170.53C257.582 170.882 258.206 171.058 258.942 171.058C259.678 171.058 260.27 170.914 260.718 170.626C261.198 170.306 261.566 169.89 261.822 169.378C262.11 168.866 262.302 168.306 262.398 167.698C262.526 167.058 262.59 166.434 262.59 165.826C262.59 165.378 262.51 164.978 262.35 164.626C262.19 164.274 261.838 164.098 261.294 164.098C260.814 164.098 260.286 164.242 259.71 164.53C259.134 164.818 258.59 165.202 258.078 165.682C257.598 166.13 257.182 166.626 256.83 167.17C256.51 167.714 256.35 168.242 256.35 168.754ZM281.416 152.866C281.416 153.122 281.384 153.458 281.32 153.874C281.288 154.29 281.096 154.498 280.744 154.498L280.312 154.45C279.416 154.45 278.664 154.658 278.056 155.074C277.448 155.458 276.952 155.97 276.568 156.61C276.184 157.25 275.912 157.97 275.752 158.77C275.592 159.538 275.512 160.306 275.512 161.074V163.33L275.368 168.61V170.914C275.368 171.298 275.368 171.746 275.368 172.258C275.4 172.77 275.368 173.266 275.272 173.746C275.176 174.194 274.984 174.594 274.696 174.946C274.408 175.266 273.976 175.426 273.4 175.426C272.44 175.426 271.736 175.186 271.288 174.706C270.84 174.226 270.616 173.57 270.616 172.738V168.13L270.664 158.626V154.018C270.664 153.666 270.68 153.282 270.712 152.866C270.744 152.45 270.824 152.066 270.952 151.714C271.08 151.362 271.272 151.074 271.528 150.85C271.816 150.626 272.2 150.514 272.68 150.514C273.128 150.514 273.512 150.594 273.832 150.754C274.152 150.914 274.344 151.234 274.408 151.714C274.472 152.162 274.536 152.482 274.6 152.674C274.664 152.834 274.744 152.914 274.84 152.914C274.936 152.914 275.096 152.77 275.32 152.482C275.544 152.194 275.832 151.874 276.184 151.522C276.568 151.17 277 150.85 277.48 150.562C277.992 150.274 278.584 150.13 279.256 150.13C280.024 150.13 280.568 150.418 280.888 150.994C281.24 151.57 281.416 152.194 281.416 152.866ZM300.169 165.874V170.05C300.169 170.594 300.169 171.202 300.169 171.874C300.169 172.514 300.121 173.122 300.025 173.698C299.929 174.274 299.737 174.754 299.449 175.138C299.193 175.522 298.793 175.714 298.249 175.714C297.673 175.714 297.241 175.57 296.953 175.282C296.665 174.994 296.441 174.674 296.281 174.322C296.121 173.938 295.993 173.602 295.897 173.314C295.833 173.026 295.721 172.882 295.561 172.882C295.401 172.882 295.193 173.026 294.937 173.314C294.713 173.602 294.409 173.938 294.025 174.322C293.641 174.674 293.177 174.994 292.633 175.282C292.089 175.57 291.433 175.714 290.665 175.714C287.849 175.714 285.769 174.514 284.425 172.114C283.113 169.714 282.457 166.402 282.457 162.178C282.457 158.37 283.097 155.442 284.377 153.394C285.657 151.314 287.545 150.274 290.041 150.274C290.745 150.274 291.353 150.386 291.865 150.61C292.409 150.802 292.857 151.026 293.209 151.282C293.593 151.538 293.913 151.778 294.169 152.002C294.425 152.194 294.633 152.29 294.793 152.29C295.113 152.29 295.273 151.202 295.273 149.026C295.273 148.514 295.257 148.002 295.225 147.49C295.225 146.946 295.225 146.45 295.225 146.002C295.225 145.522 295.209 145.106 295.177 144.754C295.177 144.402 295.177 144.162 295.177 144.034C295.177 143.618 295.177 143.186 295.177 142.738C295.209 142.29 295.289 141.89 295.417 141.538C295.577 141.186 295.817 140.898 296.137 140.674C296.457 140.418 296.921 140.29 297.529 140.29C298.233 140.29 298.745 140.402 299.065 140.626C299.417 140.818 299.641 141.09 299.737 141.442C299.865 141.794 299.929 142.21 299.929 142.69C299.929 143.138 299.945 143.618 299.977 144.13C300.041 145.762 300.057 147.378 300.025 148.978C300.025 150.578 300.041 152.194 300.073 153.826L300.169 165.874ZM295.273 162.562C295.273 161.922 295.209 161.186 295.081 160.354C294.953 159.49 294.729 158.674 294.409 157.906C294.089 157.138 293.657 156.498 293.113 155.986C292.569 155.442 291.881 155.17 291.049 155.17C290.249 155.17 289.593 155.458 289.081 156.034C288.601 156.578 288.217 157.25 287.929 158.05C287.641 158.818 287.433 159.634 287.305 160.498C287.209 161.33 287.161 162.034 287.161 162.61C287.161 163.122 287.209 163.858 287.305 164.818C287.401 165.746 287.577 166.674 287.833 167.602C288.089 168.498 288.441 169.298 288.889 170.002C289.369 170.674 289.977 171.01 290.713 171.01C291.545 171.01 292.233 170.738 292.777 170.194C293.353 169.618 293.817 168.946 294.169 168.178C294.553 167.378 294.825 166.546 294.985 165.682C295.145 164.786 295.225 164.018 295.225 163.378L295.273 162.562Z" fill="white"/>
<g filter="url(#filter3_d_683_1986)">
<path d="M170.664 62.6767C174.746 50.1128 176.787 43.8308 180.556 43.8308C184.324 43.8308 186.365 50.1128 190.447 62.6767C191.575 66.1471 192.139 67.8823 193.502 68.8728C194.865 69.8634 196.69 69.8634 200.339 69.8634C213.549 69.8634 220.155 69.8634 221.319 73.4472C222.484 77.031 217.14 80.9134 206.452 88.6784C203.5 90.8232 202.024 91.8956 201.503 93.4983C200.983 95.1011 201.546 96.8363 202.674 100.307C206.756 112.871 208.797 119.153 205.749 121.367C202.7 123.582 197.357 119.7 186.669 111.935C183.717 109.79 182.241 108.718 180.556 108.718C178.87 108.718 177.394 109.79 174.442 111.935C163.755 119.7 158.411 123.582 155.362 121.367C152.314 119.153 154.355 112.871 158.437 100.307C159.565 96.8363 160.129 95.1011 159.608 93.4983C159.087 91.8956 157.611 90.8232 154.659 88.6784C143.972 80.9134 138.628 77.031 139.792 73.4472C140.957 69.8634 147.562 69.8634 160.772 69.8634C164.421 69.8634 166.246 69.8634 167.609 68.8728C168.973 67.8823 169.536 66.1471 170.664 62.6767Z" fill="url(#paint9_linear_683_1986)"/>
</g>
<g filter="url(#filter4_d_683_1986)">
<path d="M246.631 84.6467C250.301 77.7444 252.136 74.2933 254.306 74.3094C254.706 74.3123 255.103 74.3823 255.48 74.5162C257.524 75.2432 258.068 79.1139 259.156 86.8552C259.458 89.0048 259.609 90.0797 260.242 90.8547C260.368 91.0094 260.507 91.1532 260.657 91.2847C261.409 91.9438 262.478 92.1322 264.616 92.5092C272.315 93.8667 276.164 94.5454 276.819 96.6141C276.94 96.9953 276.996 97.394 276.985 97.7938C276.925 99.9629 273.412 101.676 266.386 105.103C264.435 106.055 263.459 106.531 262.918 107.372C262.81 107.539 262.716 107.716 262.637 107.899C262.243 108.819 262.394 109.894 262.696 112.043C263.784 119.785 264.328 123.655 262.563 124.918C262.238 125.15 261.876 125.327 261.492 125.44C259.411 126.053 256.696 123.242 251.265 117.618C249.757 116.057 249.003 115.276 248.036 115.021C247.843 114.97 247.646 114.935 247.448 114.917C246.451 114.826 245.476 115.302 243.525 116.253C236.498 119.68 232.985 121.394 231.239 120.105C230.918 119.868 230.638 119.578 230.412 119.248C229.185 117.459 231.02 114.007 234.69 107.105C235.709 105.188 236.219 104.23 236.163 103.231C236.152 103.032 236.124 102.834 236.08 102.639C235.858 101.664 235.104 100.883 233.596 99.3215C228.166 93.6982 225.451 90.8865 226.137 88.8278C226.263 88.4484 226.452 88.0929 226.696 87.776C228.019 86.0561 231.868 86.7349 239.567 88.0923C241.705 88.4693 242.774 88.6578 243.706 88.2958C243.892 88.2236 244.072 88.136 244.243 88.0338C245.103 87.5218 245.612 86.5634 246.631 84.6467Z" fill="url(#paint10_linear_683_1986)"/>
</g>
<g filter="url(#filter5_d_683_1986)">
<path d="M115.055 84.6467C111.385 77.7444 109.55 74.2933 107.38 74.3094C106.98 74.3123 106.584 74.3823 106.207 74.5162C104.162 75.2432 103.618 79.1139 102.53 86.8552C102.228 89.0048 102.077 90.0797 101.445 90.8547C101.319 91.0094 101.18 91.1532 101.03 91.2847C100.277 91.9438 99.2081 92.1322 97.0703 92.5092C89.3717 93.8667 85.5224 94.5454 84.8672 96.6141C84.7465 96.9953 84.6904 97.394 84.7014 97.7938C84.761 99.9629 88.2741 101.676 95.3003 105.103C97.2514 106.055 98.227 106.531 98.7687 107.372C98.8768 107.539 98.9706 107.716 99.0493 107.899C99.4436 108.819 99.2925 109.894 98.9904 112.043C97.9024 119.785 97.3584 123.655 99.1234 124.918C99.4486 125.15 99.8105 125.327 100.194 125.44C102.275 126.053 104.991 123.242 110.421 117.618C111.929 116.057 112.683 115.276 113.65 115.021C113.843 114.97 114.04 114.935 114.239 114.917C115.235 114.826 116.211 115.302 118.162 116.253C125.188 119.68 128.701 121.394 130.447 120.105C130.769 119.868 131.048 119.578 131.275 119.248C132.501 117.459 130.666 114.007 126.996 107.105C125.977 105.188 125.468 104.23 125.524 103.231C125.535 103.032 125.563 102.834 125.607 102.639C125.828 101.664 126.582 100.883 128.09 99.3215C133.521 93.6982 136.236 90.8865 135.55 88.8278C135.423 88.4484 135.234 88.0929 134.991 87.776C133.667 86.0561 129.818 86.7349 122.119 88.0923C119.982 88.4693 118.913 88.6578 117.98 88.2958C117.794 88.2236 117.614 88.136 117.443 88.0338C116.584 87.5218 116.074 86.5634 115.055 84.6467Z" fill="url(#paint11_linear_683_1986)"/>
</g>
<defs>
<filter id="filter0_d_683_1986" x="10.5994" y="136.535" width="78.16" height="91.6776" filterUnits="userSpaceOnUse" color-interpolation-filters="sRGB">
<feFlood flood-opacity="0" result="BackgroundImageFix"/>
<feColorMatrix in="SourceAlpha" type="matrix" values="0 0 0 0 0 0 0 0 0 0 0 0 0 0 0 0 0 0 127 0" result="hardAlpha"/>
<feOffset dy="4"/>
<feComposite in2="hardAlpha" operator="out"/>
<feColorMatrix type="matrix" values="0 0 0 0 0.886275 0 0 0 0 0.419608 0 0 0 0 0.117647 0 0 0 1 0"/>
<feBlend mode="normal" in2="BackgroundImageFix" result="effect1_dropShadow_683_1986"/>
<feBlend mode="normal" in="SourceGraphic" in2="effect1_dropShadow_683_1986" result="shape"/>
</filter>
<filter id="filter1_d_683_1986" x="273.91" y="136.535" width="78.16" height="91.6776" filterUnits="userSpaceOnUse" color-interpolation-filters="sRGB">
<feFlood flood-opacity="0" result="BackgroundImageFix"/>
<feColorMatrix in="SourceAlpha" type="matrix" values="0 0 0 0 0 0 0 0 0 0 0 0 0 0 0 0 0 0 127 0" result="hardAlpha"/>
<feOffset dy="4"/>
<feComposite in2="hardAlpha" operator="out"/>
<feColorMatrix type="matrix" values="0 0 0 0 0.886275 0 0 0 0 0.419608 0 0 0 0 0.117647 0 0 0 1 0"/>
<feBlend mode="normal" in2="BackgroundImageFix" result="effect1_dropShadow_683_1986"/>
<feBlend mode="normal" in="SourceGraphic" in2="effect1_dropShadow_683_1986" result="shape"/>
</filter>
<filter id="filter2_d_683_1986" x="45.917" y="109.234" width="270" height="103.627" filterUnits="userSpaceOnUse" color-interpolation-filters="sRGB">
<feFlood flood-opacity="0" result="BackgroundImageFix"/>
<feColorMatrix in="SourceAlpha" type="matrix" values="0 0 0 0 0 0 0 0 0 0 0 0 0 0 0 0 0 0 127 0" result="hardAlpha"/>
<feOffset dy="4"/>
<feComposite in2="hardAlpha" operator="out"/>
<feColorMatrix type="matrix" values="0 0 0 0 0.886275 0 0 0 0 0.419608 0 0 0 0 0.117647 0 0 0 1 0"/>
<feBlend mode="normal" in2="BackgroundImageFix" result="effect1_dropShadow_683_1986"/>
<feBlend mode="normal" in="SourceGraphic" in2="effect1_dropShadow_683_1986" result="shape"/>
</filter>
<filter id="filter3_d_683_1986" x="139.635" y="43.8308" width="81.841" height="82.1541" filterUnits="userSpaceOnUse" color-interpolation-filters="sRGB">
<feFlood flood-opacity="0" result="BackgroundImageFix"/>
<feColorMatrix in="SourceAlpha" type="matrix" values="0 0 0 0 0 0 0 0 0 0 0 0 0 0 0 0 0 0 127 0" result="hardAlpha"/>
<feOffset dy="4"/>
<feComposite in2="hardAlpha" operator="out"/>
<feColorMatrix type="matrix" values="0 0 0 0 1 0 0 0 0 0.720277 0 0 0 0 0.000989556 0 0 0 1 0"/>
<feBlend mode="normal" in2="BackgroundImageFix" result="effect1_dropShadow_683_1986"/>
<feBlend mode="normal" in="SourceGraphic" in2="effect1_dropShadow_683_1986" result="shape"/>
</filter>
<filter id="filter4_d_683_1986" x="226.032" y="74.3093" width="50.9543" height="55.2133" filterUnits="userSpaceOnUse" color-interpolation-filters="sRGB">
<feFlood flood-opacity="0" result="BackgroundImageFix"/>
<feColorMatrix in="SourceAlpha" type="matrix" values="0 0 0 0 0 0 0 0 0 0 0 0 0 0 0 0 0 0 127 0" result="hardAlpha"/>
<feOffset dy="4"/>
<feComposite in2="hardAlpha" operator="out"/>
<feColorMatrix type="matrix" values="0 0 0 0 1 0 0 0 0 0.720277 0 0 0 0 0.000989556 0 0 0 1 0"/>
<feBlend mode="normal" in2="BackgroundImageFix" result="effect1_dropShadow_683_1986"/>
<feBlend mode="normal" in="SourceGraphic" in2="effect1_dropShadow_683_1986" result="shape"/>
</filter>
<filter id="filter5_d_683_1986" x="84.7001" y="74.3093" width="50.9542" height="55.2133" filterUnits="userSpaceOnUse" color-interpolation-filters="sRGB">
<feFlood flood-opacity="0" result="BackgroundImageFix"/>
<feColorMatrix in="SourceAlpha" type="matrix" values="0 0 0 0 0 0 0 0 0 0 0 0 0 0 0 0 0 0 127 0" result="hardAlpha"/>
<feOffset dy="4"/>
<feComposite in2="hardAlpha" operator="out"/>
<feColorMatrix type="matrix" values="0 0 0 0 1 0 0 0 0 0.720277 0 0 0 0 0.000989556 0 0 0 1 0"/>
<feBlend mode="normal" in2="BackgroundImageFix" result="effect1_dropShadow_683_1986"/>
<feBlend mode="normal" in="SourceGraphic" in2="effect1_dropShadow_683_1986" result="shape"/>
</filter>
<linearGradient id="paint0_linear_683_1986" x1="135.232" y1="5.91726" x2="152.658" y2="149.996" gradientUnits="userSpaceOnUse">
<stop stop-color="#FFEDAD" stop-opacity="0"/>
<stop offset="1" stop-color="#FFEFB8" stop-opacity="0.5"/>
</linearGradient>
<linearGradient id="paint1_linear_683_1986" x1="227.073" y1="4.64012" x2="211.279" y2="148.907" gradientUnits="userSpaceOnUse">
<stop stop-color="#FFEDAD" stop-opacity="0"/>
<stop offset="1" stop-color="#FFEFB8" stop-opacity="0.5"/>
</linearGradient>
<linearGradient id="paint2_linear_683_1986" x1="63.5102" y1="41.3162" x2="99.715" y2="160.507" gradientUnits="userSpaceOnUse">
<stop stop-color="#FFEDAD" stop-opacity="0"/>
<stop offset="1" stop-color="#FFEFB8" stop-opacity="0.5"/>
</linearGradient>
<linearGradient id="paint3_linear_683_1986" x1="299.19" y1="39.2249" x2="264.337" y2="158.818" gradientUnits="userSpaceOnUse">
<stop stop-color="#FFEDAD" stop-opacity="0"/>
<stop offset="1" stop-color="#FFEFB8" stop-opacity="0.5"/>
</linearGradient>
<linearGradient id="paint4_linear_683_1986" x1="19.1333" y1="97.1313" x2="60.1391" y2="176.096" gradientUnits="userSpaceOnUse">
<stop stop-color="#FFEDAD" stop-opacity="0"/>
<stop offset="1" stop-color="#FFEFB8" stop-opacity="0.5"/>
</linearGradient>
<linearGradient id="paint5_linear_683_1986" x1="344.196" y1="94.5341" x2="304.087" y2="173.958" gradientUnits="userSpaceOnUse">
<stop stop-color="#FFEDAD" stop-opacity="0"/>
<stop offset="1" stop-color="#FFEFB8" stop-opacity="0.5"/>
</linearGradient>
<linearGradient id="paint6_linear_683_1986" x1="28.417" y1="95.7334" x2="44.917" y2="181.233" gradientUnits="userSpaceOnUse">
<stop stop-color="#FFCF25"/>
<stop offset="1" stop-color="#FD8C43"/>
</linearGradient>
<linearGradient id="paint7_linear_683_1986" x1="334.252" y1="95.7334" x2="317.752" y2="181.233" gradientUnits="userSpaceOnUse">
<stop stop-color="#FFCF25"/>
<stop offset="1" stop-color="#FD8C43"/>
</linearGradient>
<linearGradient id="paint8_linear_683_1986" x1="180.917" y1="56.2335" x2="180.917" y2="163.234" gradientUnits="userSpaceOnUse">
<stop stop-color="#FFCF25"/>
<stop offset="1" stop-color="#FD8C43"/>
</linearGradient>
<linearGradient id="paint9_linear_683_1986" x1="180.556" y1="47.6822" x2="180.556" y2="109.477" gradientUnits="userSpaceOnUse">
<stop stop-color="#FFF2C2"/>
<stop offset="1" stop-color="#FFCF25"/>
</linearGradient>
<linearGradient id="paint10_linear_683_1986" x1="254.568" y1="76.2581" x2="247.669" y2="115.38" gradientUnits="userSpaceOnUse">
<stop stop-color="#FFF2C2"/>
<stop offset="1" stop-color="#FFCF25"/>
</linearGradient>
<linearGradient id="paint11_linear_683_1986" x1="107.119" y1="76.2581" x2="114.017" y2="115.38" gradientUnits="userSpaceOnUse">
<stop stop-color="#FFF2C2"/>
<stop offset="1" stop-color="#FFCF25"/>
</linearGradient>
</defs>
</svg>
