<svg width="12" height="12" viewBox="0 0 12 12" fill="none" xmlns="http://www.w3.org/2000/svg">
<circle cx="6" cy="6" r="6" fill="url(#paint0_linear_675_317)"/>
<ellipse cx="5.99995" cy="6.00001" rx="4.2" ry="4.2" transform="rotate(-180 5.99995 6.00001)" fill="url(#paint1_linear_675_317)"/>
<path d="M5.52447 4.46353C5.67415 4.00287 6.32585 4.00287 6.47553 4.46353L6.56129 4.72746C6.62822 4.93347 6.8202 5.07295 7.03681 5.07295H7.31433C7.79869 5.07295 8.00008 5.69276 7.60822 5.97746L7.38371 6.14058C7.20846 6.2679 7.13513 6.49358 7.20207 6.69959L7.28783 6.96352C7.4375 7.42418 6.91026 7.80724 6.51841 7.52254L6.29389 7.35942C6.11865 7.2321 5.88135 7.2321 5.70611 7.35942L5.48159 7.52254C5.08974 7.80724 4.5625 7.42418 4.71217 6.96353L4.79793 6.69959C4.86487 6.49358 4.79154 6.2679 4.61629 6.14058L4.39178 5.97746C3.99992 5.69276 4.20131 5.07295 4.68567 5.07295H4.96319C5.1798 5.07295 5.37178 4.93347 5.43871 4.72746L5.52447 4.46353Z" fill="url(#paint2_linear_675_317)"/>
<defs>
<linearGradient id="paint0_linear_675_317" x1="6" y1="0" x2="6" y2="12" gradientUnits="userSpaceOnUse">
<stop stop-color="#FFC700"/>
<stop offset="1" stop-color="#FF9900"/>
</linearGradient>
<linearGradient id="paint1_linear_675_317" x1="8.62495" y1="2.58751" x2="2.58745" y2="8.62501" gradientUnits="userSpaceOnUse">
<stop stop-color="#FFC700"/>
<stop offset="1" stop-color="#FF9900"/>
</linearGradient>
<linearGradient id="paint2_linear_675_317" x1="6" y1="3" x2="6" y2="9" gradientUnits="userSpaceOnUse">
<stop stop-color="#FFE692"/>
<stop offset="1" stop-color="#FFBF55"/>
</linearGradient>
</defs>
</svg>
