<svg width="30" height="30" viewBox="0 0 30 30" fill="none" xmlns="http://www.w3.org/2000/svg">
<path d="M2.30762 28.6723C2.30762 29.4025 2.87661 30 3.57205 30H26.3951C27.1222 30 27.6596 29.4025 27.6596 28.6723V14.5654H2.30762V28.6723Z" fill="#8CC53F"/>
<path d="M28.7659 5.86893H25.1939C25.5416 5.03911 25.6048 4.07652 25.3836 3.18032C25.0358 1.75304 24.0243 0.624487 22.665 0.192983C21.3374 -0.238522 19.8833 0.0602119 18.8085 1.0228L15.0152 4.40845L11.2219 1.0228C10.1471 0.0602119 8.693 -0.238522 7.36534 0.192983C6.03768 0.624487 5.02613 1.75304 4.6468 3.18032C4.42553 4.10972 4.52036 5.03911 4.83647 5.86893H1.26444C0.568996 5.86893 0 6.4664 0 7.19664V10.7151C0 11.4453 0.568996 12.0428 1.26444 12.0428H28.7343C29.4297 12.0428 29.9987 11.4453 29.9987 10.7151V7.22983C30.0304 6.49959 29.4614 5.86893 28.7659 5.86893ZM20.4839 3.04755C20.8948 2.68243 21.4006 2.58285 21.9064 2.74882C22.4121 2.91478 22.7598 3.31309 22.9179 3.84418C23.0443 4.30887 22.9495 4.80676 22.665 5.20508C22.3805 5.60339 21.938 5.80254 21.4954 5.80254H17.4176L20.4839 3.04755ZM7.14406 3.84418C7.27051 3.31309 7.64984 2.91478 8.15561 2.74882C8.31367 2.68243 8.47172 2.68243 8.62978 2.68243C8.9775 2.68243 9.32522 2.8152 9.5781 3.04755L12.676 5.80254H8.59817C8.124 5.80254 7.71306 5.5702 7.42856 5.20508C7.11245 4.83996 7.01762 4.34207 7.14406 3.84418Z" fill="#8CC53F"/>
</svg>
