<svg width="30" height="30" viewBox="0 0 30 30" fill="none" xmlns="http://www.w3.org/2000/svg">
<rect width="30" height="30" fill="#D9D9D9"/>
<g id="D1. Home page" clip-path="url(#clip0_3_28)">
<rect width="375" height="812" transform="translate(-230 -212)" fill="#479C46"/>
<g id="Frame 13345">
<g id="Frame 13372">
<g id="Frame 13371">
<g id="Icon Home Active">
<rect x="-24" y="-16" width="78" height="89" rx="16" fill="#FCE9FC"/>
<g id="fluent:scan-camera-16-filled">
<path id="Vector" d="M8.90625 3.75C7.53873 3.75 6.22722 4.29325 5.26023 5.26023C4.29325 6.22722 3.75 7.53873 3.75 8.90625V10.5262C3.75 10.8992 3.89816 11.2569 4.16188 11.5206C4.4256 11.7843 4.78329 11.9325 5.15625 11.9325C5.52921 11.9325 5.8869 11.7843 6.15062 11.5206C6.41434 11.2569 6.5625 10.8992 6.5625 10.5262V8.90625C6.5625 7.6125 7.6125 6.5625 8.90625 6.5625H10.5262C10.8992 6.5625 11.2569 6.41434 11.5206 6.15062C11.7843 5.8869 11.9325 5.52921 11.9325 5.15625C11.9325 4.78329 11.7843 4.4256 11.5206 4.16188C11.2569 3.89816 10.8992 3.75 10.5262 3.75H8.90625ZM19.4737 3.75C19.2891 3.75 19.1062 3.78637 18.9356 3.85704C18.765 3.92771 18.61 4.0313 18.4794 4.16188C18.3488 4.29246 18.2452 4.44749 18.1745 4.6181C18.1039 4.78872 18.0675 4.97158 18.0675 5.15625C18.0675 5.34092 18.1039 5.52378 18.1745 5.6944C18.2452 5.86501 18.3488 6.02004 18.4794 6.15062C18.61 6.2812 18.765 6.38479 18.9356 6.45546C19.1062 6.52613 19.2891 6.5625 19.4737 6.5625H21.0938C22.3875 6.5625 23.4375 7.6125 23.4375 8.90625V10.5262C23.4375 10.8992 23.5857 11.2569 23.8494 11.5206C24.1131 11.7843 24.4708 11.9325 24.8438 11.9325C25.2167 11.9325 25.5744 11.7843 25.8381 11.5206C26.1018 11.2569 26.25 10.8992 26.25 10.5262V8.90625C26.25 7.53873 25.7068 6.22722 24.7398 5.26023C23.7728 4.29325 22.4613 3.75 21.0938 3.75H19.4737ZM6.5625 19.4737C6.5625 19.2891 6.52613 19.1062 6.45546 18.9356C6.38479 18.765 6.2812 18.61 6.15062 18.4794C6.02004 18.3488 5.86501 18.2452 5.6944 18.1745C5.52378 18.1039 5.34092 18.0675 5.15625 18.0675C4.97158 18.0675 4.78872 18.1039 4.6181 18.1745C4.44749 18.2452 4.29246 18.3488 4.16188 18.4794C4.0313 18.61 3.92771 18.765 3.85704 18.9356C3.78637 19.1062 3.75 19.2891 3.75 19.4737V21.0938C3.75 22.4613 4.29325 23.7728 5.26023 24.7398C6.22722 25.7068 7.53873 26.25 8.90625 26.25H10.5262C10.8992 26.25 11.2569 26.1018 11.5206 25.8381C11.7843 25.5744 11.9325 25.2167 11.9325 24.8438C11.9325 24.4708 11.7843 24.1131 11.5206 23.8494C11.2569 23.5857 10.8992 23.4375 10.5262 23.4375H8.90625C7.6125 23.4375 6.5625 22.3875 6.5625 21.0938V19.4737ZM26.25 19.4737C26.25 19.1008 26.1018 18.7431 25.8381 18.4794C25.5744 18.2157 25.2167 18.0675 24.8438 18.0675C24.4708 18.0675 24.1131 18.2157 23.8494 18.4794C23.5857 18.7431 23.4375 19.1008 23.4375 19.4737V21.0938C23.4375 22.3875 22.3875 23.4375 21.0938 23.4375H19.4737C19.1008 23.4375 18.7431 23.5857 18.4794 23.8494C18.2157 24.1131 18.0675 24.4708 18.0675 24.8438C18.0675 25.2167 18.2157 25.5744 18.4794 25.8381C18.7431 26.1018 19.1008 26.25 19.4737 26.25H21.0938C22.4613 26.25 23.7728 25.7068 24.7398 24.7398C25.7068 23.7728 26.25 22.4613 26.25 21.0938V19.4737ZM8.4375 18.75V13.8469C8.4375 13.3496 8.63504 12.8727 8.98668 12.521C9.33831 12.1694 9.81522 11.9719 10.3125 11.9719H11.7188L12.8062 10.2469C12.9757 9.97921 13.2103 9.75886 13.488 9.6064C13.7657 9.45393 14.0776 9.37432 14.3944 9.375H15.6094C15.9257 9.37515 16.2369 9.45535 16.5139 9.60812C16.791 9.76089 17.0248 9.98128 17.1938 10.2488L18.2831 11.9719H19.6894C20.1867 11.9719 20.6636 12.1694 21.0152 12.521C21.3668 12.8727 21.5644 13.3496 21.5644 13.8469V18.75C21.5644 19.2473 21.3668 19.7242 21.0152 20.0758C20.6636 20.4275 20.1867 20.625 19.6894 20.625H10.3144C9.81709 20.625 9.34018 20.4275 8.98855 20.0758C8.63692 19.7242 8.4375 19.2473 8.4375 18.75ZM15 17.8125C15.4973 17.8125 15.9742 17.615 16.3258 17.2633C16.6775 16.9117 16.875 16.4348 16.875 15.9375C16.875 15.4402 16.6775 14.9633 16.3258 14.6117C15.9742 14.26 15.4973 14.0625 15 14.0625C14.5027 14.0625 14.0258 14.26 13.6742 14.6117C13.3225 14.9633 13.125 15.4402 13.125 15.9375C13.125 16.4348 13.3225 16.9117 13.6742 17.2633C14.0258 17.615 14.5027 17.8125 15 17.8125Z" fill="#EC64F9"/>
</g>
</g>
</g>
</g>
</g>
</g>
<defs>
<clipPath id="clip0_3_28">
<rect width="375" height="812" fill="white" transform="translate(-230 -212)"/>
</clipPath>
</defs>
</svg>
