<svg width="33" height="33" viewBox="0 0 33 33" fill="none" xmlns="http://www.w3.org/2000/svg">
<path d="M30.3311 14.829L20.3311 24.829C20.1912 24.969 20.013 25.0643 19.8189 25.103C19.6248 25.1416 19.4236 25.1218 19.2408 25.0461C19.058 24.9703 18.9017 24.842 18.7919 24.6774C18.682 24.5128 18.6234 24.3194 18.6236 24.1215V19.1502C11.4861 19.5552 6.59233 24.184 5.21858 25.6502C5.00287 25.8806 4.71999 26.037 4.41021 26.0973C4.10042 26.1576 3.77951 26.1187 3.49315 25.986C3.20679 25.8534 2.96956 25.6338 2.81524 25.3585C2.66091 25.0832 2.59734 24.7662 2.63358 24.4527C3.09733 20.4202 5.30608 16.5415 8.85358 13.5315C11.7998 11.0315 15.3811 9.44521 18.6236 9.16771V4.12146C18.6234 3.92357 18.682 3.73007 18.7919 3.56548C18.9017 3.40089 19.058 3.27259 19.2408 3.19684C19.4236 3.12109 19.6248 3.10128 19.8189 3.13993C20.013 3.17858 20.1912 3.27395 20.3311 3.41396L30.3311 13.414C30.4241 13.5068 30.4978 13.6171 30.5481 13.7385C30.5985 13.8599 30.6244 13.99 30.6244 14.1215C30.6244 14.2529 30.5985 14.383 30.5481 14.5044C30.4978 14.6258 30.4241 14.7361 30.3311 14.829Z" fill="#8CC53F"/>
</svg>
