<svg width="16" height="16" viewBox="0 0 16 16" fill="none" xmlns="http://www.w3.org/2000/svg">
<circle cx="7.71935" cy="4.8521" r="3.18535" stroke="white" stroke-width="1.5" stroke-linecap="round" stroke-linejoin="round"/>
<path fill-rule="evenodd" clip-rule="evenodd" d="M2.6667 12.4677C2.66584 12.2438 2.71592 12.0226 2.81315 11.8209C3.11826 11.2106 3.97867 10.8872 4.69263 10.7408C5.20754 10.6309 5.72956 10.5575 6.2548 10.5211C7.22725 10.4357 8.20531 10.4357 9.17776 10.5211C9.70295 10.5579 10.2249 10.6313 10.7399 10.7408C11.4539 10.8872 12.3143 11.1801 12.6194 11.8209C12.8149 12.2321 12.8149 12.7094 12.6194 13.1206C12.3143 13.7614 11.4539 14.0543 10.7399 14.1946C10.2256 14.3091 9.70342 14.3845 9.17776 14.4204C8.38626 14.4875 7.59108 14.4997 6.7979 14.457C6.61483 14.457 6.43786 14.457 6.2548 14.4204C5.73111 14.385 5.2109 14.3095 4.69873 14.1946C3.97867 14.0543 3.12436 13.7614 2.81315 13.1206C2.71642 12.9166 2.66639 12.6935 2.6667 12.4677Z" stroke="white" stroke-width="1.5" stroke-linecap="round" stroke-linejoin="round"/>
</svg>
