<svg width="364" height="228" viewBox="0 0 364 228" fill="none" xmlns="http://www.w3.org/2000/svg">
<path d="M100.695 9.66748L169.768 1.31305L175.329 146.827L131.258 152.157L100.695 9.66748Z" fill="url(#paint0_linear_683_1936)"/>
<path d="M261.654 7.99902L192.491 0.427223L188.578 145.995L232.707 150.826L261.654 7.99902Z" fill="url(#paint1_linear_683_1936)"/>
<path d="M92.0998 32.205L34.9206 49.5735L80.9476 165.78L117.43 154.699L92.0998 32.205Z" fill="url(#paint2_linear_683_1936)"/>
<path d="M270.504 30.4379L327.876 47.1579L283.168 163.879L246.562 153.211L270.504 30.4379Z" fill="url(#paint3_linear_683_1936)"/>
<path d="M38.0742 86.8684L0.192383 106.54L47.7056 182.126L71.8755 169.574L38.0742 86.8684Z" fill="url(#paint4_linear_683_1936)"/>
<path d="M325.145 84.4863L363.247 103.728L316.593 179.847L292.282 167.57L325.145 84.4863Z" fill="url(#paint5_linear_683_1936)"/>
<g filter="url(#filter0_d_683_1936)">
<path d="M21.0899 176.131C13.0227 161.842 8.98913 154.698 11.1988 150.019C13.4084 145.339 20.5724 144.076 34.9004 141.549L56.8939 137.671C66.1788 136.034 70.8212 135.215 74.2142 137.591C77.6073 139.967 78.4259 144.61 80.063 153.894L87.196 194.348C88.8332 203.633 89.6518 208.275 87.276 211.668C84.9001 215.061 80.2577 215.88 70.9728 217.517L49.1841 221.359C34.8376 223.888 27.6644 225.153 23.9914 221.548C20.3184 217.942 21.6043 209.767 24.1762 193.416C24.7818 189.565 24.9564 186.18 24.417 183.806C23.9338 181.68 22.7253 179.028 21.0899 176.131Z" fill="url(#paint6_linear_683_1936)"/>
</g>
<g filter="url(#filter1_d_683_1936)">
<path d="M341.579 176.131C349.646 161.842 353.68 154.698 351.47 150.019C349.261 145.339 342.097 144.076 327.769 141.549L305.775 137.671C296.49 136.034 291.848 135.215 288.455 137.591C285.062 139.967 284.243 144.61 282.606 153.894L275.473 194.348C273.836 203.633 273.017 208.275 275.393 211.668C277.769 215.061 282.411 215.88 291.696 217.517L313.485 221.359C327.831 223.888 335.005 225.153 338.678 221.548C342.351 217.942 341.065 209.767 338.493 193.416C337.887 189.565 337.713 186.18 338.252 183.806C338.735 181.68 339.944 179.028 341.579 176.131Z" fill="url(#paint7_linear_683_1936)"/>
</g>
<g filter="url(#filter2_d_683_1936)">
<path d="M45.917 152.938C45.917 137.51 45.917 129.796 50.8556 124.143C55.7942 118.491 63.0567 117.507 77.5816 115.539C101.377 112.316 137.301 108.807 180.917 108.807C224.533 108.807 260.457 112.316 284.252 115.539C298.777 117.507 306.04 118.491 310.978 124.143C315.917 129.796 315.917 137.51 315.917 152.938V167.191C315.917 187.564 315.917 197.75 309.536 203.683C303.155 209.616 292.923 208.872 272.457 207.382C242.61 205.21 204.301 202.807 180.917 202.807C157.533 202.807 119.224 205.21 89.377 207.382C68.9114 208.872 58.6786 209.616 52.2978 203.683C45.917 197.75 45.917 187.564 45.917 167.191V152.938Z" fill="url(#paint8_linear_683_1936)"/>
</g>
<path d="M69.1016 175.714C67.7896 175.714 66.7816 175.346 66.0776 174.61C65.3736 173.842 64.8456 172.914 64.4936 171.826C64.1736 170.738 63.9816 169.586 63.9176 168.37C63.8856 167.122 63.8696 166.018 63.8696 165.058C63.8696 164.226 63.8536 163.138 63.8216 161.794C63.8216 160.45 63.8216 159.074 63.8216 157.666C63.8216 156.226 63.8216 154.85 63.8216 153.538C63.8216 152.194 63.8376 151.106 63.8696 150.274C63.8696 149.762 63.8856 149.186 63.9176 148.546C63.9816 147.906 64.0936 147.298 64.2536 146.722C64.4136 146.146 64.6536 145.666 64.9736 145.282C65.3256 144.898 65.8056 144.706 66.4136 144.706C67.0856 144.706 67.5976 144.818 67.9496 145.042C68.3016 145.266 68.5416 145.538 68.6696 145.858C68.8296 146.178 68.9096 146.53 68.9096 146.914C68.9416 147.266 68.9576 147.602 68.9576 147.922C68.9576 151.026 68.9256 154.306 68.8616 157.762C68.7976 161.218 68.7656 164.514 68.7656 167.65C68.7656 167.81 68.7656 168.066 68.7656 168.418C68.7656 168.738 68.8456 168.898 69.0056 168.898C69.1656 168.898 69.4536 168.178 69.8696 166.738C70.3176 165.266 70.8936 162.93 71.5976 159.73C71.7256 159.186 71.9176 158.402 72.1736 157.378C72.4296 156.354 72.7656 155.346 73.1816 154.354C73.5976 153.362 74.0936 152.498 74.6696 151.762C75.2776 151.026 75.9656 150.658 76.7336 150.658C77.4056 150.658 78.0136 151.042 78.5576 151.81C79.1336 152.546 79.6456 153.474 80.0936 154.594C80.5736 155.682 81.0056 156.882 81.3896 158.194C81.8056 159.506 82.1736 160.722 82.4936 161.842C82.8456 162.93 83.1656 163.858 83.4536 164.626C83.7736 165.362 84.0616 165.73 84.3176 165.73C84.4136 165.73 84.4776 165.33 84.5096 164.53C84.5736 163.73 84.6216 162.722 84.6536 161.506C84.6856 160.29 84.7016 158.962 84.7016 157.522C84.7336 156.05 84.7496 154.674 84.7496 153.394C84.7816 152.082 84.7976 150.962 84.7976 150.034C84.7976 149.074 84.7976 148.482 84.7976 148.258C84.7976 147.874 84.8136 147.474 84.8456 147.058C84.8776 146.61 84.9576 146.21 85.0856 145.858C85.2136 145.506 85.4216 145.218 85.7096 144.994C85.9976 144.738 86.3816 144.61 86.8616 144.61C87.8536 144.61 88.5576 144.946 88.9736 145.618C89.4216 146.258 89.7096 147.058 89.8376 148.018C89.9656 148.946 89.9976 149.922 89.9336 150.946C89.8696 151.938 89.8376 152.77 89.8376 153.442C89.8376 155.746 89.7896 158.066 89.6936 160.402C89.6296 162.706 89.4536 165.01 89.1656 167.314C89.1016 167.922 88.9896 168.674 88.8296 169.57C88.7016 170.466 88.4776 171.33 88.1576 172.162C87.8696 172.994 87.4536 173.714 86.9096 174.322C86.3976 174.898 85.7096 175.186 84.8456 175.186C84.3016 175.186 83.8536 175.138 83.5016 175.042C83.1496 174.946 82.8456 174.802 82.5896 174.61C82.3336 174.386 82.1096 174.114 81.9176 173.794C81.7256 173.442 81.5176 173.026 81.2936 172.546C81.1016 172.162 80.8936 171.602 80.6696 170.866C80.4456 170.098 80.2056 169.266 79.9496 168.37C79.6936 167.442 79.4216 166.498 79.1336 165.538C78.8456 164.578 78.5416 163.714 78.2216 162.946C77.9336 162.146 77.6296 161.506 77.3096 161.026C76.9896 160.514 76.6696 160.258 76.3496 160.258C76.0616 160.258 75.7896 160.642 75.5336 161.41C75.2776 162.178 75.0056 163.138 74.7176 164.29C74.4616 165.41 74.1576 166.642 73.8056 167.986C73.4856 169.33 73.1016 170.578 72.6536 171.73C72.2056 172.85 71.6936 173.794 71.1176 174.562C70.5416 175.33 69.8696 175.714 69.1016 175.714ZM101.645 176.002C100.077 176.002 98.7329 175.666 97.6129 174.994C96.4929 174.29 95.5809 173.394 94.8769 172.306C94.2049 171.218 93.7089 170.002 93.3889 168.658C93.0689 167.282 92.9089 165.922 92.9089 164.578C92.9089 162.498 93.0849 160.578 93.4369 158.818C93.7889 157.058 94.3169 155.522 95.0209 154.21C95.7249 152.898 96.6209 151.874 97.7089 151.138C98.8289 150.402 100.125 150.034 101.597 150.034C102.813 150.034 103.853 150.354 104.717 150.994C105.613 151.634 106.365 152.45 106.973 153.442C107.581 154.402 108.029 155.458 108.317 156.61C108.605 157.73 108.749 158.786 108.749 159.778C108.749 159.938 108.749 160.162 108.749 160.45C108.749 160.738 108.733 160.962 108.701 161.122C108.669 161.506 108.381 161.842 107.837 162.13C107.293 162.386 106.621 162.626 105.821 162.85C105.053 163.074 104.221 163.314 103.325 163.57C102.429 163.794 101.597 164.082 100.829 164.434C100.061 164.786 99.4209 165.218 98.9089 165.73C98.3969 166.242 98.1409 166.882 98.1409 167.65C98.1409 168.066 98.2369 168.498 98.4289 168.946C98.6209 169.362 98.8609 169.746 99.1489 170.098C99.4689 170.45 99.8369 170.738 100.253 170.962C100.669 171.154 101.117 171.25 101.597 171.25C102.173 171.25 102.621 171.138 102.941 170.914C103.293 170.658 103.581 170.354 103.805 170.002C104.061 169.65 104.269 169.266 104.429 168.85C104.589 168.402 104.749 168.002 104.909 167.65C105.101 167.298 105.325 167.01 105.581 166.786C105.869 166.53 106.237 166.402 106.685 166.402C107.389 166.402 107.917 166.674 108.269 167.218C108.653 167.762 108.845 168.354 108.845 168.994C108.845 169.826 108.637 170.642 108.221 171.442C107.837 172.242 107.405 172.962 106.925 173.602C106.285 174.434 105.501 175.042 104.573 175.426C103.645 175.81 102.669 176.002 101.645 176.002ZM101.597 154.882C101.245 154.882 100.893 154.994 100.541 155.218C100.221 155.442 99.9169 155.73 99.6289 156.082C99.3729 156.402 99.1649 156.77 99.0049 157.186C98.8449 157.602 98.7649 158.002 98.7649 158.386C98.7649 159.026 98.8929 159.426 99.1489 159.586C99.4369 159.746 99.8049 159.826 100.253 159.826C100.541 159.826 100.877 159.794 101.261 159.73C101.677 159.634 102.061 159.506 102.413 159.346C102.797 159.154 103.101 158.93 103.325 158.674C103.581 158.386 103.709 158.05 103.709 157.666C103.709 157.41 103.661 157.122 103.565 156.802C103.501 156.482 103.373 156.178 103.181 155.89C103.021 155.602 102.797 155.362 102.509 155.17C102.253 154.978 101.949 154.882 101.597 154.882ZM120.605 176.002C119.037 176.002 117.693 175.666 116.573 174.994C115.453 174.29 114.541 173.394 113.837 172.306C113.165 171.218 112.669 170.002 112.349 168.658C112.029 167.282 111.869 165.922 111.869 164.578C111.869 162.498 112.045 160.578 112.397 158.818C112.749 157.058 113.277 155.522 113.981 154.21C114.685 152.898 115.581 151.874 116.669 151.138C117.789 150.402 119.085 150.034 120.557 150.034C121.773 150.034 122.813 150.354 123.677 150.994C124.573 151.634 125.325 152.45 125.933 153.442C126.541 154.402 126.989 155.458 127.277 156.61C127.565 157.73 127.709 158.786 127.709 159.778C127.709 159.938 127.709 160.162 127.709 160.45C127.709 160.738 127.693 160.962 127.661 161.122C127.629 161.506 127.341 161.842 126.797 162.13C126.253 162.386 125.581 162.626 124.781 162.85C124.013 163.074 123.181 163.314 122.285 163.57C121.389 163.794 120.557 164.082 119.789 164.434C119.021 164.786 118.381 165.218 117.869 165.73C117.357 166.242 117.101 166.882 117.101 167.65C117.101 168.066 117.197 168.498 117.389 168.946C117.581 169.362 117.821 169.746 118.109 170.098C118.429 170.45 118.797 170.738 119.213 170.962C119.629 171.154 120.077 171.25 120.557 171.25C121.133 171.25 121.581 171.138 121.901 170.914C122.253 170.658 122.541 170.354 122.765 170.002C123.021 169.65 123.229 169.266 123.389 168.85C123.549 168.402 123.709 168.002 123.869 167.65C124.061 167.298 124.285 167.01 124.541 166.786C124.829 166.53 125.197 166.402 125.645 166.402C126.349 166.402 126.877 166.674 127.229 167.218C127.613 167.762 127.805 168.354 127.805 168.994C127.805 169.826 127.597 170.642 127.181 171.442C126.797 172.242 126.365 172.962 125.885 173.602C125.245 174.434 124.461 175.042 123.533 175.426C122.605 175.81 121.629 176.002 120.605 176.002ZM120.557 154.882C120.205 154.882 119.853 154.994 119.501 155.218C119.181 155.442 118.877 155.73 118.589 156.082C118.333 156.402 118.125 156.77 117.965 157.186C117.805 157.602 117.725 158.002 117.725 158.386C117.725 159.026 117.853 159.426 118.109 159.586C118.397 159.746 118.765 159.826 119.213 159.826C119.501 159.826 119.837 159.794 120.221 159.73C120.637 159.634 121.021 159.506 121.373 159.346C121.757 159.154 122.061 158.93 122.285 158.674C122.541 158.386 122.669 158.05 122.669 157.666C122.669 157.41 122.621 157.122 122.525 156.802C122.461 156.482 122.333 156.178 122.141 155.89C121.981 155.602 121.757 155.362 121.469 155.17C121.213 154.978 120.909 154.882 120.557 154.882ZM131.261 155.17C131.261 154.53 131.261 153.762 131.261 152.866C131.261 151.938 131.261 150.994 131.261 150.034C131.293 149.074 131.309 148.13 131.309 147.202C131.341 146.274 131.357 145.506 131.357 144.898C131.357 144.418 131.357 143.922 131.357 143.41C131.357 142.866 131.421 142.37 131.549 141.922C131.677 141.442 131.917 141.058 132.269 140.77C132.621 140.45 133.165 140.29 133.901 140.29C134.573 140.29 135.053 140.434 135.341 140.722C135.661 140.978 135.869 141.314 135.965 141.73C136.093 142.114 136.141 142.546 136.109 143.026C136.109 143.506 136.109 143.954 136.109 144.37V152.626C136.109 154.066 136.157 155.218 136.253 156.082C136.349 156.914 136.557 157.33 136.877 157.33C137.325 157.33 137.853 156.962 138.461 156.226C139.101 155.458 139.757 154.626 140.429 153.73C141.101 152.834 141.757 152.018 142.397 151.282C143.069 150.514 143.661 150.13 144.173 150.13C144.877 150.13 145.453 150.306 145.901 150.658C146.381 150.978 146.621 151.33 146.621 151.714C146.621 152.226 146.333 152.946 145.757 153.874C145.181 154.77 144.541 155.714 143.837 156.706C143.165 157.666 142.541 158.594 141.965 159.49C141.389 160.386 141.101 161.074 141.101 161.554C141.101 161.81 141.261 162.242 141.581 162.85C141.901 163.426 142.285 164.098 142.733 164.866C143.213 165.634 143.725 166.466 144.269 167.362C144.813 168.226 145.309 169.058 145.757 169.858C146.237 170.658 146.637 171.394 146.957 172.066C147.277 172.738 147.437 173.266 147.437 173.65C147.437 174.386 147.229 174.866 146.813 175.09C146.397 175.314 145.997 175.426 145.613 175.426C144.973 175.426 144.349 175.186 143.741 174.706C143.165 174.194 142.605 173.554 142.061 172.786C141.517 172.018 141.005 171.202 140.525 170.338C140.045 169.474 139.581 168.658 139.133 167.89C138.717 167.122 138.333 166.498 137.981 166.018C137.629 165.506 137.309 165.25 137.021 165.25C136.797 165.25 136.621 165.378 136.493 165.634C136.397 165.858 136.317 166.13 136.253 166.45C136.221 166.77 136.205 167.074 136.205 167.362C136.205 167.618 136.205 167.794 136.205 167.89C136.205 168.722 136.221 169.442 136.253 170.05C136.317 170.658 136.349 171.378 136.349 172.21C136.349 172.594 136.333 172.978 136.301 173.362C136.269 173.714 136.173 174.034 136.013 174.322C135.853 174.61 135.613 174.834 135.293 174.994C134.973 175.154 134.509 175.234 133.901 175.234C133.229 175.234 132.733 175.026 132.413 174.61C132.093 174.194 131.869 173.682 131.741 173.074C131.613 172.466 131.533 171.842 131.501 171.202C131.501 170.562 131.501 170.002 131.501 169.522C131.469 168.69 131.437 167.634 131.405 166.354C131.405 165.042 131.389 163.714 131.357 162.37C131.325 160.994 131.293 159.666 131.261 158.386C131.261 157.074 131.261 156.002 131.261 155.17ZM150.271 155.17C150.271 153.378 150.255 151.618 150.223 149.89C150.223 148.13 150.239 146.354 150.271 144.562C150.271 144.05 150.287 143.538 150.319 143.026C150.351 142.514 150.447 142.066 150.607 141.682C150.767 141.266 151.023 140.93 151.375 140.674C151.727 140.418 152.255 140.29 152.959 140.29C153.407 140.29 153.759 140.402 154.015 140.626C154.271 140.85 154.463 141.138 154.591 141.49C154.719 141.81 154.799 142.162 154.831 142.546C154.863 142.93 154.879 143.298 154.879 143.65V149.89L154.831 162.274V168.514C154.831 169.41 154.895 170.018 155.023 170.338C155.151 170.658 155.295 170.914 155.455 171.106C155.647 171.266 155.807 171.458 155.935 171.682C156.063 171.874 156.127 172.29 156.127 172.93C156.127 173.41 156.031 173.922 155.839 174.466C155.647 174.978 155.247 175.234 154.639 175.234C152.975 175.234 151.823 174.786 151.183 173.89C150.575 172.994 150.271 171.794 150.271 170.29V155.17ZM164.918 175.57C163.958 175.57 163.126 175.346 162.422 174.898C161.75 174.45 161.174 173.858 160.694 173.122C160.214 172.386 159.83 171.554 159.542 170.626C159.286 169.698 159.078 168.754 158.918 167.794C158.79 166.834 158.694 165.906 158.63 165.01C158.598 164.114 158.582 163.33 158.582 162.658V160.69L158.486 156.178V154.21C158.486 153.794 158.486 153.378 158.486 152.962C158.486 152.514 158.55 152.114 158.678 151.762C158.806 151.41 159.014 151.122 159.302 150.898C159.622 150.674 160.086 150.562 160.694 150.562C161.398 150.562 161.91 150.706 162.23 150.994C162.582 151.282 162.822 151.65 162.95 152.098C163.11 152.546 163.19 153.042 163.19 153.586C163.19 154.098 163.19 154.594 163.19 155.074C163.19 155.458 163.19 155.922 163.19 156.466C163.222 157.01 163.238 157.57 163.238 158.146C163.27 158.69 163.286 159.234 163.286 159.778C163.286 160.322 163.286 160.786 163.286 161.17C163.286 161.586 163.254 162.146 163.19 162.85C163.158 163.554 163.142 164.322 163.142 165.154C163.142 165.794 163.174 166.434 163.238 167.074C163.302 167.682 163.414 168.242 163.574 168.754C163.766 169.234 164.022 169.634 164.342 169.954C164.694 170.242 165.126 170.386 165.638 170.386C166.534 170.386 167.254 170.066 167.798 169.426C168.374 168.754 168.822 167.97 169.142 167.074C169.462 166.146 169.67 165.202 169.766 164.242C169.894 163.282 169.958 162.482 169.958 161.842C169.958 161.138 169.942 160.386 169.91 159.586C169.91 158.754 169.894 157.954 169.862 157.186C169.862 156.386 169.846 155.666 169.814 155.026C169.814 154.354 169.814 153.81 169.814 153.394C169.814 153.074 169.846 152.754 169.91 152.434C169.974 152.082 170.07 151.778 170.198 151.522C170.358 151.234 170.566 151.01 170.822 150.85C171.11 150.658 171.462 150.562 171.878 150.562C172.614 150.562 173.174 150.674 173.558 150.898C173.942 151.09 174.214 151.362 174.374 151.714C174.534 152.034 174.614 152.418 174.614 152.866C174.614 153.282 174.614 153.73 174.614 154.21C174.614 155.17 174.63 156.402 174.662 157.906C174.694 159.378 174.726 160.898 174.758 162.466C174.79 164.034 174.822 165.538 174.854 166.978C174.886 168.418 174.902 169.586 174.902 170.482C174.902 171.314 174.886 172.354 174.854 173.602C174.854 174.85 174.79 176.162 174.662 177.538C174.566 178.914 174.358 180.274 174.038 181.618C173.75 182.994 173.318 184.226 172.742 185.314C172.198 186.434 171.478 187.33 170.582 188.002C169.718 188.706 168.63 189.058 167.318 189.058C166.262 189.058 165.318 188.834 164.486 188.386C163.654 187.938 162.95 187.346 162.374 186.61C161.798 185.874 161.35 185.026 161.03 184.066C160.742 183.138 160.598 182.178 160.598 181.186C160.598 180.898 160.614 180.578 160.646 180.226C160.678 179.906 160.742 179.602 160.838 179.314C160.966 179.058 161.142 178.834 161.366 178.642C161.59 178.45 161.894 178.354 162.278 178.354C162.726 178.354 163.19 178.45 163.67 178.642C164.15 178.834 164.39 179.25 164.39 179.89C164.39 180.274 164.406 180.738 164.438 181.282C164.502 181.858 164.63 182.402 164.822 182.914C165.014 183.458 165.286 183.906 165.638 184.258C166.022 184.642 166.55 184.834 167.222 184.834C167.99 184.834 168.582 184.37 168.998 183.442C169.446 182.546 169.766 181.49 169.958 180.274C170.182 179.058 170.31 177.858 170.342 176.674C170.406 175.49 170.438 174.626 170.438 174.082C170.438 173.858 170.406 173.586 170.342 173.266C170.31 172.946 170.134 172.786 169.814 172.786C169.558 172.786 169.318 172.93 169.094 173.218C168.87 173.506 168.582 173.826 168.23 174.178C167.91 174.53 167.478 174.85 166.934 175.138C166.422 175.426 165.75 175.57 164.918 175.57ZM193.23 163.666C193.23 162.034 193.23 160.418 193.23 158.818C193.262 157.218 193.278 155.602 193.278 153.97C193.278 153.234 193.278 152.322 193.278 151.234C193.31 150.114 193.422 149.042 193.614 148.018C193.838 146.962 194.206 146.066 194.718 145.33C195.262 144.594 196.062 144.226 197.118 144.226C197.662 144.226 198.27 144.226 198.942 144.226C199.646 144.194 200.366 144.178 201.102 144.178C204.014 144.178 206.35 144.994 208.11 146.626C209.87 148.258 210.75 150.562 210.75 153.538C210.75 155.138 210.462 156.562 209.886 157.81C209.342 159.026 208.734 160.082 208.062 160.978C207.422 161.842 206.814 162.562 206.238 163.138C205.694 163.714 205.422 164.146 205.422 164.434C205.422 164.626 205.566 164.946 205.854 165.394C206.142 165.842 206.494 166.37 206.91 166.978C207.326 167.554 207.774 168.178 208.254 168.85C208.766 169.522 209.23 170.178 209.646 170.818C210.062 171.426 210.414 172.002 210.702 172.546C210.99 173.09 211.134 173.538 211.134 173.89C211.134 174.306 210.894 174.658 210.414 174.946C209.966 175.202 209.454 175.33 208.878 175.33C208.302 175.33 207.742 175.106 207.198 174.658C206.654 174.21 206.126 173.65 205.614 172.978C205.134 172.306 204.654 171.586 204.174 170.818C203.726 170.05 203.294 169.33 202.878 168.658C202.494 167.986 202.126 167.426 201.774 166.978C201.422 166.53 201.118 166.306 200.862 166.306H199.182C199.022 166.306 198.894 166.45 198.798 166.738C198.734 166.994 198.67 167.362 198.606 167.842C198.574 168.29 198.542 168.834 198.51 169.474C198.51 170.082 198.51 170.738 198.51 171.442C198.51 171.986 198.494 172.498 198.462 172.978C198.43 173.426 198.334 173.826 198.174 174.178C198.014 174.498 197.742 174.754 197.358 174.946C197.006 175.138 196.51 175.234 195.87 175.234C195.134 175.234 194.574 175.042 194.19 174.658C193.838 174.274 193.582 173.794 193.422 173.218C193.294 172.642 193.23 172.034 193.23 171.394C193.23 170.722 193.23 170.13 193.23 169.618V163.666ZM201.102 148.546C200.878 148.546 200.654 148.562 200.43 148.594C200.238 148.594 200.03 148.61 199.806 148.642C199.422 148.674 199.134 148.85 198.942 149.17C198.75 149.49 198.606 149.874 198.51 150.322C198.446 150.738 198.414 151.17 198.414 151.618C198.446 152.034 198.462 152.386 198.462 152.674V154.594L198.414 158.386V160.306C198.414 160.69 198.542 161.01 198.798 161.266C199.054 161.522 199.374 161.65 199.758 161.65C200.558 161.65 201.326 161.346 202.062 160.738C202.798 160.098 203.454 159.33 204.03 158.434C204.606 157.538 205.07 156.594 205.422 155.602C205.774 154.61 205.95 153.762 205.95 153.058C205.95 151.554 205.502 150.434 204.606 149.698C203.71 148.93 202.542 148.546 201.102 148.546ZM222.271 176.002C220.703 176.002 219.359 175.666 218.239 174.994C217.119 174.29 216.207 173.394 215.503 172.306C214.831 171.218 214.335 170.002 214.015 168.658C213.695 167.282 213.535 165.922 213.535 164.578C213.535 162.498 213.711 160.578 214.063 158.818C214.415 157.058 214.943 155.522 215.647 154.21C216.351 152.898 217.247 151.874 218.335 151.138C219.455 150.402 220.751 150.034 222.223 150.034C223.439 150.034 224.479 150.354 225.343 150.994C226.239 151.634 226.991 152.45 227.599 153.442C228.207 154.402 228.655 155.458 228.943 156.61C229.231 157.73 229.375 158.786 229.375 159.778C229.375 159.938 229.375 160.162 229.375 160.45C229.375 160.738 229.359 160.962 229.327 161.122C229.295 161.506 229.007 161.842 228.463 162.13C227.919 162.386 227.247 162.626 226.447 162.85C225.679 163.074 224.847 163.314 223.951 163.57C223.055 163.794 222.223 164.082 221.455 164.434C220.687 164.786 220.047 165.218 219.535 165.73C219.023 166.242 218.767 166.882 218.767 167.65C218.767 168.066 218.863 168.498 219.055 168.946C219.247 169.362 219.487 169.746 219.775 170.098C220.095 170.45 220.463 170.738 220.879 170.962C221.295 171.154 221.743 171.25 222.223 171.25C222.799 171.25 223.247 171.138 223.567 170.914C223.919 170.658 224.207 170.354 224.431 170.002C224.687 169.65 224.895 169.266 225.055 168.85C225.215 168.402 225.375 168.002 225.535 167.65C225.727 167.298 225.951 167.01 226.207 166.786C226.495 166.53 226.863 166.402 227.311 166.402C228.015 166.402 228.543 166.674 228.895 167.218C229.279 167.762 229.471 168.354 229.471 168.994C229.471 169.826 229.263 170.642 228.847 171.442C228.463 172.242 228.031 172.962 227.551 173.602C226.911 174.434 226.127 175.042 225.199 175.426C224.271 175.81 223.295 176.002 222.271 176.002ZM222.223 154.882C221.871 154.882 221.519 154.994 221.167 155.218C220.847 155.442 220.543 155.73 220.255 156.082C219.999 156.402 219.791 156.77 219.631 157.186C219.471 157.602 219.391 158.002 219.391 158.386C219.391 159.026 219.519 159.426 219.775 159.586C220.063 159.746 220.431 159.826 220.879 159.826C221.167 159.826 221.503 159.794 221.887 159.73C222.303 159.634 222.687 159.506 223.039 159.346C223.423 159.154 223.727 158.93 223.951 158.674C224.207 158.386 224.335 158.05 224.335 157.666C224.335 157.41 224.287 157.122 224.191 156.802C224.127 156.482 223.999 156.178 223.807 155.89C223.647 155.602 223.423 155.362 223.135 155.17C222.879 154.978 222.575 154.882 222.223 154.882ZM238.704 175.234C238 175.234 237.344 174.77 236.736 173.842C236.128 172.914 235.568 171.73 235.056 170.29C234.544 168.85 234.08 167.266 233.664 165.538C233.248 163.778 232.896 162.066 232.608 160.402C232.32 158.738 232.096 157.218 231.936 155.842C231.808 154.466 231.744 153.442 231.744 152.77C231.744 152.322 231.856 151.842 232.08 151.33C232.336 150.818 232.752 150.562 233.328 150.562C233.744 150.562 234.176 150.642 234.624 150.802C235.104 150.93 235.44 151.346 235.632 152.05C235.824 152.69 236 153.49 236.16 154.45C236.352 155.378 236.528 156.37 236.688 157.426C236.88 158.45 237.056 159.49 237.216 160.546C237.408 161.602 237.6 162.546 237.792 163.378C238.016 164.21 238.224 164.882 238.416 165.394C238.64 165.906 238.864 166.162 239.088 166.162C239.216 166.162 239.344 166.002 239.472 165.682C239.632 165.33 239.776 164.914 239.904 164.434C240.032 163.922 240.16 163.378 240.288 162.802C240.416 162.194 240.528 161.634 240.624 161.122C240.72 160.578 240.784 160.114 240.816 159.73C240.88 159.314 240.928 159.058 240.96 158.962C241.024 158.514 241.12 157.842 241.248 156.946C241.376 156.018 241.568 155.106 241.824 154.21C242.08 153.282 242.416 152.482 242.832 151.81C243.28 151.138 243.84 150.802 244.512 150.802C245.184 150.802 245.76 151.202 246.24 152.002C246.72 152.802 247.136 153.794 247.488 154.978C247.84 156.162 248.144 157.458 248.4 158.866C248.688 160.274 248.944 161.57 249.168 162.754C249.392 163.938 249.616 164.93 249.84 165.73C250.064 166.53 250.32 166.93 250.608 166.93C250.928 166.93 251.232 166.434 251.52 165.442C251.84 164.45 252.16 163.234 252.48 161.794C252.8 160.322 253.104 158.77 253.392 157.138C253.712 155.506 254.032 154.05 254.352 152.77C254.544 152.002 254.864 151.442 255.312 151.09C255.792 150.738 256.224 150.562 256.608 150.562C256.928 150.562 257.184 150.642 257.376 150.802C257.568 150.962 257.712 151.17 257.808 151.426C257.936 151.65 258.016 151.906 258.048 152.194C258.08 152.482 258.096 152.738 258.096 152.962C258.096 153.794 258.032 154.674 257.904 155.602C257.808 156.498 257.664 157.426 257.472 158.386C257.28 159.314 257.072 160.226 256.848 161.122C256.624 162.018 256.416 162.85 256.224 163.618C256.128 164.034 255.984 164.626 255.792 165.394C255.632 166.13 255.44 166.946 255.216 167.842C254.992 168.738 254.72 169.65 254.4 170.578C254.112 171.506 253.76 172.354 253.344 173.122C252.96 173.858 252.512 174.466 252 174.946C251.52 175.426 250.976 175.666 250.368 175.666C249.6 175.666 248.944 175.314 248.4 174.61C247.888 173.906 247.44 173.026 247.056 171.97C246.672 170.914 246.352 169.778 246.096 168.562C245.84 167.346 245.6 166.21 245.376 165.154C245.184 164.098 244.992 163.218 244.8 162.514C244.64 161.81 244.464 161.458 244.272 161.458C244.08 161.458 243.872 161.81 243.648 162.514C243.456 163.186 243.248 164.034 243.024 165.058C242.8 166.05 242.544 167.154 242.256 168.37C242 169.554 241.696 170.658 241.344 171.682C241.024 172.674 240.64 173.522 240.192 174.226C239.744 174.898 239.248 175.234 238.704 175.234ZM259.227 169.618C259.227 168.274 259.483 167.122 259.995 166.162C260.539 165.202 261.195 164.37 261.963 163.666C262.731 162.962 263.579 162.354 264.507 161.842C265.435 161.298 266.283 160.786 267.051 160.306C267.819 159.794 268.459 159.298 268.971 158.818C269.515 158.306 269.787 157.714 269.787 157.042C269.787 156.402 269.563 155.81 269.115 155.266C268.667 154.722 268.123 154.45 267.483 154.45C266.811 154.45 266.267 154.642 265.851 155.026C265.435 155.378 265.067 155.794 264.747 156.274C264.459 156.722 264.171 157.138 263.883 157.522C263.595 157.874 263.243 158.05 262.827 158.05C262.187 158.05 261.627 157.842 261.147 157.426C260.667 157.01 260.427 156.482 260.427 155.842C260.427 155.01 260.667 154.258 261.147 153.586C261.659 152.914 262.299 152.322 263.067 151.81C263.835 151.298 264.667 150.914 265.563 150.658C266.459 150.37 267.291 150.226 268.059 150.226C269.595 150.226 270.795 150.53 271.659 151.138C272.555 151.714 273.227 152.482 273.675 153.442C274.155 154.402 274.459 155.49 274.587 156.706C274.715 157.89 274.779 159.106 274.779 160.354V162.754L274.683 167.41V169.81C274.683 170.386 274.699 171.01 274.731 171.682C274.763 172.354 274.747 172.978 274.683 173.554C274.619 174.098 274.459 174.562 274.203 174.946C273.947 175.33 273.547 175.522 273.003 175.522C272.395 175.522 271.931 175.41 271.611 175.186C271.291 174.962 271.035 174.722 270.843 174.466C270.683 174.178 270.555 173.922 270.459 173.698C270.395 173.474 270.267 173.362 270.075 173.362C269.883 173.362 269.627 173.474 269.307 173.698C269.019 173.922 268.651 174.178 268.203 174.466C267.787 174.754 267.291 175.01 266.715 175.234C266.171 175.458 265.563 175.57 264.891 175.57C264.027 175.57 263.243 175.41 262.539 175.09C261.835 174.738 261.227 174.29 260.715 173.746C260.235 173.202 259.867 172.578 259.611 171.874C259.355 171.138 259.227 170.386 259.227 169.618ZM263.835 168.754C263.835 169.554 264.075 170.146 264.555 170.53C265.067 170.882 265.691 171.058 266.427 171.058C267.163 171.058 267.755 170.914 268.203 170.626C268.683 170.306 269.051 169.89 269.307 169.378C269.595 168.866 269.787 168.306 269.883 167.698C270.011 167.058 270.075 166.434 270.075 165.826C270.075 165.378 269.995 164.978 269.835 164.626C269.675 164.274 269.323 164.098 268.779 164.098C268.299 164.098 267.771 164.242 267.195 164.53C266.619 164.818 266.075 165.202 265.563 165.682C265.083 166.13 264.667 166.626 264.315 167.17C263.995 167.714 263.835 168.242 263.835 168.754ZM288.901 152.866C288.901 153.122 288.869 153.458 288.805 153.874C288.773 154.29 288.581 154.498 288.229 154.498L287.797 154.45C286.901 154.45 286.149 154.658 285.541 155.074C284.933 155.458 284.437 155.97 284.053 156.61C283.669 157.25 283.397 157.97 283.237 158.77C283.077 159.538 282.997 160.306 282.997 161.074V163.33L282.853 168.61V170.914C282.853 171.298 282.853 171.746 282.853 172.258C282.885 172.77 282.853 173.266 282.757 173.746C282.661 174.194 282.469 174.594 282.181 174.946C281.893 175.266 281.461 175.426 280.885 175.426C279.925 175.426 279.221 175.186 278.773 174.706C278.325 174.226 278.101 173.57 278.101 172.738V168.13L278.149 158.626V154.018C278.149 153.666 278.165 153.282 278.197 152.866C278.229 152.45 278.309 152.066 278.437 151.714C278.565 151.362 278.757 151.074 279.013 150.85C279.301 150.626 279.685 150.514 280.165 150.514C280.613 150.514 280.997 150.594 281.317 150.754C281.637 150.914 281.829 151.234 281.893 151.714C281.957 152.162 282.021 152.482 282.085 152.674C282.149 152.834 282.229 152.914 282.325 152.914C282.421 152.914 282.581 152.77 282.805 152.482C283.029 152.194 283.317 151.874 283.669 151.522C284.053 151.17 284.485 150.85 284.965 150.562C285.477 150.274 286.069 150.13 286.741 150.13C287.509 150.13 288.053 150.418 288.373 150.994C288.725 151.57 288.901 152.194 288.901 152.866ZM307.655 165.874V170.05C307.655 170.594 307.655 171.202 307.655 171.874C307.655 172.514 307.607 173.122 307.511 173.698C307.415 174.274 307.223 174.754 306.935 175.138C306.679 175.522 306.279 175.714 305.735 175.714C305.159 175.714 304.727 175.57 304.439 175.282C304.151 174.994 303.927 174.674 303.767 174.322C303.607 173.938 303.479 173.602 303.383 173.314C303.319 173.026 303.207 172.882 303.047 172.882C302.887 172.882 302.679 173.026 302.423 173.314C302.199 173.602 301.895 173.938 301.511 174.322C301.127 174.674 300.663 174.994 300.119 175.282C299.575 175.57 298.919 175.714 298.151 175.714C295.335 175.714 293.255 174.514 291.911 172.114C290.599 169.714 289.943 166.402 289.943 162.178C289.943 158.37 290.583 155.442 291.863 153.394C293.143 151.314 295.031 150.274 297.527 150.274C298.231 150.274 298.839 150.386 299.351 150.61C299.895 150.802 300.343 151.026 300.695 151.282C301.079 151.538 301.399 151.778 301.655 152.002C301.911 152.194 302.119 152.29 302.279 152.29C302.599 152.29 302.759 151.202 302.759 149.026C302.759 148.514 302.743 148.002 302.711 147.49C302.711 146.946 302.711 146.45 302.711 146.002C302.711 145.522 302.695 145.106 302.663 144.754C302.663 144.402 302.663 144.162 302.663 144.034C302.663 143.618 302.663 143.186 302.663 142.738C302.695 142.29 302.775 141.89 302.903 141.538C303.063 141.186 303.303 140.898 303.623 140.674C303.943 140.418 304.407 140.29 305.015 140.29C305.719 140.29 306.231 140.402 306.551 140.626C306.903 140.818 307.127 141.09 307.223 141.442C307.351 141.794 307.415 142.21 307.415 142.69C307.415 143.138 307.431 143.618 307.463 144.13C307.527 145.762 307.543 147.378 307.511 148.978C307.511 150.578 307.527 152.194 307.559 153.826L307.655 165.874ZM302.759 162.562C302.759 161.922 302.695 161.186 302.567 160.354C302.439 159.49 302.215 158.674 301.895 157.906C301.575 157.138 301.143 156.498 300.599 155.986C300.055 155.442 299.367 155.17 298.535 155.17C297.735 155.17 297.079 155.458 296.567 156.034C296.087 156.578 295.703 157.25 295.415 158.05C295.127 158.818 294.919 159.634 294.791 160.498C294.695 161.33 294.647 162.034 294.647 162.61C294.647 163.122 294.695 163.858 294.791 164.818C294.887 165.746 295.063 166.674 295.319 167.602C295.575 168.498 295.927 169.298 296.375 170.002C296.855 170.674 297.463 171.01 298.199 171.01C299.031 171.01 299.719 170.738 300.263 170.194C300.839 169.618 301.303 168.946 301.655 168.178C302.039 167.378 302.311 166.546 302.471 165.682C302.631 164.786 302.711 164.018 302.711 163.378L302.759 162.562Z" fill="white"/>
<g filter="url(#filter3_d_683_1936)">
<path d="M170.664 62.2497C174.746 49.6858 176.787 43.4038 180.556 43.4038C184.324 43.4038 186.365 49.6858 190.447 62.2497C191.575 65.7201 192.139 67.4553 193.502 68.4458C194.865 69.4364 196.69 69.4364 200.339 69.4364C213.549 69.4364 220.155 69.4364 221.319 73.0202C222.484 76.604 217.14 80.4864 206.452 88.2514C203.5 90.3962 202.024 91.4686 201.503 93.0713C200.983 94.6741 201.546 96.4093 202.674 99.8797C206.756 112.444 208.797 118.726 205.749 120.94C202.7 123.155 197.357 119.273 186.669 111.508C183.717 109.363 182.241 108.291 180.556 108.291C178.87 108.291 177.394 109.363 174.442 111.508C163.755 119.273 158.411 123.155 155.362 120.94C152.314 118.726 154.355 112.444 158.437 99.8797C159.565 96.4093 160.129 94.6741 159.608 93.0713C159.087 91.4686 157.611 90.3962 154.659 88.2514C143.972 80.4864 138.628 76.604 139.792 73.0202C140.957 69.4364 147.562 69.4364 160.772 69.4364C164.421 69.4364 166.246 69.4364 167.609 68.4458C168.973 67.4553 169.536 65.7201 170.664 62.2497Z" fill="url(#paint9_linear_683_1936)"/>
</g>
<g filter="url(#filter4_d_683_1936)">
<path d="M246.631 84.2197C250.301 77.3174 252.136 73.8663 254.306 73.8824C254.706 73.8853 255.103 73.9553 255.48 74.0892C257.524 74.8162 258.068 78.6869 259.156 86.4282C259.458 88.5778 259.609 89.6527 260.242 90.4277C260.368 90.5824 260.507 90.7262 260.657 90.8577C261.409 91.5168 262.478 91.7052 264.616 92.0822C272.315 93.4397 276.164 94.1184 276.819 96.1871C276.94 96.5683 276.996 96.967 276.985 97.3668C276.925 99.5359 273.412 101.249 266.386 104.676C264.435 105.628 263.459 106.104 262.918 106.945C262.81 107.112 262.716 107.289 262.637 107.472C262.243 108.392 262.394 109.467 262.696 111.616C263.784 119.358 264.328 123.228 262.563 124.491C262.238 124.723 261.876 124.9 261.492 125.013C259.411 125.626 256.696 122.815 251.265 117.191C249.757 115.63 249.003 114.849 248.036 114.594C247.843 114.543 247.646 114.508 247.448 114.49C246.451 114.399 245.476 114.875 243.525 115.826C236.498 119.253 232.985 120.967 231.239 119.678C230.918 119.441 230.638 119.151 230.412 118.821C229.185 117.032 231.02 113.58 234.69 106.678C235.709 104.761 236.219 103.803 236.163 102.804C236.152 102.605 236.124 102.407 236.08 102.212C235.858 101.237 235.104 100.456 233.596 98.8945C228.166 93.2712 225.451 90.4595 226.137 88.4008C226.263 88.0214 226.452 87.6659 226.696 87.349C228.019 85.6291 231.868 86.3079 239.567 87.6653C241.705 88.0423 242.774 88.2308 243.706 87.8688C243.892 87.7966 244.072 87.709 244.243 87.6068C245.103 87.0948 245.612 86.1364 246.631 84.2197Z" fill="url(#paint10_linear_683_1936)"/>
</g>
<g filter="url(#filter5_d_683_1936)">
<path d="M115.055 84.2197C111.385 77.3174 109.55 73.8663 107.38 73.8824C106.98 73.8853 106.584 73.9553 106.207 74.0892C104.162 74.8162 103.618 78.6869 102.53 86.4282C102.228 88.5778 102.077 89.6527 101.445 90.4277C101.319 90.5824 101.18 90.7262 101.03 90.8577C100.277 91.5168 99.2081 91.7052 97.0703 92.0822C89.3717 93.4397 85.5224 94.1184 84.8672 96.1871C84.7465 96.5683 84.6904 96.967 84.7014 97.3668C84.761 99.5359 88.2741 101.249 95.3003 104.676C97.2514 105.628 98.227 106.104 98.7687 106.945C98.8768 107.112 98.9706 107.289 99.0493 107.472C99.4436 108.392 99.2925 109.467 98.9904 111.616C97.9024 119.358 97.3584 123.228 99.1234 124.491C99.4486 124.723 99.8105 124.9 100.194 125.013C102.275 125.626 104.991 122.815 110.421 117.191C111.929 115.63 112.683 114.849 113.65 114.594C113.843 114.543 114.04 114.508 114.239 114.49C115.235 114.399 116.211 114.875 118.162 115.826C125.188 119.253 128.701 120.967 130.447 119.678C130.769 119.441 131.048 119.151 131.275 118.821C132.501 117.032 130.666 113.58 126.996 106.678C125.977 104.761 125.468 103.803 125.524 102.804C125.535 102.605 125.563 102.407 125.607 102.212C125.828 101.237 126.582 100.456 128.09 98.8945C133.521 93.2712 136.236 90.4595 135.55 88.4008C135.423 88.0214 135.234 87.6659 134.991 87.349C133.667 85.6291 129.818 86.3079 122.119 87.6653C119.982 88.0423 118.913 88.2308 117.98 87.8688C117.794 87.7966 117.614 87.709 117.443 87.6068C116.584 87.0948 116.074 86.1364 115.055 84.2197Z" fill="url(#paint11_linear_683_1936)"/>
</g>
<defs>
<filter id="filter0_d_683_1936" x="10.5994" y="136.108" width="78.16" height="91.6776" filterUnits="userSpaceOnUse" color-interpolation-filters="sRGB">
<feFlood flood-opacity="0" result="BackgroundImageFix"/>
<feColorMatrix in="SourceAlpha" type="matrix" values="0 0 0 0 0 0 0 0 0 0 0 0 0 0 0 0 0 0 127 0" result="hardAlpha"/>
<feOffset dy="4"/>
<feComposite in2="hardAlpha" operator="out"/>
<feColorMatrix type="matrix" values="0 0 0 0 0.886275 0 0 0 0 0.419608 0 0 0 0 0.117647 0 0 0 1 0"/>
<feBlend mode="normal" in2="BackgroundImageFix" result="effect1_dropShadow_683_1936"/>
<feBlend mode="normal" in="SourceGraphic" in2="effect1_dropShadow_683_1936" result="shape"/>
</filter>
<filter id="filter1_d_683_1936" x="273.91" y="136.108" width="78.16" height="91.6776" filterUnits="userSpaceOnUse" color-interpolation-filters="sRGB">
<feFlood flood-opacity="0" result="BackgroundImageFix"/>
<feColorMatrix in="SourceAlpha" type="matrix" values="0 0 0 0 0 0 0 0 0 0 0 0 0 0 0 0 0 0 127 0" result="hardAlpha"/>
<feOffset dy="4"/>
<feComposite in2="hardAlpha" operator="out"/>
<feColorMatrix type="matrix" values="0 0 0 0 0.886275 0 0 0 0 0.419608 0 0 0 0 0.117647 0 0 0 1 0"/>
<feBlend mode="normal" in2="BackgroundImageFix" result="effect1_dropShadow_683_1936"/>
<feBlend mode="normal" in="SourceGraphic" in2="effect1_dropShadow_683_1936" result="shape"/>
</filter>
<filter id="filter2_d_683_1936" x="45.917" y="108.807" width="270" height="103.627" filterUnits="userSpaceOnUse" color-interpolation-filters="sRGB">
<feFlood flood-opacity="0" result="BackgroundImageFix"/>
<feColorMatrix in="SourceAlpha" type="matrix" values="0 0 0 0 0 0 0 0 0 0 0 0 0 0 0 0 0 0 127 0" result="hardAlpha"/>
<feOffset dy="4"/>
<feComposite in2="hardAlpha" operator="out"/>
<feColorMatrix type="matrix" values="0 0 0 0 0.886275 0 0 0 0 0.419608 0 0 0 0 0.117647 0 0 0 1 0"/>
<feBlend mode="normal" in2="BackgroundImageFix" result="effect1_dropShadow_683_1936"/>
<feBlend mode="normal" in="SourceGraphic" in2="effect1_dropShadow_683_1936" result="shape"/>
</filter>
<filter id="filter3_d_683_1936" x="139.635" y="43.4038" width="81.841" height="82.1541" filterUnits="userSpaceOnUse" color-interpolation-filters="sRGB">
<feFlood flood-opacity="0" result="BackgroundImageFix"/>
<feColorMatrix in="SourceAlpha" type="matrix" values="0 0 0 0 0 0 0 0 0 0 0 0 0 0 0 0 0 0 127 0" result="hardAlpha"/>
<feOffset dy="4"/>
<feComposite in2="hardAlpha" operator="out"/>
<feColorMatrix type="matrix" values="0 0 0 0 1 0 0 0 0 0.720277 0 0 0 0 0.000989556 0 0 0 1 0"/>
<feBlend mode="normal" in2="BackgroundImageFix" result="effect1_dropShadow_683_1936"/>
<feBlend mode="normal" in="SourceGraphic" in2="effect1_dropShadow_683_1936" result="shape"/>
</filter>
<filter id="filter4_d_683_1936" x="226.032" y="73.8823" width="50.9543" height="55.2133" filterUnits="userSpaceOnUse" color-interpolation-filters="sRGB">
<feFlood flood-opacity="0" result="BackgroundImageFix"/>
<feColorMatrix in="SourceAlpha" type="matrix" values="0 0 0 0 0 0 0 0 0 0 0 0 0 0 0 0 0 0 127 0" result="hardAlpha"/>
<feOffset dy="4"/>
<feComposite in2="hardAlpha" operator="out"/>
<feColorMatrix type="matrix" values="0 0 0 0 1 0 0 0 0 0.720277 0 0 0 0 0.000989556 0 0 0 1 0"/>
<feBlend mode="normal" in2="BackgroundImageFix" result="effect1_dropShadow_683_1936"/>
<feBlend mode="normal" in="SourceGraphic" in2="effect1_dropShadow_683_1936" result="shape"/>
</filter>
<filter id="filter5_d_683_1936" x="84.7001" y="73.8823" width="50.9542" height="55.2133" filterUnits="userSpaceOnUse" color-interpolation-filters="sRGB">
<feFlood flood-opacity="0" result="BackgroundImageFix"/>
<feColorMatrix in="SourceAlpha" type="matrix" values="0 0 0 0 0 0 0 0 0 0 0 0 0 0 0 0 0 0 127 0" result="hardAlpha"/>
<feOffset dy="4"/>
<feComposite in2="hardAlpha" operator="out"/>
<feColorMatrix type="matrix" values="0 0 0 0 1 0 0 0 0 0.720277 0 0 0 0 0.000989556 0 0 0 1 0"/>
<feBlend mode="normal" in2="BackgroundImageFix" result="effect1_dropShadow_683_1936"/>
<feBlend mode="normal" in="SourceGraphic" in2="effect1_dropShadow_683_1936" result="shape"/>
</filter>
<linearGradient id="paint0_linear_683_1936" x1="135.232" y1="5.49026" x2="152.658" y2="149.569" gradientUnits="userSpaceOnUse">
<stop stop-color="#FFEDAD" stop-opacity="0"/>
<stop offset="1" stop-color="#FFEFB8" stop-opacity="0.5"/>
</linearGradient>
<linearGradient id="paint1_linear_683_1936" x1="227.073" y1="4.21312" x2="211.279" y2="148.48" gradientUnits="userSpaceOnUse">
<stop stop-color="#FFEDAD" stop-opacity="0"/>
<stop offset="1" stop-color="#FFEFB8" stop-opacity="0.5"/>
</linearGradient>
<linearGradient id="paint2_linear_683_1936" x1="63.5102" y1="40.8892" x2="99.715" y2="160.08" gradientUnits="userSpaceOnUse">
<stop stop-color="#FFEDAD" stop-opacity="0"/>
<stop offset="1" stop-color="#FFEFB8" stop-opacity="0.5"/>
</linearGradient>
<linearGradient id="paint3_linear_683_1936" x1="299.19" y1="38.7979" x2="264.337" y2="158.391" gradientUnits="userSpaceOnUse">
<stop stop-color="#FFEDAD" stop-opacity="0"/>
<stop offset="1" stop-color="#FFEFB8" stop-opacity="0.5"/>
</linearGradient>
<linearGradient id="paint4_linear_683_1936" x1="19.1333" y1="96.7043" x2="60.1391" y2="175.669" gradientUnits="userSpaceOnUse">
<stop stop-color="#FFEDAD" stop-opacity="0"/>
<stop offset="1" stop-color="#FFEFB8" stop-opacity="0.5"/>
</linearGradient>
<linearGradient id="paint5_linear_683_1936" x1="344.196" y1="94.1071" x2="304.087" y2="173.531" gradientUnits="userSpaceOnUse">
<stop stop-color="#FFEDAD" stop-opacity="0"/>
<stop offset="1" stop-color="#FFEFB8" stop-opacity="0.5"/>
</linearGradient>
<linearGradient id="paint6_linear_683_1936" x1="28.417" y1="95.3064" x2="44.917" y2="180.806" gradientUnits="userSpaceOnUse">
<stop stop-color="#FFCF25"/>
<stop offset="1" stop-color="#FD8C43"/>
</linearGradient>
<linearGradient id="paint7_linear_683_1936" x1="334.252" y1="95.3064" x2="317.752" y2="180.806" gradientUnits="userSpaceOnUse">
<stop stop-color="#FFCF25"/>
<stop offset="1" stop-color="#FD8C43"/>
</linearGradient>
<linearGradient id="paint8_linear_683_1936" x1="180.917" y1="55.8065" x2="180.917" y2="162.807" gradientUnits="userSpaceOnUse">
<stop stop-color="#FFCF25"/>
<stop offset="1" stop-color="#FD8C43"/>
</linearGradient>
<linearGradient id="paint9_linear_683_1936" x1="180.556" y1="47.2552" x2="180.556" y2="109.05" gradientUnits="userSpaceOnUse">
<stop stop-color="#FFF2C2"/>
<stop offset="1" stop-color="#FFCF25"/>
</linearGradient>
<linearGradient id="paint10_linear_683_1936" x1="254.568" y1="75.8311" x2="247.669" y2="114.953" gradientUnits="userSpaceOnUse">
<stop stop-color="#FFF2C2"/>
<stop offset="1" stop-color="#FFCF25"/>
</linearGradient>
<linearGradient id="paint11_linear_683_1936" x1="107.119" y1="75.8311" x2="114.017" y2="114.953" gradientUnits="userSpaceOnUse">
<stop stop-color="#FFF2C2"/>
<stop offset="1" stop-color="#FFCF25"/>
</linearGradient>
</defs>
</svg>
